<?xml version="1.0" encoding="utf-8"?>
<svg xmlns="http://www.w3.org/2000/svg" xmlns:xlink="http://www.w3.org/1999/xlink" width="500" height="250" viewBox="0 0 2000 1000">
<defs>
  <clipPath id="clip300">
    <rect x="0" y="0" width="2000" height="1000"/>
  </clipPath>
</defs>
<path clip-path="url(#clip300)" d="M0 1000 L2000 1000 L2000 0 L0 0  Z" fill="#ffffff" fill-rule="evenodd" fill-opacity="1"/>
<defs>
  <clipPath id="clip301">
    <rect x="400" y="0" width="1401" height="1000"/>
  </clipPath>
</defs>
<path clip-path="url(#clip300)" d="M182.274 849.7 L933.844 849.7 L933.844 47.2441 L182.274 47.2441  Z" fill="#ffffff" fill-rule="evenodd" fill-opacity="1"/>
<defs>
  <clipPath id="clip302">
    <rect x="182" y="47" width="753" height="803"/>
  </clipPath>
</defs>
<polyline clip-path="url(#clip302)" style="stroke:#000000; stroke-linecap:round; stroke-linejoin:round; stroke-width:2; stroke-opacity:0.1; fill:none" points="203.545,849.7 203.545,47.2441 "/>
<polyline clip-path="url(#clip302)" style="stroke:#000000; stroke-linecap:round; stroke-linejoin:round; stroke-width:2; stroke-opacity:0.1; fill:none" points="382.592,849.7 382.592,47.2441 "/>
<polyline clip-path="url(#clip302)" style="stroke:#000000; stroke-linecap:round; stroke-linejoin:round; stroke-width:2; stroke-opacity:0.1; fill:none" points="561.64,849.7 561.64,47.2441 "/>
<polyline clip-path="url(#clip302)" style="stroke:#000000; stroke-linecap:round; stroke-linejoin:round; stroke-width:2; stroke-opacity:0.1; fill:none" points="740.687,849.7 740.687,47.2441 "/>
<polyline clip-path="url(#clip302)" style="stroke:#000000; stroke-linecap:round; stroke-linejoin:round; stroke-width:2; stroke-opacity:0.1; fill:none" points="919.735,849.7 919.735,47.2441 "/>
<polyline clip-path="url(#clip302)" style="stroke:#000000; stroke-linecap:round; stroke-linejoin:round; stroke-width:2; stroke-opacity:0.1; fill:none" points="182.274,826.989 933.844,826.989 "/>
<polyline clip-path="url(#clip302)" style="stroke:#000000; stroke-linecap:round; stroke-linejoin:round; stroke-width:2; stroke-opacity:0.1; fill:none" points="182.274,637.73 933.844,637.73 "/>
<polyline clip-path="url(#clip302)" style="stroke:#000000; stroke-linecap:round; stroke-linejoin:round; stroke-width:2; stroke-opacity:0.1; fill:none" points="182.274,448.472 933.844,448.472 "/>
<polyline clip-path="url(#clip302)" style="stroke:#000000; stroke-linecap:round; stroke-linejoin:round; stroke-width:2; stroke-opacity:0.1; fill:none" points="182.274,259.214 933.844,259.214 "/>
<polyline clip-path="url(#clip302)" style="stroke:#000000; stroke-linecap:round; stroke-linejoin:round; stroke-width:2; stroke-opacity:0.1; fill:none" points="182.274,69.9551 933.844,69.9551 "/>
<polyline clip-path="url(#clip300)" style="stroke:#000000; stroke-linecap:round; stroke-linejoin:round; stroke-width:4; stroke-opacity:1; fill:none" points="182.274,849.7 933.844,849.7 "/>
<polyline clip-path="url(#clip300)" style="stroke:#000000; stroke-linecap:round; stroke-linejoin:round; stroke-width:4; stroke-opacity:1; fill:none" points="203.545,849.7 203.545,830.802 "/>
<polyline clip-path="url(#clip300)" style="stroke:#000000; stroke-linecap:round; stroke-linejoin:round; stroke-width:4; stroke-opacity:1; fill:none" points="382.592,849.7 382.592,830.802 "/>
<polyline clip-path="url(#clip300)" style="stroke:#000000; stroke-linecap:round; stroke-linejoin:round; stroke-width:4; stroke-opacity:1; fill:none" points="561.64,849.7 561.64,830.802 "/>
<polyline clip-path="url(#clip300)" style="stroke:#000000; stroke-linecap:round; stroke-linejoin:round; stroke-width:4; stroke-opacity:1; fill:none" points="740.687,849.7 740.687,830.802 "/>
<polyline clip-path="url(#clip300)" style="stroke:#000000; stroke-linecap:round; stroke-linejoin:round; stroke-width:4; stroke-opacity:1; fill:none" points="919.735,849.7 919.735,830.802 "/>
<path clip-path="url(#clip300)" d="M180.929 877.419 Q177.318 877.419 175.489 880.983 Q173.684 884.525 173.684 891.655 Q173.684 898.761 175.489 902.326 Q177.318 905.867 180.929 905.867 Q184.563 905.867 186.369 902.326 Q188.198 898.761 188.198 891.655 Q188.198 884.525 186.369 880.983 Q184.563 877.419 180.929 877.419 M180.929 873.715 Q186.739 873.715 189.795 878.321 Q192.874 882.905 192.874 891.655 Q192.874 900.381 189.795 904.988 Q186.739 909.571 180.929 909.571 Q175.119 909.571 172.04 904.988 Q168.985 900.381 168.985 891.655 Q168.985 882.905 172.04 878.321 Q175.119 873.715 180.929 873.715 Z" fill="#000000" fill-rule="nonzero" fill-opacity="1" /><path clip-path="url(#clip300)" d="M201.091 903.02 L205.975 903.02 L205.975 908.9 L201.091 908.9 L201.091 903.02 Z" fill="#000000" fill-rule="nonzero" fill-opacity="1" /><path clip-path="url(#clip300)" d="M226.16 877.419 Q222.549 877.419 220.721 880.983 Q218.915 884.525 218.915 891.655 Q218.915 898.761 220.721 902.326 Q222.549 905.867 226.16 905.867 Q229.795 905.867 231.6 902.326 Q233.429 898.761 233.429 891.655 Q233.429 884.525 231.6 880.983 Q229.795 877.419 226.16 877.419 M226.16 873.715 Q231.971 873.715 235.026 878.321 Q238.105 882.905 238.105 891.655 Q238.105 900.381 235.026 904.988 Q231.971 909.571 226.16 909.571 Q220.35 909.571 217.272 904.988 Q214.216 900.381 214.216 891.655 Q214.216 882.905 217.272 878.321 Q220.35 873.715 226.16 873.715 Z" fill="#000000" fill-rule="nonzero" fill-opacity="1" /><path clip-path="url(#clip300)" d="M354.329 904.965 L370.648 904.965 L370.648 908.9 L348.704 908.9 L348.704 904.965 Q351.366 902.21 355.949 897.58 Q360.555 892.928 361.736 891.585 Q363.981 889.062 364.861 887.326 Q365.764 885.567 365.764 883.877 Q365.764 881.122 363.819 879.386 Q361.898 877.65 358.796 877.65 Q356.597 877.65 354.143 878.414 Q351.713 879.178 348.935 880.729 L348.935 876.007 Q351.759 874.872 354.213 874.294 Q356.667 873.715 358.704 873.715 Q364.074 873.715 367.268 876.4 Q370.463 879.085 370.463 883.576 Q370.463 885.706 369.653 887.627 Q368.866 889.525 366.759 892.118 Q366.18 892.789 363.079 896.006 Q359.977 899.201 354.329 904.965 Z" fill="#000000" fill-rule="nonzero" fill-opacity="1" /><path clip-path="url(#clip300)" d="M380.463 903.02 L385.347 903.02 L385.347 908.9 L380.463 908.9 L380.463 903.02 Z" fill="#000000" fill-rule="nonzero" fill-opacity="1" /><path clip-path="url(#clip300)" d="M395.578 874.34 L413.935 874.34 L413.935 878.275 L399.861 878.275 L399.861 886.747 Q400.879 886.4 401.898 886.238 Q402.916 886.053 403.935 886.053 Q409.722 886.053 413.101 889.224 Q416.481 892.395 416.481 897.812 Q416.481 903.391 413.009 906.492 Q409.537 909.571 403.217 909.571 Q401.041 909.571 398.773 909.201 Q396.528 908.83 394.12 908.09 L394.12 903.391 Q396.203 904.525 398.426 905.08 Q400.648 905.636 403.125 905.636 Q407.129 905.636 409.467 903.53 Q411.805 901.423 411.805 897.812 Q411.805 894.201 409.467 892.094 Q407.129 889.988 403.125 889.988 Q401.25 889.988 399.375 890.405 Q397.523 890.821 395.578 891.701 L395.578 874.34 Z" fill="#000000" fill-rule="nonzero" fill-opacity="1" /><path clip-path="url(#clip300)" d="M528.804 874.34 L547.161 874.34 L547.161 878.275 L533.087 878.275 L533.087 886.747 Q534.105 886.4 535.124 886.238 Q536.142 886.053 537.161 886.053 Q542.948 886.053 546.328 889.224 Q549.707 892.395 549.707 897.812 Q549.707 903.391 546.235 906.492 Q542.763 909.571 536.443 909.571 Q534.267 909.571 531.999 909.201 Q529.754 908.83 527.346 908.09 L527.346 903.391 Q529.429 904.525 531.652 905.08 Q533.874 905.636 536.351 905.636 Q540.355 905.636 542.693 903.53 Q545.031 901.423 545.031 897.812 Q545.031 894.201 542.693 892.094 Q540.355 889.988 536.351 889.988 Q534.476 889.988 532.601 890.405 Q530.749 890.821 528.804 891.701 L528.804 874.34 Z" fill="#000000" fill-rule="nonzero" fill-opacity="1" /><path clip-path="url(#clip300)" d="M558.92 903.02 L563.804 903.02 L563.804 908.9 L558.92 908.9 L558.92 903.02 Z" fill="#000000" fill-rule="nonzero" fill-opacity="1" /><path clip-path="url(#clip300)" d="M583.989 877.419 Q580.378 877.419 578.55 880.983 Q576.744 884.525 576.744 891.655 Q576.744 898.761 578.55 902.326 Q580.378 905.867 583.989 905.867 Q587.624 905.867 589.429 902.326 Q591.258 898.761 591.258 891.655 Q591.258 884.525 589.429 880.983 Q587.624 877.419 583.989 877.419 M583.989 873.715 Q589.8 873.715 592.855 878.321 Q595.934 882.905 595.934 891.655 Q595.934 900.381 592.855 904.988 Q589.8 909.571 583.989 909.571 Q578.179 909.571 575.101 904.988 Q572.045 900.381 572.045 891.655 Q572.045 882.905 575.101 878.321 Q578.179 873.715 583.989 873.715 Z" fill="#000000" fill-rule="nonzero" fill-opacity="1" /><path clip-path="url(#clip300)" d="M707.007 874.34 L729.229 874.34 L729.229 876.331 L716.683 908.9 L711.799 908.9 L723.604 878.275 L707.007 878.275 L707.007 874.34 Z" fill="#000000" fill-rule="nonzero" fill-opacity="1" /><path clip-path="url(#clip300)" d="M738.35 903.02 L743.234 903.02 L743.234 908.9 L738.35 908.9 L738.35 903.02 Z" fill="#000000" fill-rule="nonzero" fill-opacity="1" /><path clip-path="url(#clip300)" d="M753.465 874.34 L771.822 874.34 L771.822 878.275 L757.748 878.275 L757.748 886.747 Q758.766 886.4 759.785 886.238 Q760.803 886.053 761.822 886.053 Q767.609 886.053 770.988 889.224 Q774.368 892.395 774.368 897.812 Q774.368 903.391 770.896 906.492 Q767.423 909.571 761.104 909.571 Q758.928 909.571 756.66 909.201 Q754.414 908.83 752.007 908.09 L752.007 903.391 Q754.09 904.525 756.312 905.08 Q758.535 905.636 761.011 905.636 Q765.016 905.636 767.354 903.53 Q769.692 901.423 769.692 897.812 Q769.692 894.201 767.354 892.094 Q765.016 889.988 761.011 889.988 Q759.136 889.988 757.261 890.405 Q755.41 890.821 753.465 891.701 L753.465 874.34 Z" fill="#000000" fill-rule="nonzero" fill-opacity="1" /><path clip-path="url(#clip300)" d="M871.807 904.965 L879.446 904.965 L879.446 878.599 L871.136 880.266 L871.136 876.007 L879.4 874.34 L884.075 874.34 L884.075 904.965 L891.714 904.965 L891.714 908.9 L871.807 908.9 L871.807 904.965 Z" fill="#000000" fill-rule="nonzero" fill-opacity="1" /><path clip-path="url(#clip300)" d="M911.159 877.419 Q907.548 877.419 905.719 880.983 Q903.913 884.525 903.913 891.655 Q903.913 898.761 905.719 902.326 Q907.548 905.867 911.159 905.867 Q914.793 905.867 916.598 902.326 Q918.427 898.761 918.427 891.655 Q918.427 884.525 916.598 880.983 Q914.793 877.419 911.159 877.419 M911.159 873.715 Q916.969 873.715 920.024 878.321 Q923.103 882.905 923.103 891.655 Q923.103 900.381 920.024 904.988 Q916.969 909.571 911.159 909.571 Q905.349 909.571 902.27 904.988 Q899.214 900.381 899.214 891.655 Q899.214 882.905 902.27 878.321 Q905.349 873.715 911.159 873.715 Z" fill="#000000" fill-rule="nonzero" fill-opacity="1" /><path clip-path="url(#clip300)" d="M931.321 903.02 L936.205 903.02 L936.205 908.9 L931.321 908.9 L931.321 903.02 Z" fill="#000000" fill-rule="nonzero" fill-opacity="1" /><path clip-path="url(#clip300)" d="M956.39 877.419 Q952.779 877.419 950.95 880.983 Q949.145 884.525 949.145 891.655 Q949.145 898.761 950.95 902.326 Q952.779 905.867 956.39 905.867 Q960.024 905.867 961.83 902.326 Q963.658 898.761 963.658 891.655 Q963.658 884.525 961.83 880.983 Q960.024 877.419 956.39 877.419 M956.39 873.715 Q962.2 873.715 965.256 878.321 Q968.334 882.905 968.334 891.655 Q968.334 900.381 965.256 904.988 Q962.2 909.571 956.39 909.571 Q950.58 909.571 947.501 904.988 Q944.446 900.381 944.446 891.655 Q944.446 882.905 947.501 878.321 Q950.58 873.715 956.39 873.715 Z" fill="#000000" fill-rule="nonzero" fill-opacity="1" /><path clip-path="url(#clip300)" d="M428.23 941.044 L468.43 941.044 L468.43 946.455 L451.561 946.455 L451.561 988.564 L445.1 988.564 L445.1 946.455 L428.23 946.455 L428.23 941.044 Z" fill="#000000" fill-rule="nonzero" fill-opacity="1" /><path clip-path="url(#clip300)" d="M472.377 952.916 L478.233 952.916 L478.233 988.564 L472.377 988.564 L472.377 952.916 M472.377 939.039 L478.233 939.039 L478.233 946.455 L472.377 946.455 L472.377 939.039 Z" fill="#000000" fill-rule="nonzero" fill-opacity="1" /><path clip-path="url(#clip300)" d="M518.241 959.759 Q520.438 955.812 523.493 953.934 Q526.549 952.057 530.686 952.057 Q536.256 952.057 539.28 955.971 Q542.304 959.855 542.304 967.048 L542.304 988.564 L536.416 988.564 L536.416 967.239 Q536.416 962.114 534.601 959.632 Q532.787 957.149 529.063 957.149 Q524.512 957.149 521.87 960.173 Q519.228 963.197 519.228 968.416 L519.228 988.564 L513.34 988.564 L513.34 967.239 Q513.34 962.083 511.526 959.632 Q509.711 957.149 505.924 957.149 Q501.436 957.149 498.794 960.205 Q496.152 963.228 496.152 968.416 L496.152 988.564 L490.264 988.564 L490.264 952.916 L496.152 952.916 L496.152 958.454 Q498.158 955.176 500.959 953.616 Q503.76 952.057 507.611 952.057 Q511.494 952.057 514.199 954.03 Q516.937 956.003 518.241 959.759 Z" fill="#000000" fill-rule="nonzero" fill-opacity="1" /><path clip-path="url(#clip300)" d="M584.477 969.276 L584.477 972.14 L557.55 972.14 Q557.932 978.188 561.178 981.371 Q564.457 984.522 570.281 984.522 Q573.655 984.522 576.806 983.694 Q579.989 982.867 583.108 981.211 L583.108 986.75 Q579.957 988.086 576.647 988.787 Q573.337 989.487 569.931 989.487 Q561.401 989.487 556.404 984.522 Q551.439 979.556 551.439 971.09 Q551.439 962.337 556.149 957.213 Q560.892 952.057 568.913 952.057 Q576.106 952.057 580.275 956.703 Q584.477 961.319 584.477 969.276 M578.62 967.557 Q578.557 962.751 575.915 959.886 Q573.305 957.022 568.976 957.022 Q564.075 957.022 561.115 959.791 Q558.186 962.56 557.741 967.589 L578.62 967.557 Z" fill="#000000" fill-rule="nonzero" fill-opacity="1" /><path clip-path="url(#clip300)" d="M614.268 939.039 L627.763 939.039 L627.763 943.59 L620.125 943.59 L620.125 992.606 L627.763 992.606 L627.763 997.158 L614.268 997.158 L614.268 939.039 Z" fill="#000000" fill-rule="nonzero" fill-opacity="1" /><path clip-path="url(#clip300)" d="M662.966 953.966 L662.966 959.504 Q660.483 958.231 657.81 957.595 Q655.136 956.958 652.271 956.958 Q647.911 956.958 645.715 958.295 Q643.55 959.632 643.55 962.305 Q643.55 964.342 645.11 965.52 Q646.67 966.666 651.38 967.716 L653.385 968.162 Q659.624 969.499 662.234 971.949 Q664.876 974.368 664.876 978.729 Q664.876 983.694 660.929 986.59 Q657.014 989.487 650.139 989.487 Q647.274 989.487 644.155 988.914 Q641.068 988.373 637.63 987.259 L637.63 981.211 Q640.877 982.898 644.028 983.758 Q647.179 984.585 650.266 984.585 Q654.404 984.585 656.632 983.185 Q658.86 981.753 658.86 979.174 Q658.86 976.787 657.237 975.514 Q655.645 974.241 650.203 973.063 L648.166 972.586 Q642.723 971.44 640.304 969.085 Q637.885 966.698 637.885 962.56 Q637.885 957.531 641.45 954.794 Q645.015 952.057 651.571 952.057 Q654.818 952.057 657.682 952.534 Q660.547 953.011 662.966 953.966 Z" fill="#000000" fill-rule="nonzero" fill-opacity="1" /><path clip-path="url(#clip300)" d="M687.888 939.039 L687.888 997.158 L674.392 997.158 L674.392 992.606 L681.999 992.606 L681.999 943.59 L674.392 943.59 L674.392 939.039 L687.888 939.039 Z" fill="#000000" fill-rule="nonzero" fill-opacity="1" /><polyline clip-path="url(#clip300)" style="stroke:#000000; stroke-linecap:round; stroke-linejoin:round; stroke-width:4; stroke-opacity:1; fill:none" points="182.274,849.7 182.274,47.2441 "/>
<polyline clip-path="url(#clip300)" style="stroke:#000000; stroke-linecap:round; stroke-linejoin:round; stroke-width:4; stroke-opacity:1; fill:none" points="182.274,826.989 201.172,826.989 "/>
<polyline clip-path="url(#clip300)" style="stroke:#000000; stroke-linecap:round; stroke-linejoin:round; stroke-width:4; stroke-opacity:1; fill:none" points="182.274,637.73 201.172,637.73 "/>
<polyline clip-path="url(#clip300)" style="stroke:#000000; stroke-linecap:round; stroke-linejoin:round; stroke-width:4; stroke-opacity:1; fill:none" points="182.274,448.472 201.172,448.472 "/>
<polyline clip-path="url(#clip300)" style="stroke:#000000; stroke-linecap:round; stroke-linejoin:round; stroke-width:4; stroke-opacity:1; fill:none" points="182.274,259.214 201.172,259.214 "/>
<polyline clip-path="url(#clip300)" style="stroke:#000000; stroke-linecap:round; stroke-linejoin:round; stroke-width:4; stroke-opacity:1; fill:none" points="182.274,69.9551 201.172,69.9551 "/>
<path clip-path="url(#clip300)" d="M64.9365 812.788 Q61.3254 812.788 59.4967 816.352 Q57.6912 819.894 57.6912 827.024 Q57.6912 834.13 59.4967 837.695 Q61.3254 841.236 64.9365 841.236 Q68.5707 841.236 70.3763 837.695 Q72.205 834.13 72.205 827.024 Q72.205 819.894 70.3763 816.352 Q68.5707 812.788 64.9365 812.788 M64.9365 809.084 Q70.7467 809.084 73.8022 813.69 Q76.8809 818.274 76.8809 827.024 Q76.8809 835.75 73.8022 840.357 Q70.7467 844.94 64.9365 844.94 Q59.1264 844.94 56.0477 840.357 Q52.9921 835.75 52.9921 827.024 Q52.9921 818.274 56.0477 813.69 Q59.1264 809.084 64.9365 809.084 Z" fill="#000000" fill-rule="nonzero" fill-opacity="1" /><path clip-path="url(#clip300)" d="M85.0984 838.389 L89.9827 838.389 L89.9827 844.269 L85.0984 844.269 L85.0984 838.389 Z" fill="#000000" fill-rule="nonzero" fill-opacity="1" /><path clip-path="url(#clip300)" d="M110.168 812.788 Q106.557 812.788 104.728 816.352 Q102.922 819.894 102.922 827.024 Q102.922 834.13 104.728 837.695 Q106.557 841.236 110.168 841.236 Q113.802 841.236 115.608 837.695 Q117.436 834.13 117.436 827.024 Q117.436 819.894 115.608 816.352 Q113.802 812.788 110.168 812.788 M110.168 809.084 Q115.978 809.084 119.033 813.69 Q122.112 818.274 122.112 827.024 Q122.112 835.75 119.033 840.357 Q115.978 844.94 110.168 844.94 Q104.358 844.94 101.279 840.357 Q98.2234 835.75 98.2234 827.024 Q98.2234 818.274 101.279 813.69 Q104.358 809.084 110.168 809.084 Z" fill="#000000" fill-rule="nonzero" fill-opacity="1" /><path clip-path="url(#clip300)" d="M140.33 812.788 Q136.719 812.788 134.89 816.352 Q133.084 819.894 133.084 827.024 Q133.084 834.13 134.89 837.695 Q136.719 841.236 140.33 841.236 Q143.964 841.236 145.769 837.695 Q147.598 834.13 147.598 827.024 Q147.598 819.894 145.769 816.352 Q143.964 812.788 140.33 812.788 M140.33 809.084 Q146.14 809.084 149.195 813.69 Q152.274 818.274 152.274 827.024 Q152.274 835.75 149.195 840.357 Q146.14 844.94 140.33 844.94 Q134.519 844.94 131.441 840.357 Q128.385 835.75 128.385 827.024 Q128.385 818.274 131.441 813.69 Q134.519 809.084 140.33 809.084 Z" fill="#000000" fill-rule="nonzero" fill-opacity="1" /><path clip-path="url(#clip300)" d="M65.9319 623.529 Q62.3208 623.529 60.4921 627.094 Q58.6865 630.636 58.6865 637.765 Q58.6865 644.872 60.4921 648.436 Q62.3208 651.978 65.9319 651.978 Q69.5661 651.978 71.3717 648.436 Q73.2004 644.872 73.2004 637.765 Q73.2004 630.636 71.3717 627.094 Q69.5661 623.529 65.9319 623.529 M65.9319 619.825 Q71.742 619.825 74.7976 624.432 Q77.8763 629.015 77.8763 637.765 Q77.8763 646.492 74.7976 651.098 Q71.742 655.682 65.9319 655.682 Q60.1217 655.682 57.043 651.098 Q53.9875 646.492 53.9875 637.765 Q53.9875 629.015 57.043 624.432 Q60.1217 619.825 65.9319 619.825 Z" fill="#000000" fill-rule="nonzero" fill-opacity="1" /><path clip-path="url(#clip300)" d="M86.0938 649.131 L90.978 649.131 L90.978 655.01 L86.0938 655.01 L86.0938 649.131 Z" fill="#000000" fill-rule="nonzero" fill-opacity="1" /><path clip-path="url(#clip300)" d="M105.191 651.075 L121.51 651.075 L121.51 655.01 L99.566 655.01 L99.566 651.075 Q102.228 648.321 106.811 643.691 Q111.418 639.038 112.598 637.696 Q114.844 635.173 115.723 633.436 Q116.626 631.677 116.626 629.987 Q116.626 627.233 114.682 625.497 Q112.76 623.761 109.658 623.761 Q107.459 623.761 105.006 624.524 Q102.575 625.288 99.7974 626.839 L99.7974 622.117 Q102.621 620.983 105.075 620.404 Q107.529 619.825 109.566 619.825 Q114.936 619.825 118.131 622.511 Q121.325 625.196 121.325 629.686 Q121.325 631.816 120.515 633.737 Q119.728 635.636 117.621 638.228 Q117.043 638.899 113.941 642.117 Q110.839 645.311 105.191 651.075 Z" fill="#000000" fill-rule="nonzero" fill-opacity="1" /><path clip-path="url(#clip300)" d="M131.371 620.45 L149.728 620.45 L149.728 624.386 L135.654 624.386 L135.654 632.858 Q136.672 632.511 137.691 632.348 Q138.709 632.163 139.728 632.163 Q145.515 632.163 148.894 635.335 Q152.274 638.506 152.274 643.922 Q152.274 649.501 148.802 652.603 Q145.33 655.682 139.01 655.682 Q136.834 655.682 134.566 655.311 Q132.32 654.941 129.913 654.2 L129.913 649.501 Q131.996 650.635 134.219 651.191 Q136.441 651.747 138.918 651.747 Q142.922 651.747 145.26 649.64 Q147.598 647.534 147.598 643.922 Q147.598 640.311 145.26 638.205 Q142.922 636.098 138.918 636.098 Q137.043 636.098 135.168 636.515 Q133.316 636.932 131.371 637.811 L131.371 620.45 Z" fill="#000000" fill-rule="nonzero" fill-opacity="1" /><path clip-path="url(#clip300)" d="M64.9365 434.271 Q61.3254 434.271 59.4967 437.835 Q57.6912 441.377 57.6912 448.507 Q57.6912 455.613 59.4967 459.178 Q61.3254 462.72 64.9365 462.72 Q68.5707 462.72 70.3763 459.178 Q72.205 455.613 72.205 448.507 Q72.205 441.377 70.3763 437.835 Q68.5707 434.271 64.9365 434.271 M64.9365 430.567 Q70.7467 430.567 73.8022 435.173 Q76.8809 439.757 76.8809 448.507 Q76.8809 457.233 73.8022 461.84 Q70.7467 466.423 64.9365 466.423 Q59.1264 466.423 56.0477 461.84 Q52.9921 457.233 52.9921 448.507 Q52.9921 439.757 56.0477 435.173 Q59.1264 430.567 64.9365 430.567 Z" fill="#000000" fill-rule="nonzero" fill-opacity="1" /><path clip-path="url(#clip300)" d="M85.0984 459.872 L89.9827 459.872 L89.9827 465.752 L85.0984 465.752 L85.0984 459.872 Z" fill="#000000" fill-rule="nonzero" fill-opacity="1" /><path clip-path="url(#clip300)" d="M100.214 431.192 L118.57 431.192 L118.57 435.127 L104.496 435.127 L104.496 443.599 Q105.515 443.252 106.534 443.09 Q107.552 442.905 108.571 442.905 Q114.358 442.905 117.737 446.076 Q121.117 449.247 121.117 454.664 Q121.117 460.243 117.645 463.345 Q114.172 466.423 107.853 466.423 Q105.677 466.423 103.409 466.053 Q101.163 465.683 98.7558 464.942 L98.7558 460.243 Q100.839 461.377 103.061 461.933 Q105.284 462.488 107.76 462.488 Q111.765 462.488 114.103 460.382 Q116.441 458.275 116.441 454.664 Q116.441 451.053 114.103 448.947 Q111.765 446.84 107.76 446.84 Q105.885 446.84 104.01 447.257 Q102.159 447.673 100.214 448.553 L100.214 431.192 Z" fill="#000000" fill-rule="nonzero" fill-opacity="1" /><path clip-path="url(#clip300)" d="M140.33 434.271 Q136.719 434.271 134.89 437.835 Q133.084 441.377 133.084 448.507 Q133.084 455.613 134.89 459.178 Q136.719 462.72 140.33 462.72 Q143.964 462.72 145.769 459.178 Q147.598 455.613 147.598 448.507 Q147.598 441.377 145.769 437.835 Q143.964 434.271 140.33 434.271 M140.33 430.567 Q146.14 430.567 149.195 435.173 Q152.274 439.757 152.274 448.507 Q152.274 457.233 149.195 461.84 Q146.14 466.423 140.33 466.423 Q134.519 466.423 131.441 461.84 Q128.385 457.233 128.385 448.507 Q128.385 439.757 131.441 435.173 Q134.519 430.567 140.33 430.567 Z" fill="#000000" fill-rule="nonzero" fill-opacity="1" /><path clip-path="url(#clip300)" d="M65.9319 245.012 Q62.3208 245.012 60.4921 248.577 Q58.6865 252.119 58.6865 259.248 Q58.6865 266.355 60.4921 269.919 Q62.3208 273.461 65.9319 273.461 Q69.5661 273.461 71.3717 269.919 Q73.2004 266.355 73.2004 259.248 Q73.2004 252.119 71.3717 248.577 Q69.5661 245.012 65.9319 245.012 M65.9319 241.309 Q71.742 241.309 74.7976 245.915 Q77.8763 250.498 77.8763 259.248 Q77.8763 267.975 74.7976 272.582 Q71.742 277.165 65.9319 277.165 Q60.1217 277.165 57.043 272.582 Q53.9875 267.975 53.9875 259.248 Q53.9875 250.498 57.043 245.915 Q60.1217 241.309 65.9319 241.309 Z" fill="#000000" fill-rule="nonzero" fill-opacity="1" /><path clip-path="url(#clip300)" d="M86.0938 270.614 L90.978 270.614 L90.978 276.494 L86.0938 276.494 L86.0938 270.614 Z" fill="#000000" fill-rule="nonzero" fill-opacity="1" /><path clip-path="url(#clip300)" d="M99.9826 241.934 L122.205 241.934 L122.205 243.924 L109.658 276.494 L104.774 276.494 L116.58 245.869 L99.9826 245.869 L99.9826 241.934 Z" fill="#000000" fill-rule="nonzero" fill-opacity="1" /><path clip-path="url(#clip300)" d="M131.371 241.934 L149.728 241.934 L149.728 245.869 L135.654 245.869 L135.654 254.341 Q136.672 253.994 137.691 253.832 Q138.709 253.646 139.728 253.646 Q145.515 253.646 148.894 256.818 Q152.274 259.989 152.274 265.406 Q152.274 270.984 148.802 274.086 Q145.33 277.165 139.01 277.165 Q136.834 277.165 134.566 276.794 Q132.32 276.424 129.913 275.683 L129.913 270.984 Q131.996 272.119 134.219 272.674 Q136.441 273.23 138.918 273.23 Q142.922 273.23 145.26 271.123 Q147.598 269.017 147.598 265.406 Q147.598 261.795 145.26 259.688 Q142.922 257.582 138.918 257.582 Q137.043 257.582 135.168 257.998 Q133.316 258.415 131.371 259.295 L131.371 241.934 Z" fill="#000000" fill-rule="nonzero" fill-opacity="1" /><path clip-path="url(#clip300)" d="M55.7467 83.2999 L63.3856 83.2999 L63.3856 56.9343 L55.0754 58.601 L55.0754 54.3418 L63.3393 52.6751 L68.0152 52.6751 L68.0152 83.2999 L75.654 83.2999 L75.654 87.2351 L55.7467 87.2351 L55.7467 83.2999 Z" fill="#000000" fill-rule="nonzero" fill-opacity="1" /><path clip-path="url(#clip300)" d="M85.0984 81.3555 L89.9827 81.3555 L89.9827 87.2351 L85.0984 87.2351 L85.0984 81.3555 Z" fill="#000000" fill-rule="nonzero" fill-opacity="1" /><path clip-path="url(#clip300)" d="M110.168 55.7538 Q106.557 55.7538 104.728 59.3186 Q102.922 62.8602 102.922 69.9898 Q102.922 77.0963 104.728 80.6611 Q106.557 84.2027 110.168 84.2027 Q113.802 84.2027 115.608 80.6611 Q117.436 77.0963 117.436 69.9898 Q117.436 62.8602 115.608 59.3186 Q113.802 55.7538 110.168 55.7538 M110.168 52.0501 Q115.978 52.0501 119.033 56.6566 Q122.112 61.2399 122.112 69.9898 Q122.112 78.7166 119.033 83.3231 Q115.978 87.9064 110.168 87.9064 Q104.358 87.9064 101.279 83.3231 Q98.2234 78.7166 98.2234 69.9898 Q98.2234 61.2399 101.279 56.6566 Q104.358 52.0501 110.168 52.0501 Z" fill="#000000" fill-rule="nonzero" fill-opacity="1" /><path clip-path="url(#clip300)" d="M140.33 55.7538 Q136.719 55.7538 134.89 59.3186 Q133.084 62.8602 133.084 69.9898 Q133.084 77.0963 134.89 80.6611 Q136.719 84.2027 140.33 84.2027 Q143.964 84.2027 145.769 80.6611 Q147.598 77.0963 147.598 69.9898 Q147.598 62.8602 145.769 59.3186 Q143.964 55.7538 140.33 55.7538 M140.33 52.0501 Q146.14 52.0501 149.195 56.6566 Q152.274 61.2399 152.274 69.9898 Q152.274 78.7166 149.195 83.3231 Q146.14 87.9064 140.33 87.9064 Q134.519 87.9064 131.441 83.3231 Q128.385 78.7166 128.385 69.9898 Q128.385 61.2399 131.441 56.6566 Q134.519 52.0501 140.33 52.0501 Z" fill="#000000" fill-rule="nonzero" fill-opacity="1" /><polyline clip-path="url(#clip302)" style="stroke:#009af9; stroke-linecap:round; stroke-linejoin:round; stroke-width:4; stroke-opacity:1; fill:none" points="203.545,826.989 210.707,781.387 217.869,723.294 225.031,664.525 232.192,609.071 239.354,558.065 246.516,511.618 253.678,469.492 260.84,431.348 268.002,396.832 275.164,365.608 282.326,337.364 289.488,311.818 296.65,288.712 303.811,267.813 310.973,248.911 318.135,231.815 325.297,216.352 332.459,202.366 339.621,189.716 346.783,178.275 353.945,167.927 361.107,158.567 368.269,150.102 375.43,142.445 382.592,135.52 389.754,129.256 396.916,123.591 404.078,118.467 411.24,113.832 418.402,109.641 425.564,105.849 432.726,102.42 439.888,99.3186 447.05,96.5134 454.211,93.9762 461.373,91.6814 468.535,89.6058 475.697,87.7285 482.859,86.0305 490.021,84.4948 497.183,83.1057 504.345,81.8494 511.507,80.7131 518.669,79.6853 525.83,78.7558 532.992,77.915 540.154,77.1546 547.316,76.4668 554.478,75.8447 561.64,75.282 568.802,74.7731 575.964,74.3128 583.126,73.8965 590.288,73.52 597.449,73.1794 604.611,72.8714 611.773,72.5928 618.935,72.3408 626.097,72.1129 633.259,71.9067 640.421,71.7203 647.583,71.5517 654.745,71.3991 661.907,71.2612 669.068,71.1364 676.23,71.0236 683.392,70.9215 690.554,70.8292 697.716,70.7457 704.878,70.6701 712.04,70.6018 719.202,70.54 726.364,70.4842 733.526,70.4336 740.687,70.3879 747.849,70.3466 755.011,70.3092 762.173,70.2753 769.335,70.2447 776.497,70.2171 783.659,70.192 790.821,70.1694 797.983,70.1489 805.145,70.1304 812.306,70.1137 819.468,70.0985 826.63,70.0848 833.792,70.0724 840.954,70.0612 848.116,70.0511 855.278,70.0419 862.44,70.0336 869.602,70.0261 876.764,70.0193 883.926,70.0132 891.087,70.0077 898.249,70.0026 905.411,69.9981 912.573,69.994 "/>
<polyline clip-path="url(#clip302)" style="stroke:#e26f46; stroke-linecap:round; stroke-linejoin:round; stroke-width:2; stroke-opacity:1; fill:none" stroke-dasharray="8, 5" points="203.545,69.9551 210.707,69.9551 217.869,69.9551 225.031,69.9551 232.192,69.9551 239.354,69.9551 246.516,69.9551 253.678,69.9551 260.84,69.9551 268.002,69.9551 275.164,69.9551 282.326,69.9551 289.488,69.9551 296.65,69.9551 303.811,69.9551 310.973,69.9551 318.135,69.9551 325.297,69.9551 332.459,69.9551 339.621,69.9551 346.783,69.9551 353.945,69.9551 361.107,69.9551 368.269,69.9551 375.43,69.9551 382.592,69.9551 389.754,69.9551 396.916,69.9551 404.078,69.9551 411.24,69.9551 418.402,69.9551 425.564,69.9551 432.726,69.9551 439.888,69.9551 447.05,69.9551 454.211,69.9551 461.373,69.9551 468.535,69.9551 475.697,69.9551 482.859,69.9551 490.021,69.9551 497.183,69.9551 504.345,69.9551 511.507,69.9551 518.669,69.9551 525.83,69.9551 532.992,69.9551 540.154,69.9551 547.316,69.9551 554.478,69.9551 561.64,69.9551 568.802,69.9551 575.964,69.9551 583.126,69.9551 590.288,69.9551 597.449,69.9551 604.611,69.9551 611.773,69.9551 618.935,69.9551 626.097,69.9551 633.259,69.9551 640.421,69.9551 647.583,69.9551 654.745,69.9551 661.907,69.9551 669.068,69.9551 676.23,69.9551 683.392,69.9551 690.554,69.9551 697.716,69.9551 704.878,69.9551 712.04,69.9551 719.202,69.9551 726.364,69.9551 733.526,69.9551 740.687,69.9551 747.849,69.9551 755.011,69.9551 762.173,69.9551 769.335,69.9551 776.497,69.9551 783.659,69.9551 790.821,69.9551 797.983,69.9551 805.145,69.9551 812.306,69.9551 819.468,69.9551 826.63,69.9551 833.792,69.9551 840.954,69.9551 848.116,69.9551 855.278,69.9551 862.44,69.9551 869.602,69.9551 876.764,69.9551 883.926,69.9551 891.087,69.9551 898.249,69.9551 905.411,69.9551 912.573,69.9551 "/>
<path clip-path="url(#clip300)" d="M784.851 822.951 L908.792 822.951 L908.792 719.271 L784.851 719.271  Z" fill="#ffffff" fill-rule="evenodd" fill-opacity="1"/>
<polyline clip-path="url(#clip300)" style="stroke:#000000; stroke-linecap:round; stroke-linejoin:round; stroke-width:4; stroke-opacity:1; fill:none" points="784.851,822.951 908.792,822.951 908.792,719.271 784.851,719.271 784.851,822.951 "/>
<polyline clip-path="url(#clip300)" style="stroke:#009af9; stroke-linecap:round; stroke-linejoin:round; stroke-width:4; stroke-opacity:1; fill:none" points="793.202,771.111 843.306,771.111 "/>
<path clip-path="url(#clip300)" d="M873.791 750.721 Q873.791 751.049 873.581 751.822 L868.99 770.139 Q867.983 774.214 864.704 777.072 Q861.448 779.929 857.747 779.929 Q855.522 779.929 854.093 778.735 Q852.664 777.564 852.664 775.76 Q852.664 774.167 853.508 773.394 Q854.351 772.645 855.358 772.645 Q855.686 772.645 856.037 772.739 Q856.389 772.832 856.763 773.23 Q857.138 773.629 857.138 774.308 Q857.138 775.409 856.178 776.275 Q855.709 776.673 855.264 776.767 Q854.843 776.861 854.117 776.861 Q854.398 777.517 854.913 777.962 Q855.428 778.407 856.014 778.571 Q856.599 778.758 856.974 778.805 Q857.372 778.875 857.747 778.875 Q860.745 778.875 863.041 775.854 Q863.72 774.94 864.212 774.027 Q864.727 773.137 865.102 772.036 Q865.476 770.958 865.64 770.373 Q865.828 769.787 866.156 768.452 Q863.977 770.631 861.307 770.631 Q860.183 770.631 859.176 770.326 Q858.192 770.022 857.325 769.389 Q856.459 768.733 855.944 767.586 Q855.452 766.438 855.452 764.915 Q855.452 763.299 856.084 761.098 Q856.716 758.896 858.239 754.844 Q859.059 752.572 859.059 751.471 Q859.059 750.932 858.942 750.604 Q858.825 750.253 858.59 750.136 Q858.356 749.995 858.216 749.972 Q858.098 749.948 857.864 749.948 Q856.482 749.948 855.194 751.354 Q853.906 752.759 853.016 755.898 Q852.828 756.483 852.711 756.624 Q852.594 756.764 852.243 756.764 Q851.657 756.741 851.657 756.273 Q851.657 756.085 851.868 755.359 Q852.079 754.61 852.571 753.509 Q853.086 752.384 853.789 751.377 Q854.491 750.347 855.592 749.621 Q856.716 748.894 858.005 748.894 Q859.761 748.894 860.839 750.042 Q861.94 751.166 861.94 752.829 Q861.94 753.509 861.752 754.118 Q861.588 754.703 860.979 756.273 Q858.52 762.597 858.52 765.688 Q858.52 766.438 858.637 767.07 Q858.778 767.679 859.082 768.288 Q859.387 768.874 859.996 769.225 Q860.628 769.553 861.495 769.553 Q862.596 769.553 863.626 769.038 Q864.68 768.499 865.336 767.773 Q866.015 767.047 866.413 766.438 Q866.835 765.805 866.929 765.478 L869.084 756.858 L870.044 753.017 Q870.489 750.932 870.7 750.417 Q870.981 749.925 871.473 749.667 Q871.964 749.41 872.386 749.41 Q872.972 749.41 873.37 749.761 Q873.791 750.112 873.791 750.721 Z" fill="#000000" fill-rule="nonzero" fill-opacity="1" /><path clip-path="url(#clip300)" d="M878.691 773.954 L878.691 772.905 Q882.725 772.905 884.807 770.757 Q885.381 770.757 885.479 770.888 Q885.578 771.019 885.578 771.626 L885.578 790.464 Q885.578 791.464 886.069 791.776 Q886.561 792.088 888.709 792.088 L889.775 792.088 L889.775 793.12 Q888.594 793.022 884.331 793.022 Q880.069 793.022 878.904 793.12 L878.904 792.088 L879.97 792.088 Q882.085 792.088 882.593 791.792 Q883.102 791.481 883.102 790.464 L883.102 773.068 Q881.347 773.954 878.691 773.954 Z" fill="#000000" fill-rule="nonzero" fill-opacity="1" /><path clip-path="url(#clip300)" d="M1201.19 849.7 L1952.76 849.7 L1952.76 47.2441 L1201.19 47.2441  Z" fill="#ffffff" fill-rule="evenodd" fill-opacity="1"/>
<defs>
  <clipPath id="clip303">
    <rect x="1201" y="47" width="753" height="803"/>
  </clipPath>
</defs>
<polyline clip-path="url(#clip303)" style="stroke:#000000; stroke-linecap:round; stroke-linejoin:round; stroke-width:2; stroke-opacity:0.1; fill:none" points="1222.46,849.7 1222.46,47.2441 "/>
<polyline clip-path="url(#clip303)" style="stroke:#000000; stroke-linecap:round; stroke-linejoin:round; stroke-width:2; stroke-opacity:0.1; fill:none" points="1401.5,849.7 1401.5,47.2441 "/>
<polyline clip-path="url(#clip303)" style="stroke:#000000; stroke-linecap:round; stroke-linejoin:round; stroke-width:2; stroke-opacity:0.1; fill:none" points="1580.55,849.7 1580.55,47.2441 "/>
<polyline clip-path="url(#clip303)" style="stroke:#000000; stroke-linecap:round; stroke-linejoin:round; stroke-width:2; stroke-opacity:0.1; fill:none" points="1759.6,849.7 1759.6,47.2441 "/>
<polyline clip-path="url(#clip303)" style="stroke:#000000; stroke-linecap:round; stroke-linejoin:round; stroke-width:2; stroke-opacity:0.1; fill:none" points="1938.65,849.7 1938.65,47.2441 "/>
<polyline clip-path="url(#clip303)" style="stroke:#000000; stroke-linecap:round; stroke-linejoin:round; stroke-width:2; stroke-opacity:0.1; fill:none" points="1201.19,827.028 1952.76,827.028 "/>
<polyline clip-path="url(#clip303)" style="stroke:#000000; stroke-linecap:round; stroke-linejoin:round; stroke-width:2; stroke-opacity:0.1; fill:none" points="1201.19,644.171 1952.76,644.171 "/>
<polyline clip-path="url(#clip303)" style="stroke:#000000; stroke-linecap:round; stroke-linejoin:round; stroke-width:2; stroke-opacity:0.1; fill:none" points="1201.19,461.313 1952.76,461.313 "/>
<polyline clip-path="url(#clip303)" style="stroke:#000000; stroke-linecap:round; stroke-linejoin:round; stroke-width:2; stroke-opacity:0.1; fill:none" points="1201.19,278.455 1952.76,278.455 "/>
<polyline clip-path="url(#clip303)" style="stroke:#000000; stroke-linecap:round; stroke-linejoin:round; stroke-width:2; stroke-opacity:0.1; fill:none" points="1201.19,95.5967 1952.76,95.5967 "/>
<polyline clip-path="url(#clip300)" style="stroke:#000000; stroke-linecap:round; stroke-linejoin:round; stroke-width:4; stroke-opacity:1; fill:none" points="1201.19,849.7 1952.76,849.7 "/>
<polyline clip-path="url(#clip300)" style="stroke:#000000; stroke-linecap:round; stroke-linejoin:round; stroke-width:4; stroke-opacity:1; fill:none" points="1222.46,849.7 1222.46,830.802 "/>
<polyline clip-path="url(#clip300)" style="stroke:#000000; stroke-linecap:round; stroke-linejoin:round; stroke-width:4; stroke-opacity:1; fill:none" points="1401.5,849.7 1401.5,830.802 "/>
<polyline clip-path="url(#clip300)" style="stroke:#000000; stroke-linecap:round; stroke-linejoin:round; stroke-width:4; stroke-opacity:1; fill:none" points="1580.55,849.7 1580.55,830.802 "/>
<polyline clip-path="url(#clip300)" style="stroke:#000000; stroke-linecap:round; stroke-linejoin:round; stroke-width:4; stroke-opacity:1; fill:none" points="1759.6,849.7 1759.6,830.802 "/>
<polyline clip-path="url(#clip300)" style="stroke:#000000; stroke-linecap:round; stroke-linejoin:round; stroke-width:4; stroke-opacity:1; fill:none" points="1938.65,849.7 1938.65,830.802 "/>
<path clip-path="url(#clip300)" d="M1199.84 877.419 Q1196.23 877.419 1194.4 880.983 Q1192.6 884.525 1192.6 891.655 Q1192.6 898.761 1194.4 902.326 Q1196.23 905.867 1199.84 905.867 Q1203.48 905.867 1205.28 902.326 Q1207.11 898.761 1207.11 891.655 Q1207.11 884.525 1205.28 880.983 Q1203.48 877.419 1199.84 877.419 M1199.84 873.715 Q1205.65 873.715 1208.71 878.321 Q1211.79 882.905 1211.79 891.655 Q1211.79 900.381 1208.71 904.988 Q1205.65 909.571 1199.84 909.571 Q1194.03 909.571 1190.95 904.988 Q1187.9 900.381 1187.9 891.655 Q1187.9 882.905 1190.95 878.321 Q1194.03 873.715 1199.84 873.715 Z" fill="#000000" fill-rule="nonzero" fill-opacity="1" /><path clip-path="url(#clip300)" d="M1220 903.02 L1224.89 903.02 L1224.89 908.9 L1220 908.9 L1220 903.02 Z" fill="#000000" fill-rule="nonzero" fill-opacity="1" /><path clip-path="url(#clip300)" d="M1245.07 877.419 Q1241.46 877.419 1239.63 880.983 Q1237.83 884.525 1237.83 891.655 Q1237.83 898.761 1239.63 902.326 Q1241.46 905.867 1245.07 905.867 Q1248.71 905.867 1250.51 902.326 Q1252.34 898.761 1252.34 891.655 Q1252.34 884.525 1250.51 880.983 Q1248.71 877.419 1245.07 877.419 M1245.07 873.715 Q1250.88 873.715 1253.94 878.321 Q1257.02 882.905 1257.02 891.655 Q1257.02 900.381 1253.94 904.988 Q1250.88 909.571 1245.07 909.571 Q1239.26 909.571 1236.18 904.988 Q1233.13 900.381 1233.13 891.655 Q1233.13 882.905 1236.18 878.321 Q1239.26 873.715 1245.07 873.715 Z" fill="#000000" fill-rule="nonzero" fill-opacity="1" /><path clip-path="url(#clip300)" d="M1373.24 904.965 L1389.56 904.965 L1389.56 908.9 L1367.62 908.9 L1367.62 904.965 Q1370.28 902.21 1374.86 897.58 Q1379.47 892.928 1380.65 891.585 Q1382.89 889.062 1383.77 887.326 Q1384.68 885.567 1384.68 883.877 Q1384.68 881.122 1382.73 879.386 Q1380.81 877.65 1377.71 877.65 Q1375.51 877.65 1373.06 878.414 Q1370.62 879.178 1367.85 880.729 L1367.85 876.007 Q1370.67 874.872 1373.12 874.294 Q1375.58 873.715 1377.62 873.715 Q1382.99 873.715 1386.18 876.4 Q1389.37 879.085 1389.37 883.576 Q1389.37 885.706 1388.56 887.627 Q1387.78 889.525 1385.67 892.118 Q1385.09 892.789 1381.99 896.006 Q1378.89 899.201 1373.24 904.965 Z" fill="#000000" fill-rule="nonzero" fill-opacity="1" /><path clip-path="url(#clip300)" d="M1399.37 903.02 L1404.26 903.02 L1404.26 908.9 L1399.37 908.9 L1399.37 903.02 Z" fill="#000000" fill-rule="nonzero" fill-opacity="1" /><path clip-path="url(#clip300)" d="M1414.49 874.34 L1432.85 874.34 L1432.85 878.275 L1418.77 878.275 L1418.77 886.747 Q1419.79 886.4 1420.81 886.238 Q1421.83 886.053 1422.85 886.053 Q1428.63 886.053 1432.01 889.224 Q1435.39 892.395 1435.39 897.812 Q1435.39 903.391 1431.92 906.492 Q1428.45 909.571 1422.13 909.571 Q1419.95 909.571 1417.68 909.201 Q1415.44 908.83 1413.03 908.09 L1413.03 903.391 Q1415.12 904.525 1417.34 905.08 Q1419.56 905.636 1422.04 905.636 Q1426.04 905.636 1428.38 903.53 Q1430.72 901.423 1430.72 897.812 Q1430.72 894.201 1428.38 892.094 Q1426.04 889.988 1422.04 889.988 Q1420.16 889.988 1418.29 890.405 Q1416.43 890.821 1414.49 891.701 L1414.49 874.34 Z" fill="#000000" fill-rule="nonzero" fill-opacity="1" /><path clip-path="url(#clip300)" d="M1547.72 874.34 L1566.07 874.34 L1566.07 878.275 L1552 878.275 L1552 886.747 Q1553.02 886.4 1554.04 886.238 Q1555.05 886.053 1556.07 886.053 Q1561.86 886.053 1565.24 889.224 Q1568.62 892.395 1568.62 897.812 Q1568.62 903.391 1565.15 906.492 Q1561.67 909.571 1555.36 909.571 Q1553.18 909.571 1550.91 909.201 Q1548.67 908.83 1546.26 908.09 L1546.26 903.391 Q1548.34 904.525 1550.56 905.08 Q1552.79 905.636 1555.26 905.636 Q1559.27 905.636 1561.61 903.53 Q1563.94 901.423 1563.94 897.812 Q1563.94 894.201 1561.61 892.094 Q1559.27 889.988 1555.26 889.988 Q1553.39 889.988 1551.51 890.405 Q1549.66 890.821 1547.72 891.701 L1547.72 874.34 Z" fill="#000000" fill-rule="nonzero" fill-opacity="1" /><path clip-path="url(#clip300)" d="M1577.83 903.02 L1582.72 903.02 L1582.72 908.9 L1577.83 908.9 L1577.83 903.02 Z" fill="#000000" fill-rule="nonzero" fill-opacity="1" /><path clip-path="url(#clip300)" d="M1602.9 877.419 Q1599.29 877.419 1597.46 880.983 Q1595.66 884.525 1595.66 891.655 Q1595.66 898.761 1597.46 902.326 Q1599.29 905.867 1602.9 905.867 Q1606.54 905.867 1608.34 902.326 Q1610.17 898.761 1610.17 891.655 Q1610.17 884.525 1608.34 880.983 Q1606.54 877.419 1602.9 877.419 M1602.9 873.715 Q1608.71 873.715 1611.77 878.321 Q1614.85 882.905 1614.85 891.655 Q1614.85 900.381 1611.77 904.988 Q1608.71 909.571 1602.9 909.571 Q1597.09 909.571 1594.01 904.988 Q1590.96 900.381 1590.96 891.655 Q1590.96 882.905 1594.01 878.321 Q1597.09 873.715 1602.9 873.715 Z" fill="#000000" fill-rule="nonzero" fill-opacity="1" /><path clip-path="url(#clip300)" d="M1725.92 874.34 L1748.14 874.34 L1748.14 876.331 L1735.59 908.9 L1730.71 908.9 L1742.52 878.275 L1725.92 878.275 L1725.92 874.34 Z" fill="#000000" fill-rule="nonzero" fill-opacity="1" /><path clip-path="url(#clip300)" d="M1757.26 903.02 L1762.15 903.02 L1762.15 908.9 L1757.26 908.9 L1757.26 903.02 Z" fill="#000000" fill-rule="nonzero" fill-opacity="1" /><path clip-path="url(#clip300)" d="M1772.38 874.34 L1790.73 874.34 L1790.73 878.275 L1776.66 878.275 L1776.66 886.747 Q1777.68 886.4 1778.7 886.238 Q1779.72 886.053 1780.73 886.053 Q1786.52 886.053 1789.9 889.224 Q1793.28 892.395 1793.28 897.812 Q1793.28 903.391 1789.81 906.492 Q1786.34 909.571 1780.02 909.571 Q1777.84 909.571 1775.57 909.201 Q1773.33 908.83 1770.92 908.09 L1770.92 903.391 Q1773 904.525 1775.22 905.08 Q1777.45 905.636 1779.92 905.636 Q1783.93 905.636 1786.27 903.53 Q1788.6 901.423 1788.6 897.812 Q1788.6 894.201 1786.27 892.094 Q1783.93 889.988 1779.92 889.988 Q1778.05 889.988 1776.17 890.405 Q1774.32 890.821 1772.38 891.701 L1772.38 874.34 Z" fill="#000000" fill-rule="nonzero" fill-opacity="1" /><path clip-path="url(#clip300)" d="M1890.72 904.965 L1898.36 904.965 L1898.36 878.599 L1890.05 880.266 L1890.05 876.007 L1898.31 874.34 L1902.99 874.34 L1902.99 904.965 L1910.63 904.965 L1910.63 908.9 L1890.72 908.9 L1890.72 904.965 Z" fill="#000000" fill-rule="nonzero" fill-opacity="1" /><path clip-path="url(#clip300)" d="M1930.07 877.419 Q1926.46 877.419 1924.63 880.983 Q1922.83 884.525 1922.83 891.655 Q1922.83 898.761 1924.63 902.326 Q1926.46 905.867 1930.07 905.867 Q1933.7 905.867 1935.51 902.326 Q1937.34 898.761 1937.34 891.655 Q1937.34 884.525 1935.51 880.983 Q1933.7 877.419 1930.07 877.419 M1930.07 873.715 Q1935.88 873.715 1938.94 878.321 Q1942.01 882.905 1942.01 891.655 Q1942.01 900.381 1938.94 904.988 Q1935.88 909.571 1930.07 909.571 Q1924.26 909.571 1921.18 904.988 Q1918.13 900.381 1918.13 891.655 Q1918.13 882.905 1921.18 878.321 Q1924.26 873.715 1930.07 873.715 Z" fill="#000000" fill-rule="nonzero" fill-opacity="1" /><path clip-path="url(#clip300)" d="M1950.23 903.02 L1955.12 903.02 L1955.12 908.9 L1950.23 908.9 L1950.23 903.02 Z" fill="#000000" fill-rule="nonzero" fill-opacity="1" /><path clip-path="url(#clip300)" d="M1975.3 877.419 Q1971.69 877.419 1969.86 880.983 Q1968.06 884.525 1968.06 891.655 Q1968.06 898.761 1969.86 902.326 Q1971.69 905.867 1975.3 905.867 Q1978.94 905.867 1980.74 902.326 Q1982.57 898.761 1982.57 891.655 Q1982.57 884.525 1980.74 880.983 Q1978.94 877.419 1975.3 877.419 M1975.3 873.715 Q1981.11 873.715 1984.17 878.321 Q1987.25 882.905 1987.25 891.655 Q1987.25 900.381 1984.17 904.988 Q1981.11 909.571 1975.3 909.571 Q1969.49 909.571 1966.41 904.988 Q1963.36 900.381 1963.36 891.655 Q1963.36 882.905 1966.41 878.321 Q1969.49 873.715 1975.3 873.715 Z" fill="#000000" fill-rule="nonzero" fill-opacity="1" /><path clip-path="url(#clip300)" d="M1447.14 941.044 L1487.34 941.044 L1487.34 946.455 L1470.47 946.455 L1470.47 988.564 L1464.01 988.564 L1464.01 946.455 L1447.14 946.455 L1447.14 941.044 Z" fill="#000000" fill-rule="nonzero" fill-opacity="1" /><path clip-path="url(#clip300)" d="M1491.29 952.916 L1497.14 952.916 L1497.14 988.564 L1491.29 988.564 L1491.29 952.916 M1491.29 939.039 L1497.14 939.039 L1497.14 946.455 L1491.29 946.455 L1491.29 939.039 Z" fill="#000000" fill-rule="nonzero" fill-opacity="1" /><path clip-path="url(#clip300)" d="M1537.15 959.759 Q1539.35 955.812 1542.41 953.934 Q1545.46 952.057 1549.6 952.057 Q1555.17 952.057 1558.19 955.971 Q1561.22 959.855 1561.22 967.048 L1561.22 988.564 L1555.33 988.564 L1555.33 967.239 Q1555.33 962.114 1553.51 959.632 Q1551.7 957.149 1547.98 957.149 Q1543.42 957.149 1540.78 960.173 Q1538.14 963.197 1538.14 968.416 L1538.14 988.564 L1532.25 988.564 L1532.25 967.239 Q1532.25 962.083 1530.44 959.632 Q1528.62 957.149 1524.84 957.149 Q1520.35 957.149 1517.71 960.205 Q1515.06 963.228 1515.06 968.416 L1515.06 988.564 L1509.18 988.564 L1509.18 952.916 L1515.06 952.916 L1515.06 958.454 Q1517.07 955.176 1519.87 953.616 Q1522.67 952.057 1526.52 952.057 Q1530.41 952.057 1533.11 954.03 Q1535.85 956.003 1537.15 959.759 Z" fill="#000000" fill-rule="nonzero" fill-opacity="1" /><path clip-path="url(#clip300)" d="M1603.39 969.276 L1603.39 972.14 L1576.46 972.14 Q1576.84 978.188 1580.09 981.371 Q1583.37 984.522 1589.19 984.522 Q1592.57 984.522 1595.72 983.694 Q1598.9 982.867 1602.02 981.211 L1602.02 986.75 Q1598.87 988.086 1595.56 988.787 Q1592.25 989.487 1588.84 989.487 Q1580.31 989.487 1575.32 984.522 Q1570.35 979.556 1570.35 971.09 Q1570.35 962.337 1575.06 957.213 Q1579.8 952.057 1587.82 952.057 Q1595.02 952.057 1599.19 956.703 Q1603.39 961.319 1603.39 969.276 M1597.53 967.557 Q1597.47 962.751 1594.83 959.886 Q1592.22 957.022 1587.89 957.022 Q1582.99 957.022 1580.03 959.791 Q1577.1 962.56 1576.65 967.589 L1597.53 967.557 Z" fill="#000000" fill-rule="nonzero" fill-opacity="1" /><path clip-path="url(#clip300)" d="M1633.18 939.039 L1646.68 939.039 L1646.68 943.59 L1639.04 943.59 L1639.04 992.606 L1646.68 992.606 L1646.68 997.158 L1633.18 997.158 L1633.18 939.039 Z" fill="#000000" fill-rule="nonzero" fill-opacity="1" /><path clip-path="url(#clip300)" d="M1681.88 953.966 L1681.88 959.504 Q1679.4 958.231 1676.72 957.595 Q1674.05 956.958 1671.18 956.958 Q1666.82 956.958 1664.63 958.295 Q1662.46 959.632 1662.46 962.305 Q1662.46 964.342 1664.02 965.52 Q1665.58 966.666 1670.29 967.716 L1672.3 968.162 Q1678.54 969.499 1681.15 971.949 Q1683.79 974.368 1683.79 978.729 Q1683.79 983.694 1679.84 986.59 Q1675.93 989.487 1669.05 989.487 Q1666.19 989.487 1663.07 988.914 Q1659.98 988.373 1656.54 987.259 L1656.54 981.211 Q1659.79 982.898 1662.94 983.758 Q1666.09 984.585 1669.18 984.585 Q1673.32 984.585 1675.54 983.185 Q1677.77 981.753 1677.77 979.174 Q1677.77 976.787 1676.15 975.514 Q1674.56 974.241 1669.11 973.063 L1667.08 972.586 Q1661.63 971.44 1659.22 969.085 Q1656.8 966.698 1656.8 962.56 Q1656.8 957.531 1660.36 954.794 Q1663.93 952.057 1670.48 952.057 Q1673.73 952.057 1676.59 952.534 Q1679.46 953.011 1681.88 953.966 Z" fill="#000000" fill-rule="nonzero" fill-opacity="1" /><path clip-path="url(#clip300)" d="M1706.8 939.039 L1706.8 997.158 L1693.3 997.158 L1693.3 992.606 L1700.91 992.606 L1700.91 943.59 L1693.3 943.59 L1693.3 939.039 L1706.8 939.039 Z" fill="#000000" fill-rule="nonzero" fill-opacity="1" /><polyline clip-path="url(#clip300)" style="stroke:#000000; stroke-linecap:round; stroke-linejoin:round; stroke-width:4; stroke-opacity:1; fill:none" points="1201.19,849.7 1201.19,47.2441 "/>
<polyline clip-path="url(#clip300)" style="stroke:#000000; stroke-linecap:round; stroke-linejoin:round; stroke-width:4; stroke-opacity:1; fill:none" points="1201.19,827.028 1220.08,827.028 "/>
<polyline clip-path="url(#clip300)" style="stroke:#000000; stroke-linecap:round; stroke-linejoin:round; stroke-width:4; stroke-opacity:1; fill:none" points="1201.19,644.171 1220.08,644.171 "/>
<polyline clip-path="url(#clip300)" style="stroke:#000000; stroke-linecap:round; stroke-linejoin:round; stroke-width:4; stroke-opacity:1; fill:none" points="1201.19,461.313 1220.08,461.313 "/>
<polyline clip-path="url(#clip300)" style="stroke:#000000; stroke-linecap:round; stroke-linejoin:round; stroke-width:4; stroke-opacity:1; fill:none" points="1201.19,278.455 1220.08,278.455 "/>
<polyline clip-path="url(#clip300)" style="stroke:#000000; stroke-linecap:round; stroke-linejoin:round; stroke-width:4; stroke-opacity:1; fill:none" points="1201.19,95.5967 1220.08,95.5967 "/>
<path clip-path="url(#clip300)" d="M1034.08 827.48 L1063.76 827.48 L1063.76 831.415 L1034.08 831.415 L1034.08 827.48 Z" fill="#000000" fill-rule="nonzero" fill-opacity="1" /><path clip-path="url(#clip300)" d="M1074.66 840.373 L1082.3 840.373 L1082.3 814.008 L1073.99 815.674 L1073.99 811.415 L1082.25 809.748 L1086.93 809.748 L1086.93 840.373 L1094.57 840.373 L1094.57 844.308 L1074.66 844.308 L1074.66 840.373 Z" fill="#000000" fill-rule="nonzero" fill-opacity="1" /><path clip-path="url(#clip300)" d="M1114.01 812.827 Q1110.4 812.827 1108.57 816.392 Q1106.76 819.934 1106.76 827.063 Q1106.76 834.17 1108.57 837.734 Q1110.4 841.276 1114.01 841.276 Q1117.64 841.276 1119.45 837.734 Q1121.28 834.17 1121.28 827.063 Q1121.28 819.934 1119.45 816.392 Q1117.64 812.827 1114.01 812.827 M1114.01 809.123 Q1119.82 809.123 1122.88 813.73 Q1125.95 818.313 1125.95 827.063 Q1125.95 835.79 1122.88 840.396 Q1119.82 844.98 1114.01 844.98 Q1108.2 844.98 1105.12 840.396 Q1102.07 835.79 1102.07 827.063 Q1102.07 818.313 1105.12 813.73 Q1108.2 809.123 1114.01 809.123 Z" fill="#000000" fill-rule="nonzero" fill-opacity="1" /><path clip-path="url(#clip300)" d="M1134.17 838.429 L1139.06 838.429 L1139.06 844.308 L1134.17 844.308 L1134.17 838.429 Z" fill="#000000" fill-rule="nonzero" fill-opacity="1" /><path clip-path="url(#clip300)" d="M1159.24 812.827 Q1155.63 812.827 1153.8 816.392 Q1152 819.934 1152 827.063 Q1152 834.17 1153.8 837.734 Q1155.63 841.276 1159.24 841.276 Q1162.88 841.276 1164.68 837.734 Q1166.51 834.17 1166.51 827.063 Q1166.51 819.934 1164.68 816.392 Q1162.88 812.827 1159.24 812.827 M1159.24 809.123 Q1165.05 809.123 1168.11 813.73 Q1171.19 818.313 1171.19 827.063 Q1171.19 835.79 1168.11 840.396 Q1165.05 844.98 1159.24 844.98 Q1153.43 844.98 1150.35 840.396 Q1147.3 835.79 1147.3 827.063 Q1147.3 818.313 1150.35 813.73 Q1153.43 809.123 1159.24 809.123 Z" fill="#000000" fill-rule="nonzero" fill-opacity="1" /><path clip-path="url(#clip300)" d="M1065.24 644.622 L1094.91 644.622 L1094.91 648.557 L1065.24 648.557 L1065.24 644.622 Z" fill="#000000" fill-rule="nonzero" fill-opacity="1" /><path clip-path="url(#clip300)" d="M1103.83 626.891 L1126.05 626.891 L1126.05 628.881 L1113.5 661.451 L1108.62 661.451 L1120.42 630.826 L1103.83 630.826 L1103.83 626.891 Z" fill="#000000" fill-rule="nonzero" fill-opacity="1" /><path clip-path="url(#clip300)" d="M1135.17 655.571 L1140.05 655.571 L1140.05 661.451 L1135.17 661.451 L1135.17 655.571 Z" fill="#000000" fill-rule="nonzero" fill-opacity="1" /><path clip-path="url(#clip300)" d="M1150.28 626.891 L1168.64 626.891 L1168.64 630.826 L1154.57 630.826 L1154.57 639.298 Q1155.58 638.951 1156.6 638.789 Q1157.62 638.603 1158.64 638.603 Q1164.43 638.603 1167.81 641.775 Q1171.19 644.946 1171.19 650.363 Q1171.19 655.941 1167.71 659.043 Q1164.24 662.122 1157.92 662.122 Q1155.75 662.122 1153.48 661.751 Q1151.23 661.381 1148.82 660.64 L1148.82 655.941 Q1150.91 657.076 1153.13 657.631 Q1155.35 658.187 1157.83 658.187 Q1161.83 658.187 1164.17 656.08 Q1166.51 653.974 1166.51 650.363 Q1166.51 646.752 1164.17 644.645 Q1161.83 642.539 1157.83 642.539 Q1155.95 642.539 1154.08 642.955 Q1152.23 643.372 1150.28 644.252 L1150.28 626.891 Z" fill="#000000" fill-rule="nonzero" fill-opacity="1" /><path clip-path="url(#clip300)" d="M1064.24 461.764 L1093.92 461.764 L1093.92 465.699 L1064.24 465.699 L1064.24 461.764 Z" fill="#000000" fill-rule="nonzero" fill-opacity="1" /><path clip-path="url(#clip300)" d="M1104.06 444.033 L1122.41 444.033 L1122.41 447.968 L1108.34 447.968 L1108.34 456.44 Q1109.36 456.093 1110.38 455.931 Q1111.39 455.745 1112.41 455.745 Q1118.2 455.745 1121.58 458.917 Q1124.96 462.088 1124.96 467.505 Q1124.96 473.083 1121.49 476.185 Q1118.01 479.264 1111.7 479.264 Q1109.52 479.264 1107.25 478.894 Q1105.01 478.523 1102.6 477.782 L1102.6 473.083 Q1104.68 474.218 1106.9 474.773 Q1109.13 475.329 1111.6 475.329 Q1115.61 475.329 1117.95 473.222 Q1120.28 471.116 1120.28 467.505 Q1120.28 463.894 1117.95 461.787 Q1115.61 459.681 1111.6 459.681 Q1109.73 459.681 1107.85 460.097 Q1106 460.514 1104.06 461.394 L1104.06 444.033 Z" fill="#000000" fill-rule="nonzero" fill-opacity="1" /><path clip-path="url(#clip300)" d="M1134.17 472.713 L1139.06 472.713 L1139.06 478.593 L1134.17 478.593 L1134.17 472.713 Z" fill="#000000" fill-rule="nonzero" fill-opacity="1" /><path clip-path="url(#clip300)" d="M1159.24 447.111 Q1155.63 447.111 1153.8 450.676 Q1152 454.218 1152 461.347 Q1152 468.454 1153.8 472.019 Q1155.63 475.56 1159.24 475.56 Q1162.88 475.56 1164.68 472.019 Q1166.51 468.454 1166.51 461.347 Q1166.51 454.218 1164.68 450.676 Q1162.88 447.111 1159.24 447.111 M1159.24 443.408 Q1165.05 443.408 1168.11 448.014 Q1171.19 452.597 1171.19 461.347 Q1171.19 470.074 1168.11 474.681 Q1165.05 479.264 1159.24 479.264 Q1153.43 479.264 1150.35 474.681 Q1147.3 470.074 1147.3 461.347 Q1147.3 452.597 1150.35 448.014 Q1153.43 443.408 1159.24 443.408 Z" fill="#000000" fill-rule="nonzero" fill-opacity="1" /><path clip-path="url(#clip300)" d="M1065.24 278.906 L1094.91 278.906 L1094.91 282.841 L1065.24 282.841 L1065.24 278.906 Z" fill="#000000" fill-rule="nonzero" fill-opacity="1" /><path clip-path="url(#clip300)" d="M1109.03 291.799 L1125.35 291.799 L1125.35 295.735 L1103.41 295.735 L1103.41 291.799 Q1106.07 289.045 1110.65 284.415 Q1115.26 279.762 1116.44 278.42 Q1118.69 275.897 1119.57 274.161 Q1120.47 272.401 1120.47 270.712 Q1120.47 267.957 1118.52 266.221 Q1116.6 264.485 1113.5 264.485 Q1111.3 264.485 1108.85 265.249 Q1106.42 266.013 1103.64 267.563 L1103.64 262.841 Q1106.46 261.707 1108.92 261.128 Q1111.37 260.55 1113.41 260.55 Q1118.78 260.55 1121.97 263.235 Q1125.17 265.92 1125.17 270.411 Q1125.17 272.54 1124.36 274.462 Q1123.57 276.36 1121.46 278.952 Q1120.89 279.624 1117.78 282.841 Q1114.68 286.036 1109.03 291.799 Z" fill="#000000" fill-rule="nonzero" fill-opacity="1" /><path clip-path="url(#clip300)" d="M1135.17 289.855 L1140.05 289.855 L1140.05 295.735 L1135.17 295.735 L1135.17 289.855 Z" fill="#000000" fill-rule="nonzero" fill-opacity="1" /><path clip-path="url(#clip300)" d="M1150.28 261.175 L1168.64 261.175 L1168.64 265.11 L1154.57 265.11 L1154.57 273.582 Q1155.58 273.235 1156.6 273.073 Q1157.62 272.888 1158.64 272.888 Q1164.43 272.888 1167.81 276.059 Q1171.19 279.23 1171.19 284.647 Q1171.19 290.225 1167.71 293.327 Q1164.24 296.406 1157.92 296.406 Q1155.75 296.406 1153.48 296.036 Q1151.23 295.665 1148.82 294.924 L1148.82 290.225 Q1150.91 291.36 1153.13 291.915 Q1155.35 292.471 1157.83 292.471 Q1161.83 292.471 1164.17 290.364 Q1166.51 288.258 1166.51 284.647 Q1166.51 281.036 1164.17 278.929 Q1161.83 276.823 1157.83 276.823 Q1155.95 276.823 1154.08 277.239 Q1152.23 277.656 1150.28 278.536 L1150.28 261.175 Z" fill="#000000" fill-rule="nonzero" fill-opacity="1" /><path clip-path="url(#clip300)" d="M1114.01 81.3954 Q1110.4 81.3954 1108.57 84.9602 Q1106.76 88.5018 1106.76 95.6314 Q1106.76 102.738 1108.57 106.303 Q1110.4 109.844 1114.01 109.844 Q1117.64 109.844 1119.45 106.303 Q1121.28 102.738 1121.28 95.6314 Q1121.28 88.5018 1119.45 84.9602 Q1117.64 81.3954 1114.01 81.3954 M1114.01 77.6917 Q1119.82 77.6917 1122.88 82.2981 Q1125.95 86.8814 1125.95 95.6314 Q1125.95 104.358 1122.88 108.965 Q1119.82 113.548 1114.01 113.548 Q1108.2 113.548 1105.12 108.965 Q1102.07 104.358 1102.07 95.6314 Q1102.07 86.8814 1105.12 82.2981 Q1108.2 77.6917 1114.01 77.6917 Z" fill="#000000" fill-rule="nonzero" fill-opacity="1" /><path clip-path="url(#clip300)" d="M1134.17 106.997 L1139.06 106.997 L1139.06 112.877 L1134.17 112.877 L1134.17 106.997 Z" fill="#000000" fill-rule="nonzero" fill-opacity="1" /><path clip-path="url(#clip300)" d="M1159.24 81.3954 Q1155.63 81.3954 1153.8 84.9602 Q1152 88.5018 1152 95.6314 Q1152 102.738 1153.8 106.303 Q1155.63 109.844 1159.24 109.844 Q1162.88 109.844 1164.68 106.303 Q1166.51 102.738 1166.51 95.6314 Q1166.51 88.5018 1164.68 84.9602 Q1162.88 81.3954 1159.24 81.3954 M1159.24 77.6917 Q1165.05 77.6917 1168.11 82.2981 Q1171.19 86.8814 1171.19 95.6314 Q1171.19 104.358 1168.11 108.965 Q1165.05 113.548 1159.24 113.548 Q1153.43 113.548 1150.35 108.965 Q1147.3 104.358 1147.3 95.6314 Q1147.3 86.8814 1150.35 82.2981 Q1153.43 77.6917 1159.24 77.6917 Z" fill="#000000" fill-rule="nonzero" fill-opacity="1" /><polyline clip-path="url(#clip303)" style="stroke:#009af9; stroke-linecap:round; stroke-linejoin:round; stroke-width:4; stroke-opacity:1; fill:none" points="1222.46,69.9551 1229.62,69.9551 1229.62,106.99 1236.78,106.99 1236.78,162.74 1243.94,162.74 1243.94,221.384 1251.1,221.384 1251.1,277.464 1258.27,277.464 1258.27,329.309 1265.43,329.309 1265.43,376.615 1272.59,376.615 1272.59,419.555 1279.75,419.555 1279.75,458.449 1286.91,458.449 1286.91,493.649 1294.08,493.649 1294.08,525.493 1301.24,525.493 1301.24,554.298 1308.4,554.298 1308.4,580.353 1315.56,580.353 1315.56,603.918 1322.72,603.918 1322.72,625.233 1329.89,625.233 1329.89,644.511 1337.05,644.511 1337.05,661.948 1344.21,661.948 1344.21,677.719 1351.37,677.719 1351.37,691.983 1358.53,691.983 1358.53,704.884 1365.69,704.884 1365.69,716.553 1372.86,716.553 1372.86,727.107 1380.02,727.107 1380.02,736.653 1387.18,736.653 1387.18,745.287 1394.34,745.287 1394.34,753.096 1401.5,753.096 1401.5,760.159 1408.67,760.159 1408.67,766.547 1415.83,766.547 1415.83,772.325 1422.99,772.325 1422.99,777.551 1430.15,777.551 1430.15,782.278 1437.31,782.278 1437.31,786.553 1444.48,786.553 1444.48,790.42 1451.64,790.42 1451.64,793.917 1458.8,793.917 1458.8,797.081 1465.96,797.081 1465.96,799.942 1473.12,799.942 1473.12,802.529 1480.29,802.529 1480.29,804.87 1487.45,804.87 1487.45,806.987 1494.61,806.987 1494.61,808.901 1501.77,808.901 1501.77,810.633 1508.93,810.633 1508.93,812.2 1516.09,812.2 1516.09,813.616 1523.26,813.616 1523.26,814.898 1530.42,814.898 1530.42,816.056 1537.58,816.056 1537.58,817.105 1544.74,817.105 1544.74,818.053 1551.9,818.053 1551.9,818.91 1559.07,818.91 1559.07,819.686 1566.23,819.686 1566.23,820.387 1573.39,820.387 1573.39,821.022 1580.55,821.022 1580.55,821.596 1587.71,821.596 1587.71,822.115 1594.88,822.115 1594.88,822.584 1602.04,822.584 1602.04,823.009 1609.2,823.009 1609.2,823.393 1616.36,823.393 1616.36,823.74 1623.52,823.74 1623.52,824.054 1630.69,824.054 1630.69,824.338 1637.85,824.338 1637.85,824.595 1645.01,824.595 1645.01,824.828 1652.17,824.828 1652.17,825.038 1659.33,825.038 1659.33,825.228 1666.49,825.228 1666.49,825.4 1673.66,825.4 1673.66,825.556 1680.82,825.556 1680.82,825.696 1687.98,825.696 1687.98,825.824 1695.14,825.824 1695.14,825.939 1702.3,825.939 1702.3,826.043 1709.47,826.043 1709.47,826.137 1716.63,826.137 1716.63,826.222 1723.79,826.222 1723.79,826.299 1730.95,826.299 1730.95,826.369 1738.11,826.369 1738.11,826.432 1745.28,826.432 1745.28,826.489 1752.44,826.489 1752.44,826.54 1759.6,826.54 1759.6,826.587 1766.76,826.587 1766.76,826.629 1773.92,826.629 1773.92,826.667 1781.09,826.667 1781.09,826.702 1788.25,826.702 1788.25,826.733 1795.41,826.733 1795.41,826.761 1802.57,826.761 1802.57,826.787 1809.73,826.787 1809.73,826.81 1816.89,826.81 1816.89,826.831 1824.06,826.831 1824.06,826.85 1831.22,826.85 1831.22,826.867 1838.38,826.867 1838.38,826.882 1845.54,826.882 1845.54,826.896 1852.7,826.896 1852.7,826.909 1859.87,826.909 1859.87,826.92 1867.03,826.92 1867.03,826.931 1874.19,826.931 1874.19,826.94 1881.35,826.94 1881.35,826.948 1888.51,826.948 1888.51,826.956 1895.68,826.956 1895.68,826.963 1902.84,826.963 1902.84,826.969 1910,826.969 1910,826.975 1917.16,826.975 1917.16,826.98 1924.32,826.98 1924.32,826.985 1931.49,826.985 1931.49,826.989 "/>
<path clip-path="url(#clip300)" d="M1801.25 177.673 L1927.7 177.673 L1927.7 73.9926 L1801.25 73.9926  Z" fill="#ffffff" fill-rule="evenodd" fill-opacity="1"/>
<polyline clip-path="url(#clip300)" style="stroke:#000000; stroke-linecap:round; stroke-linejoin:round; stroke-width:4; stroke-opacity:1; fill:none" points="1801.25,177.673 1927.7,177.673 1927.7,73.9926 1801.25,73.9926 1801.25,177.673 "/>
<polyline clip-path="url(#clip300)" style="stroke:#009af9; stroke-linecap:round; stroke-linejoin:round; stroke-width:4; stroke-opacity:1; fill:none" points="1809.6,125.833 1859.71,125.833 "/>
<path clip-path="url(#clip300)" d="M1892.72 122.553 Q1892.11 125.575 1891.29 127.308 Q1889.96 129.955 1887.73 129.955 Q1886.19 129.955 1885.01 129.088 Q1883.87 128.198 1883.47 126.722 Q1883.02 127.308 1882.62 127.706 Q1882.25 128.104 1881.52 128.713 Q1880.8 129.299 1879.81 129.627 Q1878.85 129.955 1877.75 129.955 Q1876.91 129.955 1876.14 129.791 Q1875.36 129.65 1874.54 129.252 Q1873.75 128.83 1873.16 128.198 Q1872.6 127.566 1872.23 126.535 Q1871.85 125.504 1871.85 124.193 Q1871.85 122.553 1872.48 120.328 Q1873.14 118.103 1874.64 114.121 Q1875.46 112.013 1875.46 110.842 Q1875.46 110.303 1875.34 109.952 Q1875.22 109.601 1874.99 109.483 Q1874.78 109.343 1874.64 109.319 Q1874.5 109.273 1874.26 109.273 Q1872.81 109.273 1871.55 110.748 Q1870.28 112.224 1869.41 115.222 Q1869.23 115.808 1869.11 115.948 Q1868.99 116.089 1868.64 116.089 Q1868.06 116.065 1868.06 115.597 Q1868.06 115.409 1868.27 114.683 Q1868.48 113.934 1868.97 112.833 Q1869.48 111.709 1870.19 110.701 Q1870.89 109.671 1871.99 108.945 Q1873.12 108.219 1874.4 108.219 Q1876.16 108.219 1877.24 109.366 Q1878.34 110.491 1878.34 112.154 Q1878.34 113.184 1877.52 115.175 Q1874.92 122.085 1874.92 124.966 Q1874.92 128.877 1877.89 128.877 Q1878.88 128.877 1879.79 128.479 Q1880.73 128.081 1881.34 127.519 Q1881.95 126.957 1882.41 126.348 Q1882.91 125.739 1883.12 125.34 Q1883.35 124.942 1883.37 124.849 L1886.96 110.42 Q1887.1 109.858 1887.36 109.483 Q1887.64 109.085 1887.97 108.945 Q1888.29 108.804 1888.48 108.781 Q1888.67 108.734 1888.83 108.734 Q1889.42 108.734 1889.82 109.085 Q1890.24 109.437 1890.24 110.046 Q1890.24 110.163 1890.1 110.725 Q1889.98 111.264 1889.79 112.06 Q1889.6 112.833 1889.51 113.254 Q1888.76 116.206 1888.69 116.51 L1887.36 121.687 Q1887.29 121.991 1887.05 122.975 Q1886.84 123.959 1886.72 124.474 Q1886.61 124.966 1886.49 125.645 Q1886.4 126.301 1886.4 126.676 Q1886.4 127.847 1886.75 128.362 Q1887.1 128.877 1887.87 128.877 Q1888.6 128.877 1889.16 128.385 Q1889.75 127.87 1890.19 126.886 Q1890.64 125.879 1890.89 125.059 Q1891.15 124.24 1891.48 122.951 Q1891.6 122.389 1891.69 122.249 Q1891.81 122.085 1892.13 122.085 Q1892.72 122.085 1892.72 122.553 Z" fill="#000000" fill-rule="nonzero" fill-opacity="1" /><path clip-path="url(#clip300)" d="M1897.6 124.072 L1897.6 123.023 Q1901.64 123.023 1903.72 120.875 Q1904.29 120.875 1904.39 121.006 Q1904.49 121.137 1904.49 121.744 L1904.49 140.583 Q1904.49 141.583 1904.98 141.894 Q1905.47 142.206 1907.62 142.206 L1908.69 142.206 L1908.69 143.239 Q1907.51 143.14 1903.24 143.14 Q1898.98 143.14 1897.82 143.239 L1897.82 142.206 L1898.88 142.206 Q1901 142.206 1901.51 141.911 Q1902.01 141.599 1902.01 140.583 L1902.01 123.187 Q1900.26 124.072 1897.6 124.072 Z" fill="#000000" fill-rule="nonzero" fill-opacity="1" /></svg>
