<?xml version="1.0" encoding="utf-8"?>
<svg xmlns="http://www.w3.org/2000/svg" xmlns:xlink="http://www.w3.org/1999/xlink" width="600" height="400" viewBox="0 0 2400 1600">
<defs>
  <clipPath id="clip030">
    <rect x="0" y="0" width="2400" height="1600"/>
  </clipPath>
</defs>
<path clip-path="url(#clip030)" d="M0 1600 L2400 1600 L2400 0 L0 0  Z" fill="#ffffff" fill-rule="evenodd" fill-opacity="1"/>
<defs>
  <clipPath id="clip031">
    <rect x="287" y="47" width="2066" height="1377"/>
  </clipPath>
</defs>
<path clip-path="url(#clip030)" d="M287.366 1423.18 L2352.76 1423.18 L2352.76 47.2441 L287.366 47.2441  Z" fill="#ffffff" fill-rule="evenodd" fill-opacity="1"/>
<polyline clip-path="url(#clip031)" style="stroke:#000000; stroke-linecap:round; stroke-linejoin:round; stroke-width:2; stroke-opacity:0.1; fill:none" points="345.82,1423.18 345.82,47.2441 "/>
<polyline clip-path="url(#clip031)" style="stroke:#000000; stroke-linecap:round; stroke-linejoin:round; stroke-width:2; stroke-opacity:0.1; fill:none" points="736.298,1423.18 736.298,47.2441 "/>
<polyline clip-path="url(#clip031)" style="stroke:#000000; stroke-linecap:round; stroke-linejoin:round; stroke-width:2; stroke-opacity:0.1; fill:none" points="1126.77,1423.18 1126.77,47.2441 "/>
<polyline clip-path="url(#clip031)" style="stroke:#000000; stroke-linecap:round; stroke-linejoin:round; stroke-width:2; stroke-opacity:0.1; fill:none" points="1517.25,1423.18 1517.25,47.2441 "/>
<polyline clip-path="url(#clip031)" style="stroke:#000000; stroke-linecap:round; stroke-linejoin:round; stroke-width:2; stroke-opacity:0.1; fill:none" points="1907.73,1423.18 1907.73,47.2441 "/>
<polyline clip-path="url(#clip031)" style="stroke:#000000; stroke-linecap:round; stroke-linejoin:round; stroke-width:2; stroke-opacity:0.1; fill:none" points="2298.21,1423.18 2298.21,47.2441 "/>
<polyline clip-path="url(#clip031)" style="stroke:#000000; stroke-linecap:round; stroke-linejoin:round; stroke-width:2; stroke-opacity:0.1; fill:none" points="287.366,1423.18 2352.76,1423.18 "/>
<polyline clip-path="url(#clip031)" style="stroke:#000000; stroke-linecap:round; stroke-linejoin:round; stroke-width:2; stroke-opacity:0.1; fill:none" points="287.366,1226.62 2352.76,1226.62 "/>
<polyline clip-path="url(#clip031)" style="stroke:#000000; stroke-linecap:round; stroke-linejoin:round; stroke-width:2; stroke-opacity:0.1; fill:none" points="287.366,1030.06 2352.76,1030.06 "/>
<polyline clip-path="url(#clip031)" style="stroke:#000000; stroke-linecap:round; stroke-linejoin:round; stroke-width:2; stroke-opacity:0.1; fill:none" points="287.366,833.493 2352.76,833.493 "/>
<polyline clip-path="url(#clip031)" style="stroke:#000000; stroke-linecap:round; stroke-linejoin:round; stroke-width:2; stroke-opacity:0.1; fill:none" points="287.366,636.931 2352.76,636.931 "/>
<polyline clip-path="url(#clip031)" style="stroke:#000000; stroke-linecap:round; stroke-linejoin:round; stroke-width:2; stroke-opacity:0.1; fill:none" points="287.366,440.369 2352.76,440.369 "/>
<polyline clip-path="url(#clip031)" style="stroke:#000000; stroke-linecap:round; stroke-linejoin:round; stroke-width:2; stroke-opacity:0.1; fill:none" points="287.366,243.806 2352.76,243.806 "/>
<polyline clip-path="url(#clip031)" style="stroke:#000000; stroke-linecap:round; stroke-linejoin:round; stroke-width:2; stroke-opacity:0.1; fill:none" points="287.366,47.2441 2352.76,47.2441 "/>
<polyline clip-path="url(#clip030)" style="stroke:#000000; stroke-linecap:round; stroke-linejoin:round; stroke-width:4; stroke-opacity:1; fill:none" points="287.366,1423.18 2352.76,1423.18 "/>
<polyline clip-path="url(#clip030)" style="stroke:#000000; stroke-linecap:round; stroke-linejoin:round; stroke-width:4; stroke-opacity:1; fill:none" points="345.82,1423.18 345.82,1404.28 "/>
<polyline clip-path="url(#clip030)" style="stroke:#000000; stroke-linecap:round; stroke-linejoin:round; stroke-width:4; stroke-opacity:1; fill:none" points="736.298,1423.18 736.298,1404.28 "/>
<polyline clip-path="url(#clip030)" style="stroke:#000000; stroke-linecap:round; stroke-linejoin:round; stroke-width:4; stroke-opacity:1; fill:none" points="1126.77,1423.18 1126.77,1404.28 "/>
<polyline clip-path="url(#clip030)" style="stroke:#000000; stroke-linecap:round; stroke-linejoin:round; stroke-width:4; stroke-opacity:1; fill:none" points="1517.25,1423.18 1517.25,1404.28 "/>
<polyline clip-path="url(#clip030)" style="stroke:#000000; stroke-linecap:round; stroke-linejoin:round; stroke-width:4; stroke-opacity:1; fill:none" points="1907.73,1423.18 1907.73,1404.28 "/>
<polyline clip-path="url(#clip030)" style="stroke:#000000; stroke-linecap:round; stroke-linejoin:round; stroke-width:4; stroke-opacity:1; fill:none" points="2298.21,1423.18 2298.21,1404.28 "/>
<path clip-path="url(#clip030)" d="M345.82 1454.1 Q342.209 1454.1 340.381 1457.66 Q338.575 1461.2 338.575 1468.33 Q338.575 1475.44 340.381 1479.01 Q342.209 1482.55 345.82 1482.55 Q349.455 1482.55 351.26 1479.01 Q353.089 1475.44 353.089 1468.33 Q353.089 1461.2 351.26 1457.66 Q349.455 1454.1 345.82 1454.1 M345.82 1450.39 Q351.63 1450.39 354.686 1455 Q357.765 1459.58 357.765 1468.33 Q357.765 1477.06 354.686 1481.67 Q351.63 1486.25 345.82 1486.25 Q340.01 1486.25 336.931 1481.67 Q333.876 1477.06 333.876 1468.33 Q333.876 1459.58 336.931 1455 Q340.01 1450.39 345.82 1450.39 Z" fill="#000000" fill-rule="nonzero" fill-opacity="1" /><path clip-path="url(#clip030)" d="M726.68 1481.64 L734.318 1481.64 L734.318 1455.28 L726.008 1456.95 L726.008 1452.69 L734.272 1451.02 L738.948 1451.02 L738.948 1481.64 L746.587 1481.64 L746.587 1485.58 L726.68 1485.58 L726.68 1481.64 Z" fill="#000000" fill-rule="nonzero" fill-opacity="1" /><path clip-path="url(#clip030)" d="M1121.43 1481.64 L1137.75 1481.64 L1137.75 1485.58 L1115.8 1485.58 L1115.8 1481.64 Q1118.46 1478.89 1123.05 1474.26 Q1127.65 1469.61 1128.83 1468.27 Q1131.08 1465.74 1131.96 1464.01 Q1132.86 1462.25 1132.86 1460.56 Q1132.86 1457.8 1130.92 1456.07 Q1129 1454.33 1125.9 1454.33 Q1123.7 1454.33 1121.24 1455.09 Q1118.81 1455.86 1116.03 1457.41 L1116.03 1452.69 Q1118.86 1451.55 1121.31 1450.97 Q1123.77 1450.39 1125.8 1450.39 Q1131.17 1450.39 1134.37 1453.08 Q1137.56 1455.77 1137.56 1460.26 Q1137.56 1462.39 1136.75 1464.31 Q1135.96 1466.2 1133.86 1468.8 Q1133.28 1469.47 1130.18 1472.69 Q1127.08 1475.88 1121.43 1481.64 Z" fill="#000000" fill-rule="nonzero" fill-opacity="1" /><path clip-path="url(#clip030)" d="M1521.5 1466.95 Q1524.86 1467.66 1526.73 1469.93 Q1528.63 1472.2 1528.63 1475.53 Q1528.63 1480.65 1525.11 1483.45 Q1521.59 1486.25 1515.11 1486.25 Q1512.93 1486.25 1510.62 1485.81 Q1508.33 1485.39 1505.87 1484.54 L1505.87 1480.02 Q1507.82 1481.16 1510.13 1481.74 Q1512.45 1482.32 1514.97 1482.32 Q1519.37 1482.32 1521.66 1480.58 Q1523.98 1478.84 1523.98 1475.53 Q1523.98 1472.48 1521.82 1470.77 Q1519.69 1469.03 1515.87 1469.03 L1511.85 1469.03 L1511.85 1465.19 L1516.06 1465.19 Q1519.51 1465.19 1521.34 1463.82 Q1523.17 1462.43 1523.17 1459.84 Q1523.17 1457.18 1521.27 1455.77 Q1519.39 1454.33 1515.87 1454.33 Q1513.95 1454.33 1511.75 1454.75 Q1509.56 1455.16 1506.92 1456.04 L1506.92 1451.88 Q1509.58 1451.14 1511.89 1450.77 Q1514.23 1450.39 1516.29 1450.39 Q1521.62 1450.39 1524.72 1452.83 Q1527.82 1455.23 1527.82 1459.35 Q1527.82 1462.22 1526.18 1464.21 Q1524.53 1466.18 1521.5 1466.95 Z" fill="#000000" fill-rule="nonzero" fill-opacity="1" /><path clip-path="url(#clip030)" d="M1910.74 1455.09 L1898.93 1473.54 L1910.74 1473.54 L1910.74 1455.09 M1909.51 1451.02 L1915.39 1451.02 L1915.39 1473.54 L1920.32 1473.54 L1920.32 1477.43 L1915.39 1477.43 L1915.39 1485.58 L1910.74 1485.58 L1910.74 1477.43 L1895.14 1477.43 L1895.14 1472.92 L1909.51 1451.02 Z" fill="#000000" fill-rule="nonzero" fill-opacity="1" /><path clip-path="url(#clip030)" d="M2288.48 1451.02 L2306.84 1451.02 L2306.84 1454.96 L2292.77 1454.96 L2292.77 1463.43 Q2293.78 1463.08 2294.8 1462.92 Q2295.82 1462.73 2296.84 1462.73 Q2302.63 1462.73 2306.01 1465.9 Q2309.39 1469.08 2309.39 1474.49 Q2309.39 1480.07 2305.91 1483.17 Q2302.44 1486.25 2296.12 1486.25 Q2293.95 1486.25 2291.68 1485.88 Q2289.43 1485.51 2287.03 1484.77 L2287.03 1480.07 Q2289.11 1481.2 2291.33 1481.76 Q2293.55 1482.32 2296.03 1482.32 Q2300.03 1482.32 2302.37 1480.21 Q2304.71 1478.1 2304.71 1474.49 Q2304.71 1470.88 2302.37 1468.77 Q2300.03 1466.67 2296.03 1466.67 Q2294.16 1466.67 2292.28 1467.08 Q2290.43 1467.5 2288.48 1468.38 L2288.48 1451.02 Z" fill="#000000" fill-rule="nonzero" fill-opacity="1" /><path clip-path="url(#clip030)" d="M1190.23 1520.52 L1230.43 1520.52 L1230.43 1525.93 L1213.56 1525.93 L1213.56 1568.04 L1207.1 1568.04 L1207.1 1525.93 L1190.23 1525.93 L1190.23 1520.52 Z" fill="#000000" fill-rule="nonzero" fill-opacity="1" /><path clip-path="url(#clip030)" d="M1234.38 1532.4 L1240.23 1532.4 L1240.23 1568.04 L1234.38 1568.04 L1234.38 1532.4 M1234.38 1518.52 L1240.23 1518.52 L1240.23 1525.93 L1234.38 1525.93 L1234.38 1518.52 Z" fill="#000000" fill-rule="nonzero" fill-opacity="1" /><path clip-path="url(#clip030)" d="M1280.24 1539.24 Q1282.44 1535.29 1285.5 1533.41 Q1288.55 1531.54 1292.69 1531.54 Q1298.26 1531.54 1301.28 1535.45 Q1304.31 1539.33 1304.31 1546.53 L1304.31 1568.04 L1298.42 1568.04 L1298.42 1546.72 Q1298.42 1541.59 1296.6 1539.11 Q1294.79 1536.63 1291.07 1536.63 Q1286.51 1536.63 1283.87 1539.65 Q1281.23 1542.68 1281.23 1547.9 L1281.23 1568.04 L1275.34 1568.04 L1275.34 1546.72 Q1275.34 1541.56 1273.53 1539.11 Q1271.71 1536.63 1267.93 1536.63 Q1263.44 1536.63 1260.8 1539.68 Q1258.15 1542.71 1258.15 1547.9 L1258.15 1568.04 L1252.27 1568.04 L1252.27 1532.4 L1258.15 1532.4 L1258.15 1537.93 Q1260.16 1534.66 1262.96 1533.1 Q1265.76 1531.54 1269.61 1531.54 Q1273.5 1531.54 1276.2 1533.51 Q1278.94 1535.48 1280.24 1539.24 Z" fill="#000000" fill-rule="nonzero" fill-opacity="1" /><path clip-path="url(#clip030)" d="M1346.48 1548.76 L1346.48 1551.62 L1319.55 1551.62 Q1319.93 1557.67 1323.18 1560.85 Q1326.46 1564 1332.28 1564 Q1335.66 1564 1338.81 1563.17 Q1341.99 1562.35 1345.11 1560.69 L1345.11 1566.23 Q1341.96 1567.57 1338.65 1568.27 Q1335.34 1568.97 1331.93 1568.97 Q1323.4 1568.97 1318.41 1564 Q1313.44 1559.04 1313.44 1550.57 Q1313.44 1541.82 1318.15 1536.69 Q1322.89 1531.54 1330.91 1531.54 Q1338.11 1531.54 1342.28 1536.18 Q1346.48 1540.8 1346.48 1548.76 M1340.62 1547.04 Q1340.56 1542.23 1337.92 1539.37 Q1335.31 1536.5 1330.98 1536.5 Q1326.08 1536.5 1323.12 1539.27 Q1320.19 1542.04 1319.74 1547.07 L1340.62 1547.04 Z" fill="#000000" fill-rule="nonzero" fill-opacity="1" /><path clip-path="url(#clip030)" d="M1376.27 1518.52 L1389.77 1518.52 L1389.77 1523.07 L1382.13 1523.07 L1382.13 1572.09 L1389.77 1572.09 L1389.77 1576.64 L1376.27 1576.64 L1376.27 1518.52 Z" fill="#000000" fill-rule="nonzero" fill-opacity="1" /><path clip-path="url(#clip030)" d="M1424.97 1533.45 L1424.97 1538.98 Q1422.49 1537.71 1419.81 1537.07 Q1417.14 1536.44 1414.27 1536.44 Q1409.91 1536.44 1407.72 1537.77 Q1405.55 1539.11 1405.55 1541.79 Q1405.55 1543.82 1407.11 1545 Q1408.67 1546.15 1413.38 1547.2 L1415.39 1547.64 Q1421.63 1548.98 1424.24 1551.43 Q1426.88 1553.85 1426.88 1558.21 Q1426.88 1563.17 1422.93 1566.07 Q1419.02 1568.97 1412.14 1568.97 Q1409.28 1568.97 1406.16 1568.39 Q1403.07 1567.85 1399.63 1566.74 L1399.63 1560.69 Q1402.88 1562.38 1406.03 1563.24 Q1409.18 1564.07 1412.27 1564.07 Q1416.41 1564.07 1418.63 1562.66 Q1420.86 1561.23 1420.86 1558.65 Q1420.86 1556.27 1419.24 1554.99 Q1417.65 1553.72 1412.2 1552.54 L1410.17 1552.07 Q1404.72 1550.92 1402.31 1548.56 Q1399.89 1546.18 1399.89 1542.04 Q1399.89 1537.01 1403.45 1534.27 Q1407.02 1531.54 1413.57 1531.54 Q1416.82 1531.54 1419.68 1532.01 Q1422.55 1532.49 1424.97 1533.45 Z" fill="#000000" fill-rule="nonzero" fill-opacity="1" /><path clip-path="url(#clip030)" d="M1449.89 1518.52 L1449.89 1576.64 L1436.39 1576.64 L1436.39 1572.09 L1444 1572.09 L1444 1523.07 L1436.39 1523.07 L1436.39 1518.52 L1449.89 1518.52 Z" fill="#000000" fill-rule="nonzero" fill-opacity="1" /><polyline clip-path="url(#clip030)" style="stroke:#000000; stroke-linecap:round; stroke-linejoin:round; stroke-width:4; stroke-opacity:1; fill:none" points="287.366,1423.18 287.366,47.2441 "/>
<polyline clip-path="url(#clip030)" style="stroke:#000000; stroke-linecap:round; stroke-linejoin:round; stroke-width:4; stroke-opacity:1; fill:none" points="287.366,1423.18 306.264,1423.18 "/>
<polyline clip-path="url(#clip030)" style="stroke:#000000; stroke-linecap:round; stroke-linejoin:round; stroke-width:4; stroke-opacity:1; fill:none" points="287.366,1226.62 306.264,1226.62 "/>
<polyline clip-path="url(#clip030)" style="stroke:#000000; stroke-linecap:round; stroke-linejoin:round; stroke-width:4; stroke-opacity:1; fill:none" points="287.366,1030.06 306.264,1030.06 "/>
<polyline clip-path="url(#clip030)" style="stroke:#000000; stroke-linecap:round; stroke-linejoin:round; stroke-width:4; stroke-opacity:1; fill:none" points="287.366,833.493 306.264,833.493 "/>
<polyline clip-path="url(#clip030)" style="stroke:#000000; stroke-linecap:round; stroke-linejoin:round; stroke-width:4; stroke-opacity:1; fill:none" points="287.366,636.931 306.264,636.931 "/>
<polyline clip-path="url(#clip030)" style="stroke:#000000; stroke-linecap:round; stroke-linejoin:round; stroke-width:4; stroke-opacity:1; fill:none" points="287.366,440.369 306.264,440.369 "/>
<polyline clip-path="url(#clip030)" style="stroke:#000000; stroke-linecap:round; stroke-linejoin:round; stroke-width:4; stroke-opacity:1; fill:none" points="287.366,243.806 306.264,243.806 "/>
<polyline clip-path="url(#clip030)" style="stroke:#000000; stroke-linecap:round; stroke-linejoin:round; stroke-width:4; stroke-opacity:1; fill:none" points="287.366,47.2441 306.264,47.2441 "/>
<path clip-path="url(#clip030)" d="M114.26 1423.63 L143.936 1423.63 L143.936 1427.57 L114.26 1427.57 L114.26 1423.63 Z" fill="#000000" fill-rule="nonzero" fill-opacity="1" /><path clip-path="url(#clip030)" d="M164.028 1408.98 Q160.417 1408.98 158.589 1412.54 Q156.783 1416.08 156.783 1423.21 Q156.783 1430.32 158.589 1433.89 Q160.417 1437.43 164.028 1437.43 Q167.663 1437.43 169.468 1433.89 Q171.297 1430.32 171.297 1423.21 Q171.297 1416.08 169.468 1412.54 Q167.663 1408.98 164.028 1408.98 M164.028 1405.27 Q169.839 1405.27 172.894 1409.88 Q175.973 1414.46 175.973 1423.21 Q175.973 1431.94 172.894 1436.55 Q169.839 1441.13 164.028 1441.13 Q158.218 1441.13 155.14 1436.55 Q152.084 1431.94 152.084 1423.21 Q152.084 1414.46 155.14 1409.88 Q158.218 1405.27 164.028 1405.27 Z" fill="#000000" fill-rule="nonzero" fill-opacity="1" /><path clip-path="url(#clip030)" d="M184.19 1434.58 L189.075 1434.58 L189.075 1440.46 L184.19 1440.46 L184.19 1434.58 Z" fill="#000000" fill-rule="nonzero" fill-opacity="1" /><path clip-path="url(#clip030)" d="M199.306 1405.9 L217.662 1405.9 L217.662 1409.84 L203.588 1409.84 L203.588 1418.31 Q204.607 1417.96 205.625 1417.8 Q206.644 1417.61 207.662 1417.61 Q213.449 1417.61 216.829 1420.78 Q220.209 1423.96 220.209 1429.37 Q220.209 1434.95 216.736 1438.05 Q213.264 1441.13 206.945 1441.13 Q204.769 1441.13 202.5 1440.76 Q200.255 1440.39 197.848 1439.65 L197.848 1434.95 Q199.931 1436.08 202.153 1436.64 Q204.375 1437.2 206.852 1437.2 Q210.857 1437.2 213.195 1435.09 Q215.533 1432.98 215.533 1429.37 Q215.533 1425.76 213.195 1423.65 Q210.857 1421.55 206.852 1421.55 Q204.977 1421.55 203.102 1421.96 Q201.25 1422.38 199.306 1423.26 L199.306 1405.9 Z" fill="#000000" fill-rule="nonzero" fill-opacity="1" /><path clip-path="url(#clip030)" d="M239.422 1408.98 Q235.81 1408.98 233.982 1412.54 Q232.176 1416.08 232.176 1423.21 Q232.176 1430.32 233.982 1433.89 Q235.81 1437.43 239.422 1437.43 Q243.056 1437.43 244.861 1433.89 Q246.69 1430.32 246.69 1423.21 Q246.69 1416.08 244.861 1412.54 Q243.056 1408.98 239.422 1408.98 M239.422 1405.27 Q245.232 1405.27 248.287 1409.88 Q251.366 1414.46 251.366 1423.21 Q251.366 1431.94 248.287 1436.55 Q245.232 1441.13 239.422 1441.13 Q233.611 1441.13 230.533 1436.55 Q227.477 1431.94 227.477 1423.21 Q227.477 1414.46 230.533 1409.88 Q233.611 1405.27 239.422 1405.27 Z" fill="#000000" fill-rule="nonzero" fill-opacity="1" /><path clip-path="url(#clip030)" d="M115.256 1227.07 L144.931 1227.07 L144.931 1231 L115.256 1231 L115.256 1227.07 Z" fill="#000000" fill-rule="nonzero" fill-opacity="1" /><path clip-path="url(#clip030)" d="M165.024 1212.42 Q161.413 1212.42 159.584 1215.98 Q157.778 1219.52 157.778 1226.65 Q157.778 1233.76 159.584 1237.32 Q161.413 1240.87 165.024 1240.87 Q168.658 1240.87 170.464 1237.32 Q172.292 1233.76 172.292 1226.65 Q172.292 1219.52 170.464 1215.98 Q168.658 1212.42 165.024 1212.42 M165.024 1208.71 Q170.834 1208.71 173.889 1213.32 Q176.968 1217.9 176.968 1226.65 Q176.968 1235.38 173.889 1239.99 Q170.834 1244.57 165.024 1244.57 Q159.214 1244.57 156.135 1239.99 Q153.079 1235.38 153.079 1226.65 Q153.079 1217.9 156.135 1213.32 Q159.214 1208.71 165.024 1208.71 Z" fill="#000000" fill-rule="nonzero" fill-opacity="1" /><path clip-path="url(#clip030)" d="M185.186 1238.02 L190.07 1238.02 L190.07 1243.9 L185.186 1243.9 L185.186 1238.02 Z" fill="#000000" fill-rule="nonzero" fill-opacity="1" /><path clip-path="url(#clip030)" d="M204.283 1239.96 L220.602 1239.96 L220.602 1243.9 L198.658 1243.9 L198.658 1239.96 Q201.32 1237.21 205.903 1232.58 Q210.51 1227.93 211.69 1226.58 Q213.936 1224.06 214.815 1222.32 Q215.718 1220.56 215.718 1218.87 Q215.718 1216.12 213.774 1214.38 Q211.852 1212.65 208.75 1212.65 Q206.551 1212.65 204.098 1213.41 Q201.667 1214.18 198.889 1215.73 L198.889 1211 Q201.713 1209.87 204.167 1209.29 Q206.621 1208.71 208.658 1208.71 Q214.028 1208.71 217.223 1211.4 Q220.417 1214.08 220.417 1218.57 Q220.417 1220.7 219.607 1222.62 Q218.82 1224.52 216.713 1227.12 Q216.135 1227.79 213.033 1231 Q209.931 1234.2 204.283 1239.96 Z" fill="#000000" fill-rule="nonzero" fill-opacity="1" /><path clip-path="url(#clip030)" d="M230.463 1209.34 L248.82 1209.34 L248.82 1213.27 L234.746 1213.27 L234.746 1221.74 Q235.764 1221.4 236.783 1221.24 Q237.801 1221.05 238.82 1221.05 Q244.607 1221.05 247.986 1224.22 Q251.366 1227.39 251.366 1232.81 Q251.366 1238.39 247.894 1241.49 Q244.421 1244.57 238.102 1244.57 Q235.926 1244.57 233.658 1244.2 Q231.412 1243.83 229.005 1243.09 L229.005 1238.39 Q231.088 1239.52 233.31 1240.08 Q235.533 1240.63 238.009 1240.63 Q242.014 1240.63 244.352 1238.53 Q246.69 1236.42 246.69 1232.81 Q246.69 1229.2 244.352 1227.09 Q242.014 1224.99 238.009 1224.99 Q236.135 1224.99 234.26 1225.4 Q232.408 1225.82 230.463 1226.7 L230.463 1209.34 Z" fill="#000000" fill-rule="nonzero" fill-opacity="1" /><path clip-path="url(#clip030)" d="M164.028 1015.85 Q160.417 1015.85 158.589 1019.42 Q156.783 1022.96 156.783 1030.09 Q156.783 1037.2 158.589 1040.76 Q160.417 1044.3 164.028 1044.3 Q167.663 1044.3 169.468 1040.76 Q171.297 1037.2 171.297 1030.09 Q171.297 1022.96 169.468 1019.42 Q167.663 1015.85 164.028 1015.85 M164.028 1012.15 Q169.839 1012.15 172.894 1016.76 Q175.973 1021.34 175.973 1030.09 Q175.973 1038.82 172.894 1043.42 Q169.839 1048.01 164.028 1048.01 Q158.218 1048.01 155.14 1043.42 Q152.084 1038.82 152.084 1030.09 Q152.084 1021.34 155.14 1016.76 Q158.218 1012.15 164.028 1012.15 Z" fill="#000000" fill-rule="nonzero" fill-opacity="1" /><path clip-path="url(#clip030)" d="M184.19 1041.46 L189.075 1041.46 L189.075 1047.34 L184.19 1047.34 L184.19 1041.46 Z" fill="#000000" fill-rule="nonzero" fill-opacity="1" /><path clip-path="url(#clip030)" d="M209.26 1015.85 Q205.649 1015.85 203.82 1019.42 Q202.014 1022.96 202.014 1030.09 Q202.014 1037.2 203.82 1040.76 Q205.649 1044.3 209.26 1044.3 Q212.894 1044.3 214.699 1040.76 Q216.528 1037.2 216.528 1030.09 Q216.528 1022.96 214.699 1019.42 Q212.894 1015.85 209.26 1015.85 M209.26 1012.15 Q215.07 1012.15 218.125 1016.76 Q221.204 1021.34 221.204 1030.09 Q221.204 1038.82 218.125 1043.42 Q215.07 1048.01 209.26 1048.01 Q203.449 1048.01 200.371 1043.42 Q197.315 1038.82 197.315 1030.09 Q197.315 1021.34 200.371 1016.76 Q203.449 1012.15 209.26 1012.15 Z" fill="#000000" fill-rule="nonzero" fill-opacity="1" /><path clip-path="url(#clip030)" d="M239.422 1015.85 Q235.81 1015.85 233.982 1019.42 Q232.176 1022.96 232.176 1030.09 Q232.176 1037.2 233.982 1040.76 Q235.81 1044.3 239.422 1044.3 Q243.056 1044.3 244.861 1040.76 Q246.69 1037.2 246.69 1030.09 Q246.69 1022.96 244.861 1019.42 Q243.056 1015.85 239.422 1015.85 M239.422 1012.15 Q245.232 1012.15 248.287 1016.76 Q251.366 1021.34 251.366 1030.09 Q251.366 1038.82 248.287 1043.42 Q245.232 1048.01 239.422 1048.01 Q233.611 1048.01 230.533 1043.42 Q227.477 1038.82 227.477 1030.09 Q227.477 1021.34 230.533 1016.76 Q233.611 1012.15 239.422 1012.15 Z" fill="#000000" fill-rule="nonzero" fill-opacity="1" /><path clip-path="url(#clip030)" d="M165.024 819.292 Q161.413 819.292 159.584 822.857 Q157.778 826.398 157.778 833.528 Q157.778 840.634 159.584 844.199 Q161.413 847.741 165.024 847.741 Q168.658 847.741 170.464 844.199 Q172.292 840.634 172.292 833.528 Q172.292 826.398 170.464 822.857 Q168.658 819.292 165.024 819.292 M165.024 815.588 Q170.834 815.588 173.889 820.195 Q176.968 824.778 176.968 833.528 Q176.968 842.255 173.889 846.861 Q170.834 851.444 165.024 851.444 Q159.214 851.444 156.135 846.861 Q153.079 842.255 153.079 833.528 Q153.079 824.778 156.135 820.195 Q159.214 815.588 165.024 815.588 Z" fill="#000000" fill-rule="nonzero" fill-opacity="1" /><path clip-path="url(#clip030)" d="M185.186 844.893 L190.07 844.893 L190.07 850.773 L185.186 850.773 L185.186 844.893 Z" fill="#000000" fill-rule="nonzero" fill-opacity="1" /><path clip-path="url(#clip030)" d="M204.283 846.838 L220.602 846.838 L220.602 850.773 L198.658 850.773 L198.658 846.838 Q201.32 844.083 205.903 839.454 Q210.51 834.801 211.69 833.458 Q213.936 830.935 214.815 829.199 Q215.718 827.44 215.718 825.75 Q215.718 822.995 213.774 821.259 Q211.852 819.523 208.75 819.523 Q206.551 819.523 204.098 820.287 Q201.667 821.051 198.889 822.602 L198.889 817.88 Q201.713 816.745 204.167 816.167 Q206.621 815.588 208.658 815.588 Q214.028 815.588 217.223 818.273 Q220.417 820.958 220.417 825.449 Q220.417 827.579 219.607 829.5 Q218.82 831.398 216.713 833.991 Q216.135 834.662 213.033 837.88 Q209.931 841.074 204.283 846.838 Z" fill="#000000" fill-rule="nonzero" fill-opacity="1" /><path clip-path="url(#clip030)" d="M230.463 816.213 L248.82 816.213 L248.82 820.148 L234.746 820.148 L234.746 828.62 Q235.764 828.273 236.783 828.111 Q237.801 827.926 238.82 827.926 Q244.607 827.926 247.986 831.097 Q251.366 834.269 251.366 839.685 Q251.366 845.264 247.894 848.366 Q244.421 851.444 238.102 851.444 Q235.926 851.444 233.658 851.074 Q231.412 850.704 229.005 849.963 L229.005 845.264 Q231.088 846.398 233.31 846.954 Q235.533 847.509 238.009 847.509 Q242.014 847.509 244.352 845.403 Q246.69 843.296 246.69 839.685 Q246.69 836.074 244.352 833.968 Q242.014 831.861 238.009 831.861 Q236.135 831.861 234.26 832.278 Q232.408 832.694 230.463 833.574 L230.463 816.213 Z" fill="#000000" fill-rule="nonzero" fill-opacity="1" /><path clip-path="url(#clip030)" d="M164.028 622.73 Q160.417 622.73 158.589 626.294 Q156.783 629.836 156.783 636.966 Q156.783 644.072 158.589 647.637 Q160.417 651.178 164.028 651.178 Q167.663 651.178 169.468 647.637 Q171.297 644.072 171.297 636.966 Q171.297 629.836 169.468 626.294 Q167.663 622.73 164.028 622.73 M164.028 619.026 Q169.839 619.026 172.894 623.632 Q175.973 628.216 175.973 636.966 Q175.973 645.692 172.894 650.299 Q169.839 654.882 164.028 654.882 Q158.218 654.882 155.14 650.299 Q152.084 645.692 152.084 636.966 Q152.084 628.216 155.14 623.632 Q158.218 619.026 164.028 619.026 Z" fill="#000000" fill-rule="nonzero" fill-opacity="1" /><path clip-path="url(#clip030)" d="M184.19 648.331 L189.075 648.331 L189.075 654.211 L184.19 654.211 L184.19 648.331 Z" fill="#000000" fill-rule="nonzero" fill-opacity="1" /><path clip-path="url(#clip030)" d="M199.306 619.651 L217.662 619.651 L217.662 623.586 L203.588 623.586 L203.588 632.058 Q204.607 631.711 205.625 631.549 Q206.644 631.364 207.662 631.364 Q213.449 631.364 216.829 634.535 Q220.209 637.706 220.209 643.123 Q220.209 648.702 216.736 651.803 Q213.264 654.882 206.945 654.882 Q204.769 654.882 202.5 654.512 Q200.255 654.141 197.848 653.401 L197.848 648.702 Q199.931 649.836 202.153 650.391 Q204.375 650.947 206.852 650.947 Q210.857 650.947 213.195 648.841 Q215.533 646.734 215.533 643.123 Q215.533 639.512 213.195 637.405 Q210.857 635.299 206.852 635.299 Q204.977 635.299 203.102 635.716 Q201.25 636.132 199.306 637.012 L199.306 619.651 Z" fill="#000000" fill-rule="nonzero" fill-opacity="1" /><path clip-path="url(#clip030)" d="M239.422 622.73 Q235.81 622.73 233.982 626.294 Q232.176 629.836 232.176 636.966 Q232.176 644.072 233.982 647.637 Q235.81 651.178 239.422 651.178 Q243.056 651.178 244.861 647.637 Q246.69 644.072 246.69 636.966 Q246.69 629.836 244.861 626.294 Q243.056 622.73 239.422 622.73 M239.422 619.026 Q245.232 619.026 248.287 623.632 Q251.366 628.216 251.366 636.966 Q251.366 645.692 248.287 650.299 Q245.232 654.882 239.422 654.882 Q233.611 654.882 230.533 650.299 Q227.477 645.692 227.477 636.966 Q227.477 628.216 230.533 623.632 Q233.611 619.026 239.422 619.026 Z" fill="#000000" fill-rule="nonzero" fill-opacity="1" /><path clip-path="url(#clip030)" d="M165.024 426.167 Q161.413 426.167 159.584 429.732 Q157.778 433.274 157.778 440.403 Q157.778 447.51 159.584 451.075 Q161.413 454.616 165.024 454.616 Q168.658 454.616 170.464 451.075 Q172.292 447.51 172.292 440.403 Q172.292 433.274 170.464 429.732 Q168.658 426.167 165.024 426.167 M165.024 422.464 Q170.834 422.464 173.889 427.07 Q176.968 431.653 176.968 440.403 Q176.968 449.13 173.889 453.737 Q170.834 458.32 165.024 458.32 Q159.214 458.32 156.135 453.737 Q153.079 449.13 153.079 440.403 Q153.079 431.653 156.135 427.07 Q159.214 422.464 165.024 422.464 Z" fill="#000000" fill-rule="nonzero" fill-opacity="1" /><path clip-path="url(#clip030)" d="M185.186 451.769 L190.07 451.769 L190.07 457.649 L185.186 457.649 L185.186 451.769 Z" fill="#000000" fill-rule="nonzero" fill-opacity="1" /><path clip-path="url(#clip030)" d="M199.075 423.089 L221.297 423.089 L221.297 425.079 L208.75 457.649 L203.866 457.649 L215.672 427.024 L199.075 427.024 L199.075 423.089 Z" fill="#000000" fill-rule="nonzero" fill-opacity="1" /><path clip-path="url(#clip030)" d="M230.463 423.089 L248.82 423.089 L248.82 427.024 L234.746 427.024 L234.746 435.496 Q235.764 435.149 236.783 434.987 Q237.801 434.801 238.82 434.801 Q244.607 434.801 247.986 437.973 Q251.366 441.144 251.366 446.561 Q251.366 452.139 247.894 455.241 Q244.421 458.32 238.102 458.32 Q235.926 458.32 233.658 457.95 Q231.412 457.579 229.005 456.838 L229.005 452.139 Q231.088 453.274 233.31 453.829 Q235.533 454.385 238.009 454.385 Q242.014 454.385 244.352 452.278 Q246.69 450.172 246.69 446.561 Q246.69 442.95 244.352 440.843 Q242.014 438.737 238.009 438.737 Q236.135 438.737 234.26 439.153 Q232.408 439.57 230.463 440.45 L230.463 423.089 Z" fill="#000000" fill-rule="nonzero" fill-opacity="1" /><path clip-path="url(#clip030)" d="M154.839 257.151 L162.477 257.151 L162.477 230.786 L154.167 232.452 L154.167 228.193 L162.431 226.526 L167.107 226.526 L167.107 257.151 L174.746 257.151 L174.746 261.086 L154.839 261.086 L154.839 257.151 Z" fill="#000000" fill-rule="nonzero" fill-opacity="1" /><path clip-path="url(#clip030)" d="M184.19 255.207 L189.075 255.207 L189.075 261.086 L184.19 261.086 L184.19 255.207 Z" fill="#000000" fill-rule="nonzero" fill-opacity="1" /><path clip-path="url(#clip030)" d="M209.26 229.605 Q205.649 229.605 203.82 233.17 Q202.014 236.711 202.014 243.841 Q202.014 250.948 203.82 254.512 Q205.649 258.054 209.26 258.054 Q212.894 258.054 214.699 254.512 Q216.528 250.948 216.528 243.841 Q216.528 236.711 214.699 233.17 Q212.894 229.605 209.26 229.605 M209.26 225.901 Q215.07 225.901 218.125 230.508 Q221.204 235.091 221.204 243.841 Q221.204 252.568 218.125 257.174 Q215.07 261.758 209.26 261.758 Q203.449 261.758 200.371 257.174 Q197.315 252.568 197.315 243.841 Q197.315 235.091 200.371 230.508 Q203.449 225.901 209.26 225.901 Z" fill="#000000" fill-rule="nonzero" fill-opacity="1" /><path clip-path="url(#clip030)" d="M239.422 229.605 Q235.81 229.605 233.982 233.17 Q232.176 236.711 232.176 243.841 Q232.176 250.948 233.982 254.512 Q235.81 258.054 239.422 258.054 Q243.056 258.054 244.861 254.512 Q246.69 250.948 246.69 243.841 Q246.69 236.711 244.861 233.17 Q243.056 229.605 239.422 229.605 M239.422 225.901 Q245.232 225.901 248.287 230.508 Q251.366 235.091 251.366 243.841 Q251.366 252.568 248.287 257.174 Q245.232 261.758 239.422 261.758 Q233.611 261.758 230.533 257.174 Q227.477 252.568 227.477 243.841 Q227.477 235.091 230.533 230.508 Q233.611 225.901 239.422 225.901 Z" fill="#000000" fill-rule="nonzero" fill-opacity="1" /><path clip-path="url(#clip030)" d="M155.834 60.5889 L163.473 60.5889 L163.473 34.2233 L155.163 35.89 L155.163 31.6308 L163.427 29.9641 L168.102 29.9641 L168.102 60.5889 L175.741 60.5889 L175.741 64.5241 L155.834 64.5241 L155.834 60.5889 Z" fill="#000000" fill-rule="nonzero" fill-opacity="1" /><path clip-path="url(#clip030)" d="M185.186 58.6445 L190.07 58.6445 L190.07 64.5241 L185.186 64.5241 L185.186 58.6445 Z" fill="#000000" fill-rule="nonzero" fill-opacity="1" /><path clip-path="url(#clip030)" d="M204.283 60.5889 L220.602 60.5889 L220.602 64.5241 L198.658 64.5241 L198.658 60.5889 Q201.32 57.8343 205.903 53.2047 Q210.51 48.552 211.69 47.2094 Q213.936 44.6862 214.815 42.9501 Q215.718 41.1909 215.718 39.5011 Q215.718 36.7465 213.774 35.0104 Q211.852 33.2743 208.75 33.2743 Q206.551 33.2743 204.098 34.0381 Q201.667 34.802 198.889 36.3529 L198.889 31.6308 Q201.713 30.4965 204.167 29.9178 Q206.621 29.3391 208.658 29.3391 Q214.028 29.3391 217.223 32.0243 Q220.417 34.7094 220.417 39.2002 Q220.417 41.3298 219.607 43.2511 Q218.82 45.1492 216.713 47.7418 Q216.135 48.4131 213.033 51.6306 Q209.931 54.8251 204.283 60.5889 Z" fill="#000000" fill-rule="nonzero" fill-opacity="1" /><path clip-path="url(#clip030)" d="M230.463 29.9641 L248.82 29.9641 L248.82 33.8993 L234.746 33.8993 L234.746 42.3714 Q235.764 42.0242 236.783 41.8622 Q237.801 41.677 238.82 41.677 Q244.607 41.677 247.986 44.8483 Q251.366 48.0196 251.366 53.4362 Q251.366 59.0149 247.894 62.1167 Q244.421 65.1954 238.102 65.1954 Q235.926 65.1954 233.658 64.825 Q231.412 64.4547 229.005 63.7139 L229.005 59.0149 Q231.088 60.1491 233.31 60.7047 Q235.533 61.2602 238.009 61.2602 Q242.014 61.2602 244.352 59.1538 Q246.69 57.0473 246.69 53.4362 Q246.69 49.8251 244.352 47.7186 Q242.014 45.6122 238.009 45.6122 Q236.135 45.6122 234.26 46.0288 Q232.408 46.4455 230.463 47.3251 L230.463 29.9641 Z" fill="#000000" fill-rule="nonzero" fill-opacity="1" /><path clip-path="url(#clip030)" d="M21.7178 738.32 Q22.1687 738.32 23.2315 738.61 L48.4165 744.922 Q54.0203 746.307 57.9494 750.816 Q61.8785 755.293 61.8785 760.381 Q61.8785 763.441 60.236 765.405 Q58.6257 767.37 56.1459 767.37 Q53.9559 767.37 52.8931 766.21 Q51.8625 765.051 51.8625 763.666 Q51.8625 763.215 51.9913 762.732 Q52.1201 762.249 52.6676 761.734 Q53.2151 761.219 54.1491 761.219 Q55.6628 761.219 56.8544 762.539 Q57.4019 763.183 57.5307 763.795 Q57.6596 764.375 57.6596 765.373 Q58.5613 764.987 59.1732 764.278 Q59.7851 763.57 60.0106 762.764 Q60.2682 761.959 60.3326 761.444 Q60.4293 760.896 60.4293 760.381 Q60.4293 756.259 56.2747 753.103 Q55.0187 752.169 53.7626 751.492 Q52.5388 750.784 51.0252 750.269 Q49.5437 749.753 48.7385 749.528 Q47.9334 749.27 46.0977 748.819 Q49.0928 751.814 49.0928 755.486 Q49.0928 757.032 48.6741 758.417 Q48.2554 759.769 47.3859 760.961 Q46.4841 762.153 44.906 762.861 Q43.3279 763.537 41.2346 763.537 Q39.0124 763.537 35.985 762.668 Q32.9577 761.798 27.386 759.705 Q24.2621 758.578 22.7484 758.578 Q22.0077 758.578 21.5568 758.739 Q21.0737 758.9 20.9127 759.222 Q20.7194 759.544 20.6872 759.737 Q20.655 759.898 20.655 760.22 Q20.655 762.12 22.5874 763.892 Q24.5197 765.663 28.8353 766.887 Q29.6405 767.144 29.8337 767.305 Q30.0269 767.466 30.0269 767.95 Q29.9947 768.755 29.3506 768.755 Q29.093 768.755 28.0946 768.465 Q27.064 768.175 25.5503 767.499 Q24.0044 766.79 22.6196 765.824 Q21.2025 764.858 20.2041 763.344 Q19.2058 761.798 19.2058 760.027 Q19.2058 757.611 20.7838 756.13 Q22.3297 754.616 24.6163 754.616 Q25.5503 754.616 26.3877 754.874 Q27.1928 755.099 29.3506 755.937 Q38.0462 759.318 42.2974 759.318 Q43.3279 759.318 44.1975 759.157 Q45.0349 758.964 45.8722 758.545 Q46.6774 758.127 47.1604 757.289 Q47.6113 756.42 47.6113 755.228 Q47.6113 753.715 46.9028 752.298 Q46.1621 750.848 45.1637 749.946 Q44.1653 749.013 43.3279 748.465 Q42.4584 747.885 42.0075 747.756 L30.1558 744.794 L24.874 743.473 Q22.0077 742.861 21.2991 742.571 Q20.6228 742.185 20.2686 741.509 Q19.9143 740.832 19.9143 740.253 Q19.9143 739.447 20.3974 738.9 Q20.8805 738.32 21.7178 738.32 Z" fill="#000000" fill-rule="nonzero" fill-opacity="1" /><path clip-path="url(#clip030)" d="M53.6652 731.574 L52.2224 731.574 Q52.2224 726.028 49.2691 723.165 Q49.2691 722.376 49.4494 722.241 Q49.6298 722.106 50.4639 722.106 L76.3671 722.106 Q77.7423 722.106 78.1706 721.429 Q78.599 720.753 78.599 717.8 L78.599 716.334 L80.0193 716.334 Q79.884 717.957 79.884 723.819 Q79.884 729.68 80.0193 731.281 L78.599 731.281 L78.599 729.816 Q78.599 726.907 78.1932 726.209 Q77.7648 725.51 76.3671 725.51 L52.4478 725.51 Q53.6652 727.922 53.6652 731.574 Z" fill="#000000" fill-rule="nonzero" fill-opacity="1" /><polyline clip-path="url(#clip031)" style="stroke:#000000; stroke-linecap:round; stroke-linejoin:round; stroke-width:1.6; stroke-opacity:1; fill:none" stroke-dasharray="8, 5" points="345.82,243.806 349.725,243.806 353.63,243.806 357.535,243.806 361.439,243.806 365.344,243.806 369.249,243.806 373.154,243.806 377.059,243.806 380.963,243.806 384.868,243.806 388.773,243.806 392.678,243.806 396.582,243.806 400.487,243.806 404.392,243.806 408.297,243.806 412.201,243.806 416.106,243.806 420.011,243.806 423.916,243.806 427.821,243.806 431.725,243.806 435.63,243.806 439.535,243.806 443.44,243.806 447.344,243.806 451.249,243.806 455.154,243.806 459.059,243.806 462.963,243.806 466.868,243.806 470.773,243.806 474.678,243.806 478.583,243.806 482.487,243.806 486.392,243.806 490.297,243.806 494.202,243.806 498.106,243.806 502.011,243.806 505.916,243.806 509.821,243.806 513.726,243.806 517.63,243.806 521.535,243.806 525.44,243.806 529.345,243.806 533.249,243.806 537.154,243.806 541.059,243.806 544.964,243.806 548.868,243.806 552.773,243.806 556.678,243.806 560.583,243.806 564.488,243.806 568.392,243.806 572.297,243.806 576.202,243.806 580.107,243.806 584.011,243.806 587.916,243.806 591.821,243.806 595.726,243.806 599.631,243.806 603.535,243.806 607.44,243.806 611.345,243.806 615.25,243.806 619.154,243.806 623.059,243.806 626.964,243.806 630.869,243.806 634.773,243.806 638.678,243.806 642.583,243.806 646.488,243.806 650.393,243.806 654.297,243.806 658.202,243.806 662.107,243.806 666.012,243.806 669.916,243.806 673.821,243.806 677.726,243.806 681.631,243.806 685.535,243.806 689.44,243.806 693.345,243.806 697.25,243.806 701.155,243.806 705.059,243.806 708.964,243.806 712.869,243.806 716.774,243.806 720.678,243.806 724.583,243.806 728.488,243.806 732.393,243.806 736.298,243.806 740.202,243.806 744.107,243.806 748.012,243.806 751.917,243.806 755.821,243.806 759.726,243.806 763.631,243.806 767.536,243.806 771.44,243.806 775.345,243.806 779.25,243.806 783.155,243.806 787.06,243.806 790.964,243.806 794.869,243.806 798.774,243.806 802.679,243.806 806.583,243.806 810.488,243.806 814.393,243.806 818.298,243.806 822.202,243.806 826.107,243.806 830.012,243.806 833.917,243.806 837.822,243.806 841.726,243.806 845.631,243.806 849.536,243.806 853.441,243.806 857.345,243.806 861.25,243.806 865.155,243.806 869.06,243.806 872.965,243.806 876.869,243.806 880.774,243.806 884.679,243.806 888.584,243.806 892.488,243.806 896.393,243.806 900.298,243.806 904.203,243.806 908.107,243.806 912.012,243.806 915.917,243.806 919.822,243.806 923.727,243.806 927.631,243.806 931.536,243.806 935.441,243.806 939.346,243.806 943.25,243.806 947.155,243.806 951.06,243.806 954.965,243.806 958.87,243.806 962.774,243.806 966.679,243.806 970.584,243.806 974.489,243.806 978.393,243.806 982.298,243.806 986.203,243.806 990.108,243.806 994.012,243.806 997.917,243.806 1001.82,243.806 1005.73,243.806 1009.63,243.806 1013.54,243.806 1017.44,243.806 1021.35,243.806 1025.25,243.806 1029.16,243.806 1033.06,243.806 1036.96,243.806 1040.87,243.806 1044.77,243.806 1048.68,243.806 1052.58,243.806 1056.49,243.806 1060.39,243.806 1064.3,243.806 1068.2,243.806 1072.11,243.806 1076.01,243.806 1079.92,243.806 1083.82,243.806 1087.73,243.806 1091.63,243.806 1095.54,243.806 1099.44,243.806 1103.35,243.806 1107.25,243.806 1111.16,243.806 1115.06,243.806 1118.97,243.806 1122.87,243.806 1126.77,243.806 1130.68,243.806 1134.58,243.806 1138.49,243.806 1142.39,243.806 1146.3,243.806 1150.2,243.806 1154.11,243.806 1158.01,243.806 1161.92,243.806 1165.82,243.806 1169.73,243.806 1173.63,243.806 1177.54,243.806 1181.44,243.806 1185.35,243.806 1189.25,243.806 1193.16,243.806 1197.06,243.806 1200.97,243.806 1204.87,243.806 1208.77,243.806 1212.68,243.806 1216.58,243.806 1220.49,243.806 1224.39,243.806 1228.3,243.806 1232.2,243.806 1236.11,243.806 1240.01,243.806 1243.92,243.806 1247.82,243.806 1251.73,243.806 1255.63,243.806 1259.54,243.806 1263.44,243.806 1267.35,243.806 1271.25,243.806 1275.16,243.806 1279.06,243.806 1282.97,243.806 1286.87,243.806 1290.78,243.806 1294.68,243.806 1298.58,243.806 1302.49,243.806 1306.39,243.806 1310.3,243.806 1314.2,243.806 1318.11,243.806 1322.01,243.806 1325.92,243.806 1329.82,243.806 1333.73,243.806 1337.63,243.806 1341.54,243.806 1345.44,243.806 1349.35,243.806 1353.25,243.806 1357.16,243.806 1361.06,243.806 1364.97,243.806 1368.87,243.806 1372.78,243.806 1376.68,243.806 1380.58,243.806 1384.49,243.806 1388.39,243.806 1392.3,243.806 1396.2,243.806 1400.11,243.806 1404.01,243.806 1407.92,243.806 1411.82,243.806 1415.73,243.806 1419.63,243.806 1423.54,243.806 1427.44,243.806 1431.35,243.806 1435.25,243.806 1439.16,243.806 1443.06,243.806 1446.97,243.806 1450.87,243.806 1454.78,243.806 1458.68,243.806 1462.59,243.806 1466.49,243.806 1470.39,243.806 1474.3,243.806 1478.2,243.806 1482.11,243.806 1486.01,243.806 1489.92,243.806 1493.82,243.806 1497.73,243.806 1501.63,243.806 1505.54,243.806 1509.44,243.806 1513.35,243.806 1517.25,243.806 1521.16,243.806 1525.06,243.806 1528.97,243.806 1532.87,243.806 1536.78,243.806 1540.68,243.806 1544.59,243.806 1548.49,243.806 1552.39,243.806 1556.3,243.806 1560.2,243.806 1564.11,243.806 1568.01,243.806 1571.92,243.806 1575.82,243.806 1579.73,243.806 1583.63,243.806 1587.54,243.806 1591.44,243.806 1595.35,243.806 1599.25,243.806 1603.16,243.806 1607.06,243.806 1610.97,243.806 1614.87,243.806 1618.78,243.806 1622.68,243.806 1626.59,243.806 1630.49,243.806 1634.4,243.806 1638.3,243.806 1642.2,243.806 1646.11,243.806 1650.01,243.806 1653.92,243.806 1657.82,243.806 1661.73,243.806 1665.63,243.806 1669.54,243.806 1673.44,243.806 1677.35,243.806 1681.25,243.806 1685.16,243.806 1689.06,243.806 1692.97,243.806 1696.87,243.806 1700.78,243.806 1704.68,243.806 1708.59,243.806 1712.49,243.806 1716.4,243.806 1720.3,243.806 1724.2,243.806 1728.11,243.806 1732.01,243.806 1735.92,243.806 1739.82,243.806 1743.73,243.806 1747.63,243.806 1751.54,243.806 1755.44,243.806 1759.35,243.806 1763.25,243.806 1767.16,243.806 1771.06,243.806 1774.97,243.806 1778.87,243.806 1782.78,243.806 1786.68,243.806 1790.59,243.806 1794.49,243.806 1798.4,243.806 1802.3,243.806 1806.2,243.806 1810.11,243.806 1814.01,243.806 1817.92,243.806 1821.82,243.806 1825.73,243.806 1829.63,243.806 1833.54,243.806 1837.44,243.806 1841.35,243.806 1845.25,243.806 1849.16,243.806 1853.06,243.806 1856.97,243.806 1860.87,243.806 1864.78,243.806 1868.68,243.806 1872.59,243.806 1876.49,243.806 1880.4,243.806 1884.3,243.806 1888.21,243.806 1892.11,243.806 1896.01,243.806 1899.92,243.806 1903.82,243.806 1907.73,243.806 1911.63,243.806 1915.54,243.806 1919.44,243.806 1923.35,243.806 1927.25,243.806 1931.16,243.806 1935.06,243.806 1938.97,243.806 1942.87,243.806 1946.78,243.806 1950.68,243.806 1954.59,243.806 1958.49,243.806 1962.4,243.806 1966.3,243.806 1970.21,243.806 1974.11,243.806 1978.01,243.806 1981.92,243.806 1985.82,243.806 1989.73,243.806 1993.63,243.806 1997.54,243.806 2001.44,243.806 2005.35,243.806 2009.25,243.806 2013.16,243.806 2017.06,243.806 2020.97,243.806 2024.87,243.806 2028.78,243.806 2032.68,243.806 2036.59,243.806 2040.49,243.806 2044.4,243.806 2048.3,243.806 2052.21,243.806 2056.11,243.806 2060.02,243.806 2063.92,243.806 2067.82,243.806 2071.73,243.806 2075.63,243.806 2079.54,243.806 2083.44,243.806 2087.35,243.806 2091.25,243.806 2095.16,243.806 2099.06,243.806 2102.97,243.806 2106.87,243.806 2110.78,243.806 2114.68,243.806 2118.59,243.806 2122.49,243.806 2126.4,243.806 2130.3,243.806 2134.21,243.806 2138.11,243.806 2142.02,243.806 2145.92,243.806 2149.82,243.806 2153.73,243.806 2157.63,243.806 2161.54,243.806 2165.44,243.806 2169.35,243.806 2173.25,243.806 2177.16,243.806 2181.06,243.806 2184.97,243.806 2188.87,243.806 2192.78,243.806 2196.68,243.806 2200.59,243.806 2204.49,243.806 2208.4,243.806 2212.3,243.806 2216.21,243.806 2220.11,243.806 2224.02,243.806 2227.92,243.806 2231.83,243.806 2235.73,243.806 2239.63,243.806 2243.54,243.806 2247.44,243.806 2251.35,243.806 2255.25,243.806 2259.16,243.806 2263.06,243.806 2266.97,243.806 2270.87,243.806 2274.78,243.806 2278.68,243.806 2282.59,243.806 2286.49,243.806 2290.4,243.806 2294.3,243.806 "/>
<polyline clip-path="url(#clip031)" style="stroke:#009af9; stroke-linecap:round; stroke-linejoin:round; stroke-width:4; stroke-opacity:1; fill:none" points="345.82,1030.06 349.725,1033.53 353.63,1045.09 357.535,1065.78 361.439,1094.38 365.344,1128.43 369.249,1164.94 373.154,1200.99 377.059,1233.99 380.963,1261.93 384.868,1283.41 388.773,1297.69 392.678,1304.55 396.582,1304.27 400.487,1297.46 404.392,1285.01 408.297,1267.89 412.201,1247.17 416.106,1223.84 420.011,1198.84 423.916,1172.97 427.821,1146.9 431.725,1121.15 435.63,1096.09 439.535,1071.97 443.44,1048.92 447.344,1026.98 451.249,1006.13 455.154,986.276 459.059,967.322 462.963,949.139 466.868,931.601 470.773,914.588 474.678,897.993 478.583,881.728 482.487,865.722 486.392,849.925 490.297,834.304 494.202,818.843 498.106,803.535 502.011,788.387 505.916,773.41 509.821,758.621 513.726,744.038 517.63,729.68 521.535,715.563 525.44,701.703 529.345,688.112 533.249,674.8 537.154,661.773 541.059,649.033 544.964,636.583 548.868,624.421 552.773,612.544 556.678,600.948 560.583,589.628 564.488,578.578 568.392,567.793 572.297,557.268 576.202,546.997 580.107,536.974 584.011,527.195 587.916,517.655 591.821,508.351 595.726,499.278 599.631,490.433 603.535,481.811 607.44,473.411 611.345,465.228 615.25,457.26 619.154,449.502 623.059,441.953 626.964,434.608 630.869,427.464 634.773,420.518 638.678,413.767 642.583,407.206 646.488,400.832 650.393,394.643 654.297,388.633 658.202,382.799 662.107,377.138 666.012,371.646 669.916,366.32 673.821,361.155 677.726,356.149 681.631,351.298 685.535,346.598 689.44,342.046 693.345,337.639 697.25,333.373 701.155,329.244 705.059,325.251 708.964,321.388 712.869,317.655 716.774,314.046 720.678,310.559 724.583,307.192 728.488,303.94 732.393,300.802 736.298,297.773 740.202,294.852 744.107,292.036 748.012,289.321 751.917,286.706 755.821,284.187 759.726,281.761 763.631,279.427 767.536,277.181 771.44,275.022 775.345,272.946 779.25,270.951 783.155,269.035 787.06,267.196 790.964,265.432 794.869,263.739 798.774,262.117 802.679,260.563 806.583,259.074 810.488,257.649 814.393,256.286 818.298,254.983 822.202,253.738 826.107,252.549 830.012,251.414 833.917,250.332 837.822,249.301 841.726,248.319 845.631,247.385 849.536,246.496 853.441,245.652 857.345,244.851 861.25,244.091 865.155,243.372 869.06,242.69 872.965,242.046 876.869,241.438 880.774,240.864 884.679,240.323 888.584,239.815 892.488,239.337 896.393,238.889 900.298,238.469 904.203,238.077 908.107,237.711 912.012,237.371 915.917,237.055 919.822,236.762 923.727,236.492 927.631,236.243 931.536,236.015 935.441,235.806 939.346,235.617 943.25,235.445 947.155,235.291 951.06,235.153 954.965,235.031 958.87,234.924 962.774,234.832 966.679,234.753 970.584,234.687 974.489,234.634 978.393,234.592 982.298,234.562 986.203,234.542 990.108,234.532 994.012,234.533 997.917,234.542 1001.82,234.56 1005.73,234.585 1009.63,234.619 1013.54,234.66 1017.44,234.707 1021.35,234.761 1025.25,234.821 1029.16,234.887 1033.06,234.958 1036.96,235.034 1040.87,235.114 1044.77,235.199 1048.68,235.288 1052.58,235.38 1056.49,235.476 1060.39,235.575 1064.3,235.676 1068.2,235.781 1072.11,235.887 1076.01,235.996 1079.92,236.107 1083.82,236.219 1087.73,236.333 1091.63,236.448 1095.54,236.564 1099.44,236.681 1103.35,236.799 1107.25,236.918 1111.16,237.037 1115.06,237.156 1118.97,237.276 1122.87,237.396 1126.77,237.515 1130.68,237.635 1134.58,237.754 1138.49,237.873 1142.39,237.991 1146.3,238.109 1150.2,238.226 1154.11,238.343 1158.01,238.458 1161.92,238.573 1165.82,238.687 1169.73,238.8 1173.63,238.912 1177.54,239.022 1181.44,239.132 1185.35,239.24 1189.25,239.347 1193.16,239.453 1197.06,239.557 1200.97,239.66 1204.87,239.762 1208.77,239.862 1212.68,239.961 1216.58,240.058 1220.49,240.154 1224.39,240.248 1228.3,240.341 1232.2,240.433 1236.11,240.523 1240.01,240.611 1243.92,240.698 1247.82,240.783 1251.73,240.866 1255.63,240.949 1259.54,241.029 1263.44,241.108 1267.35,241.186 1271.25,241.262 1275.16,241.336 1279.06,241.409 1282.97,241.48 1286.87,241.55 1290.78,241.619 1294.68,241.686 1298.58,241.751 1302.49,241.815 1306.39,241.878 1310.3,241.939 1314.2,241.999 1318.11,242.057 1322.01,242.114 1325.92,242.17 1329.82,242.224 1333.73,242.277 1337.63,242.329 1341.54,242.379 1345.44,242.428 1349.35,242.476 1353.25,242.523 1357.16,242.568 1361.06,242.613 1364.97,242.656 1368.87,242.698 1372.78,242.738 1376.68,242.778 1380.58,242.817 1384.49,242.854 1388.39,242.891 1392.3,242.926 1396.2,242.961 1400.11,242.994 1404.01,243.026 1407.92,243.058 1411.82,243.089 1415.73,243.118 1419.63,243.147 1423.54,243.175 1427.44,243.202 1431.35,243.228 1435.25,243.253 1439.16,243.278 1443.06,243.302 1446.97,243.325 1450.87,243.347 1454.78,243.369 1458.68,243.389 1462.59,243.41 1466.49,243.429 1470.39,243.448 1474.3,243.466 1478.2,243.484 1482.11,243.501 1486.01,243.517 1489.92,243.533 1493.82,243.548 1497.73,243.562 1501.63,243.577 1505.54,243.59 1509.44,243.603 1513.35,243.616 1517.25,243.628 1521.16,243.639 1525.06,243.651 1528.97,243.661 1532.87,243.672 1536.78,243.682 1540.68,243.691 1544.59,243.7 1548.49,243.709 1552.39,243.717 1556.3,243.725 1560.2,243.733 1564.11,243.74 1568.01,243.747 1571.92,243.754 1575.82,243.76 1579.73,243.767 1583.63,243.772 1587.54,243.778 1591.44,243.783 1595.35,243.788 1599.25,243.793 1603.16,243.798 1607.06,243.802 1610.97,243.806 1614.87,243.81 1618.78,243.813 1622.68,243.817 1626.59,243.82 1630.49,243.823 1634.4,243.826 1638.3,243.829 1642.2,243.831 1646.11,243.834 1650.01,243.836 1653.92,243.838 1657.82,243.84 1661.73,243.842 1665.63,243.844 1669.54,243.845 1673.44,243.847 1677.35,243.848 1681.25,243.849 1685.16,243.85 1689.06,243.851 1692.97,243.852 1696.87,243.853 1700.78,243.854 1704.68,243.854 1708.59,243.855 1712.49,243.855 1716.4,243.856 1720.3,243.856 1724.2,243.856 1728.11,243.857 1732.01,243.857 1735.92,243.857 1739.82,243.857 1743.73,243.857 1747.63,243.857 1751.54,243.857 1755.44,243.857 1759.35,243.856 1763.25,243.856 1767.16,243.856 1771.06,243.856 1774.97,243.855 1778.87,243.855 1782.78,243.854 1786.68,243.854 1790.59,243.854 1794.49,243.853 1798.4,243.853 1802.3,243.852 1806.2,243.852 1810.11,243.851 1814.01,243.85 1817.92,243.85 1821.82,243.849 1825.73,243.849 1829.63,243.848 1833.54,243.847 1837.44,243.847 1841.35,243.846 1845.25,243.846 1849.16,243.845 1853.06,243.844 1856.97,243.844 1860.87,243.843 1864.78,243.842 1868.68,243.842 1872.59,243.841 1876.49,243.84 1880.4,243.84 1884.3,243.839 1888.21,243.838 1892.11,243.838 1896.01,243.837 1899.92,243.837 1903.82,243.836 1907.73,243.835 1911.63,243.835 1915.54,243.834 1919.44,243.833 1923.35,243.833 1927.25,243.832 1931.16,243.832 1935.06,243.831 1938.97,243.83 1942.87,243.83 1946.78,243.829 1950.68,243.829 1954.59,243.828 1958.49,243.828 1962.4,243.827 1966.3,243.827 1970.21,243.826 1974.11,243.826 1978.01,243.825 1981.92,243.825 1985.82,243.824 1989.73,243.824 1993.63,243.823 1997.54,243.823 2001.44,243.822 2005.35,243.822 2009.25,243.821 2013.16,243.821 2017.06,243.821 2020.97,243.82 2024.87,243.82 2028.78,243.819 2032.68,243.819 2036.59,243.819 2040.49,243.818 2044.4,243.818 2048.3,243.817 2052.21,243.817 2056.11,243.817 2060.02,243.816 2063.92,243.816 2067.82,243.816 2071.73,243.815 2075.63,243.815 2079.54,243.815 2083.44,243.815 2087.35,243.814 2091.25,243.814 2095.16,243.814 2099.06,243.814 2102.97,243.813 2106.87,243.813 2110.78,243.813 2114.68,243.813 2118.59,243.812 2122.49,243.812 2126.4,243.812 2130.3,243.812 2134.21,243.811 2138.11,243.811 2142.02,243.811 2145.92,243.811 2149.82,243.811 2153.73,243.811 2157.63,243.81 2161.54,243.81 2165.44,243.81 2169.35,243.81 2173.25,243.81 2177.16,243.81 2181.06,243.809 2184.97,243.809 2188.87,243.809 2192.78,243.809 2196.68,243.809 2200.59,243.809 2204.49,243.809 2208.4,243.809 2212.3,243.808 2216.21,243.808 2220.11,243.808 2224.02,243.808 2227.92,243.808 2231.83,243.808 2235.73,243.808 2239.63,243.808 2243.54,243.808 2247.44,243.808 2251.35,243.808 2255.25,243.808 2259.16,243.807 2263.06,243.807 2266.97,243.807 2270.87,243.807 2274.78,243.807 2278.68,243.807 2282.59,243.807 2286.49,243.807 2290.4,243.807 2294.3,243.807 "/>
<polyline clip-path="url(#clip031)" style="stroke:#000000; stroke-linecap:round; stroke-linejoin:round; stroke-width:1.6; stroke-opacity:1; fill:none" stroke-dasharray="8, 5" points="345.82,243.806 349.725,243.806 353.63,243.806 357.535,243.806 361.439,243.806 365.344,243.806 369.249,243.806 373.154,243.806 377.059,243.806 380.963,243.806 384.868,243.806 388.773,243.806 392.678,243.806 396.582,243.806 400.487,243.806 404.392,243.806 408.297,243.806 412.201,243.806 416.106,243.806 420.011,243.806 423.916,243.806 427.821,243.806 431.725,243.806 435.63,243.806 439.535,243.806 443.44,243.806 447.344,243.806 451.249,243.806 455.154,243.806 459.059,243.806 462.963,243.806 466.868,243.806 470.773,243.806 474.678,243.806 478.583,243.806 482.487,243.806 486.392,243.806 490.297,243.806 494.202,243.806 498.106,243.806 502.011,243.806 505.916,243.806 509.821,243.806 513.726,243.806 517.63,243.806 521.535,243.806 525.44,243.806 529.345,243.806 533.249,243.806 537.154,243.806 541.059,243.806 544.964,243.806 548.868,243.806 552.773,243.806 556.678,243.806 560.583,243.806 564.488,243.806 568.392,243.806 572.297,243.806 576.202,243.806 580.107,243.806 584.011,243.806 587.916,243.806 591.821,243.806 595.726,243.806 599.631,243.806 603.535,243.806 607.44,243.806 611.345,243.806 615.25,243.806 619.154,243.806 623.059,243.806 626.964,243.806 630.869,243.806 634.773,243.806 638.678,243.806 642.583,243.806 646.488,243.806 650.393,243.806 654.297,243.806 658.202,243.806 662.107,243.806 666.012,243.806 669.916,243.806 673.821,243.806 677.726,243.806 681.631,243.806 685.535,243.806 689.44,243.806 693.345,243.806 697.25,243.806 701.155,243.806 705.059,243.806 708.964,243.806 712.869,243.806 716.774,243.806 720.678,243.806 724.583,243.806 728.488,243.806 732.393,243.806 736.298,243.806 740.202,243.806 744.107,243.806 748.012,243.806 751.917,243.806 755.821,243.806 759.726,243.806 763.631,243.806 767.536,243.806 771.44,243.806 775.345,243.806 779.25,243.806 783.155,243.806 787.06,243.806 790.964,243.806 794.869,243.806 798.774,243.806 802.679,243.806 806.583,243.806 810.488,243.806 814.393,243.806 818.298,243.806 822.202,243.806 826.107,243.806 830.012,243.806 833.917,243.806 837.822,243.806 841.726,243.806 845.631,243.806 849.536,243.806 853.441,243.806 857.345,243.806 861.25,243.806 865.155,243.806 869.06,243.806 872.965,243.806 876.869,243.806 880.774,243.806 884.679,243.806 888.584,243.806 892.488,243.806 896.393,243.806 900.298,243.806 904.203,243.806 908.107,243.806 912.012,243.806 915.917,243.806 919.822,243.806 923.727,243.806 927.631,243.806 931.536,243.806 935.441,243.806 939.346,243.806 943.25,243.806 947.155,243.806 951.06,243.806 954.965,243.806 958.87,243.806 962.774,243.806 966.679,243.806 970.584,243.806 974.489,243.806 978.393,243.806 982.298,243.806 986.203,243.806 990.108,243.806 994.012,243.806 997.917,243.806 1001.82,243.806 1005.73,243.806 1009.63,243.806 1013.54,243.806 1017.44,243.806 1021.35,243.806 1025.25,243.806 1029.16,243.806 1033.06,243.806 1036.96,243.806 1040.87,243.806 1044.77,243.806 1048.68,243.806 1052.58,243.806 1056.49,243.806 1060.39,243.806 1064.3,243.806 1068.2,243.806 1072.11,243.806 1076.01,243.806 1079.92,243.806 1083.82,243.806 1087.73,243.806 1091.63,243.806 1095.54,243.806 1099.44,243.806 1103.35,243.806 1107.25,243.806 1111.16,243.806 1115.06,243.806 1118.97,243.806 1122.87,243.806 1126.77,243.806 1130.68,243.806 1134.58,243.806 1138.49,243.806 1142.39,243.806 1146.3,243.806 1150.2,243.806 1154.11,243.806 1158.01,243.806 1161.92,243.806 1165.82,243.806 1169.73,243.806 1173.63,243.806 1177.54,243.806 1181.44,243.806 1185.35,243.806 1189.25,243.806 1193.16,243.806 1197.06,243.806 1200.97,243.806 1204.87,243.806 1208.77,243.806 1212.68,243.806 1216.58,243.806 1220.49,243.806 1224.39,243.806 1228.3,243.806 1232.2,243.806 1236.11,243.806 1240.01,243.806 1243.92,243.806 1247.82,243.806 1251.73,243.806 1255.63,243.806 1259.54,243.806 1263.44,243.806 1267.35,243.806 1271.25,243.806 1275.16,243.806 1279.06,243.806 1282.97,243.806 1286.87,243.806 1290.78,243.806 1294.68,243.806 1298.58,243.806 1302.49,243.806 1306.39,243.806 1310.3,243.806 1314.2,243.806 1318.11,243.806 1322.01,243.806 1325.92,243.806 1329.82,243.806 1333.73,243.806 1337.63,243.806 1341.54,243.806 1345.44,243.806 1349.35,243.806 1353.25,243.806 1357.16,243.806 1361.06,243.806 1364.97,243.806 1368.87,243.806 1372.78,243.806 1376.68,243.806 1380.58,243.806 1384.49,243.806 1388.39,243.806 1392.3,243.806 1396.2,243.806 1400.11,243.806 1404.01,243.806 1407.92,243.806 1411.82,243.806 1415.73,243.806 1419.63,243.806 1423.54,243.806 1427.44,243.806 1431.35,243.806 1435.25,243.806 1439.16,243.806 1443.06,243.806 1446.97,243.806 1450.87,243.806 1454.78,243.806 1458.68,243.806 1462.59,243.806 1466.49,243.806 1470.39,243.806 1474.3,243.806 1478.2,243.806 1482.11,243.806 1486.01,243.806 1489.92,243.806 1493.82,243.806 1497.73,243.806 1501.63,243.806 1505.54,243.806 1509.44,243.806 1513.35,243.806 1517.25,243.806 1521.16,243.806 1525.06,243.806 1528.97,243.806 1532.87,243.806 1536.78,243.806 1540.68,243.806 1544.59,243.806 1548.49,243.806 1552.39,243.806 1556.3,243.806 1560.2,243.806 1564.11,243.806 1568.01,243.806 1571.92,243.806 1575.82,243.806 1579.73,243.806 1583.63,243.806 1587.54,243.806 1591.44,243.806 1595.35,243.806 1599.25,243.806 1603.16,243.806 1607.06,243.806 1610.97,243.806 1614.87,243.806 1618.78,243.806 1622.68,243.806 1626.59,243.806 1630.49,243.806 1634.4,243.806 1638.3,243.806 1642.2,243.806 1646.11,243.806 1650.01,243.806 1653.92,243.806 1657.82,243.806 1661.73,243.806 1665.63,243.806 1669.54,243.806 1673.44,243.806 1677.35,243.806 1681.25,243.806 1685.16,243.806 1689.06,243.806 1692.97,243.806 1696.87,243.806 1700.78,243.806 1704.68,243.806 1708.59,243.806 1712.49,243.806 1716.4,243.806 1720.3,243.806 1724.2,243.806 1728.11,243.806 1732.01,243.806 1735.92,243.806 1739.82,243.806 1743.73,243.806 1747.63,243.806 1751.54,243.806 1755.44,243.806 1759.35,243.806 1763.25,243.806 1767.16,243.806 1771.06,243.806 1774.97,243.806 1778.87,243.806 1782.78,243.806 1786.68,243.806 1790.59,243.806 1794.49,243.806 1798.4,243.806 1802.3,243.806 1806.2,243.806 1810.11,243.806 1814.01,243.806 1817.92,243.806 1821.82,243.806 1825.73,243.806 1829.63,243.806 1833.54,243.806 1837.44,243.806 1841.35,243.806 1845.25,243.806 1849.16,243.806 1853.06,243.806 1856.97,243.806 1860.87,243.806 1864.78,243.806 1868.68,243.806 1872.59,243.806 1876.49,243.806 1880.4,243.806 1884.3,243.806 1888.21,243.806 1892.11,243.806 1896.01,243.806 1899.92,243.806 1903.82,243.806 1907.73,243.806 1911.63,243.806 1915.54,243.806 1919.44,243.806 1923.35,243.806 1927.25,243.806 1931.16,243.806 1935.06,243.806 1938.97,243.806 1942.87,243.806 1946.78,243.806 1950.68,243.806 1954.59,243.806 1958.49,243.806 1962.4,243.806 1966.3,243.806 1970.21,243.806 1974.11,243.806 1978.01,243.806 1981.92,243.806 1985.82,243.806 1989.73,243.806 1993.63,243.806 1997.54,243.806 2001.44,243.806 2005.35,243.806 2009.25,243.806 2013.16,243.806 2017.06,243.806 2020.97,243.806 2024.87,243.806 2028.78,243.806 2032.68,243.806 2036.59,243.806 2040.49,243.806 2044.4,243.806 2048.3,243.806 2052.21,243.806 2056.11,243.806 2060.02,243.806 2063.92,243.806 2067.82,243.806 2071.73,243.806 2075.63,243.806 2079.54,243.806 2083.44,243.806 2087.35,243.806 2091.25,243.806 2095.16,243.806 2099.06,243.806 2102.97,243.806 2106.87,243.806 2110.78,243.806 2114.68,243.806 2118.59,243.806 2122.49,243.806 2126.4,243.806 2130.3,243.806 2134.21,243.806 2138.11,243.806 2142.02,243.806 2145.92,243.806 2149.82,243.806 2153.73,243.806 2157.63,243.806 2161.54,243.806 2165.44,243.806 2169.35,243.806 2173.25,243.806 2177.16,243.806 2181.06,243.806 2184.97,243.806 2188.87,243.806 2192.78,243.806 2196.68,243.806 2200.59,243.806 2204.49,243.806 2208.4,243.806 2212.3,243.806 2216.21,243.806 2220.11,243.806 2224.02,243.806 2227.92,243.806 2231.83,243.806 2235.73,243.806 2239.63,243.806 2243.54,243.806 2247.44,243.806 2251.35,243.806 2255.25,243.806 2259.16,243.806 2263.06,243.806 2266.97,243.806 2270.87,243.806 2274.78,243.806 2278.68,243.806 2282.59,243.806 2286.49,243.806 2290.4,243.806 2294.3,243.806 "/>
<polyline clip-path="url(#clip031)" style="stroke:#e26f46; stroke-linecap:round; stroke-linejoin:round; stroke-width:4; stroke-opacity:1; fill:none" points="345.82,1030.06 349.725,1033.13 353.63,1043.41 357.535,1061.87 361.439,1087.48 365.344,1118.1 369.249,1151.14 373.154,1183.99 377.059,1214.36 380.963,1240.43 384.868,1260.93 388.773,1275.13 392.678,1282.81 396.582,1284.15 400.487,1279.64 404.392,1270.02 408.297,1256.14 412.201,1238.88 416.106,1219.13 420.011,1197.71 423.916,1175.31 427.821,1152.53 431.725,1129.83 435.63,1107.56 439.535,1085.95 443.44,1065.11 447.344,1045.11 451.249,1025.94 455.154,1007.52 459.059,989.781 462.963,972.621 466.868,955.936 470.773,939.627 474.678,923.607 478.583,907.802 482.487,892.158 486.392,876.632 490.297,861.201 494.202,845.853 498.106,830.587 502.011,815.411 505.916,800.339 509.821,785.39 513.726,770.583 517.63,755.937 521.535,741.472 525.44,727.205 529.345,713.149 533.249,699.317 537.154,685.717 541.059,672.356 544.964,659.238 548.868,646.366 552.773,633.738 556.678,621.356 560.583,609.216 564.488,597.318 568.392,585.658 572.297,574.235 576.202,563.045 580.107,552.085 584.011,541.355 587.916,530.851 591.821,520.572 595.726,510.516 599.631,500.681 603.535,491.067 607.44,481.67 611.345,472.491 615.25,463.526 619.154,454.776 623.059,446.237 626.964,437.907 630.869,429.786 634.773,421.87 638.678,414.158 642.583,406.647 646.488,399.334 650.393,392.218 654.297,385.295 658.202,378.562 662.107,372.017 666.012,365.657 669.916,359.479 673.821,353.48 677.726,347.658 681.631,342.009 685.535,336.53 689.44,331.218 693.345,326.071 697.25,321.085 701.155,316.258 705.059,311.586 708.964,307.067 712.869,302.697 716.774,298.473 720.678,294.394 724.583,290.455 728.488,286.653 732.393,282.987 736.298,279.452 740.202,276.046 744.107,272.767 748.012,269.61 751.917,266.575 755.821,263.656 759.726,260.853 763.631,258.162 767.536,255.58 771.44,253.104 775.345,250.733 779.25,248.463 783.155,246.291 787.06,244.216 790.964,242.235 794.869,240.344 798.774,238.542 802.679,236.826 806.583,235.194 810.488,233.643 814.393,232.172 818.298,230.777 822.202,229.456 826.107,228.208 830.012,227.03 833.917,225.92 837.822,224.875 841.726,223.894 845.631,222.975 849.536,222.116 853.441,221.315 857.345,220.569 861.25,219.877 865.155,219.238 869.06,218.649 872.965,218.108 876.869,217.614 880.774,217.165 884.679,216.76 888.584,216.397 892.488,216.074 896.393,215.789 900.298,215.542 904.203,215.331 908.107,215.154 912.012,215.01 915.917,214.898 919.822,214.815 923.727,214.762 927.631,214.736 931.536,214.737 935.441,214.763 939.346,214.813 943.25,214.887 947.155,214.981 951.06,215.097 954.965,215.233 958.87,215.387 962.774,215.559 966.679,215.747 970.584,215.952 974.489,216.172 978.393,216.405 982.298,216.652 986.203,216.911 990.108,217.182 994.012,217.464 997.917,217.756 1001.82,218.058 1005.73,218.368 1009.63,218.686 1013.54,219.012 1017.44,219.345 1021.35,219.684 1025.25,220.028 1029.16,220.378 1033.06,220.732 1036.96,221.09 1040.87,221.451 1044.77,221.816 1048.68,222.184 1052.58,222.553 1056.49,222.925 1060.39,223.297 1064.3,223.671 1068.2,224.045 1072.11,224.42 1076.01,224.794 1079.92,225.168 1083.82,225.541 1087.73,225.913 1091.63,226.284 1095.54,226.654 1099.44,227.022 1103.35,227.387 1107.25,227.75 1111.16,228.111 1115.06,228.469 1118.97,228.825 1122.87,229.177 1126.77,229.526 1130.68,229.872 1134.58,230.214 1138.49,230.552 1142.39,230.887 1146.3,231.218 1150.2,231.544 1154.11,231.867 1158.01,232.185 1161.92,232.499 1165.82,232.809 1169.73,233.114 1173.63,233.415 1177.54,233.711 1181.44,234.003 1185.35,234.29 1189.25,234.572 1193.16,234.849 1197.06,235.122 1200.97,235.39 1204.87,235.653 1208.77,235.911 1212.68,236.164 1216.58,236.413 1220.49,236.657 1224.39,236.896 1228.3,237.13 1232.2,237.359 1236.11,237.584 1240.01,237.804 1243.92,238.019 1247.82,238.229 1251.73,238.435 1255.63,238.636 1259.54,238.832 1263.44,239.024 1267.35,239.212 1271.25,239.395 1275.16,239.573 1279.06,239.747 1282.97,239.917 1286.87,240.082 1290.78,240.243 1294.68,240.4 1298.58,240.553 1302.49,240.702 1306.39,240.847 1310.3,240.987 1314.2,241.124 1318.11,241.257 1322.01,241.386 1325.92,241.512 1329.82,241.634 1333.73,241.752 1337.63,241.866 1341.54,241.977 1345.44,242.085 1349.35,242.189 1353.25,242.29 1357.16,242.388 1361.06,242.482 1364.97,242.574 1368.87,242.662 1372.78,242.747 1376.68,242.83 1380.58,242.909 1384.49,242.986 1388.39,243.06 1392.3,243.131 1396.2,243.199 1400.11,243.265 1404.01,243.329 1407.92,243.39 1411.82,243.449 1415.73,243.505 1419.63,243.559 1423.54,243.611 1427.44,243.66 1431.35,243.708 1435.25,243.753 1439.16,243.796 1443.06,243.838 1446.97,243.877 1450.87,243.915 1454.78,243.951 1458.68,243.985 1462.59,244.018 1466.49,244.048 1470.39,244.078 1474.3,244.105 1478.2,244.131 1482.11,244.156 1486.01,244.179 1489.92,244.201 1493.82,244.222 1497.73,244.241 1501.63,244.259 1505.54,244.276 1509.44,244.291 1513.35,244.306 1517.25,244.319 1521.16,244.331 1525.06,244.343 1528.97,244.353 1532.87,244.363 1536.78,244.371 1540.68,244.379 1544.59,244.385 1548.49,244.391 1552.39,244.397 1556.3,244.401 1560.2,244.405 1564.11,244.408 1568.01,244.41 1571.92,244.412 1575.82,244.413 1579.73,244.414 1583.63,244.414 1587.54,244.413 1591.44,244.412 1595.35,244.41 1599.25,244.408 1603.16,244.406 1607.06,244.403 1610.97,244.4 1614.87,244.396 1618.78,244.393 1622.68,244.388 1626.59,244.384 1630.49,244.379 1634.4,244.374 1638.3,244.368 1642.2,244.363 1646.11,244.357 1650.01,244.351 1653.92,244.344 1657.82,244.338 1661.73,244.331 1665.63,244.324 1669.54,244.317 1673.44,244.31 1677.35,244.303 1681.25,244.296 1685.16,244.289 1689.06,244.281 1692.97,244.273 1696.87,244.266 1700.78,244.258 1704.68,244.25 1708.59,244.243 1712.49,244.235 1716.4,244.227 1720.3,244.219 1724.2,244.212 1728.11,244.204 1732.01,244.196 1735.92,244.188 1739.82,244.18 1743.73,244.173 1747.63,244.165 1751.54,244.157 1755.44,244.15 1759.35,244.142 1763.25,244.134 1767.16,244.127 1771.06,244.119 1774.97,244.112 1778.87,244.105 1782.78,244.098 1786.68,244.09 1790.59,244.083 1794.49,244.076 1798.4,244.069 1802.3,244.063 1806.2,244.056 1810.11,244.049 1814.01,244.043 1817.92,244.036 1821.82,244.03 1825.73,244.024 1829.63,244.017 1833.54,244.011 1837.44,244.005 1841.35,243.999 1845.25,243.994 1849.16,243.988 1853.06,243.982 1856.97,243.977 1860.87,243.971 1864.78,243.966 1868.68,243.961 1872.59,243.956 1876.49,243.951 1880.4,243.946 1884.3,243.941 1888.21,243.936 1892.11,243.932 1896.01,243.927 1899.92,243.923 1903.82,243.919 1907.73,243.914 1911.63,243.91 1915.54,243.906 1919.44,243.902 1923.35,243.899 1927.25,243.895 1931.16,243.891 1935.06,243.888 1938.97,243.884 1942.87,243.881 1946.78,243.878 1950.68,243.874 1954.59,243.871 1958.49,243.868 1962.4,243.865 1966.3,243.862 1970.21,243.86 1974.11,243.857 1978.01,243.854 1981.92,243.852 1985.82,243.849 1989.73,243.847 1993.63,243.845 1997.54,243.842 2001.44,243.84 2005.35,243.838 2009.25,243.836 2013.16,243.834 2017.06,243.832 2020.97,243.83 2024.87,243.829 2028.78,243.827 2032.68,243.825 2036.59,243.824 2040.49,243.822 2044.4,243.82 2048.3,243.819 2052.21,243.818 2056.11,243.816 2060.02,243.815 2063.92,243.814 2067.82,243.813 2071.73,243.812 2075.63,243.81 2079.54,243.809 2083.44,243.808 2087.35,243.807 2091.25,243.807 2095.16,243.806 2099.06,243.805 2102.97,243.804 2106.87,243.803 2110.78,243.803 2114.68,243.802 2118.59,243.801 2122.49,243.801 2126.4,243.8 2130.3,243.8 2134.21,243.799 2138.11,243.799 2142.02,243.798 2145.92,243.798 2149.82,243.797 2153.73,243.797 2157.63,243.797 2161.54,243.796 2165.44,243.796 2169.35,243.796 2173.25,243.795 2177.16,243.795 2181.06,243.795 2184.97,243.795 2188.87,243.795 2192.78,243.794 2196.68,243.794 2200.59,243.794 2204.49,243.794 2208.4,243.794 2212.3,243.794 2216.21,243.794 2220.11,243.794 2224.02,243.794 2227.92,243.794 2231.83,243.794 2235.73,243.794 2239.63,243.794 2243.54,243.794 2247.44,243.794 2251.35,243.794 2255.25,243.794 2259.16,243.794 2263.06,243.794 2266.97,243.794 2270.87,243.794 2274.78,243.794 2278.68,243.794 2282.59,243.794 2286.49,243.794 2290.4,243.795 2294.3,243.795 "/>
<polyline clip-path="url(#clip031)" style="stroke:#000000; stroke-linecap:round; stroke-linejoin:round; stroke-width:1.6; stroke-opacity:1; fill:none" stroke-dasharray="8, 5" points="345.82,243.806 349.725,243.806 353.63,243.806 357.535,243.806 361.439,243.806 365.344,243.806 369.249,243.806 373.154,243.806 377.059,243.806 380.963,243.806 384.868,243.806 388.773,243.806 392.678,243.806 396.582,243.806 400.487,243.806 404.392,243.806 408.297,243.806 412.201,243.806 416.106,243.806 420.011,243.806 423.916,243.806 427.821,243.806 431.725,243.806 435.63,243.806 439.535,243.806 443.44,243.806 447.344,243.806 451.249,243.806 455.154,243.806 459.059,243.806 462.963,243.806 466.868,243.806 470.773,243.806 474.678,243.806 478.583,243.806 482.487,243.806 486.392,243.806 490.297,243.806 494.202,243.806 498.106,243.806 502.011,243.806 505.916,243.806 509.821,243.806 513.726,243.806 517.63,243.806 521.535,243.806 525.44,243.806 529.345,243.806 533.249,243.806 537.154,243.806 541.059,243.806 544.964,243.806 548.868,243.806 552.773,243.806 556.678,243.806 560.583,243.806 564.488,243.806 568.392,243.806 572.297,243.806 576.202,243.806 580.107,243.806 584.011,243.806 587.916,243.806 591.821,243.806 595.726,243.806 599.631,243.806 603.535,243.806 607.44,243.806 611.345,243.806 615.25,243.806 619.154,243.806 623.059,243.806 626.964,243.806 630.869,243.806 634.773,243.806 638.678,243.806 642.583,243.806 646.488,243.806 650.393,243.806 654.297,243.806 658.202,243.806 662.107,243.806 666.012,243.806 669.916,243.806 673.821,243.806 677.726,243.806 681.631,243.806 685.535,243.806 689.44,243.806 693.345,243.806 697.25,243.806 701.155,243.806 705.059,243.806 708.964,243.806 712.869,243.806 716.774,243.806 720.678,243.806 724.583,243.806 728.488,243.806 732.393,243.806 736.298,243.806 740.202,243.806 744.107,243.806 748.012,243.806 751.917,243.806 755.821,243.806 759.726,243.806 763.631,243.806 767.536,243.806 771.44,243.806 775.345,243.806 779.25,243.806 783.155,243.806 787.06,243.806 790.964,243.806 794.869,243.806 798.774,243.806 802.679,243.806 806.583,243.806 810.488,243.806 814.393,243.806 818.298,243.806 822.202,243.806 826.107,243.806 830.012,243.806 833.917,243.806 837.822,243.806 841.726,243.806 845.631,243.806 849.536,243.806 853.441,243.806 857.345,243.806 861.25,243.806 865.155,243.806 869.06,243.806 872.965,243.806 876.869,243.806 880.774,243.806 884.679,243.806 888.584,243.806 892.488,243.806 896.393,243.806 900.298,243.806 904.203,243.806 908.107,243.806 912.012,243.806 915.917,243.806 919.822,243.806 923.727,243.806 927.631,243.806 931.536,243.806 935.441,243.806 939.346,243.806 943.25,243.806 947.155,243.806 951.06,243.806 954.965,243.806 958.87,243.806 962.774,243.806 966.679,243.806 970.584,243.806 974.489,243.806 978.393,243.806 982.298,243.806 986.203,243.806 990.108,243.806 994.012,243.806 997.917,243.806 1001.82,243.806 1005.73,243.806 1009.63,243.806 1013.54,243.806 1017.44,243.806 1021.35,243.806 1025.25,243.806 1029.16,243.806 1033.06,243.806 1036.96,243.806 1040.87,243.806 1044.77,243.806 1048.68,243.806 1052.58,243.806 1056.49,243.806 1060.39,243.806 1064.3,243.806 1068.2,243.806 1072.11,243.806 1076.01,243.806 1079.92,243.806 1083.82,243.806 1087.73,243.806 1091.63,243.806 1095.54,243.806 1099.44,243.806 1103.35,243.806 1107.25,243.806 1111.16,243.806 1115.06,243.806 1118.97,243.806 1122.87,243.806 1126.77,243.806 1130.68,243.806 1134.58,243.806 1138.49,243.806 1142.39,243.806 1146.3,243.806 1150.2,243.806 1154.11,243.806 1158.01,243.806 1161.92,243.806 1165.82,243.806 1169.73,243.806 1173.63,243.806 1177.54,243.806 1181.44,243.806 1185.35,243.806 1189.25,243.806 1193.16,243.806 1197.06,243.806 1200.97,243.806 1204.87,243.806 1208.77,243.806 1212.68,243.806 1216.58,243.806 1220.49,243.806 1224.39,243.806 1228.3,243.806 1232.2,243.806 1236.11,243.806 1240.01,243.806 1243.92,243.806 1247.82,243.806 1251.73,243.806 1255.63,243.806 1259.54,243.806 1263.44,243.806 1267.35,243.806 1271.25,243.806 1275.16,243.806 1279.06,243.806 1282.97,243.806 1286.87,243.806 1290.78,243.806 1294.68,243.806 1298.58,243.806 1302.49,243.806 1306.39,243.806 1310.3,243.806 1314.2,243.806 1318.11,243.806 1322.01,243.806 1325.92,243.806 1329.82,243.806 1333.73,243.806 1337.63,243.806 1341.54,243.806 1345.44,243.806 1349.35,243.806 1353.25,243.806 1357.16,243.806 1361.06,243.806 1364.97,243.806 1368.87,243.806 1372.78,243.806 1376.68,243.806 1380.58,243.806 1384.49,243.806 1388.39,243.806 1392.3,243.806 1396.2,243.806 1400.11,243.806 1404.01,243.806 1407.92,243.806 1411.82,243.806 1415.73,243.806 1419.63,243.806 1423.54,243.806 1427.44,243.806 1431.35,243.806 1435.25,243.806 1439.16,243.806 1443.06,243.806 1446.97,243.806 1450.87,243.806 1454.78,243.806 1458.68,243.806 1462.59,243.806 1466.49,243.806 1470.39,243.806 1474.3,243.806 1478.2,243.806 1482.11,243.806 1486.01,243.806 1489.92,243.806 1493.82,243.806 1497.73,243.806 1501.63,243.806 1505.54,243.806 1509.44,243.806 1513.35,243.806 1517.25,243.806 1521.16,243.806 1525.06,243.806 1528.97,243.806 1532.87,243.806 1536.78,243.806 1540.68,243.806 1544.59,243.806 1548.49,243.806 1552.39,243.806 1556.3,243.806 1560.2,243.806 1564.11,243.806 1568.01,243.806 1571.92,243.806 1575.82,243.806 1579.73,243.806 1583.63,243.806 1587.54,243.806 1591.44,243.806 1595.35,243.806 1599.25,243.806 1603.16,243.806 1607.06,243.806 1610.97,243.806 1614.87,243.806 1618.78,243.806 1622.68,243.806 1626.59,243.806 1630.49,243.806 1634.4,243.806 1638.3,243.806 1642.2,243.806 1646.11,243.806 1650.01,243.806 1653.92,243.806 1657.82,243.806 1661.73,243.806 1665.63,243.806 1669.54,243.806 1673.44,243.806 1677.35,243.806 1681.25,243.806 1685.16,243.806 1689.06,243.806 1692.97,243.806 1696.87,243.806 1700.78,243.806 1704.68,243.806 1708.59,243.806 1712.49,243.806 1716.4,243.806 1720.3,243.806 1724.2,243.806 1728.11,243.806 1732.01,243.806 1735.92,243.806 1739.82,243.806 1743.73,243.806 1747.63,243.806 1751.54,243.806 1755.44,243.806 1759.35,243.806 1763.25,243.806 1767.16,243.806 1771.06,243.806 1774.97,243.806 1778.87,243.806 1782.78,243.806 1786.68,243.806 1790.59,243.806 1794.49,243.806 1798.4,243.806 1802.3,243.806 1806.2,243.806 1810.11,243.806 1814.01,243.806 1817.92,243.806 1821.82,243.806 1825.73,243.806 1829.63,243.806 1833.54,243.806 1837.44,243.806 1841.35,243.806 1845.25,243.806 1849.16,243.806 1853.06,243.806 1856.97,243.806 1860.87,243.806 1864.78,243.806 1868.68,243.806 1872.59,243.806 1876.49,243.806 1880.4,243.806 1884.3,243.806 1888.21,243.806 1892.11,243.806 1896.01,243.806 1899.92,243.806 1903.82,243.806 1907.73,243.806 1911.63,243.806 1915.54,243.806 1919.44,243.806 1923.35,243.806 1927.25,243.806 1931.16,243.806 1935.06,243.806 1938.97,243.806 1942.87,243.806 1946.78,243.806 1950.68,243.806 1954.59,243.806 1958.49,243.806 1962.4,243.806 1966.3,243.806 1970.21,243.806 1974.11,243.806 1978.01,243.806 1981.92,243.806 1985.82,243.806 1989.73,243.806 1993.63,243.806 1997.54,243.806 2001.44,243.806 2005.35,243.806 2009.25,243.806 2013.16,243.806 2017.06,243.806 2020.97,243.806 2024.87,243.806 2028.78,243.806 2032.68,243.806 2036.59,243.806 2040.49,243.806 2044.4,243.806 2048.3,243.806 2052.21,243.806 2056.11,243.806 2060.02,243.806 2063.92,243.806 2067.82,243.806 2071.73,243.806 2075.63,243.806 2079.54,243.806 2083.44,243.806 2087.35,243.806 2091.25,243.806 2095.16,243.806 2099.06,243.806 2102.97,243.806 2106.87,243.806 2110.78,243.806 2114.68,243.806 2118.59,243.806 2122.49,243.806 2126.4,243.806 2130.3,243.806 2134.21,243.806 2138.11,243.806 2142.02,243.806 2145.92,243.806 2149.82,243.806 2153.73,243.806 2157.63,243.806 2161.54,243.806 2165.44,243.806 2169.35,243.806 2173.25,243.806 2177.16,243.806 2181.06,243.806 2184.97,243.806 2188.87,243.806 2192.78,243.806 2196.68,243.806 2200.59,243.806 2204.49,243.806 2208.4,243.806 2212.3,243.806 2216.21,243.806 2220.11,243.806 2224.02,243.806 2227.92,243.806 2231.83,243.806 2235.73,243.806 2239.63,243.806 2243.54,243.806 2247.44,243.806 2251.35,243.806 2255.25,243.806 2259.16,243.806 2263.06,243.806 2266.97,243.806 2270.87,243.806 2274.78,243.806 2278.68,243.806 2282.59,243.806 2286.49,243.806 2290.4,243.806 2294.3,243.806 "/>
<polyline clip-path="url(#clip031)" style="stroke:#3da44d; stroke-linecap:round; stroke-linejoin:round; stroke-width:4; stroke-opacity:1; fill:none" points="345.82,1030.06 349.725,1031 353.63,1034.18 357.535,1039.96 361.439,1048.08 365.344,1057.95 369.249,1068.81 373.154,1079.88 377.059,1090.45 380.963,1099.94 384.868,1107.94 388.773,1114.18 392.678,1118.52 396.582,1120.98 400.487,1121.67 404.392,1120.74 408.297,1118.43 412.201,1114.98 416.106,1110.62 420.011,1105.58 423.916,1100.08 427.821,1094.27 431.725,1088.3 435.63,1082.28 439.535,1076.27 443.44,1070.33 447.344,1064.46 451.249,1058.69 455.154,1052.98 459.059,1047.33 462.963,1041.7 466.868,1036.08 470.773,1030.42 474.678,1024.72 478.583,1018.94 482.487,1013.08 486.392,1007.13 490.297,1001.06 494.202,994.893 498.106,988.617 502.011,982.239 505.916,975.763 509.821,969.195 513.726,962.544 517.63,955.817 521.535,949.021 525.44,942.163 529.345,935.25 533.249,928.287 537.154,921.28 541.059,914.232 544.964,907.147 548.868,900.029 552.773,892.88 556.678,885.702 560.583,878.498 564.488,871.27 568.392,864.019 572.297,856.747 576.202,849.456 580.107,842.147 584.011,834.824 587.916,827.487 591.821,820.138 595.726,812.78 599.631,805.415 603.535,798.044 607.44,790.67 611.345,783.295 615.25,775.921 619.154,768.551 623.059,761.185 626.964,753.826 630.869,746.476 634.773,739.137 638.678,731.81 642.583,724.497 646.488,717.201 650.393,709.922 654.297,702.662 658.202,695.423 662.107,688.206 666.012,681.013 669.916,673.846 673.821,666.705 677.726,659.591 681.631,652.508 685.535,645.454 689.44,638.433 693.345,631.445 697.25,624.491 701.155,617.573 705.059,610.691 708.964,603.847 712.869,597.042 716.774,590.277 720.678,583.553 724.583,576.871 728.488,570.232 732.393,563.636 736.298,557.086 740.202,550.581 744.107,544.122 748.012,537.71 751.917,531.347 755.821,525.032 759.726,518.767 763.631,512.552 767.536,506.388 771.44,500.275 775.345,494.215 779.25,488.207 783.155,482.252 787.06,476.352 790.964,470.505 794.869,464.714 798.774,458.978 802.679,453.297 806.583,447.673 810.488,442.105 814.393,436.594 818.298,431.14 822.202,425.744 826.107,420.406 830.012,415.126 833.917,409.904 837.822,404.741 841.726,399.637 845.631,394.593 849.536,389.607 853.441,384.681 857.345,379.814 861.25,375.007 865.155,370.26 869.06,365.573 872.965,360.946 876.869,356.379 880.774,351.872 884.679,347.425 888.584,343.038 892.488,338.711 896.393,334.445 900.298,330.238 904.203,326.091 908.107,322.004 912.012,317.977 915.917,314.009 919.822,310.101 923.727,306.253 927.631,302.463 931.536,298.733 935.441,295.062 939.346,291.45 943.25,287.896 947.155,284.4 951.06,280.963 954.965,277.583 958.87,274.262 962.774,270.997 966.679,267.79 970.584,264.64 974.489,261.546 978.393,258.509 982.298,255.527 986.203,252.602 990.108,249.732 994.012,246.916 997.917,244.156 1001.82,241.45 1005.73,238.798 1009.63,236.2 1013.54,233.655 1017.44,231.163 1021.35,228.723 1025.25,226.336 1029.16,224 1033.06,221.716 1036.96,219.483 1040.87,217.301 1044.77,215.168 1048.68,213.085 1052.58,211.052 1056.49,209.068 1060.39,207.132 1064.3,205.244 1068.2,203.403 1072.11,201.61 1076.01,199.863 1079.92,198.163 1083.82,196.508 1087.73,194.899 1091.63,193.334 1095.54,191.814 1099.44,190.338 1103.35,188.905 1107.25,187.515 1111.16,186.168 1115.06,184.862 1118.97,183.598 1122.87,182.375 1126.77,181.193 1130.68,180.051 1134.58,178.948 1138.49,177.885 1142.39,176.86 1146.3,175.873 1150.2,174.923 1154.11,174.011 1158.01,173.136 1161.92,172.297 1165.82,171.493 1169.73,170.725 1173.63,169.991 1177.54,169.291 1181.44,168.625 1185.35,167.993 1189.25,167.393 1193.16,166.825 1197.06,166.29 1200.97,165.785 1204.87,165.311 1208.77,164.868 1212.68,164.454 1216.58,164.07 1220.49,163.715 1224.39,163.388 1228.3,163.089 1232.2,162.818 1236.11,162.573 1240.01,162.355 1243.92,162.163 1247.82,161.997 1251.73,161.856 1255.63,161.739 1259.54,161.647 1263.44,161.579 1267.35,161.534 1271.25,161.511 1275.16,161.512 1279.06,161.534 1282.97,161.577 1286.87,161.642 1290.78,161.728 1294.68,161.833 1298.58,161.959 1302.49,162.104 1306.39,162.268 1310.3,162.45 1314.2,162.651 1318.11,162.869 1322.01,163.105 1325.92,163.357 1329.82,163.626 1333.73,163.911 1337.63,164.212 1341.54,164.529 1345.44,164.86 1349.35,165.205 1353.25,165.565 1357.16,165.939 1361.06,166.326 1364.97,166.726 1368.87,167.139 1372.78,167.564 1376.68,168.002 1380.58,168.45 1384.49,168.91 1388.39,169.382 1392.3,169.863 1396.2,170.355 1400.11,170.857 1404.01,171.368 1407.92,171.889 1411.82,172.418 1415.73,172.957 1419.63,173.503 1423.54,174.058 1427.44,174.62 1431.35,175.189 1435.25,175.766 1439.16,176.349 1443.06,176.939 1446.97,177.536 1450.87,178.138 1454.78,178.746 1458.68,179.359 1462.59,179.977 1466.49,180.6 1470.39,181.228 1474.3,181.86 1478.2,182.496 1482.11,183.136 1486.01,183.78 1489.92,184.427 1493.82,185.077 1497.73,185.729 1501.63,186.385 1505.54,187.043 1509.44,187.703 1513.35,188.365 1517.25,189.029 1521.16,189.694 1525.06,190.361 1528.97,191.028 1532.87,191.697 1536.78,192.367 1540.68,193.036 1544.59,193.707 1548.49,194.377 1552.39,195.048 1556.3,195.718 1560.2,196.388 1564.11,197.057 1568.01,197.726 1571.92,198.393 1575.82,199.06 1579.73,199.725 1583.63,200.389 1587.54,201.052 1591.44,201.713 1595.35,202.372 1599.25,203.029 1603.16,203.684 1607.06,204.337 1610.97,204.988 1614.87,205.636 1618.78,206.281 1622.68,206.924 1626.59,207.564 1630.49,208.201 1634.4,208.835 1638.3,209.466 1642.2,210.093 1646.11,210.717 1650.01,211.338 1653.92,211.955 1657.82,212.568 1661.73,213.178 1665.63,213.784 1669.54,214.386 1673.44,214.984 1677.35,215.577 1681.25,216.167 1685.16,216.752 1689.06,217.333 1692.97,217.91 1696.87,218.482 1700.78,219.049 1704.68,219.612 1708.59,220.171 1712.49,220.725 1716.4,221.273 1720.3,221.817 1724.2,222.357 1728.11,222.891 1732.01,223.42 1735.92,223.945 1739.82,224.464 1743.73,224.978 1747.63,225.487 1751.54,225.991 1755.44,226.49 1759.35,226.984 1763.25,227.472 1767.16,227.955 1771.06,228.433 1774.97,228.905 1778.87,229.372 1782.78,229.834 1786.68,230.29 1790.59,230.741 1794.49,231.187 1798.4,231.627 1802.3,232.061 1806.2,232.491 1810.11,232.915 1814.01,233.333 1817.92,233.746 1821.82,234.153 1825.73,234.555 1829.63,234.952 1833.54,235.343 1837.44,235.728 1841.35,236.108 1845.25,236.483 1849.16,236.852 1853.06,237.216 1856.97,237.574 1860.87,237.927 1864.78,238.275 1868.68,238.617 1872.59,238.954 1876.49,239.285 1880.4,239.612 1884.3,239.932 1888.21,240.248 1892.11,240.558 1896.01,240.863 1899.92,241.163 1903.82,241.457 1907.73,241.747 1911.63,242.031 1915.54,242.31 1919.44,242.584 1923.35,242.853 1927.25,243.117 1931.16,243.376 1935.06,243.629 1938.97,243.878 1942.87,244.122 1946.78,244.361 1950.68,244.595 1954.59,244.825 1958.49,245.049 1962.4,245.269 1966.3,245.484 1970.21,245.694 1974.11,245.9 1978.01,246.101 1981.92,246.297 1985.82,246.489 1989.73,246.677 1993.63,246.86 1997.54,247.038 2001.44,247.213 2005.35,247.382 2009.25,247.548 2013.16,247.709 2017.06,247.866 2020.97,248.019 2024.87,248.168 2028.78,248.312 2032.68,248.453 2036.59,248.589 2040.49,248.722 2044.4,248.85 2048.3,248.975 2052.21,249.096 2056.11,249.213 2060.02,249.326 2063.92,249.436 2067.82,249.542 2071.73,249.644 2075.63,249.743 2079.54,249.838 2083.44,249.93 2087.35,250.018 2091.25,250.103 2095.16,250.184 2099.06,250.263 2102.97,250.338 2106.87,250.409 2110.78,250.478 2114.68,250.543 2118.59,250.606 2122.49,250.665 2126.4,250.721 2130.3,250.774 2134.21,250.825 2138.11,250.872 2142.02,250.917 2145.92,250.959 2149.82,250.998 2153.73,251.034 2157.63,251.068 2161.54,251.099 2165.44,251.128 2169.35,251.154 2173.25,251.178 2177.16,251.199 2181.06,251.218 2184.97,251.234 2188.87,251.249 2192.78,251.26 2196.68,251.27 2200.59,251.278 2204.49,251.283 2208.4,251.286 2212.3,251.287 2216.21,251.286 2220.11,251.284 2224.02,251.279 2227.92,251.272 2231.83,251.264 2235.73,251.253 2239.63,251.241 2243.54,251.227 2247.44,251.212 2251.35,251.194 2255.25,251.175 2259.16,251.155 2263.06,251.133 2266.97,251.109 2270.87,251.084 2274.78,251.058 2278.68,251.03 2282.59,251 2286.49,250.97 2290.4,250.938 2294.3,250.904 "/>
<path clip-path="url(#clip030)" d="M1859.27 1377.32 L2283.91 1377.32 L2283.91 1169.96 L1859.27 1169.96  Z" fill="#ffffff" fill-rule="evenodd" fill-opacity="1"/>
<polyline clip-path="url(#clip030)" style="stroke:#000000; stroke-linecap:round; stroke-linejoin:round; stroke-width:4; stroke-opacity:1; fill:none" points="1859.27,1377.32 2283.91,1377.32 2283.91,1169.96 1859.27,1169.96 1859.27,1377.32 "/>
<polyline clip-path="url(#clip030)" style="stroke:#009af9; stroke-linecap:round; stroke-linejoin:round; stroke-width:4; stroke-opacity:1; fill:none" points="1882.22,1221.8 2019.91,1221.8 "/>
<path clip-path="url(#clip030)" d="M2042.86 1204.52 L2049.16 1204.52 L2064.48 1233.43 L2064.48 1204.52 L2069.02 1204.52 L2069.02 1239.08 L2062.72 1239.08 L2047.4 1210.16 L2047.4 1239.08 L2042.86 1239.08 L2042.86 1204.52 Z" fill="#000000" fill-rule="nonzero" fill-opacity="1" /><path clip-path="url(#clip030)" d="M2082.26 1235.19 L2082.26 1248.94 L2077.98 1248.94 L2077.98 1213.15 L2082.26 1213.15 L2082.26 1217.08 Q2083.6 1214.77 2085.64 1213.66 Q2087.7 1212.52 2090.55 1212.52 Q2095.27 1212.52 2098.21 1216.27 Q2101.17 1220.02 2101.17 1226.14 Q2101.17 1232.25 2098.21 1236 Q2095.27 1239.75 2090.55 1239.75 Q2087.7 1239.75 2085.64 1238.64 Q2083.6 1237.5 2082.26 1235.19 M2096.75 1226.14 Q2096.75 1221.44 2094.8 1218.77 Q2092.88 1216.09 2089.5 1216.09 Q2086.12 1216.09 2084.18 1218.77 Q2082.26 1221.44 2082.26 1226.14 Q2082.26 1230.83 2084.18 1233.52 Q2086.12 1236.18 2089.5 1236.18 Q2092.88 1236.18 2094.8 1233.52 Q2096.75 1230.83 2096.75 1226.14 Z" fill="#000000" fill-rule="nonzero" fill-opacity="1" /><path clip-path="url(#clip030)" d="M2123.86 1217.55 L2153.53 1217.55 L2153.53 1221.44 L2123.86 1221.44 L2123.86 1217.55 M2123.86 1226.99 L2153.53 1226.99 L2153.53 1230.93 L2123.86 1230.93 L2123.86 1226.99 Z" fill="#000000" fill-rule="nonzero" fill-opacity="1" /><path clip-path="url(#clip030)" d="M2179.5 1235.14 L2187.14 1235.14 L2187.14 1208.77 L2178.83 1210.44 L2178.83 1206.18 L2187.1 1204.52 L2191.77 1204.52 L2191.77 1235.14 L2199.41 1235.14 L2199.41 1239.08 L2179.5 1239.08 L2179.5 1235.14 Z" fill="#000000" fill-rule="nonzero" fill-opacity="1" /><path clip-path="url(#clip030)" d="M2218.85 1207.59 Q2215.24 1207.59 2213.41 1211.16 Q2211.61 1214.7 2211.61 1221.83 Q2211.61 1228.94 2213.41 1232.5 Q2215.24 1236.04 2218.85 1236.04 Q2222.49 1236.04 2224.29 1232.5 Q2226.12 1228.94 2226.12 1221.83 Q2226.12 1214.7 2224.29 1211.16 Q2222.49 1207.59 2218.85 1207.59 M2218.85 1203.89 Q2224.66 1203.89 2227.72 1208.5 Q2230.8 1213.08 2230.8 1221.83 Q2230.8 1230.56 2227.72 1235.16 Q2224.66 1239.75 2218.85 1239.75 Q2213.04 1239.75 2209.97 1235.16 Q2206.91 1230.56 2206.91 1221.83 Q2206.91 1213.08 2209.97 1208.5 Q2213.04 1203.89 2218.85 1203.89 Z" fill="#000000" fill-rule="nonzero" fill-opacity="1" /><path clip-path="url(#clip030)" d="M2249.02 1207.59 Q2245.41 1207.59 2243.58 1211.16 Q2241.77 1214.7 2241.77 1221.83 Q2241.77 1228.94 2243.58 1232.5 Q2245.41 1236.04 2249.02 1236.04 Q2252.65 1236.04 2254.46 1232.5 Q2256.28 1228.94 2256.28 1221.83 Q2256.28 1214.7 2254.46 1211.16 Q2252.65 1207.59 2249.02 1207.59 M2249.02 1203.89 Q2254.83 1203.89 2257.88 1208.5 Q2260.96 1213.08 2260.96 1221.83 Q2260.96 1230.56 2257.88 1235.16 Q2254.83 1239.75 2249.02 1239.75 Q2243.21 1239.75 2240.13 1235.16 Q2237.07 1230.56 2237.07 1221.83 Q2237.07 1213.08 2240.13 1208.5 Q2243.21 1203.89 2249.02 1203.89 Z" fill="#000000" fill-rule="nonzero" fill-opacity="1" /><polyline clip-path="url(#clip030)" style="stroke:#e26f46; stroke-linecap:round; stroke-linejoin:round; stroke-width:4; stroke-opacity:1; fill:none" points="1882.22,1273.64 2019.91,1273.64 "/>
<path clip-path="url(#clip030)" d="M2042.86 1256.36 L2049.16 1256.36 L2064.48 1285.27 L2064.48 1256.36 L2069.02 1256.36 L2069.02 1290.92 L2062.72 1290.92 L2047.4 1262 L2047.4 1290.92 L2042.86 1290.92 L2042.86 1256.36 Z" fill="#000000" fill-rule="nonzero" fill-opacity="1" /><path clip-path="url(#clip030)" d="M2082.26 1287.03 L2082.26 1300.78 L2077.98 1300.78 L2077.98 1264.99 L2082.26 1264.99 L2082.26 1268.92 Q2083.6 1266.61 2085.64 1265.5 Q2087.7 1264.36 2090.55 1264.36 Q2095.27 1264.36 2098.21 1268.11 Q2101.17 1271.86 2101.17 1277.98 Q2101.17 1284.09 2098.21 1287.84 Q2095.27 1291.59 2090.55 1291.59 Q2087.7 1291.59 2085.64 1290.48 Q2083.6 1289.34 2082.26 1287.03 M2096.75 1277.98 Q2096.75 1273.28 2094.8 1270.61 Q2092.88 1267.93 2089.5 1267.93 Q2086.12 1267.93 2084.18 1270.61 Q2082.26 1273.28 2082.26 1277.98 Q2082.26 1282.67 2084.18 1285.36 Q2086.12 1288.02 2089.5 1288.02 Q2092.88 1288.02 2094.8 1285.36 Q2096.75 1282.67 2096.75 1277.98 Z" fill="#000000" fill-rule="nonzero" fill-opacity="1" /><path clip-path="url(#clip030)" d="M2123.86 1269.39 L2153.53 1269.39 L2153.53 1273.28 L2123.86 1273.28 L2123.86 1269.39 M2123.86 1278.83 L2153.53 1278.83 L2153.53 1282.77 L2123.86 1282.77 L2123.86 1278.83 Z" fill="#000000" fill-rule="nonzero" fill-opacity="1" /><path clip-path="url(#clip030)" d="M2177.51 1256.36 L2199.73 1256.36 L2199.73 1258.35 L2187.19 1290.92 L2182.3 1290.92 L2194.11 1260.29 L2177.51 1260.29 L2177.51 1256.36 Z" fill="#000000" fill-rule="nonzero" fill-opacity="1" /><path clip-path="url(#clip030)" d="M2208.9 1256.36 L2227.26 1256.36 L2227.26 1260.29 L2213.18 1260.29 L2213.18 1268.76 Q2214.2 1268.42 2215.22 1268.25 Q2216.24 1268.07 2217.26 1268.07 Q2223.04 1268.07 2226.42 1271.24 Q2229.8 1274.41 2229.8 1279.83 Q2229.8 1285.41 2226.33 1288.51 Q2222.86 1291.59 2216.54 1291.59 Q2214.36 1291.59 2212.1 1291.22 Q2209.85 1290.85 2207.44 1290.11 L2207.44 1285.41 Q2209.53 1286.54 2211.75 1287.1 Q2213.97 1287.65 2216.45 1287.65 Q2220.45 1287.65 2222.79 1285.54 Q2225.13 1283.44 2225.13 1279.83 Q2225.13 1276.22 2222.79 1274.11 Q2220.45 1272 2216.45 1272 Q2214.57 1272 2212.7 1272.42 Q2210.85 1272.84 2208.9 1273.72 L2208.9 1256.36 Z" fill="#000000" fill-rule="nonzero" fill-opacity="1" /><polyline clip-path="url(#clip030)" style="stroke:#3da44d; stroke-linecap:round; stroke-linejoin:round; stroke-width:4; stroke-opacity:1; fill:none" points="1882.22,1325.48 2019.91,1325.48 "/>
<path clip-path="url(#clip030)" d="M2042.86 1308.2 L2049.16 1308.2 L2064.48 1337.11 L2064.48 1308.2 L2069.02 1308.2 L2069.02 1342.76 L2062.72 1342.76 L2047.4 1313.84 L2047.4 1342.76 L2042.86 1342.76 L2042.86 1308.2 Z" fill="#000000" fill-rule="nonzero" fill-opacity="1" /><path clip-path="url(#clip030)" d="M2082.26 1338.87 L2082.26 1352.62 L2077.98 1352.62 L2077.98 1316.83 L2082.26 1316.83 L2082.26 1320.76 Q2083.6 1318.45 2085.64 1317.34 Q2087.7 1316.2 2090.55 1316.2 Q2095.27 1316.2 2098.21 1319.95 Q2101.17 1323.7 2101.17 1329.82 Q2101.17 1335.93 2098.21 1339.68 Q2095.27 1343.43 2090.55 1343.43 Q2087.7 1343.43 2085.64 1342.32 Q2083.6 1341.18 2082.26 1338.87 M2096.75 1329.82 Q2096.75 1325.12 2094.8 1322.45 Q2092.88 1319.77 2089.5 1319.77 Q2086.12 1319.77 2084.18 1322.45 Q2082.26 1325.12 2082.26 1329.82 Q2082.26 1334.51 2084.18 1337.2 Q2086.12 1339.86 2089.5 1339.86 Q2092.88 1339.86 2094.8 1337.2 Q2096.75 1334.51 2096.75 1329.82 Z" fill="#000000" fill-rule="nonzero" fill-opacity="1" /><path clip-path="url(#clip030)" d="M2123.86 1321.23 L2153.53 1321.23 L2153.53 1325.12 L2123.86 1325.12 L2123.86 1321.23 M2123.86 1330.67 L2153.53 1330.67 L2153.53 1334.61 L2123.86 1334.61 L2123.86 1330.67 Z" fill="#000000" fill-rule="nonzero" fill-opacity="1" /><path clip-path="url(#clip030)" d="M2178.74 1308.2 L2197.1 1308.2 L2197.1 1312.13 L2183.02 1312.13 L2183.02 1320.6 Q2184.04 1320.26 2185.06 1320.09 Q2186.08 1319.91 2187.1 1319.91 Q2192.88 1319.91 2196.26 1323.08 Q2199.64 1326.25 2199.64 1331.67 Q2199.64 1337.25 2196.17 1340.35 Q2192.7 1343.43 2186.38 1343.43 Q2184.2 1343.43 2181.93 1343.06 Q2179.69 1342.69 2177.28 1341.95 L2177.28 1337.25 Q2179.36 1338.38 2181.59 1338.94 Q2183.81 1339.49 2186.29 1339.49 Q2190.29 1339.49 2192.63 1337.38 Q2194.97 1335.28 2194.97 1331.67 Q2194.97 1328.06 2192.63 1325.95 Q2190.29 1323.84 2186.29 1323.84 Q2184.41 1323.84 2182.54 1324.26 Q2180.68 1324.68 2178.74 1325.56 L2178.74 1308.2 Z" fill="#000000" fill-rule="nonzero" fill-opacity="1" /><path clip-path="url(#clip030)" d="M2218.85 1311.27 Q2215.24 1311.27 2213.41 1314.84 Q2211.61 1318.38 2211.61 1325.51 Q2211.61 1332.62 2213.41 1336.18 Q2215.24 1339.72 2218.85 1339.72 Q2222.49 1339.72 2224.29 1336.18 Q2226.12 1332.62 2226.12 1325.51 Q2226.12 1318.38 2224.29 1314.84 Q2222.49 1311.27 2218.85 1311.27 M2218.85 1307.57 Q2224.66 1307.57 2227.72 1312.18 Q2230.8 1316.76 2230.8 1325.51 Q2230.8 1334.24 2227.72 1338.84 Q2224.66 1343.43 2218.85 1343.43 Q2213.04 1343.43 2209.97 1338.84 Q2206.91 1334.24 2206.91 1325.51 Q2206.91 1316.76 2209.97 1312.18 Q2213.04 1307.57 2218.85 1307.57 Z" fill="#000000" fill-rule="nonzero" fill-opacity="1" /></svg>
