<?xml version="1.0" encoding="utf-8"?>
<svg xmlns="http://www.w3.org/2000/svg" xmlns:xlink="http://www.w3.org/1999/xlink" width="600" height="400" viewBox="0 0 2400 1600">
<defs>
  <clipPath id="clip180">
    <rect x="0" y="0" width="2400" height="1600"/>
  </clipPath>
</defs>
<path clip-path="url(#clip180)" d="M0 1600 L2400 1600 L2400 0 L0 0  Z" fill="#ffffff" fill-rule="evenodd" fill-opacity="1"/>
<defs>
  <clipPath id="clip181">
    <rect x="249" y="47" width="2104" height="1377"/>
  </clipPath>
</defs>
<path clip-path="url(#clip180)" d="M249.542 1423.18 L2352.76 1423.18 L2352.76 47.2441 L249.542 47.2441  Z" fill="#ffffff" fill-rule="evenodd" fill-opacity="1"/>
<polyline clip-path="url(#clip181)" style="stroke:#000000; stroke-linecap:round; stroke-linejoin:round; stroke-width:2; stroke-opacity:0.1; fill:none" points="307.081,1423.18 307.081,47.2441 "/>
<polyline clip-path="url(#clip181)" style="stroke:#000000; stroke-linecap:round; stroke-linejoin:round; stroke-width:2; stroke-opacity:0.1; fill:none" points="803.618,1423.18 803.618,47.2441 "/>
<polyline clip-path="url(#clip181)" style="stroke:#000000; stroke-linecap:round; stroke-linejoin:round; stroke-width:2; stroke-opacity:0.1; fill:none" points="1300.16,1423.18 1300.16,47.2441 "/>
<polyline clip-path="url(#clip181)" style="stroke:#000000; stroke-linecap:round; stroke-linejoin:round; stroke-width:2; stroke-opacity:0.1; fill:none" points="1796.69,1423.18 1796.69,47.2441 "/>
<polyline clip-path="url(#clip181)" style="stroke:#000000; stroke-linecap:round; stroke-linejoin:round; stroke-width:2; stroke-opacity:0.1; fill:none" points="2293.23,1423.18 2293.23,47.2441 "/>
<polyline clip-path="url(#clip181)" style="stroke:#000000; stroke-linecap:round; stroke-linejoin:round; stroke-width:2; stroke-opacity:0.1; fill:none" points="249.542,1423.18 2352.76,1423.18 "/>
<polyline clip-path="url(#clip181)" style="stroke:#000000; stroke-linecap:round; stroke-linejoin:round; stroke-width:2; stroke-opacity:0.1; fill:none" points="249.542,1079.2 2352.76,1079.2 "/>
<polyline clip-path="url(#clip181)" style="stroke:#000000; stroke-linecap:round; stroke-linejoin:round; stroke-width:2; stroke-opacity:0.1; fill:none" points="249.542,735.212 2352.76,735.212 "/>
<polyline clip-path="url(#clip181)" style="stroke:#000000; stroke-linecap:round; stroke-linejoin:round; stroke-width:2; stroke-opacity:0.1; fill:none" points="249.542,391.228 2352.76,391.228 "/>
<polyline clip-path="url(#clip180)" style="stroke:#000000; stroke-linecap:round; stroke-linejoin:round; stroke-width:4; stroke-opacity:1; fill:none" points="249.542,1423.18 2352.76,1423.18 "/>
<polyline clip-path="url(#clip180)" style="stroke:#000000; stroke-linecap:round; stroke-linejoin:round; stroke-width:4; stroke-opacity:1; fill:none" points="307.081,1423.18 307.081,1404.28 "/>
<polyline clip-path="url(#clip180)" style="stroke:#000000; stroke-linecap:round; stroke-linejoin:round; stroke-width:4; stroke-opacity:1; fill:none" points="803.618,1423.18 803.618,1404.28 "/>
<polyline clip-path="url(#clip180)" style="stroke:#000000; stroke-linecap:round; stroke-linejoin:round; stroke-width:4; stroke-opacity:1; fill:none" points="1300.16,1423.18 1300.16,1404.28 "/>
<polyline clip-path="url(#clip180)" style="stroke:#000000; stroke-linecap:round; stroke-linejoin:round; stroke-width:4; stroke-opacity:1; fill:none" points="1796.69,1423.18 1796.69,1404.28 "/>
<polyline clip-path="url(#clip180)" style="stroke:#000000; stroke-linecap:round; stroke-linejoin:round; stroke-width:4; stroke-opacity:1; fill:none" points="2293.23,1423.18 2293.23,1404.28 "/>
<path clip-path="url(#clip180)" d="M307.081 1454.1 Q303.47 1454.1 301.641 1457.66 Q299.835 1461.2 299.835 1468.33 Q299.835 1475.44 301.641 1479.01 Q303.47 1482.55 307.081 1482.55 Q310.715 1482.55 312.521 1479.01 Q314.349 1475.44 314.349 1468.33 Q314.349 1461.2 312.521 1457.66 Q310.715 1454.1 307.081 1454.1 M307.081 1450.39 Q312.891 1450.39 315.946 1455 Q319.025 1459.58 319.025 1468.33 Q319.025 1477.06 315.946 1481.67 Q312.891 1486.25 307.081 1486.25 Q301.271 1486.25 298.192 1481.67 Q295.136 1477.06 295.136 1468.33 Q295.136 1459.58 298.192 1455 Q301.271 1450.39 307.081 1450.39 Z" fill="#000000" fill-rule="nonzero" fill-opacity="1" /><path clip-path="url(#clip180)" d="M767.311 1481.64 L783.63 1481.64 L783.63 1485.58 L761.686 1485.58 L761.686 1481.64 Q764.348 1478.89 768.931 1474.26 Q773.537 1469.61 774.718 1468.27 Q776.963 1465.74 777.843 1464.01 Q778.746 1462.25 778.746 1460.56 Q778.746 1457.8 776.801 1456.07 Q774.88 1454.33 771.778 1454.33 Q769.579 1454.33 767.125 1455.09 Q764.695 1455.86 761.917 1457.41 L761.917 1452.69 Q764.741 1451.55 767.195 1450.97 Q769.649 1450.39 771.686 1450.39 Q777.056 1450.39 780.25 1453.08 Q783.445 1455.77 783.445 1460.26 Q783.445 1462.39 782.635 1464.31 Q781.848 1466.2 779.741 1468.8 Q779.162 1469.47 776.061 1472.69 Q772.959 1475.88 767.311 1481.64 Z" fill="#000000" fill-rule="nonzero" fill-opacity="1" /><path clip-path="url(#clip180)" d="M793.491 1451.02 L811.847 1451.02 L811.847 1454.96 L797.773 1454.96 L797.773 1463.43 Q798.792 1463.08 799.81 1462.92 Q800.829 1462.73 801.848 1462.73 Q807.635 1462.73 811.014 1465.9 Q814.394 1469.08 814.394 1474.49 Q814.394 1480.07 810.922 1483.17 Q807.449 1486.25 801.13 1486.25 Q798.954 1486.25 796.686 1485.88 Q794.44 1485.51 792.033 1484.77 L792.033 1480.07 Q794.116 1481.2 796.338 1481.76 Q798.561 1482.32 801.037 1482.32 Q805.042 1482.32 807.38 1480.21 Q809.718 1478.1 809.718 1474.49 Q809.718 1470.88 807.38 1468.77 Q805.042 1466.67 801.037 1466.67 Q799.162 1466.67 797.287 1467.08 Q795.436 1467.5 793.491 1468.38 L793.491 1451.02 Z" fill="#000000" fill-rule="nonzero" fill-opacity="1" /><path clip-path="url(#clip180)" d="M833.607 1454.1 Q829.996 1454.1 828.167 1457.66 Q826.361 1461.2 826.361 1468.33 Q826.361 1475.44 828.167 1479.01 Q829.996 1482.55 833.607 1482.55 Q837.241 1482.55 839.046 1479.01 Q840.875 1475.44 840.875 1468.33 Q840.875 1461.2 839.046 1457.66 Q837.241 1454.1 833.607 1454.1 M833.607 1450.39 Q839.417 1450.39 842.472 1455 Q845.551 1459.58 845.551 1468.33 Q845.551 1477.06 842.472 1481.67 Q839.417 1486.25 833.607 1486.25 Q827.796 1486.25 824.718 1481.67 Q821.662 1477.06 821.662 1468.33 Q821.662 1459.58 824.718 1455 Q827.796 1450.39 833.607 1450.39 Z" fill="#000000" fill-rule="nonzero" fill-opacity="1" /><path clip-path="url(#clip180)" d="M1259.77 1451.02 L1278.13 1451.02 L1278.13 1454.96 L1264.06 1454.96 L1264.06 1463.43 Q1265.08 1463.08 1266.09 1462.92 Q1267.11 1462.73 1268.13 1462.73 Q1273.92 1462.73 1277.3 1465.9 Q1280.68 1469.08 1280.68 1474.49 Q1280.68 1480.07 1277.2 1483.17 Q1273.73 1486.25 1267.41 1486.25 Q1265.24 1486.25 1262.97 1485.88 Q1260.72 1485.51 1258.32 1484.77 L1258.32 1480.07 Q1260.4 1481.2 1262.62 1481.76 Q1264.84 1482.32 1267.32 1482.32 Q1271.33 1482.32 1273.66 1480.21 Q1276 1478.1 1276 1474.49 Q1276 1470.88 1273.66 1468.77 Q1271.33 1466.67 1267.32 1466.67 Q1265.45 1466.67 1263.57 1467.08 Q1261.72 1467.5 1259.77 1468.38 L1259.77 1451.02 Z" fill="#000000" fill-rule="nonzero" fill-opacity="1" /><path clip-path="url(#clip180)" d="M1299.89 1454.1 Q1296.28 1454.1 1294.45 1457.66 Q1292.64 1461.2 1292.64 1468.33 Q1292.64 1475.44 1294.45 1479.01 Q1296.28 1482.55 1299.89 1482.55 Q1303.52 1482.55 1305.33 1479.01 Q1307.16 1475.44 1307.16 1468.33 Q1307.16 1461.2 1305.33 1457.66 Q1303.52 1454.1 1299.89 1454.1 M1299.89 1450.39 Q1305.7 1450.39 1308.76 1455 Q1311.83 1459.58 1311.83 1468.33 Q1311.83 1477.06 1308.76 1481.67 Q1305.7 1486.25 1299.89 1486.25 Q1294.08 1486.25 1291 1481.67 Q1287.95 1477.06 1287.95 1468.33 Q1287.95 1459.58 1291 1455 Q1294.08 1450.39 1299.89 1450.39 Z" fill="#000000" fill-rule="nonzero" fill-opacity="1" /><path clip-path="url(#clip180)" d="M1330.05 1454.1 Q1326.44 1454.1 1324.61 1457.66 Q1322.81 1461.2 1322.81 1468.33 Q1322.81 1475.44 1324.61 1479.01 Q1326.44 1482.55 1330.05 1482.55 Q1333.69 1482.55 1335.49 1479.01 Q1337.32 1475.44 1337.32 1468.33 Q1337.32 1461.2 1335.49 1457.66 Q1333.69 1454.1 1330.05 1454.1 M1330.05 1450.39 Q1335.86 1450.39 1338.92 1455 Q1342 1459.58 1342 1468.33 Q1342 1477.06 1338.92 1481.67 Q1335.86 1486.25 1330.05 1486.25 Q1324.24 1486.25 1321.16 1481.67 Q1318.11 1477.06 1318.11 1468.33 Q1318.11 1459.58 1321.16 1455 Q1324.24 1450.39 1330.05 1450.39 Z" fill="#000000" fill-rule="nonzero" fill-opacity="1" /><path clip-path="url(#clip180)" d="M1754.97 1451.02 L1777.19 1451.02 L1777.19 1453.01 L1764.64 1485.58 L1759.76 1485.58 L1771.57 1454.96 L1754.97 1454.96 L1754.97 1451.02 Z" fill="#000000" fill-rule="nonzero" fill-opacity="1" /><path clip-path="url(#clip180)" d="M1786.36 1451.02 L1804.71 1451.02 L1804.71 1454.96 L1790.64 1454.96 L1790.64 1463.43 Q1791.66 1463.08 1792.68 1462.92 Q1793.7 1462.73 1794.71 1462.73 Q1800.5 1462.73 1803.88 1465.9 Q1807.26 1469.08 1807.26 1474.49 Q1807.26 1480.07 1803.79 1483.17 Q1800.32 1486.25 1794 1486.25 Q1791.82 1486.25 1789.55 1485.88 Q1787.31 1485.51 1784.9 1484.77 L1784.9 1480.07 Q1786.98 1481.2 1789.21 1481.76 Q1791.43 1482.32 1793.9 1482.32 Q1797.91 1482.32 1800.25 1480.21 Q1802.58 1478.1 1802.58 1474.49 Q1802.58 1470.88 1800.25 1468.77 Q1797.91 1466.67 1793.9 1466.67 Q1792.03 1466.67 1790.15 1467.08 Q1788.3 1467.5 1786.36 1468.38 L1786.36 1451.02 Z" fill="#000000" fill-rule="nonzero" fill-opacity="1" /><path clip-path="url(#clip180)" d="M1826.47 1454.1 Q1822.86 1454.1 1821.03 1457.66 Q1819.23 1461.2 1819.23 1468.33 Q1819.23 1475.44 1821.03 1479.01 Q1822.86 1482.55 1826.47 1482.55 Q1830.11 1482.55 1831.91 1479.01 Q1833.74 1475.44 1833.74 1468.33 Q1833.74 1461.2 1831.91 1457.66 Q1830.11 1454.1 1826.47 1454.1 M1826.47 1450.39 Q1832.28 1450.39 1835.34 1455 Q1838.42 1459.58 1838.42 1468.33 Q1838.42 1477.06 1835.34 1481.67 Q1832.28 1486.25 1826.47 1486.25 Q1820.66 1486.25 1817.58 1481.67 Q1814.53 1477.06 1814.53 1468.33 Q1814.53 1459.58 1817.58 1455 Q1820.66 1450.39 1826.47 1450.39 Z" fill="#000000" fill-rule="nonzero" fill-opacity="1" /><path clip-path="url(#clip180)" d="M2237.76 1481.64 L2245.4 1481.64 L2245.4 1455.28 L2237.09 1456.95 L2237.09 1452.69 L2245.35 1451.02 L2250.03 1451.02 L2250.03 1481.64 L2257.66 1481.64 L2257.66 1485.58 L2237.76 1485.58 L2237.76 1481.64 Z" fill="#000000" fill-rule="nonzero" fill-opacity="1" /><path clip-path="url(#clip180)" d="M2277.11 1454.1 Q2273.5 1454.1 2271.67 1457.66 Q2269.86 1461.2 2269.86 1468.33 Q2269.86 1475.44 2271.67 1479.01 Q2273.5 1482.55 2277.11 1482.55 Q2280.74 1482.55 2282.55 1479.01 Q2284.38 1475.44 2284.38 1468.33 Q2284.38 1461.2 2282.55 1457.66 Q2280.74 1454.1 2277.11 1454.1 M2277.11 1450.39 Q2282.92 1450.39 2285.97 1455 Q2289.05 1459.58 2289.05 1468.33 Q2289.05 1477.06 2285.97 1481.67 Q2282.92 1486.25 2277.11 1486.25 Q2271.3 1486.25 2268.22 1481.67 Q2265.16 1477.06 2265.16 1468.33 Q2265.16 1459.58 2268.22 1455 Q2271.3 1450.39 2277.11 1450.39 Z" fill="#000000" fill-rule="nonzero" fill-opacity="1" /><path clip-path="url(#clip180)" d="M2307.27 1454.1 Q2303.66 1454.1 2301.83 1457.66 Q2300.02 1461.2 2300.02 1468.33 Q2300.02 1475.44 2301.83 1479.01 Q2303.66 1482.55 2307.27 1482.55 Q2310.9 1482.55 2312.71 1479.01 Q2314.54 1475.44 2314.54 1468.33 Q2314.54 1461.2 2312.71 1457.66 Q2310.9 1454.1 2307.27 1454.1 M2307.27 1450.39 Q2313.08 1450.39 2316.14 1455 Q2319.21 1459.58 2319.21 1468.33 Q2319.21 1477.06 2316.14 1481.67 Q2313.08 1486.25 2307.27 1486.25 Q2301.46 1486.25 2298.38 1481.67 Q2295.33 1477.06 2295.33 1468.33 Q2295.33 1459.58 2298.38 1455 Q2301.46 1450.39 2307.27 1450.39 Z" fill="#000000" fill-rule="nonzero" fill-opacity="1" /><path clip-path="url(#clip180)" d="M2337.43 1454.1 Q2333.82 1454.1 2331.99 1457.66 Q2330.19 1461.2 2330.19 1468.33 Q2330.19 1475.44 2331.99 1479.01 Q2333.82 1482.55 2337.43 1482.55 Q2341.07 1482.55 2342.87 1479.01 Q2344.7 1475.44 2344.7 1468.33 Q2344.7 1461.2 2342.87 1457.66 Q2341.07 1454.1 2337.43 1454.1 M2337.43 1450.39 Q2343.24 1450.39 2346.3 1455 Q2349.38 1459.58 2349.38 1468.33 Q2349.38 1477.06 2346.3 1481.67 Q2343.24 1486.25 2337.43 1486.25 Q2331.62 1486.25 2328.54 1481.67 Q2325.49 1477.06 2325.49 1468.33 Q2325.49 1459.58 2328.54 1455 Q2331.62 1450.39 2337.43 1450.39 Z" fill="#000000" fill-rule="nonzero" fill-opacity="1" /><path clip-path="url(#clip180)" d="M1142.21 1520.52 L1182.41 1520.52 L1182.41 1525.93 L1165.54 1525.93 L1165.54 1568.04 L1159.08 1568.04 L1159.08 1525.93 L1142.21 1525.93 L1142.21 1520.52 Z" fill="#000000" fill-rule="nonzero" fill-opacity="1" /><path clip-path="url(#clip180)" d="M1186.36 1532.4 L1192.22 1532.4 L1192.22 1568.04 L1186.36 1568.04 L1186.36 1532.4 M1186.36 1518.52 L1192.22 1518.52 L1192.22 1525.93 L1186.36 1525.93 L1186.36 1518.52 Z" fill="#000000" fill-rule="nonzero" fill-opacity="1" /><path clip-path="url(#clip180)" d="M1232.22 1539.24 Q1234.42 1535.29 1237.48 1533.41 Q1240.53 1531.54 1244.67 1531.54 Q1250.24 1531.54 1253.26 1535.45 Q1256.29 1539.33 1256.29 1546.53 L1256.29 1568.04 L1250.4 1568.04 L1250.4 1546.72 Q1250.4 1541.59 1248.58 1539.11 Q1246.77 1536.63 1243.05 1536.63 Q1238.49 1536.63 1235.85 1539.65 Q1233.21 1542.68 1233.21 1547.9 L1233.21 1568.04 L1227.32 1568.04 L1227.32 1546.72 Q1227.32 1541.56 1225.51 1539.11 Q1223.69 1536.63 1219.91 1536.63 Q1215.42 1536.63 1212.78 1539.68 Q1210.14 1542.71 1210.14 1547.9 L1210.14 1568.04 L1204.25 1568.04 L1204.25 1532.4 L1210.14 1532.4 L1210.14 1537.93 Q1212.14 1534.66 1214.94 1533.1 Q1217.74 1531.54 1221.59 1531.54 Q1225.48 1531.54 1228.18 1533.51 Q1230.92 1535.48 1232.22 1539.24 Z" fill="#000000" fill-rule="nonzero" fill-opacity="1" /><path clip-path="url(#clip180)" d="M1298.46 1548.76 L1298.46 1551.62 L1271.53 1551.62 Q1271.91 1557.67 1275.16 1560.85 Q1278.44 1564 1284.26 1564 Q1287.64 1564 1290.79 1563.17 Q1293.97 1562.35 1297.09 1560.69 L1297.09 1566.23 Q1293.94 1567.57 1290.63 1568.27 Q1287.32 1568.97 1283.91 1568.97 Q1275.38 1568.97 1270.39 1564 Q1265.42 1559.04 1265.42 1550.57 Q1265.42 1541.82 1270.13 1536.69 Q1274.87 1531.54 1282.9 1531.54 Q1290.09 1531.54 1294.26 1536.18 Q1298.46 1540.8 1298.46 1548.76 M1292.6 1547.04 Q1292.54 1542.23 1289.9 1539.37 Q1287.29 1536.5 1282.96 1536.5 Q1278.06 1536.5 1275.1 1539.27 Q1272.17 1542.04 1271.72 1547.07 L1292.6 1547.04 Z" fill="#000000" fill-rule="nonzero" fill-opacity="1" /><path clip-path="url(#clip180)" d="M1351.52 1533.45 L1351.52 1538.98 Q1349.03 1537.71 1346.36 1537.07 Q1343.69 1536.44 1340.82 1536.44 Q1336.46 1536.44 1334.27 1537.77 Q1332.1 1539.11 1332.1 1541.79 Q1332.1 1543.82 1333.66 1545 Q1335.22 1546.15 1339.93 1547.2 L1341.94 1547.64 Q1348.18 1548.98 1350.79 1551.43 Q1353.43 1553.85 1353.43 1558.21 Q1353.43 1563.17 1349.48 1566.07 Q1345.57 1568.97 1338.69 1568.97 Q1335.83 1568.97 1332.71 1568.39 Q1329.62 1567.85 1326.18 1566.74 L1326.18 1560.69 Q1329.43 1562.38 1332.58 1563.24 Q1335.73 1564.07 1338.82 1564.07 Q1342.96 1564.07 1345.18 1562.66 Q1347.41 1561.23 1347.41 1558.65 Q1347.41 1556.27 1345.79 1554.99 Q1344.2 1553.72 1338.75 1552.54 L1336.72 1552.07 Q1331.27 1550.92 1328.86 1548.56 Q1326.44 1546.18 1326.44 1542.04 Q1326.44 1537.01 1330 1534.27 Q1333.57 1531.54 1340.12 1531.54 Q1343.37 1531.54 1346.23 1532.01 Q1349.1 1532.49 1351.52 1533.45 Z" fill="#000000" fill-rule="nonzero" fill-opacity="1" /><path clip-path="url(#clip180)" d="M1368.55 1522.27 L1368.55 1532.4 L1380.61 1532.4 L1380.61 1536.95 L1368.55 1536.95 L1368.55 1556.3 Q1368.55 1560.66 1369.72 1561.9 Q1370.93 1563.14 1374.59 1563.14 L1380.61 1563.14 L1380.61 1568.04 L1374.59 1568.04 Q1367.81 1568.04 1365.24 1565.53 Q1362.66 1562.98 1362.66 1556.3 L1362.66 1536.95 L1358.36 1536.95 L1358.36 1532.4 L1362.66 1532.4 L1362.66 1522.27 L1368.55 1522.27 Z" fill="#000000" fill-rule="nonzero" fill-opacity="1" /><path clip-path="url(#clip180)" d="M1418.8 1548.76 L1418.8 1551.62 L1391.88 1551.62 Q1392.26 1557.67 1395.5 1560.85 Q1398.78 1564 1404.61 1564 Q1407.98 1564 1411.13 1563.17 Q1414.32 1562.35 1417.43 1560.69 L1417.43 1566.23 Q1414.28 1567.57 1410.97 1568.27 Q1407.66 1568.97 1404.26 1568.97 Q1395.73 1568.97 1390.73 1564 Q1385.77 1559.04 1385.77 1550.57 Q1385.77 1541.82 1390.48 1536.69 Q1395.22 1531.54 1403.24 1531.54 Q1410.43 1531.54 1414.6 1536.18 Q1418.8 1540.8 1418.8 1548.76 M1412.95 1547.04 Q1412.88 1542.23 1410.24 1539.37 Q1407.63 1536.5 1403.3 1536.5 Q1398.4 1536.5 1395.44 1539.27 Q1392.51 1542.04 1392.07 1547.07 L1412.95 1547.04 Z" fill="#000000" fill-rule="nonzero" fill-opacity="1" /><path clip-path="url(#clip180)" d="M1434.08 1562.7 L1434.08 1581.6 L1428.19 1581.6 L1428.19 1532.4 L1434.08 1532.4 L1434.08 1537.81 Q1435.93 1534.62 1438.73 1533.1 Q1441.56 1531.54 1445.48 1531.54 Q1451.97 1531.54 1456.01 1536.69 Q1460.08 1541.85 1460.08 1550.25 Q1460.08 1558.65 1456.01 1563.81 Q1451.97 1568.97 1445.48 1568.97 Q1441.56 1568.97 1438.73 1567.44 Q1435.93 1565.88 1434.08 1562.7 M1454.01 1550.25 Q1454.01 1543.79 1451.33 1540.13 Q1448.69 1536.44 1444.04 1536.44 Q1439.4 1536.44 1436.72 1540.13 Q1434.08 1543.79 1434.08 1550.25 Q1434.08 1556.71 1436.72 1560.4 Q1439.4 1564.07 1444.04 1564.07 Q1448.69 1564.07 1451.33 1560.4 Q1454.01 1556.71 1454.01 1550.25 Z" fill="#000000" fill-rule="nonzero" fill-opacity="1" /><polyline clip-path="url(#clip180)" style="stroke:#000000; stroke-linecap:round; stroke-linejoin:round; stroke-width:4; stroke-opacity:1; fill:none" points="249.542,1423.18 249.542,47.2441 "/>
<polyline clip-path="url(#clip180)" style="stroke:#000000; stroke-linecap:round; stroke-linejoin:round; stroke-width:4; stroke-opacity:1; fill:none" points="249.542,1423.18 268.44,1423.18 "/>
<polyline clip-path="url(#clip180)" style="stroke:#000000; stroke-linecap:round; stroke-linejoin:round; stroke-width:4; stroke-opacity:1; fill:none" points="249.542,1079.2 268.44,1079.2 "/>
<polyline clip-path="url(#clip180)" style="stroke:#000000; stroke-linecap:round; stroke-linejoin:round; stroke-width:4; stroke-opacity:1; fill:none" points="249.542,735.212 268.44,735.212 "/>
<polyline clip-path="url(#clip180)" style="stroke:#000000; stroke-linecap:round; stroke-linejoin:round; stroke-width:4; stroke-opacity:1; fill:none" points="249.542,391.228 268.44,391.228 "/>
<path clip-path="url(#clip180)" d="M126.205 1408.98 Q122.593 1408.98 120.765 1412.54 Q118.959 1416.08 118.959 1423.21 Q118.959 1430.32 120.765 1433.89 Q122.593 1437.43 126.205 1437.43 Q129.839 1437.43 131.644 1433.89 Q133.473 1430.32 133.473 1423.21 Q133.473 1416.08 131.644 1412.54 Q129.839 1408.98 126.205 1408.98 M126.205 1405.27 Q132.015 1405.27 135.07 1409.88 Q138.149 1414.46 138.149 1423.21 Q138.149 1431.94 135.07 1436.55 Q132.015 1441.13 126.205 1441.13 Q120.394 1441.13 117.316 1436.55 Q114.26 1431.94 114.26 1423.21 Q114.26 1414.46 117.316 1409.88 Q120.394 1405.27 126.205 1405.27 Z" fill="#000000" fill-rule="nonzero" fill-opacity="1" /><path clip-path="url(#clip180)" d="M146.366 1434.58 L151.251 1434.58 L151.251 1440.46 L146.366 1440.46 L146.366 1434.58 Z" fill="#000000" fill-rule="nonzero" fill-opacity="1" /><path clip-path="url(#clip180)" d="M174.283 1409.97 L162.477 1428.42 L174.283 1428.42 L174.283 1409.97 M173.056 1405.9 L178.936 1405.9 L178.936 1428.42 L183.866 1428.42 L183.866 1432.31 L178.936 1432.31 L178.936 1440.46 L174.283 1440.46 L174.283 1432.31 L158.681 1432.31 L158.681 1427.8 L173.056 1405.9 Z" fill="#000000" fill-rule="nonzero" fill-opacity="1" /><path clip-path="url(#clip180)" d="M201.598 1408.98 Q197.987 1408.98 196.158 1412.54 Q194.352 1416.08 194.352 1423.21 Q194.352 1430.32 196.158 1433.89 Q197.987 1437.43 201.598 1437.43 Q205.232 1437.43 207.037 1433.89 Q208.866 1430.32 208.866 1423.21 Q208.866 1416.08 207.037 1412.54 Q205.232 1408.98 201.598 1408.98 M201.598 1405.27 Q207.408 1405.27 210.463 1409.88 Q213.542 1414.46 213.542 1423.21 Q213.542 1431.94 210.463 1436.55 Q207.408 1441.13 201.598 1441.13 Q195.787 1441.13 192.709 1436.55 Q189.653 1431.94 189.653 1423.21 Q189.653 1414.46 192.709 1409.88 Q195.787 1405.27 201.598 1405.27 Z" fill="#000000" fill-rule="nonzero" fill-opacity="1" /><path clip-path="url(#clip180)" d="M127.2 1064.99 Q123.589 1064.99 121.76 1068.56 Q119.955 1072.1 119.955 1079.23 Q119.955 1086.34 121.76 1089.9 Q123.589 1093.44 127.2 1093.44 Q130.834 1093.44 132.64 1089.9 Q134.468 1086.34 134.468 1079.23 Q134.468 1072.1 132.64 1068.56 Q130.834 1064.99 127.2 1064.99 M127.2 1061.29 Q133.01 1061.29 136.066 1065.9 Q139.144 1070.48 139.144 1079.23 Q139.144 1087.96 136.066 1092.56 Q133.01 1097.15 127.2 1097.15 Q121.39 1097.15 118.311 1092.56 Q115.256 1087.96 115.256 1079.23 Q115.256 1070.48 118.311 1065.9 Q121.39 1061.29 127.2 1061.29 Z" fill="#000000" fill-rule="nonzero" fill-opacity="1" /><path clip-path="url(#clip180)" d="M147.362 1090.6 L152.246 1090.6 L152.246 1096.48 L147.362 1096.48 L147.362 1090.6 Z" fill="#000000" fill-rule="nonzero" fill-opacity="1" /><path clip-path="url(#clip180)" d="M175.278 1065.99 L163.473 1084.44 L175.278 1084.44 L175.278 1065.99 M174.052 1061.92 L179.931 1061.92 L179.931 1084.44 L184.862 1084.44 L184.862 1088.33 L179.931 1088.33 L179.931 1096.48 L175.278 1096.48 L175.278 1088.33 L159.677 1088.33 L159.677 1083.81 L174.052 1061.92 Z" fill="#000000" fill-rule="nonzero" fill-opacity="1" /><path clip-path="url(#clip180)" d="M192.639 1061.92 L210.996 1061.92 L210.996 1065.85 L196.922 1065.85 L196.922 1074.32 Q197.94 1073.98 198.959 1073.81 Q199.977 1073.63 200.996 1073.63 Q206.783 1073.63 210.162 1076.8 Q213.542 1079.97 213.542 1085.39 Q213.542 1090.97 210.07 1094.07 Q206.598 1097.15 200.278 1097.15 Q198.102 1097.15 195.834 1096.78 Q193.588 1096.41 191.181 1095.67 L191.181 1090.97 Q193.264 1092.1 195.487 1092.66 Q197.709 1093.21 200.186 1093.21 Q204.19 1093.21 206.528 1091.11 Q208.866 1089 208.866 1085.39 Q208.866 1081.78 206.528 1079.67 Q204.19 1077.56 200.186 1077.56 Q198.311 1077.56 196.436 1077.98 Q194.584 1078.4 192.639 1079.28 L192.639 1061.92 Z" fill="#000000" fill-rule="nonzero" fill-opacity="1" /><path clip-path="url(#clip180)" d="M126.205 721.011 Q122.593 721.011 120.765 724.575 Q118.959 728.117 118.959 735.247 Q118.959 742.353 120.765 745.918 Q122.593 749.46 126.205 749.46 Q129.839 749.46 131.644 745.918 Q133.473 742.353 133.473 735.247 Q133.473 728.117 131.644 724.575 Q129.839 721.011 126.205 721.011 M126.205 717.307 Q132.015 717.307 135.07 721.913 Q138.149 726.497 138.149 735.247 Q138.149 743.973 135.07 748.58 Q132.015 753.163 126.205 753.163 Q120.394 753.163 117.316 748.58 Q114.26 743.973 114.26 735.247 Q114.26 726.497 117.316 721.913 Q120.394 717.307 126.205 717.307 Z" fill="#000000" fill-rule="nonzero" fill-opacity="1" /><path clip-path="url(#clip180)" d="M146.366 746.612 L151.251 746.612 L151.251 752.492 L146.366 752.492 L146.366 746.612 Z" fill="#000000" fill-rule="nonzero" fill-opacity="1" /><path clip-path="url(#clip180)" d="M161.482 717.932 L179.839 717.932 L179.839 721.867 L165.765 721.867 L165.765 730.339 Q166.783 729.992 167.802 729.83 Q168.82 729.645 169.839 729.645 Q175.626 729.645 179.005 732.816 Q182.385 735.987 182.385 741.404 Q182.385 746.983 178.913 750.085 Q175.44 753.163 169.121 753.163 Q166.945 753.163 164.677 752.793 Q162.431 752.423 160.024 751.682 L160.024 746.983 Q162.107 748.117 164.329 748.673 Q166.552 749.228 169.028 749.228 Q173.033 749.228 175.371 747.122 Q177.709 745.015 177.709 741.404 Q177.709 737.793 175.371 735.687 Q173.033 733.58 169.028 733.58 Q167.153 733.58 165.278 733.997 Q163.427 734.413 161.482 735.293 L161.482 717.932 Z" fill="#000000" fill-rule="nonzero" fill-opacity="1" /><path clip-path="url(#clip180)" d="M201.598 721.011 Q197.987 721.011 196.158 724.575 Q194.352 728.117 194.352 735.247 Q194.352 742.353 196.158 745.918 Q197.987 749.46 201.598 749.46 Q205.232 749.46 207.037 745.918 Q208.866 742.353 208.866 735.247 Q208.866 728.117 207.037 724.575 Q205.232 721.011 201.598 721.011 M201.598 717.307 Q207.408 717.307 210.463 721.913 Q213.542 726.497 213.542 735.247 Q213.542 743.973 210.463 748.58 Q207.408 753.163 201.598 753.163 Q195.787 753.163 192.709 748.58 Q189.653 743.973 189.653 735.247 Q189.653 726.497 192.709 721.913 Q195.787 717.307 201.598 717.307 Z" fill="#000000" fill-rule="nonzero" fill-opacity="1" /><path clip-path="url(#clip180)" d="M127.2 377.027 Q123.589 377.027 121.76 380.592 Q119.955 384.133 119.955 391.263 Q119.955 398.369 121.76 401.934 Q123.589 405.476 127.2 405.476 Q130.834 405.476 132.64 401.934 Q134.468 398.369 134.468 391.263 Q134.468 384.133 132.64 380.592 Q130.834 377.027 127.2 377.027 M127.2 373.323 Q133.01 373.323 136.066 377.929 Q139.144 382.513 139.144 391.263 Q139.144 399.99 136.066 404.596 Q133.01 409.179 127.2 409.179 Q121.39 409.179 118.311 404.596 Q115.256 399.99 115.256 391.263 Q115.256 382.513 118.311 377.929 Q121.39 373.323 127.2 373.323 Z" fill="#000000" fill-rule="nonzero" fill-opacity="1" /><path clip-path="url(#clip180)" d="M147.362 402.628 L152.246 402.628 L152.246 408.508 L147.362 408.508 L147.362 402.628 Z" fill="#000000" fill-rule="nonzero" fill-opacity="1" /><path clip-path="url(#clip180)" d="M162.477 373.948 L180.834 373.948 L180.834 377.883 L166.76 377.883 L166.76 386.355 Q167.778 386.008 168.797 385.846 Q169.815 385.661 170.834 385.661 Q176.621 385.661 180.001 388.832 Q183.38 392.003 183.38 397.42 Q183.38 402.999 179.908 406.101 Q176.436 409.179 170.116 409.179 Q167.94 409.179 165.672 408.809 Q163.427 408.439 161.019 407.698 L161.019 402.999 Q163.102 404.133 165.325 404.689 Q167.547 405.244 170.024 405.244 Q174.028 405.244 176.366 403.138 Q178.704 401.031 178.704 397.42 Q178.704 393.809 176.366 391.703 Q174.028 389.596 170.024 389.596 Q168.149 389.596 166.274 390.013 Q164.422 390.429 162.477 391.309 L162.477 373.948 Z" fill="#000000" fill-rule="nonzero" fill-opacity="1" /><path clip-path="url(#clip180)" d="M192.639 373.948 L210.996 373.948 L210.996 377.883 L196.922 377.883 L196.922 386.355 Q197.94 386.008 198.959 385.846 Q199.977 385.661 200.996 385.661 Q206.783 385.661 210.162 388.832 Q213.542 392.003 213.542 397.42 Q213.542 402.999 210.07 406.101 Q206.598 409.179 200.278 409.179 Q198.102 409.179 195.834 408.809 Q193.588 408.439 191.181 407.698 L191.181 402.999 Q193.264 404.133 195.487 404.689 Q197.709 405.244 200.186 405.244 Q204.19 405.244 206.528 403.138 Q208.866 401.031 208.866 397.42 Q208.866 393.809 206.528 391.703 Q204.19 389.596 200.186 389.596 Q198.311 389.596 196.436 390.013 Q194.584 390.429 192.639 391.309 L192.639 373.948 Z" fill="#000000" fill-rule="nonzero" fill-opacity="1" /><path clip-path="url(#clip180)" d="M21.7677 917.223 L39.6235 917.223 L39.6235 909.139 Q39.6235 904.651 37.3 902.2 Q34.9765 899.75 30.6797 899.75 Q26.4147 899.75 24.0912 902.2 Q21.7677 904.651 21.7677 909.139 L21.7677 917.223 M16.4842 923.653 L16.4842 909.139 Q16.4842 901.15 20.1126 897.076 Q23.7092 892.97 30.6797 892.97 Q37.7138 892.97 41.3104 897.076 Q44.907 901.15 44.907 909.139 L44.907 917.223 L64.0042 917.223 L64.0042 923.653 L16.4842 923.653 Z" fill="#000000" fill-rule="nonzero" fill-opacity="1" /><path clip-path="url(#clip180)" d="M32.4621 873.109 Q32.4621 877.82 36.1542 880.557 Q39.8145 883.294 46.212 883.294 Q52.6095 883.294 56.3017 880.589 Q59.9619 877.852 59.9619 873.109 Q59.9619 868.43 56.2698 865.693 Q52.5777 862.956 46.212 862.956 Q39.8781 862.956 36.186 865.693 Q32.4621 868.43 32.4621 873.109 M27.4968 873.109 Q27.4968 865.47 32.4621 861.11 Q37.4273 856.749 46.212 856.749 Q54.9649 856.749 59.9619 861.11 Q64.9272 865.47 64.9272 873.109 Q64.9272 880.78 59.9619 885.14 Q54.9649 889.469 46.212 889.469 Q37.4273 889.469 32.4621 885.14 Q27.4968 880.78 27.4968 873.109 Z" fill="#000000" fill-rule="nonzero" fill-opacity="1" /><path clip-path="url(#clip180)" d="M29.4065 824.316 L34.9447 824.316 Q33.6716 826.799 33.035 829.472 Q32.3984 832.146 32.3984 835.01 Q32.3984 839.371 33.7352 841.567 Q35.072 843.731 37.7456 843.731 Q39.7826 843.731 40.9603 842.172 Q42.1061 840.612 43.1565 835.902 L43.6021 833.896 Q44.9389 827.658 47.3897 825.048 Q49.8086 822.406 54.1691 822.406 Q59.1344 822.406 62.0308 826.353 Q64.9272 830.268 64.9272 837.143 Q64.9272 840.007 64.3543 843.127 Q63.8132 846.214 62.6992 849.651 L56.6518 849.651 Q58.3387 846.405 59.198 843.254 Q60.0256 840.103 60.0256 837.016 Q60.0256 832.878 58.6251 830.65 Q57.1929 828.422 54.6147 828.422 Q52.2276 828.422 50.9545 830.045 Q49.6813 831.637 48.5037 837.079 L48.0262 839.116 Q46.8804 844.559 44.5251 846.978 Q42.138 849.397 38.0002 849.397 Q32.9713 849.397 30.2341 845.832 Q27.4968 842.267 27.4968 835.711 Q27.4968 832.464 27.9743 829.599 Q28.4517 826.735 29.4065 824.316 Z" fill="#000000" fill-rule="nonzero" fill-opacity="1" /><path clip-path="url(#clip180)" d="M28.3562 813.08 L28.3562 807.224 L64.0042 807.224 L64.0042 813.08 L28.3562 813.08 M14.479 813.08 L14.479 807.224 L21.895 807.224 L21.895 813.08 L14.479 813.08 Z" fill="#000000" fill-rule="nonzero" fill-opacity="1" /><path clip-path="url(#clip180)" d="M18.2347 789.177 L28.3562 789.177 L28.3562 777.114 L32.9077 777.114 L32.9077 789.177 L52.2594 789.177 Q56.6199 789.177 57.8613 788 Q59.1026 786.79 59.1026 783.13 L59.1026 777.114 L64.0042 777.114 L64.0042 783.13 Q64.0042 789.909 61.4897 792.487 Q58.9434 795.066 52.2594 795.066 L32.9077 795.066 L32.9077 799.362 L28.3562 799.362 L28.3562 795.066 L18.2347 795.066 L18.2347 789.177 Z" fill="#000000" fill-rule="nonzero" fill-opacity="1" /><path clip-path="url(#clip180)" d="M28.3562 769.412 L28.3562 763.555 L64.0042 763.555 L64.0042 769.412 L28.3562 769.412 M14.479 769.412 L14.479 763.555 L21.895 763.555 L21.895 769.412 L14.479 769.412 Z" fill="#000000" fill-rule="nonzero" fill-opacity="1" /><path clip-path="url(#clip180)" d="M32.4621 737.488 Q32.4621 742.198 36.1542 744.936 Q39.8145 747.673 46.212 747.673 Q52.6095 747.673 56.3017 744.967 Q59.9619 742.23 59.9619 737.488 Q59.9619 732.809 56.2698 730.072 Q52.5777 727.334 46.212 727.334 Q39.8781 727.334 36.186 730.072 Q32.4621 732.809 32.4621 737.488 M27.4968 737.488 Q27.4968 729.849 32.4621 725.488 Q37.4273 721.128 46.212 721.128 Q54.9649 721.128 59.9619 725.488 Q64.9272 729.849 64.9272 737.488 Q64.9272 745.158 59.9619 749.519 Q54.9649 753.848 46.212 753.848 Q37.4273 753.848 32.4621 749.519 Q27.4968 745.158 27.4968 737.488 Z" fill="#000000" fill-rule="nonzero" fill-opacity="1" /><path clip-path="url(#clip180)" d="M42.4881 681.788 L64.0042 681.788 L64.0042 687.644 L42.679 687.644 Q37.6183 687.644 35.1038 689.618 Q32.5894 691.591 32.5894 695.538 Q32.5894 700.28 35.6131 703.017 Q38.6368 705.755 43.8567 705.755 L64.0042 705.755 L64.0042 711.643 L28.3562 711.643 L28.3562 705.755 L33.8944 705.755 Q30.6797 703.654 29.0883 700.821 Q27.4968 697.957 27.4968 694.233 Q27.4968 688.09 31.3163 684.939 Q35.1038 681.788 42.4881 681.788 Z" fill="#000000" fill-rule="nonzero" fill-opacity="1" /><path clip-path="url(#clip180)" d="M14.479 649.927 L14.479 636.432 L19.0304 636.432 L19.0304 644.071 L68.0464 644.071 L68.0464 636.432 L72.5979 636.432 L72.5979 649.927 L14.479 649.927 Z" fill="#000000" fill-rule="nonzero" fill-opacity="1" /><path clip-path="url(#clip180)" d="M35.1993 596.201 Q31.2526 594.005 29.3747 590.949 Q27.4968 587.894 27.4968 583.756 Q27.4968 578.186 31.4117 575.162 Q35.2948 572.138 42.4881 572.138 L64.0042 572.138 L64.0042 578.027 L42.679 578.027 Q37.5546 578.027 35.072 579.841 Q32.5894 581.655 32.5894 585.379 Q32.5894 589.931 35.6131 592.572 Q38.6368 595.214 43.8567 595.214 L64.0042 595.214 L64.0042 601.102 L42.679 601.102 Q37.5228 601.102 35.072 602.917 Q32.5894 604.731 32.5894 608.518 Q32.5894 613.006 35.6449 615.648 Q38.6686 618.29 43.8567 618.29 L64.0042 618.29 L64.0042 624.178 L28.3562 624.178 L28.3562 618.29 L33.8944 618.29 Q30.616 616.285 29.0564 613.484 Q27.4968 610.683 27.4968 606.832 Q27.4968 602.948 29.4702 600.243 Q31.4436 597.506 35.1993 596.201 Z" fill="#000000" fill-rule="nonzero" fill-opacity="1" /><path clip-path="url(#clip180)" d="M14.479 546.771 L72.5979 546.771 L72.5979 560.266 L68.0464 560.266 L68.0464 552.659 L19.0304 552.659 L19.0304 560.266 L14.479 560.266 L14.479 546.771 Z" fill="#000000" fill-rule="nonzero" fill-opacity="1" /><polyline clip-path="url(#clip181)" style="stroke:#009af9; stroke-linecap:round; stroke-linejoin:round; stroke-width:4; stroke-opacity:1; fill:none" stroke-dasharray="16, 10" points="-1853.67,735.212 4455.97,735.212 "/>
<polyline clip-path="url(#clip181)" style="stroke:#e26f46; stroke-linecap:round; stroke-linejoin:round; stroke-width:4; stroke-opacity:1; fill:none" points="309.067,4175.05 311.053,4133.77 313.039,4075.3 315.025,3999.62 317.012,3906.74 318.998,3796.67 320.984,3669.39 322.97,3525.95 324.956,3369.1 326.942,3202.13 328.928,3027.95 330.915,2849.15 332.901,2667.99 334.887,2486.43 336.873,2306.17 338.859,2128.66 340.845,1955.12 342.832,1786.57 344.818,1623.99 346.804,1468.44 348.79,1321.02 350.776,1182.82 352.762,1054.65 354.748,936.8 356.735,829.27 358.721,732.059 360.707,645.167 362.693,568.595 364.679,502.342 366.665,446.409 368.651,400.795 370.638,365.501 372.624,340.527 374.61,325.871 376.596,321.536 378.582,327.52 380.568,343.823 382.555,370.446 384.541,407.389 386.527,454.651 388.513,512.232 390.499,580.134 392.485,658.354 394.471,733.135 396.458,791.101 398.444,833.448 400.43,861.768 402.416,877.58 404.402,882.324 406.388,877.362 408.374,863.973 410.361,843.351 412.347,816.604 414.333,784.759 416.319,748.772 418.305,709.837 420.291,674.952 422.278,650.387 424.264,636.141 426.25,632.215 428.236,638.608 430.222,655.32 432.208,682.353 434.194,708.801 436.181,724.395 438.167,730.37 440.153,727.89 442.139,718.052 444.125,701.883 446.111,687.954 448.097,684.344 450.084,691.055 452.07,700.814 454.056,704.248 456.042,700.814 458.028,699.885 460.014,700.814 462.001,700.814 463.987,700.814 465.973,700.814 467.959,700.814 469.945,700.814 471.931,700.814 473.917,700.814 475.904,700.814 477.89,700.814 479.876,700.814 481.862,700.814 483.848,700.814 485.834,700.814 487.82,700.814 489.807,700.814 491.793,700.814 493.779,700.814 495.765,700.814 497.751,700.814 499.737,700.814 501.724,700.814 503.71,700.814 505.696,700.814 507.682,700.814 509.668,700.814 511.654,700.814 513.64,700.814 515.627,700.814 517.613,700.814 519.599,700.814 521.585,700.814 523.571,700.814 525.557,700.814 527.543,700.814 529.53,700.814 531.516,700.814 533.502,700.814 535.488,700.814 537.474,700.814 539.46,700.814 541.447,700.814 543.433,700.814 545.419,700.814 547.405,700.814 549.391,700.814 551.377,700.814 553.363,700.814 555.35,700.814 557.336,700.814 559.322,700.814 561.308,700.814 563.294,700.814 565.28,700.814 567.266,700.814 569.253,700.814 571.239,700.814 573.225,700.814 575.211,700.814 577.197,700.814 579.183,700.814 581.17,700.814 583.156,700.814 585.142,700.814 587.128,700.814 589.114,700.814 591.1,700.814 593.086,700.814 595.073,700.814 597.059,700.814 599.045,700.814 601.031,700.814 603.017,700.814 605.003,700.814 606.989,700.814 608.976,700.814 610.962,700.814 612.948,700.814 614.934,700.814 616.92,700.814 618.906,700.814 620.893,700.814 622.879,700.814 624.865,700.814 626.851,700.814 628.837,700.814 630.823,700.814 632.809,700.814 634.796,700.814 636.782,700.814 638.768,700.814 640.754,700.814 642.74,700.814 644.726,700.814 646.712,700.814 648.699,700.814 650.685,700.814 652.671,700.814 654.657,700.814 656.643,700.814 658.629,700.814 660.616,700.814 662.602,700.814 664.588,700.814 666.574,700.814 668.56,700.814 670.546,700.814 672.532,700.814 674.519,700.814 676.505,700.814 678.491,700.814 680.477,700.814 682.463,700.814 684.449,700.814 686.435,700.814 688.422,700.814 690.408,700.814 692.394,700.814 694.38,700.814 696.366,700.814 698.352,700.814 700.339,700.814 702.325,700.814 704.311,700.814 706.297,700.814 708.283,700.814 710.269,700.814 712.255,700.814 714.242,700.814 716.228,700.814 718.214,700.814 720.2,700.814 722.186,700.814 724.172,700.814 726.158,700.814 728.145,700.814 730.131,700.814 732.117,700.814 734.103,700.814 736.089,700.814 738.075,700.814 740.062,700.814 742.048,700.814 744.034,700.814 746.02,700.814 748.006,700.814 749.992,700.814 751.978,700.814 753.965,700.814 755.951,700.814 757.937,700.814 759.923,700.814 761.909,700.814 763.895,700.814 765.881,700.814 767.868,700.814 769.854,700.814 771.84,700.814 773.826,700.814 775.812,700.814 777.798,700.814 779.785,700.814 781.771,700.814 783.757,700.814 785.743,700.814 787.729,700.814 789.715,700.814 791.701,700.814 793.688,700.814 795.674,700.814 797.66,700.814 799.646,700.814 801.632,700.814 803.618,700.814 805.604,700.814 807.591,700.814 809.577,700.814 811.563,700.814 813.549,700.814 815.535,700.814 817.521,700.814 819.508,700.814 821.494,700.814 823.48,700.814 825.466,700.814 827.452,700.814 829.438,700.814 831.424,700.814 833.411,700.814 835.397,700.814 837.383,700.814 839.369,700.814 841.355,700.814 843.341,700.814 845.328,700.814 847.314,700.814 849.3,700.814 851.286,700.814 853.272,700.814 855.258,700.814 857.244,700.814 859.231,700.814 861.217,700.814 863.203,700.814 865.189,700.814 867.175,700.814 869.161,700.814 871.147,700.814 873.134,700.814 875.12,700.814 877.106,700.814 879.092,700.814 881.078,700.814 883.064,700.814 885.051,700.814 887.037,700.814 889.023,700.814 891.009,700.814 892.995,700.814 894.981,700.814 896.967,700.814 898.954,700.814 900.94,700.814 902.926,700.814 904.912,700.814 906.898,700.814 908.884,700.814 910.87,700.814 912.857,700.814 914.843,700.814 916.829,700.814 918.815,700.814 920.801,700.814 922.787,700.814 924.774,700.814 926.76,700.814 928.746,700.814 930.732,700.814 932.718,700.814 934.704,700.814 936.69,700.814 938.677,700.814 940.663,700.814 942.649,700.814 944.635,700.814 946.621,700.814 948.607,700.814 950.593,700.814 952.58,700.814 954.566,700.814 956.552,700.814 958.538,700.814 960.524,700.814 962.51,700.814 964.497,700.814 966.483,700.814 968.469,700.814 970.455,700.814 972.441,700.814 974.427,700.814 976.413,700.814 978.4,700.814 980.386,700.814 982.372,700.814 984.358,700.814 986.344,700.814 988.33,700.814 990.316,700.814 992.303,700.814 994.289,700.814 996.275,700.814 998.261,700.814 1000.25,700.814 1002.23,700.814 1004.22,700.814 1006.21,700.814 1008.19,700.814 1010.18,700.814 1012.16,700.814 1014.15,700.814 1016.14,700.814 1018.12,700.814 1020.11,700.814 1022.09,700.814 1024.08,700.814 1026.07,700.814 1028.05,700.814 1030.04,700.814 1032.03,700.814 1034.01,700.814 1036,700.814 1037.98,700.814 1039.97,700.814 1041.96,700.814 1043.94,700.814 1045.93,700.814 1047.91,700.814 1049.9,700.814 1051.89,700.814 1053.87,700.814 1055.86,700.814 1057.85,700.814 1059.83,700.814 1061.82,700.814 1063.8,700.814 1065.79,700.814 1067.78,700.814 1069.76,700.814 1071.75,700.814 1073.73,700.814 1075.72,700.814 1077.71,700.814 1079.69,700.814 1081.68,700.814 1083.67,700.814 1085.65,700.814 1087.64,700.814 1089.62,700.814 1091.61,700.814 1093.6,700.814 1095.58,700.814 1097.57,700.814 1099.55,700.814 1101.54,700.814 1103.53,700.814 1105.51,700.814 1107.5,700.814 1109.49,700.814 1111.47,700.814 1113.46,700.814 1115.44,700.814 1117.43,700.814 1119.42,700.814 1121.4,700.814 1123.39,700.814 1125.37,700.814 1127.36,700.814 1129.35,700.814 1131.33,700.814 1133.32,700.814 1135.31,700.814 1137.29,700.814 1139.28,700.814 1141.26,700.814 1143.25,700.814 1145.24,700.814 1147.22,700.814 1149.21,700.814 1151.19,700.814 1153.18,700.814 1155.17,700.814 1157.15,700.814 1159.14,700.814 1161.13,700.814 1163.11,700.814 1165.1,700.814 1167.08,700.814 1169.07,700.814 1171.06,700.814 1173.04,700.814 1175.03,700.814 1177.01,700.814 1179,700.814 1180.99,700.814 1182.97,700.814 1184.96,700.814 1186.95,700.814 1188.93,700.814 1190.92,700.814 1192.9,700.814 1194.89,700.814 1196.88,700.814 1198.86,700.814 1200.85,700.814 1202.83,700.814 1204.82,700.814 1206.81,700.814 1208.79,700.814 1210.78,700.814 1212.77,700.814 1214.75,700.814 1216.74,700.814 1218.72,700.814 1220.71,700.814 1222.7,700.814 1224.68,700.814 1226.67,700.814 1228.65,700.814 1230.64,700.814 1232.63,700.814 1234.61,700.814 1236.6,700.814 1238.59,700.814 1240.57,700.814 1242.56,700.814 1244.54,700.814 1246.53,700.814 1248.52,700.814 1250.5,700.814 1252.49,700.814 1254.47,700.814 1256.46,700.814 1258.45,700.814 1260.43,700.814 1262.42,700.814 1264.41,700.814 1266.39,700.814 1268.38,700.814 1270.36,700.814 1272.35,700.814 1274.34,700.814 1276.32,700.814 1278.31,700.814 1280.29,700.814 1282.28,700.814 1284.27,700.814 1286.25,700.814 1288.24,700.814 1290.23,700.814 1292.21,700.814 1294.2,700.814 1296.18,700.814 1298.17,700.814 1300.16,700.814 1302.14,700.814 1304.13,700.814 1306.11,700.814 1308.1,700.814 1310.09,700.814 1312.07,700.814 1314.06,700.814 1316.05,700.814 1318.03,700.814 1320.02,700.814 1322,700.814 1323.99,700.814 1325.98,700.814 1327.96,700.814 1329.95,700.814 1331.93,700.814 1333.92,700.814 1335.91,700.814 1337.89,700.814 1339.88,700.814 1341.87,700.814 1343.85,700.814 1345.84,700.814 1347.82,700.814 1349.81,700.814 1351.8,700.814 1353.78,700.814 1355.77,700.814 1357.75,700.814 1359.74,700.814 1361.73,700.814 1363.71,700.814 1365.7,700.814 1367.69,700.814 1369.67,700.814 1371.66,700.814 1373.64,700.814 1375.63,700.814 1377.62,700.814 1379.6,700.814 1381.59,700.814 1383.57,700.814 1385.56,700.814 1387.55,700.814 1389.53,700.814 1391.52,700.814 1393.5,700.814 1395.49,700.814 1397.48,700.814 1399.46,700.814 1401.45,700.814 1403.44,700.814 1405.42,700.814 1407.41,700.814 1409.39,700.814 1411.38,700.814 1413.37,700.814 1415.35,700.814 1417.34,700.814 1419.32,700.814 1421.31,700.814 1423.3,700.814 1425.28,700.814 1427.27,700.814 1429.26,700.814 1431.24,700.814 1433.23,700.814 1435.21,700.814 1437.2,700.814 1439.19,700.814 1441.17,700.814 1443.16,700.814 1445.14,700.814 1447.13,700.814 1449.12,700.814 1451.1,700.814 1453.09,700.814 1455.08,700.814 1457.06,700.814 1459.05,700.814 1461.03,700.814 1463.02,700.814 1465.01,700.814 1466.99,700.814 1468.98,700.814 1470.96,700.814 1472.95,700.814 1474.94,700.814 1476.92,700.814 1478.91,700.814 1480.9,700.814 1482.88,700.814 1484.87,700.814 1486.85,700.814 1488.84,700.814 1490.83,700.814 1492.81,700.814 1494.8,700.814 1496.78,700.814 1498.77,700.814 1500.76,700.814 1502.74,700.814 1504.73,700.814 1506.72,700.814 1508.7,700.814 1510.69,700.814 1512.67,700.814 1514.66,700.814 1516.65,700.814 1518.63,700.814 1520.62,700.814 1522.6,700.814 1524.59,700.814 1526.58,700.814 1528.56,700.814 1530.55,700.814 1532.54,700.814 1534.52,700.814 1536.51,700.814 1538.49,700.814 1540.48,700.814 1542.47,700.814 1544.45,700.814 1546.44,700.814 1548.42,700.814 1550.41,700.814 1552.4,700.814 1554.38,700.814 1556.37,700.814 1558.36,700.814 1560.34,700.814 1562.33,700.814 1564.31,700.814 1566.3,700.814 1568.29,700.814 1570.27,700.814 1572.26,700.814 1574.24,700.814 1576.23,700.814 1578.22,700.814 1580.2,700.814 1582.19,700.814 1584.18,700.814 1586.16,700.814 1588.15,700.814 1590.13,700.814 1592.12,700.814 1594.11,700.814 1596.09,700.814 1598.08,700.814 1600.06,700.814 1602.05,700.814 1604.04,700.814 1606.02,700.814 1608.01,700.814 1610,700.814 1611.98,700.814 1613.97,700.814 1615.95,700.814 1617.94,700.814 1619.93,700.814 1621.91,700.814 1623.9,700.814 1625.88,700.814 1627.87,700.814 1629.86,700.814 1631.84,700.814 1633.83,700.814 1635.82,700.814 1637.8,700.814 1639.79,700.814 1641.77,700.814 1643.76,700.814 1645.75,700.814 1647.73,700.814 1649.72,700.814 1651.7,700.814 1653.69,700.814 1655.68,700.814 1657.66,700.814 1659.65,700.814 1661.64,700.814 1663.62,700.814 1665.61,700.814 1667.59,700.814 1669.58,700.814 1671.57,700.814 1673.55,700.814 1675.54,700.814 1677.52,700.814 1679.51,700.814 1681.5,700.814 1683.48,700.814 1685.47,700.814 1687.46,700.814 1689.44,700.814 1691.43,700.814 1693.41,700.814 1695.4,700.814 1697.39,700.814 1699.37,700.814 1701.36,700.814 1703.34,700.814 1705.33,700.814 1707.32,700.814 1709.3,700.814 1711.29,700.814 1713.28,700.814 1715.26,700.814 1717.25,700.814 1719.23,700.814 1721.22,700.814 1723.21,700.814 1725.19,700.814 1727.18,700.814 1729.16,700.814 1731.15,700.814 1733.14,700.814 1735.12,700.814 1737.11,700.814 1739.1,700.814 1741.08,700.814 1743.07,700.814 1745.05,700.814 1747.04,700.814 1749.03,700.814 1751.01,700.814 1753,700.814 1754.98,700.814 1756.97,700.814 1758.96,700.814 1760.94,700.814 1762.93,700.814 1764.92,700.814 1766.9,700.814 1768.89,700.814 1770.87,700.814 1772.86,700.814 1774.85,700.814 1776.83,700.814 1778.82,700.814 1780.8,700.814 1782.79,700.814 1784.78,700.814 1786.76,700.814 1788.75,700.814 1790.73,700.814 1792.72,700.814 1794.71,700.814 1796.69,700.814 1798.68,700.814 1800.67,700.814 1802.65,700.814 1804.64,700.814 1806.62,700.814 1808.61,700.814 1810.6,700.814 1812.58,700.814 1814.57,700.814 1816.55,700.814 1818.54,700.814 1820.53,700.814 1822.51,700.814 1824.5,700.814 1826.49,700.814 1828.47,700.814 1830.46,700.814 1832.44,700.814 1834.43,700.814 1836.42,700.814 1838.4,700.814 1840.39,700.814 1842.37,700.814 1844.36,700.814 1846.35,700.814 1848.33,700.814 1850.32,700.814 1852.31,700.814 1854.29,700.814 1856.28,700.814 1858.26,700.814 1860.25,700.814 1862.24,700.814 1864.22,700.814 1866.21,700.814 1868.19,700.814 1870.18,700.814 1872.17,700.814 1874.15,700.814 1876.14,700.814 1878.13,700.814 1880.11,700.814 1882.1,700.814 1884.08,700.814 1886.07,700.814 1888.06,700.814 1890.04,700.814 1892.03,700.814 1894.01,700.814 1896,700.814 1897.99,700.814 1899.97,700.814 1901.96,700.814 1903.95,700.814 1905.93,700.814 1907.92,700.814 1909.9,700.814 1911.89,700.814 1913.88,700.814 1915.86,700.814 1917.85,700.814 1919.83,700.814 1921.82,700.814 1923.81,700.814 1925.79,700.814 1927.78,700.814 1929.77,700.814 1931.75,700.814 1933.74,700.814 1935.72,700.814 1937.71,700.814 1939.7,700.814 1941.68,700.814 1943.67,700.814 1945.65,700.814 1947.64,700.814 1949.63,700.814 1951.61,700.814 1953.6,700.814 1955.59,700.814 1957.57,700.814 1959.56,700.814 1961.54,700.814 1963.53,700.814 1965.52,700.814 1967.5,700.814 1969.49,700.814 1971.47,700.814 1973.46,700.814 1975.45,700.814 1977.43,700.814 1979.42,700.814 1981.41,700.814 1983.39,700.814 1985.38,700.814 1987.36,700.814 1989.35,700.814 1991.34,700.814 1993.32,700.814 1995.31,700.814 1997.29,700.814 1999.28,700.814 2001.27,700.814 2003.25,700.814 2005.24,700.814 2007.23,700.814 2009.21,700.814 2011.2,700.814 2013.18,700.814 2015.17,700.814 2017.16,700.814 2019.14,700.814 2021.13,700.814 2023.11,700.814 2025.1,700.814 2027.09,700.814 2029.07,700.814 2031.06,700.814 2033.05,700.814 2035.03,700.814 2037.02,700.814 2039,700.814 2040.99,700.814 2042.98,700.814 2044.96,700.814 2046.95,700.814 2048.93,700.814 2050.92,700.814 2052.91,700.814 2054.89,700.814 2056.88,700.814 2058.87,700.814 2060.85,700.814 2062.84,700.814 2064.82,700.814 2066.81,700.814 2068.8,700.814 2070.78,700.814 2072.77,700.814 2074.75,700.814 2076.74,700.814 2078.73,700.814 2080.71,700.814 2082.7,700.814 2084.69,700.814 2086.67,700.814 2088.66,700.814 2090.64,700.814 2092.63,700.814 2094.62,700.814 2096.6,700.814 2098.59,700.814 2100.57,700.814 2102.56,700.814 2104.55,700.814 2106.53,700.814 2108.52,700.814 2110.51,700.814 2112.49,700.814 2114.48,700.814 2116.46,700.814 2118.45,700.814 2120.44,700.814 2122.42,700.814 2124.41,700.814 2126.39,700.814 2128.38,700.814 2130.37,700.814 2132.35,700.814 2134.34,700.814 2136.33,700.814 2138.31,700.814 2140.3,700.814 2142.28,700.814 2144.27,700.814 2146.26,700.814 2148.24,700.814 2150.23,700.814 2152.21,700.814 2154.2,700.814 2156.19,700.814 2158.17,700.814 2160.16,700.814 2162.15,700.814 2164.13,700.814 2166.12,700.814 2168.1,700.814 2170.09,700.814 2172.08,700.814 2174.06,700.814 2176.05,700.814 2178.03,700.814 2180.02,700.814 2182.01,700.814 2183.99,700.814 2185.98,700.814 2187.97,700.814 2189.95,700.814 2191.94,700.814 2193.92,700.814 2195.91,700.814 2197.9,700.814 2199.88,700.814 2201.87,700.814 2203.85,700.814 2205.84,700.814 2207.83,700.814 2209.81,700.814 2211.8,700.814 2213.78,700.814 2215.77,700.814 2217.76,700.814 2219.74,700.814 2221.73,700.814 2223.72,700.814 2225.7,700.814 2227.69,700.814 2229.67,700.814 2231.66,700.814 2233.65,700.814 2235.63,700.814 2237.62,700.814 2239.6,700.814 2241.59,700.814 2243.58,700.814 2245.56,700.814 2247.55,700.814 2249.54,700.814 2251.52,700.814 2253.51,700.814 2255.49,700.814 2257.48,700.814 2259.47,700.814 2261.45,700.814 2263.44,700.814 2265.42,700.814 2267.41,700.814 2269.4,700.814 2271.38,700.814 2273.37,700.814 2275.36,700.814 2277.34,700.814 2279.33,700.814 2281.31,700.814 2283.3,700.814 2285.29,700.814 2287.27,700.814 2289.26,700.814 2291.24,700.814 2293.23,700.814 "/>
<polyline clip-path="url(#clip181)" style="stroke:#3da44d; stroke-linecap:round; stroke-linejoin:round; stroke-width:4; stroke-opacity:1; fill:none" points="309.067,4175.05 311.053,4133.77 313.039,4075.3 315.025,3999.62 317.012,3906.74 318.998,3796.67 320.984,3669.91 322.97,3528.72 324.956,3376.37 326.942,3215.81 328.928,3049.63 330.915,2880.11 332.901,2709.24 334.887,2538.91 336.873,2370.97 338.859,2207.18 340.845,2049.03 342.832,1897.76 344.818,1754.48 346.804,1620.06 348.79,1495.13 350.776,1380.16 352.762,1275.42 354.748,1181 356.735,1096.91 358.721,1023.13 360.707,959.525 362.693,905.723 364.679,861.218 366.665,825.389 368.651,797.496 370.638,776.679 372.624,761.956 374.61,752.29 376.596,746.541 378.582,743.536 380.568,742.243 382.555,741.861 384.541,741.909 386.527,742.128 388.513,742.374 390.499,742.586 392.485,742.748 394.471,742.865 396.458,742.945 398.444,742.996 400.43,743.027 402.416,743.043 404.402,743.05 406.388,743.052 408.374,743.05 410.361,743.047 412.347,743.044 414.333,743.041 416.319,743.038 418.305,743.036 420.291,743.035 422.278,743.034 424.264,743.033 426.25,743.033 428.236,743.032 430.222,743.032 432.208,743.032 434.194,743.032 436.181,743.032 438.167,743.032 440.153,743.032 442.139,743.032 444.125,743.032 446.111,743.033 448.097,743.033 450.084,743.033 452.07,743.033 454.056,743.033 456.042,743.033 458.028,743.033 460.014,743.033 462.001,743.033 463.987,743.033 465.973,743.033 467.959,743.033 469.945,743.033 471.931,743.033 473.917,743.033 475.904,743.033 477.89,743.033 479.876,743.033 481.862,743.033 483.848,743.033 485.834,743.033 487.82,743.033 489.807,743.033 491.793,743.033 493.779,743.033 495.765,743.033 497.751,743.033 499.737,743.033 501.724,743.033 503.71,743.033 505.696,743.033 507.682,743.033 509.668,743.033 511.654,743.033 513.64,743.033 515.627,743.033 517.613,743.033 519.599,743.033 521.585,743.033 523.571,743.033 525.557,743.033 527.543,743.033 529.53,743.033 531.516,743.033 533.502,743.033 535.488,743.033 537.474,743.033 539.46,743.033 541.447,743.033 543.433,743.033 545.419,743.033 547.405,743.033 549.391,743.033 551.377,743.033 553.363,743.033 555.35,743.033 557.336,743.033 559.322,743.033 561.308,743.033 563.294,743.033 565.28,743.033 567.266,743.033 569.253,743.033 571.239,743.033 573.225,743.033 575.211,743.033 577.197,743.033 579.183,743.033 581.17,743.033 583.156,743.033 585.142,743.033 587.128,743.033 589.114,743.033 591.1,743.033 593.086,743.033 595.073,743.033 597.059,743.033 599.045,743.033 601.031,743.033 603.017,743.033 605.003,743.033 606.989,743.033 608.976,743.033 610.962,743.033 612.948,743.033 614.934,743.033 616.92,743.033 618.906,743.033 620.893,743.033 622.879,743.033 624.865,743.033 626.851,743.033 628.837,743.033 630.823,743.033 632.809,743.033 634.796,743.033 636.782,743.033 638.768,743.033 640.754,743.033 642.74,743.033 644.726,743.033 646.712,743.033 648.699,743.033 650.685,743.033 652.671,743.033 654.657,743.033 656.643,743.033 658.629,743.033 660.616,743.033 662.602,743.033 664.588,743.033 666.574,743.033 668.56,743.033 670.546,743.033 672.532,743.033 674.519,743.033 676.505,743.033 678.491,743.033 680.477,743.033 682.463,743.033 684.449,743.033 686.435,743.033 688.422,743.033 690.408,743.033 692.394,743.033 694.38,743.033 696.366,743.033 698.352,743.033 700.339,743.033 702.325,743.033 704.311,743.033 706.297,743.033 708.283,743.033 710.269,743.033 712.255,743.033 714.242,743.033 716.228,743.033 718.214,743.033 720.2,743.033 722.186,743.033 724.172,743.033 726.158,743.033 728.145,743.033 730.131,743.033 732.117,743.033 734.103,743.033 736.089,743.033 738.075,743.033 740.062,743.033 742.048,743.033 744.034,743.033 746.02,743.033 748.006,743.033 749.992,743.033 751.978,743.033 753.965,743.033 755.951,743.033 757.937,743.033 759.923,743.033 761.909,743.033 763.895,743.033 765.881,743.033 767.868,743.033 769.854,743.033 771.84,743.033 773.826,743.033 775.812,743.033 777.798,743.033 779.785,743.033 781.771,743.033 783.757,743.033 785.743,743.033 787.729,743.033 789.715,743.033 791.701,743.033 793.688,743.033 795.674,743.033 797.66,743.033 799.646,743.033 801.632,743.033 803.618,743.033 805.604,743.033 807.591,743.033 809.577,743.033 811.563,743.033 813.549,743.033 815.535,743.033 817.521,743.033 819.508,743.033 821.494,743.033 823.48,743.033 825.466,743.033 827.452,743.033 829.438,743.033 831.424,743.033 833.411,743.033 835.397,743.033 837.383,743.033 839.369,743.033 841.355,743.033 843.341,743.033 845.328,743.033 847.314,743.033 849.3,743.033 851.286,743.033 853.272,743.033 855.258,743.033 857.244,743.033 859.231,743.033 861.217,743.033 863.203,743.033 865.189,743.033 867.175,743.033 869.161,743.033 871.147,743.033 873.134,743.033 875.12,743.033 877.106,743.033 879.092,743.033 881.078,743.033 883.064,743.033 885.051,743.033 887.037,743.033 889.023,743.033 891.009,743.033 892.995,743.033 894.981,743.033 896.967,743.033 898.954,743.033 900.94,743.033 902.926,743.033 904.912,743.033 906.898,743.033 908.884,743.033 910.87,743.033 912.857,743.033 914.843,743.033 916.829,743.033 918.815,743.033 920.801,743.033 922.787,743.033 924.774,743.033 926.76,743.033 928.746,743.033 930.732,743.033 932.718,743.033 934.704,743.033 936.69,743.033 938.677,743.033 940.663,743.033 942.649,743.033 944.635,743.033 946.621,743.033 948.607,743.033 950.593,743.033 952.58,743.033 954.566,743.033 956.552,743.033 958.538,743.033 960.524,743.033 962.51,743.033 964.497,743.033 966.483,743.033 968.469,743.033 970.455,743.033 972.441,743.033 974.427,743.033 976.413,743.033 978.4,743.033 980.386,743.033 982.372,743.033 984.358,743.033 986.344,743.033 988.33,743.033 990.316,743.033 992.303,743.033 994.289,743.033 996.275,743.033 998.261,743.033 1000.25,743.033 1002.23,743.033 1004.22,743.033 1006.21,743.033 1008.19,743.033 1010.18,743.033 1012.16,743.033 1014.15,743.033 1016.14,743.033 1018.12,743.033 1020.11,743.033 1022.09,743.033 1024.08,743.033 1026.07,743.033 1028.05,743.033 1030.04,743.033 1032.03,743.033 1034.01,743.033 1036,743.033 1037.98,743.033 1039.97,743.033 1041.96,743.033 1043.94,743.033 1045.93,743.033 1047.91,743.033 1049.9,743.033 1051.89,743.033 1053.87,743.033 1055.86,743.033 1057.85,743.033 1059.83,743.033 1061.82,743.033 1063.8,743.033 1065.79,743.033 1067.78,743.033 1069.76,743.033 1071.75,743.033 1073.73,743.033 1075.72,743.033 1077.71,743.033 1079.69,743.033 1081.68,743.033 1083.67,743.033 1085.65,743.033 1087.64,743.033 1089.62,743.033 1091.61,743.033 1093.6,743.033 1095.58,743.033 1097.57,743.033 1099.55,743.033 1101.54,743.033 1103.53,743.033 1105.51,743.033 1107.5,743.033 1109.49,743.033 1111.47,743.033 1113.46,743.033 1115.44,743.033 1117.43,743.033 1119.42,743.033 1121.4,743.033 1123.39,743.033 1125.37,743.033 1127.36,743.033 1129.35,743.033 1131.33,743.033 1133.32,743.033 1135.31,743.033 1137.29,743.033 1139.28,743.033 1141.26,743.033 1143.25,743.033 1145.24,743.033 1147.22,743.033 1149.21,743.033 1151.19,743.033 1153.18,743.033 1155.17,743.033 1157.15,743.033 1159.14,743.033 1161.13,743.033 1163.11,743.033 1165.1,743.033 1167.08,743.033 1169.07,743.033 1171.06,743.033 1173.04,743.033 1175.03,743.033 1177.01,743.033 1179,743.033 1180.99,743.033 1182.97,743.033 1184.96,743.033 1186.95,743.033 1188.93,743.033 1190.92,743.033 1192.9,743.033 1194.89,743.033 1196.88,743.033 1198.86,743.033 1200.85,743.033 1202.83,743.033 1204.82,743.033 1206.81,743.033 1208.79,743.033 1210.78,743.033 1212.77,743.033 1214.75,743.033 1216.74,743.033 1218.72,743.033 1220.71,743.033 1222.7,743.033 1224.68,743.033 1226.67,743.033 1228.65,743.033 1230.64,743.033 1232.63,743.033 1234.61,743.033 1236.6,743.033 1238.59,743.033 1240.57,743.033 1242.56,743.033 1244.54,743.033 1246.53,743.033 1248.52,743.033 1250.5,743.033 1252.49,743.033 1254.47,743.033 1256.46,743.033 1258.45,743.033 1260.43,743.033 1262.42,743.033 1264.41,743.033 1266.39,743.033 1268.38,743.033 1270.36,743.033 1272.35,743.033 1274.34,743.033 1276.32,743.033 1278.31,743.033 1280.29,743.033 1282.28,743.033 1284.27,743.033 1286.25,743.033 1288.24,743.033 1290.23,743.033 1292.21,743.033 1294.2,743.033 1296.18,743.033 1298.17,743.033 1300.16,743.033 1302.14,743.033 1304.13,743.033 1306.11,743.033 1308.1,743.033 1310.09,743.033 1312.07,743.033 1314.06,743.033 1316.05,743.033 1318.03,743.033 1320.02,743.033 1322,743.033 1323.99,743.033 1325.98,743.033 1327.96,743.033 1329.95,743.033 1331.93,743.033 1333.92,743.033 1335.91,743.033 1337.89,743.033 1339.88,743.033 1341.87,743.033 1343.85,743.033 1345.84,743.033 1347.82,743.033 1349.81,743.033 1351.8,743.033 1353.78,743.033 1355.77,743.033 1357.75,743.033 1359.74,743.033 1361.73,743.033 1363.71,743.033 1365.7,743.033 1367.69,743.033 1369.67,743.033 1371.66,743.033 1373.64,743.033 1375.63,743.033 1377.62,743.033 1379.6,743.033 1381.59,743.033 1383.57,743.033 1385.56,743.033 1387.55,743.033 1389.53,743.033 1391.52,743.033 1393.5,743.033 1395.49,743.033 1397.48,743.033 1399.46,743.033 1401.45,743.033 1403.44,743.033 1405.42,743.033 1407.41,743.033 1409.39,743.033 1411.38,743.033 1413.37,743.033 1415.35,743.033 1417.34,743.033 1419.32,743.033 1421.31,743.033 1423.3,743.033 1425.28,743.033 1427.27,743.033 1429.26,743.033 1431.24,743.033 1433.23,743.033 1435.21,743.033 1437.2,743.033 1439.19,743.033 1441.17,743.033 1443.16,743.033 1445.14,743.033 1447.13,743.033 1449.12,743.033 1451.1,743.033 1453.09,743.033 1455.08,743.033 1457.06,743.033 1459.05,743.033 1461.03,743.033 1463.02,743.033 1465.01,743.033 1466.99,743.033 1468.98,743.033 1470.96,743.033 1472.95,743.033 1474.94,743.033 1476.92,743.033 1478.91,743.033 1480.9,743.033 1482.88,743.033 1484.87,743.033 1486.85,743.033 1488.84,743.033 1490.83,743.033 1492.81,743.033 1494.8,743.033 1496.78,743.033 1498.77,743.033 1500.76,743.033 1502.74,743.033 1504.73,743.033 1506.72,743.033 1508.7,743.033 1510.69,743.033 1512.67,743.033 1514.66,743.033 1516.65,743.033 1518.63,743.033 1520.62,743.033 1522.6,743.033 1524.59,743.033 1526.58,743.033 1528.56,743.033 1530.55,743.033 1532.54,743.033 1534.52,743.033 1536.51,743.033 1538.49,743.033 1540.48,743.033 1542.47,743.033 1544.45,743.033 1546.44,743.033 1548.42,743.033 1550.41,743.033 1552.4,743.033 1554.38,743.033 1556.37,743.033 1558.36,743.033 1560.34,743.033 1562.33,743.033 1564.31,743.033 1566.3,743.033 1568.29,743.033 1570.27,743.033 1572.26,743.033 1574.24,743.033 1576.23,743.033 1578.22,743.033 1580.2,743.033 1582.19,743.033 1584.18,743.033 1586.16,743.033 1588.15,743.033 1590.13,743.033 1592.12,743.033 1594.11,743.033 1596.09,743.033 1598.08,743.033 1600.06,743.033 1602.05,743.033 1604.04,743.033 1606.02,743.033 1608.01,743.033 1610,743.033 1611.98,743.033 1613.97,743.033 1615.95,743.033 1617.94,743.033 1619.93,743.033 1621.91,743.033 1623.9,743.033 1625.88,743.033 1627.87,743.033 1629.86,743.033 1631.84,743.033 1633.83,743.033 1635.82,743.033 1637.8,743.033 1639.79,743.033 1641.77,743.033 1643.76,743.033 1645.75,743.033 1647.73,743.033 1649.72,743.033 1651.7,743.033 1653.69,743.033 1655.68,743.033 1657.66,743.033 1659.65,743.033 1661.64,743.033 1663.62,743.033 1665.61,743.033 1667.59,743.033 1669.58,743.033 1671.57,743.033 1673.55,743.033 1675.54,743.033 1677.52,743.033 1679.51,743.033 1681.5,743.033 1683.48,743.033 1685.47,743.033 1687.46,743.033 1689.44,743.033 1691.43,743.033 1693.41,743.033 1695.4,743.033 1697.39,743.033 1699.37,743.033 1701.36,743.033 1703.34,743.033 1705.33,743.033 1707.32,743.033 1709.3,743.033 1711.29,743.033 1713.28,743.033 1715.26,743.033 1717.25,743.033 1719.23,743.033 1721.22,743.033 1723.21,743.033 1725.19,743.033 1727.18,743.033 1729.16,743.033 1731.15,743.033 1733.14,743.033 1735.12,743.033 1737.11,743.033 1739.1,743.033 1741.08,743.033 1743.07,743.033 1745.05,743.033 1747.04,743.033 1749.03,743.033 1751.01,743.033 1753,743.033 1754.98,743.033 1756.97,743.033 1758.96,743.033 1760.94,743.033 1762.93,743.033 1764.92,743.033 1766.9,743.033 1768.89,743.033 1770.87,743.033 1772.86,743.033 1774.85,743.033 1776.83,743.033 1778.82,743.033 1780.8,743.033 1782.79,743.033 1784.78,743.033 1786.76,743.033 1788.75,743.033 1790.73,743.033 1792.72,743.033 1794.71,743.033 1796.69,743.033 1798.68,743.033 1800.67,743.033 1802.65,743.033 1804.64,743.033 1806.62,743.033 1808.61,743.033 1810.6,743.033 1812.58,743.033 1814.57,743.033 1816.55,743.033 1818.54,743.033 1820.53,743.033 1822.51,743.033 1824.5,743.033 1826.49,743.033 1828.47,743.033 1830.46,743.033 1832.44,743.033 1834.43,743.033 1836.42,743.033 1838.4,743.033 1840.39,743.033 1842.37,743.033 1844.36,743.033 1846.35,743.033 1848.33,743.033 1850.32,743.033 1852.31,743.033 1854.29,743.033 1856.28,743.033 1858.26,743.033 1860.25,743.033 1862.24,743.033 1864.22,743.033 1866.21,743.033 1868.19,743.033 1870.18,743.033 1872.17,743.033 1874.15,743.033 1876.14,743.033 1878.13,743.033 1880.11,743.033 1882.1,743.033 1884.08,743.033 1886.07,743.033 1888.06,743.033 1890.04,743.033 1892.03,743.033 1894.01,743.033 1896,743.033 1897.99,743.033 1899.97,743.033 1901.96,743.033 1903.95,743.033 1905.93,743.033 1907.92,743.033 1909.9,743.033 1911.89,743.033 1913.88,743.033 1915.86,743.033 1917.85,743.033 1919.83,743.033 1921.82,743.033 1923.81,743.033 1925.79,743.033 1927.78,743.033 1929.77,743.033 1931.75,743.033 1933.74,743.033 1935.72,743.033 1937.71,743.033 1939.7,743.033 1941.68,743.033 1943.67,743.033 1945.65,743.033 1947.64,743.033 1949.63,743.033 1951.61,743.033 1953.6,743.033 1955.59,743.033 1957.57,743.033 1959.56,743.033 1961.54,743.033 1963.53,743.033 1965.52,743.033 1967.5,743.033 1969.49,743.033 1971.47,743.033 1973.46,743.033 1975.45,743.033 1977.43,743.033 1979.42,743.033 1981.41,743.033 1983.39,743.033 1985.38,743.033 1987.36,743.033 1989.35,743.033 1991.34,743.033 1993.32,743.033 1995.31,743.033 1997.29,743.033 1999.28,743.033 2001.27,743.033 2003.25,743.033 2005.24,743.033 2007.23,743.033 2009.21,743.033 2011.2,743.033 2013.18,743.033 2015.17,743.033 2017.16,743.033 2019.14,743.033 2021.13,743.033 2023.11,743.033 2025.1,743.033 2027.09,743.033 2029.07,743.033 2031.06,743.033 2033.05,743.033 2035.03,743.033 2037.02,743.033 2039,743.033 2040.99,743.033 2042.98,743.033 2044.96,743.033 2046.95,743.033 2048.93,743.033 2050.92,743.033 2052.91,743.033 2054.89,743.033 2056.88,743.033 2058.87,743.033 2060.85,743.033 2062.84,743.033 2064.82,743.033 2066.81,743.033 2068.8,743.033 2070.78,743.033 2072.77,743.033 2074.75,743.033 2076.74,743.033 2078.73,743.033 2080.71,743.033 2082.7,743.033 2084.69,743.033 2086.67,743.033 2088.66,743.033 2090.64,743.033 2092.63,743.033 2094.62,743.033 2096.6,743.033 2098.59,743.033 2100.57,743.033 2102.56,743.033 2104.55,743.033 2106.53,743.033 2108.52,743.033 2110.51,743.033 2112.49,743.033 2114.48,743.033 2116.46,743.033 2118.45,743.033 2120.44,743.033 2122.42,743.033 2124.41,743.033 2126.39,743.033 2128.38,743.033 2130.37,743.033 2132.35,743.033 2134.34,743.033 2136.33,743.033 2138.31,743.033 2140.3,743.033 2142.28,743.033 2144.27,743.033 2146.26,743.033 2148.24,743.033 2150.23,743.033 2152.21,743.033 2154.2,743.033 2156.19,743.033 2158.17,743.033 2160.16,743.033 2162.15,743.033 2164.13,743.033 2166.12,743.033 2168.1,743.033 2170.09,743.033 2172.08,743.033 2174.06,743.033 2176.05,743.033 2178.03,743.033 2180.02,743.033 2182.01,743.033 2183.99,743.033 2185.98,743.033 2187.97,743.033 2189.95,743.033 2191.94,743.033 2193.92,743.033 2195.91,743.033 2197.9,743.033 2199.88,743.033 2201.87,743.033 2203.85,743.033 2205.84,743.033 2207.83,743.033 2209.81,743.033 2211.8,743.033 2213.78,743.033 2215.77,743.033 2217.76,743.033 2219.74,743.033 2221.73,743.033 2223.72,743.033 2225.7,743.033 2227.69,743.033 2229.67,743.033 2231.66,743.033 2233.65,743.033 2235.63,743.033 2237.62,743.033 2239.6,743.033 2241.59,743.033 2243.58,743.033 2245.56,743.033 2247.55,743.033 2249.54,743.033 2251.52,743.033 2253.51,743.033 2255.49,743.033 2257.48,743.033 2259.47,743.033 2261.45,743.033 2263.44,743.033 2265.42,743.033 2267.41,743.033 2269.4,743.033 2271.38,743.033 2273.37,743.033 2275.36,743.033 2277.34,743.033 2279.33,743.033 2281.31,743.033 2283.3,743.033 2285.29,743.033 2287.27,743.033 2289.26,743.033 2291.24,743.033 2293.23,743.033 "/>
<path clip-path="url(#clip180)" d="M1669.16 300.469 L2282.65 300.469 L2282.65 93.1086 L1669.16 93.1086  Z" fill="#ffffff" fill-rule="evenodd" fill-opacity="1"/>
<polyline clip-path="url(#clip180)" style="stroke:#000000; stroke-linecap:round; stroke-linejoin:round; stroke-width:4; stroke-opacity:1; fill:none" points="1669.16,300.469 2282.65,300.469 2282.65,93.1086 1669.16,93.1086 1669.16,300.469 "/>
<polyline clip-path="url(#clip180)" style="stroke:#009af9; stroke-linecap:round; stroke-linejoin:round; stroke-width:4; stroke-opacity:1; fill:none" stroke-dasharray="16, 10" points="1692.53,144.949 1832.74,144.949 "/>
<path clip-path="url(#clip180)" d="M1883.98 130.331 L1883.98 135.261 Q1881.62 133.062 1878.93 131.974 Q1876.27 130.886 1873.26 130.886 Q1867.34 130.886 1864.19 134.52 Q1861.04 138.132 1861.04 144.983 Q1861.04 151.812 1864.19 155.446 Q1867.34 159.057 1873.26 159.057 Q1876.27 159.057 1878.93 157.969 Q1881.62 156.881 1883.98 154.682 L1883.98 159.567 Q1881.53 161.233 1878.77 162.067 Q1876.04 162.9 1872.99 162.9 Q1865.14 162.9 1860.62 158.108 Q1856.11 153.293 1856.11 144.983 Q1856.11 136.65 1860.62 131.858 Q1865.14 127.044 1872.99 127.044 Q1876.09 127.044 1878.82 127.877 Q1881.57 128.687 1883.98 130.331 Z" fill="#000000" fill-rule="nonzero" fill-opacity="1" /><path clip-path="url(#clip180)" d="M1901.06 139.289 Q1897.64 139.289 1895.65 141.974 Q1893.66 144.636 1893.66 149.289 Q1893.66 153.942 1895.62 156.627 Q1897.62 159.289 1901.06 159.289 Q1904.47 159.289 1906.46 156.604 Q1908.45 153.918 1908.45 149.289 Q1908.45 144.682 1906.46 141.997 Q1904.47 139.289 1901.06 139.289 M1901.06 135.678 Q1906.62 135.678 1909.79 139.289 Q1912.96 142.9 1912.96 149.289 Q1912.96 155.655 1909.79 159.289 Q1906.62 162.9 1901.06 162.9 Q1895.49 162.9 1892.31 159.289 Q1889.17 155.655 1889.17 149.289 Q1889.17 142.9 1892.31 139.289 Q1895.49 135.678 1901.06 135.678 Z" fill="#000000" fill-rule="nonzero" fill-opacity="1" /><path clip-path="url(#clip180)" d="M1941.57 146.581 L1941.57 162.229 L1937.31 162.229 L1937.31 146.719 Q1937.31 143.039 1935.88 141.21 Q1934.44 139.382 1931.57 139.382 Q1928.12 139.382 1926.13 141.581 Q1924.14 143.78 1924.14 147.576 L1924.14 162.229 L1919.86 162.229 L1919.86 136.303 L1924.14 136.303 L1924.14 140.331 Q1925.67 137.993 1927.73 136.835 Q1929.81 135.678 1932.52 135.678 Q1936.99 135.678 1939.28 138.456 Q1941.57 141.21 1941.57 146.581 Z" fill="#000000" fill-rule="nonzero" fill-opacity="1" /><path clip-path="url(#clip180)" d="M1966.6 137.067 L1966.6 141.094 Q1964.79 140.169 1962.85 139.706 Q1960.9 139.243 1958.82 139.243 Q1955.65 139.243 1954.05 140.215 Q1952.48 141.187 1952.48 143.131 Q1952.48 144.613 1953.61 145.469 Q1954.74 146.303 1958.17 147.067 L1959.63 147.391 Q1964.17 148.363 1966.06 150.145 Q1967.98 151.905 1967.98 155.076 Q1967.98 158.687 1965.11 160.793 Q1962.27 162.9 1957.27 162.9 Q1955.18 162.9 1952.92 162.483 Q1950.67 162.09 1948.17 161.28 L1948.17 156.881 Q1950.53 158.108 1952.82 158.733 Q1955.11 159.335 1957.36 159.335 Q1960.37 159.335 1961.99 158.317 Q1963.61 157.275 1963.61 155.4 Q1963.61 153.664 1962.43 152.738 Q1961.27 151.812 1957.31 150.956 L1955.83 150.608 Q1951.87 149.775 1950.11 148.062 Q1948.36 146.326 1948.36 143.317 Q1948.36 139.659 1950.95 137.669 Q1953.54 135.678 1958.31 135.678 Q1960.67 135.678 1962.75 136.025 Q1964.84 136.372 1966.6 137.067 Z" fill="#000000" fill-rule="nonzero" fill-opacity="1" /><path clip-path="url(#clip180)" d="M1978.98 128.942 L1978.98 136.303 L1987.75 136.303 L1987.75 139.613 L1978.98 139.613 L1978.98 153.687 Q1978.98 156.858 1979.84 157.761 Q1980.72 158.664 1983.38 158.664 L1987.75 158.664 L1987.75 162.229 L1983.38 162.229 Q1978.45 162.229 1976.57 160.4 Q1974.7 158.548 1974.7 153.687 L1974.7 139.613 L1971.57 139.613 L1971.57 136.303 L1974.7 136.303 L1974.7 128.942 L1978.98 128.942 Z" fill="#000000" fill-rule="nonzero" fill-opacity="1" /><path clip-path="url(#clip180)" d="M2008.38 140.284 Q2007.66 139.868 2006.8 139.682 Q2005.97 139.474 2004.95 139.474 Q2001.34 139.474 1999.4 141.835 Q1997.48 144.173 1997.48 148.571 L1997.48 162.229 L1993.19 162.229 L1993.19 136.303 L1997.48 136.303 L1997.48 140.331 Q1998.82 137.969 2000.97 136.835 Q2003.12 135.678 2006.2 135.678 Q2006.64 135.678 2007.17 135.747 Q2007.71 135.794 2008.36 135.909 L2008.38 140.284 Z" fill="#000000" fill-rule="nonzero" fill-opacity="1" /><path clip-path="url(#clip180)" d="M2024.63 149.196 Q2019.47 149.196 2017.48 150.377 Q2015.48 151.557 2015.48 154.405 Q2015.48 156.673 2016.97 158.016 Q2018.47 159.335 2021.04 159.335 Q2024.58 159.335 2026.71 156.835 Q2028.86 154.312 2028.86 150.145 L2028.86 149.196 L2024.63 149.196 M2033.12 147.437 L2033.12 162.229 L2028.86 162.229 L2028.86 158.293 Q2027.41 160.655 2025.23 161.789 Q2023.05 162.9 2019.91 162.9 Q2015.92 162.9 2013.56 160.678 Q2011.23 158.432 2011.23 154.682 Q2011.23 150.307 2014.14 148.085 Q2017.08 145.863 2022.89 145.863 L2028.86 145.863 L2028.86 145.446 Q2028.86 142.507 2026.92 140.909 Q2025 139.289 2021.5 139.289 Q2019.28 139.289 2017.17 139.821 Q2015.07 140.354 2013.12 141.419 L2013.12 137.483 Q2015.46 136.581 2017.66 136.141 Q2019.86 135.678 2021.94 135.678 Q2027.57 135.678 2030.35 138.594 Q2033.12 141.511 2033.12 147.437 Z" fill="#000000" fill-rule="nonzero" fill-opacity="1" /><path clip-path="url(#clip180)" d="M2041.9 136.303 L2046.16 136.303 L2046.16 162.229 L2041.9 162.229 L2041.9 136.303 M2041.9 126.21 L2046.16 126.21 L2046.16 131.604 L2041.9 131.604 L2041.9 126.21 Z" fill="#000000" fill-rule="nonzero" fill-opacity="1" /><path clip-path="url(#clip180)" d="M2076.62 146.581 L2076.62 162.229 L2072.36 162.229 L2072.36 146.719 Q2072.36 143.039 2070.92 141.21 Q2069.49 139.382 2066.62 139.382 Q2063.17 139.382 2061.18 141.581 Q2059.19 143.78 2059.19 147.576 L2059.19 162.229 L2054.91 162.229 L2054.91 136.303 L2059.19 136.303 L2059.19 140.331 Q2060.72 137.993 2062.78 136.835 Q2064.86 135.678 2067.57 135.678 Q2072.04 135.678 2074.33 138.456 Q2076.62 141.21 2076.62 146.581 Z" fill="#000000" fill-rule="nonzero" fill-opacity="1" /><path clip-path="url(#clip180)" d="M2089.33 128.942 L2089.33 136.303 L2098.1 136.303 L2098.1 139.613 L2089.33 139.613 L2089.33 153.687 Q2089.33 156.858 2090.18 157.761 Q2091.06 158.664 2093.73 158.664 L2098.1 158.664 L2098.1 162.229 L2093.73 162.229 Q2088.79 162.229 2086.92 160.4 Q2085.04 158.548 2085.04 153.687 L2085.04 139.613 L2081.92 139.613 L2081.92 136.303 L2085.04 136.303 L2085.04 128.942 L2089.33 128.942 Z" fill="#000000" fill-rule="nonzero" fill-opacity="1" /><path clip-path="url(#clip180)" d="M2137.38 149.289 Q2137.38 144.59 2135.44 141.928 Q2133.52 139.243 2130.14 139.243 Q2126.76 139.243 2124.81 141.928 Q2122.89 144.59 2122.89 149.289 Q2122.89 153.988 2124.81 156.673 Q2126.76 159.335 2130.14 159.335 Q2133.52 159.335 2135.44 156.673 Q2137.38 153.988 2137.38 149.289 M2122.89 140.238 Q2124.23 137.923 2126.27 136.812 Q2128.33 135.678 2131.18 135.678 Q2135.9 135.678 2138.84 139.428 Q2141.8 143.178 2141.8 149.289 Q2141.8 155.4 2138.84 159.15 Q2135.9 162.9 2131.18 162.9 Q2128.33 162.9 2126.27 161.789 Q2124.23 160.655 2122.89 158.34 L2122.89 162.229 L2118.61 162.229 L2118.61 126.21 L2122.89 126.21 L2122.89 140.238 Z" fill="#000000" fill-rule="nonzero" fill-opacity="1" /><path clip-path="url(#clip180)" d="M2158.91 139.289 Q2155.48 139.289 2153.49 141.974 Q2151.5 144.636 2151.5 149.289 Q2151.5 153.942 2153.47 156.627 Q2155.46 159.289 2158.91 159.289 Q2162.31 159.289 2164.3 156.604 Q2166.29 153.918 2166.29 149.289 Q2166.29 144.682 2164.3 141.997 Q2162.31 139.289 2158.91 139.289 M2158.91 135.678 Q2164.47 135.678 2167.64 139.289 Q2170.81 142.9 2170.81 149.289 Q2170.81 155.655 2167.64 159.289 Q2164.47 162.9 2158.91 162.9 Q2153.33 162.9 2150.16 159.289 Q2147.01 155.655 2147.01 149.289 Q2147.01 142.9 2150.16 139.289 Q2153.33 135.678 2158.91 135.678 Z" fill="#000000" fill-rule="nonzero" fill-opacity="1" /><path clip-path="url(#clip180)" d="M2177.43 151.997 L2177.43 136.303 L2181.69 136.303 L2181.69 151.835 Q2181.69 155.516 2183.12 157.368 Q2184.56 159.196 2187.43 159.196 Q2190.88 159.196 2192.87 156.997 Q2194.88 154.798 2194.88 151.002 L2194.88 136.303 L2199.14 136.303 L2199.14 162.229 L2194.88 162.229 L2194.88 158.247 Q2193.33 160.608 2191.27 161.766 Q2189.23 162.9 2186.53 162.9 Q2182.06 162.9 2179.74 160.122 Q2177.43 157.344 2177.43 151.997 M2188.15 135.678 L2188.15 135.678 Z" fill="#000000" fill-rule="nonzero" fill-opacity="1" /><path clip-path="url(#clip180)" d="M2229.47 146.581 L2229.47 162.229 L2225.21 162.229 L2225.21 146.719 Q2225.21 143.039 2223.77 141.21 Q2222.34 139.382 2219.47 139.382 Q2216.02 139.382 2214.03 141.581 Q2212.03 143.78 2212.03 147.576 L2212.03 162.229 L2207.75 162.229 L2207.75 136.303 L2212.03 136.303 L2212.03 140.331 Q2213.56 137.993 2215.62 136.835 Q2217.71 135.678 2220.41 135.678 Q2224.88 135.678 2227.17 138.456 Q2229.47 141.21 2229.47 146.581 Z" fill="#000000" fill-rule="nonzero" fill-opacity="1" /><path clip-path="url(#clip180)" d="M2255.02 140.238 L2255.02 126.21 L2259.28 126.21 L2259.28 162.229 L2255.02 162.229 L2255.02 158.34 Q2253.68 160.655 2251.62 161.789 Q2249.58 162.9 2246.71 162.9 Q2242.01 162.9 2239.05 159.15 Q2236.11 155.4 2236.11 149.289 Q2236.11 143.178 2239.05 139.428 Q2242.01 135.678 2246.71 135.678 Q2249.58 135.678 2251.62 136.812 Q2253.68 137.923 2255.02 140.238 M2240.51 149.289 Q2240.51 153.988 2242.43 156.673 Q2244.37 159.335 2247.75 159.335 Q2251.13 159.335 2253.08 156.673 Q2255.02 153.988 2255.02 149.289 Q2255.02 144.59 2253.08 141.928 Q2251.13 139.243 2247.75 139.243 Q2244.37 139.243 2242.43 141.928 Q2240.51 144.59 2240.51 149.289 Z" fill="#000000" fill-rule="nonzero" fill-opacity="1" /><polyline clip-path="url(#clip180)" style="stroke:#e26f46; stroke-linecap:round; stroke-linejoin:round; stroke-width:4; stroke-opacity:1; fill:none" points="1692.53,196.789 1832.74,196.789 "/>
<path clip-path="url(#clip180)" d="M1856.11 179.509 L1862.41 179.509 L1877.73 208.421 L1877.73 179.509 L1882.27 179.509 L1882.27 214.069 L1875.97 214.069 L1860.65 185.157 L1860.65 214.069 L1856.11 214.069 L1856.11 179.509 Z" fill="#000000" fill-rule="nonzero" fill-opacity="1" /><path clip-path="url(#clip180)" d="M1901.43 191.129 Q1898.01 191.129 1896.02 193.814 Q1894.03 196.476 1894.03 201.129 Q1894.03 205.782 1895.99 208.467 Q1897.99 211.129 1901.43 211.129 Q1904.84 211.129 1906.83 208.444 Q1908.82 205.758 1908.82 201.129 Q1908.82 196.522 1906.83 193.837 Q1904.84 191.129 1901.43 191.129 M1901.43 187.518 Q1906.99 187.518 1910.16 191.129 Q1913.33 194.74 1913.33 201.129 Q1913.33 207.495 1910.16 211.129 Q1906.99 214.74 1901.43 214.74 Q1895.86 214.74 1892.68 211.129 Q1889.54 207.495 1889.54 201.129 Q1889.54 194.74 1892.68 191.129 Q1895.86 187.518 1901.43 187.518 Z" fill="#000000" fill-rule="nonzero" fill-opacity="1" /><path clip-path="url(#clip180)" d="M1940.58 193.12 Q1942.17 190.249 1944.4 188.884 Q1946.62 187.518 1949.63 187.518 Q1953.68 187.518 1955.88 190.365 Q1958.08 193.189 1958.08 198.421 L1958.08 214.069 L1953.8 214.069 L1953.8 198.559 Q1953.8 194.833 1952.48 193.027 Q1951.16 191.222 1948.45 191.222 Q1945.14 191.222 1943.22 193.421 Q1941.3 195.62 1941.3 199.416 L1941.3 214.069 L1937.01 214.069 L1937.01 198.559 Q1937.01 194.809 1935.69 193.027 Q1934.37 191.222 1931.62 191.222 Q1928.36 191.222 1926.43 193.444 Q1924.51 195.643 1924.51 199.416 L1924.51 214.069 L1920.23 214.069 L1920.23 188.143 L1924.51 188.143 L1924.51 192.171 Q1925.97 189.786 1928.01 188.652 Q1930.05 187.518 1932.85 187.518 Q1935.67 187.518 1937.64 188.953 Q1939.63 190.388 1940.58 193.12 Z" fill="#000000" fill-rule="nonzero" fill-opacity="1" /><path clip-path="url(#clip180)" d="M1966.57 188.143 L1970.83 188.143 L1970.83 214.069 L1966.57 214.069 L1966.57 188.143 M1966.57 178.05 L1970.83 178.05 L1970.83 183.444 L1966.57 183.444 L1966.57 178.05 Z" fill="#000000" fill-rule="nonzero" fill-opacity="1" /><path clip-path="url(#clip180)" d="M2001.3 198.421 L2001.3 214.069 L1997.04 214.069 L1997.04 198.559 Q1997.04 194.879 1995.6 193.05 Q1994.17 191.222 1991.3 191.222 Q1987.85 191.222 1985.86 193.421 Q1983.86 195.62 1983.86 199.416 L1983.86 214.069 L1979.58 214.069 L1979.58 188.143 L1983.86 188.143 L1983.86 192.171 Q1985.39 189.833 1987.45 188.675 Q1989.54 187.518 1992.24 187.518 Q1996.71 187.518 1999 190.296 Q2001.3 193.05 2001.3 198.421 Z" fill="#000000" fill-rule="nonzero" fill-opacity="1" /><path clip-path="url(#clip180)" d="M2021.57 201.036 Q2016.41 201.036 2014.42 202.217 Q2012.43 203.397 2012.43 206.245 Q2012.43 208.513 2013.91 209.856 Q2015.42 211.175 2017.98 211.175 Q2021.53 211.175 2023.66 208.675 Q2025.81 206.152 2025.81 201.985 L2025.81 201.036 L2021.57 201.036 M2030.07 199.277 L2030.07 214.069 L2025.81 214.069 L2025.81 210.133 Q2024.35 212.495 2022.17 213.629 Q2020 214.74 2016.85 214.74 Q2012.87 214.74 2010.51 212.518 Q2008.17 210.272 2008.17 206.522 Q2008.17 202.147 2011.09 199.925 Q2014.03 197.703 2019.84 197.703 L2025.81 197.703 L2025.81 197.286 Q2025.81 194.347 2023.86 192.749 Q2021.94 191.129 2018.45 191.129 Q2016.23 191.129 2014.12 191.661 Q2012.01 192.194 2010.07 193.259 L2010.07 189.323 Q2012.41 188.421 2014.61 187.981 Q2016.8 187.518 2018.89 187.518 Q2024.51 187.518 2027.29 190.434 Q2030.07 193.351 2030.07 199.277 Z" fill="#000000" fill-rule="nonzero" fill-opacity="1" /><path clip-path="url(#clip180)" d="M2038.84 178.05 L2043.1 178.05 L2043.1 214.069 L2038.84 214.069 L2038.84 178.05 Z" fill="#000000" fill-rule="nonzero" fill-opacity="1" /><path clip-path="url(#clip180)" d="M2067.27 179.509 L2074.23 179.509 L2083.05 203.027 L2091.92 179.509 L2098.89 179.509 L2098.89 214.069 L2094.33 214.069 L2094.33 183.722 L2085.41 207.425 L2080.72 207.425 L2071.8 183.722 L2071.8 214.069 L2067.27 214.069 L2067.27 179.509 Z" fill="#000000" fill-rule="nonzero" fill-opacity="1" /><path clip-path="url(#clip180)" d="M2112.85 183.351 L2112.85 196.337 L2118.72 196.337 Q2121.99 196.337 2123.77 194.647 Q2125.55 192.958 2125.55 189.833 Q2125.55 186.731 2123.77 185.041 Q2121.99 183.351 2118.72 183.351 L2112.85 183.351 M2108.17 179.509 L2118.72 179.509 Q2124.54 179.509 2127.5 182.147 Q2130.48 184.763 2130.48 189.833 Q2130.48 194.948 2127.5 197.564 Q2124.54 200.18 2118.72 200.18 L2112.85 200.18 L2112.85 214.069 L2108.17 214.069 L2108.17 179.509 Z" fill="#000000" fill-rule="nonzero" fill-opacity="1" /><path clip-path="url(#clip180)" d="M2162.64 182.171 L2162.64 187.101 Q2160.28 184.902 2157.59 183.814 Q2154.93 182.726 2151.92 182.726 Q2145.99 182.726 2142.85 186.36 Q2139.7 189.972 2139.7 196.823 Q2139.7 203.652 2142.85 207.286 Q2145.99 210.897 2151.92 210.897 Q2154.93 210.897 2157.59 209.809 Q2160.28 208.721 2162.64 206.522 L2162.64 211.407 Q2160.18 213.073 2157.43 213.907 Q2154.7 214.74 2151.64 214.74 Q2143.79 214.74 2139.28 209.948 Q2134.77 205.133 2134.77 196.823 Q2134.77 188.49 2139.28 183.698 Q2143.79 178.884 2151.64 178.884 Q2154.74 178.884 2157.47 179.717 Q2160.23 180.527 2162.64 182.171 Z" fill="#000000" fill-rule="nonzero" fill-opacity="1" /><polyline clip-path="url(#clip180)" style="stroke:#3da44d; stroke-linecap:round; stroke-linejoin:round; stroke-width:4; stroke-opacity:1; fill:none" points="1692.53,248.629 1832.74,248.629 "/>
<path clip-path="url(#clip180)" d="M1872.5 249.705 Q1874 250.214 1875.42 251.881 Q1876.85 253.548 1878.29 256.464 L1883.03 265.909 L1878.01 265.909 L1873.59 257.043 Q1871.87 253.571 1870.25 252.436 Q1868.66 251.302 1865.88 251.302 L1860.79 251.302 L1860.79 265.909 L1856.11 265.909 L1856.11 231.349 L1866.67 231.349 Q1872.59 231.349 1875.51 233.825 Q1878.43 236.302 1878.43 241.302 Q1878.43 244.566 1876.9 246.719 Q1875.39 248.872 1872.5 249.705 M1860.79 235.191 L1860.79 247.46 L1866.67 247.46 Q1870.05 247.46 1871.76 245.909 Q1873.49 244.335 1873.49 241.302 Q1873.49 238.27 1871.76 236.742 Q1870.05 235.191 1866.67 235.191 L1860.79 235.191 Z" fill="#000000" fill-rule="nonzero" fill-opacity="1" /><path clip-path="url(#clip180)" d="M1896.78 242.969 Q1893.36 242.969 1891.37 245.654 Q1889.37 248.316 1889.37 252.969 Q1889.37 257.622 1891.34 260.307 Q1893.33 262.969 1896.78 262.969 Q1900.18 262.969 1902.18 260.284 Q1904.17 257.598 1904.17 252.969 Q1904.17 248.362 1902.18 245.677 Q1900.18 242.969 1896.78 242.969 M1896.78 239.358 Q1902.34 239.358 1905.51 242.969 Q1908.68 246.58 1908.68 252.969 Q1908.68 259.335 1905.51 262.969 Q1902.34 266.58 1896.78 266.58 Q1891.2 266.58 1888.03 262.969 Q1884.88 259.335 1884.88 252.969 Q1884.88 246.58 1888.03 242.969 Q1891.2 239.358 1896.78 239.358 Z" fill="#000000" fill-rule="nonzero" fill-opacity="1" /><path clip-path="url(#clip180)" d="M1934.35 252.969 Q1934.35 248.27 1932.41 245.608 Q1930.49 242.923 1927.11 242.923 Q1923.73 242.923 1921.78 245.608 Q1919.86 248.27 1919.86 252.969 Q1919.86 257.668 1921.78 260.353 Q1923.73 263.015 1927.11 263.015 Q1930.49 263.015 1932.41 260.353 Q1934.35 257.668 1934.35 252.969 M1919.86 243.918 Q1921.2 241.603 1923.24 240.492 Q1925.3 239.358 1928.15 239.358 Q1932.87 239.358 1935.81 243.108 Q1938.77 246.858 1938.77 252.969 Q1938.77 259.08 1935.81 262.83 Q1932.87 266.58 1928.15 266.58 Q1925.3 266.58 1923.24 265.469 Q1921.2 264.335 1919.86 262.02 L1919.86 265.909 L1915.58 265.909 L1915.58 229.89 L1919.86 229.89 L1919.86 243.918 Z" fill="#000000" fill-rule="nonzero" fill-opacity="1" /><path clip-path="url(#clip180)" d="M1945.39 255.677 L1945.39 239.983 L1949.65 239.983 L1949.65 255.515 Q1949.65 259.196 1951.09 261.048 Q1952.52 262.876 1955.39 262.876 Q1958.84 262.876 1960.83 260.677 Q1962.85 258.478 1962.85 254.682 L1962.85 239.983 L1967.11 239.983 L1967.11 265.909 L1962.85 265.909 L1962.85 261.927 Q1961.3 264.288 1959.24 265.446 Q1957.2 266.58 1954.49 266.58 Q1950.02 266.58 1947.71 263.802 Q1945.39 261.024 1945.39 255.677 M1956.11 239.358 L1956.11 239.358 Z" fill="#000000" fill-rule="nonzero" fill-opacity="1" /><path clip-path="url(#clip180)" d="M1992.41 240.747 L1992.41 244.774 Q1990.6 243.849 1988.66 243.386 Q1986.71 242.923 1984.63 242.923 Q1981.46 242.923 1979.86 243.895 Q1978.29 244.867 1978.29 246.811 Q1978.29 248.293 1979.42 249.149 Q1980.55 249.983 1983.98 250.747 L1985.44 251.071 Q1989.98 252.043 1991.87 253.825 Q1993.8 255.585 1993.8 258.756 Q1993.8 262.367 1990.92 264.473 Q1988.08 266.58 1983.08 266.58 Q1980.99 266.58 1978.73 266.163 Q1976.48 265.77 1973.98 264.96 L1973.98 260.561 Q1976.34 261.788 1978.63 262.413 Q1980.92 263.015 1983.17 263.015 Q1986.18 263.015 1987.8 261.997 Q1989.42 260.955 1989.42 259.08 Q1989.42 257.344 1988.24 256.418 Q1987.08 255.492 1983.12 254.636 L1981.64 254.288 Q1977.68 253.455 1975.92 251.742 Q1974.17 250.006 1974.17 246.997 Q1974.17 243.339 1976.76 241.349 Q1979.35 239.358 1984.12 239.358 Q1986.48 239.358 1988.56 239.705 Q1990.65 240.052 1992.41 240.747 Z" fill="#000000" fill-rule="nonzero" fill-opacity="1" /><path clip-path="url(#clip180)" d="M2004.79 232.622 L2004.79 239.983 L2013.56 239.983 L2013.56 243.293 L2004.79 243.293 L2004.79 257.367 Q2004.79 260.538 2005.65 261.441 Q2006.53 262.344 2009.19 262.344 L2013.56 262.344 L2013.56 265.909 L2009.19 265.909 Q2004.26 265.909 2002.38 264.08 Q2000.51 262.228 2000.51 257.367 L2000.51 243.293 L1997.38 243.293 L1997.38 239.983 L2000.51 239.983 L2000.51 232.622 L2004.79 232.622 Z" fill="#000000" fill-rule="nonzero" fill-opacity="1" /><path clip-path="url(#clip180)" d="M2034.42 231.349 L2041.39 231.349 L2050.21 254.867 L2059.07 231.349 L2066.04 231.349 L2066.04 265.909 L2061.48 265.909 L2061.48 235.562 L2052.57 259.265 L2047.87 259.265 L2038.96 235.562 L2038.96 265.909 L2034.42 265.909 L2034.42 231.349 Z" fill="#000000" fill-rule="nonzero" fill-opacity="1" /><path clip-path="url(#clip180)" d="M2080 235.191 L2080 248.177 L2085.88 248.177 Q2089.14 248.177 2090.92 246.487 Q2092.71 244.798 2092.71 241.673 Q2092.71 238.571 2090.92 236.881 Q2089.14 235.191 2085.88 235.191 L2080 235.191 M2075.32 231.349 L2085.88 231.349 Q2091.69 231.349 2094.65 233.987 Q2097.64 236.603 2097.64 241.673 Q2097.64 246.788 2094.65 249.404 Q2091.69 252.02 2085.88 252.02 L2080 252.02 L2080 265.909 L2075.32 265.909 L2075.32 231.349 Z" fill="#000000" fill-rule="nonzero" fill-opacity="1" /><path clip-path="url(#clip180)" d="M2129.79 234.011 L2129.79 238.941 Q2127.43 236.742 2124.74 235.654 Q2122.08 234.566 2119.07 234.566 Q2113.15 234.566 2110 238.2 Q2106.85 241.812 2106.85 248.663 Q2106.85 255.492 2110 259.126 Q2113.15 262.737 2119.07 262.737 Q2122.08 262.737 2124.74 261.649 Q2127.43 260.561 2129.79 258.362 L2129.79 263.247 Q2127.34 264.913 2124.58 265.747 Q2121.85 266.58 2118.79 266.58 Q2110.95 266.58 2106.43 261.788 Q2101.92 256.973 2101.92 248.663 Q2101.92 240.33 2106.43 235.538 Q2110.95 230.724 2118.79 230.724 Q2121.9 230.724 2124.63 231.557 Q2127.38 232.367 2129.79 234.011 Z" fill="#000000" fill-rule="nonzero" fill-opacity="1" /></svg>
