<?xml version="1.0" encoding="utf-8"?>
<svg xmlns="http://www.w3.org/2000/svg" xmlns:xlink="http://www.w3.org/1999/xlink" width="600" height="400" viewBox="0 0 2400 1600">
<defs>
  <clipPath id="clip800">
    <rect x="0" y="0" width="2400" height="1600"/>
  </clipPath>
</defs>
<path clip-path="url(#clip800)" d="M0 1600 L2400 1600 L2400 0 L0 0  Z" fill="#ffffff" fill-rule="evenodd" fill-opacity="1"/>
<defs>
  <clipPath id="clip801">
    <rect x="257" y="106" width="2096" height="1318"/>
  </clipPath>
</defs>
<path clip-path="url(#clip801)" d="M-425.903 964.098 L-425.903 634.852 L841.369 470.228 L3036.35 565.273 L3036.35 894.52 L1769.08 1059.14 L-425.903 964.098  Z" fill="#ffffff" fill-rule="evenodd" fill-opacity="1"/>
<polyline clip-path="url(#clip801)" style="stroke:#000000; stroke-linecap:round; stroke-linejoin:round; stroke-width:2; stroke-opacity:0.1; fill:none" points="895.634,1195.19 1275.82,865.946 1275.82,207.452 "/>
<polyline clip-path="url(#clip801)" style="stroke:#000000; stroke-linecap:round; stroke-linejoin:round; stroke-width:2; stroke-opacity:0.1; fill:none" points="1005.38,1226.87 1385.56,897.628 1385.56,239.134 "/>
<polyline clip-path="url(#clip801)" style="stroke:#000000; stroke-linecap:round; stroke-linejoin:round; stroke-width:2; stroke-opacity:0.1; fill:none" points="1115.13,1258.56 1495.31,929.309 1495.31,270.816 "/>
<polyline clip-path="url(#clip801)" style="stroke:#000000; stroke-linecap:round; stroke-linejoin:round; stroke-width:2; stroke-opacity:0.1; fill:none" points="1224.88,1290.24 1605.06,960.991 1605.06,302.497 "/>
<polyline clip-path="url(#clip801)" style="stroke:#000000; stroke-linecap:round; stroke-linejoin:round; stroke-width:2; stroke-opacity:0.1; fill:none" points="1334.63,1321.92 1714.81,992.673 1714.81,334.179 "/>
<polyline clip-path="url(#clip801)" style="stroke:#000000; stroke-linecap:round; stroke-linejoin:round; stroke-width:2; stroke-opacity:0.1; fill:none" points="1444.38,1353.6 785.885,1163.51 785.885,505.017 "/>
<polyline clip-path="url(#clip801)" style="stroke:#000000; stroke-linecap:round; stroke-linejoin:round; stroke-width:2; stroke-opacity:0.1; fill:none" points="1539.42,1271.29 880.931,1081.2 880.931,422.705 "/>
<polyline clip-path="url(#clip801)" style="stroke:#000000; stroke-linecap:round; stroke-linejoin:round; stroke-width:2; stroke-opacity:0.1; fill:none" points="1634.47,1188.98 975.976,998.888 975.976,340.394 "/>
<polyline clip-path="url(#clip801)" style="stroke:#000000; stroke-linecap:round; stroke-linejoin:round; stroke-width:2; stroke-opacity:0.1; fill:none" points="1729.52,1106.67 1071.02,916.576 1071.02,258.082 "/>
<polyline clip-path="url(#clip801)" style="stroke:#000000; stroke-linecap:round; stroke-linejoin:round; stroke-width:2; stroke-opacity:0.1; fill:none" points="1824.56,1024.35 1166.07,834.264 1166.07,175.77 "/>
<polyline clip-path="url(#clip801)" style="stroke:#000000; stroke-linecap:round; stroke-linejoin:round; stroke-width:2; stroke-opacity:0.1; fill:none" points="785.885,1097.66 1166.07,768.415 1824.56,958.505 "/>
<polyline clip-path="url(#clip801)" style="stroke:#000000; stroke-linecap:round; stroke-linejoin:round; stroke-width:2; stroke-opacity:0.1; fill:none" points="785.885,965.963 1166.07,636.716 1824.56,826.807 "/>
<polyline clip-path="url(#clip801)" style="stroke:#000000; stroke-linecap:round; stroke-linejoin:round; stroke-width:2; stroke-opacity:0.1; fill:none" points="785.885,834.264 1166.07,505.017 1824.56,695.108 "/>
<polyline clip-path="url(#clip801)" style="stroke:#000000; stroke-linecap:round; stroke-linejoin:round; stroke-width:2; stroke-opacity:0.1; fill:none" points="785.885,702.565 1166.07,373.318 1824.56,563.409 "/>
<polyline clip-path="url(#clip801)" style="stroke:#000000; stroke-linecap:round; stroke-linejoin:round; stroke-width:2; stroke-opacity:0.1; fill:none" points="785.885,570.867 1166.07,241.62 1824.56,431.71 "/>
<polyline clip-path="url(#clip800)" style="stroke:#000000; stroke-linecap:round; stroke-linejoin:round; stroke-width:4; stroke-opacity:1; fill:none" points="785.885,1163.51 1444.38,1353.6 "/>
<polyline clip-path="url(#clip800)" style="stroke:#000000; stroke-linecap:round; stroke-linejoin:round; stroke-width:4; stroke-opacity:1; fill:none" points="895.634,1195.19 900.196,1191.24 "/>
<polyline clip-path="url(#clip800)" style="stroke:#000000; stroke-linecap:round; stroke-linejoin:round; stroke-width:4; stroke-opacity:1; fill:none" points="1005.38,1226.87 1009.95,1222.92 "/>
<polyline clip-path="url(#clip800)" style="stroke:#000000; stroke-linecap:round; stroke-linejoin:round; stroke-width:4; stroke-opacity:1; fill:none" points="1115.13,1258.56 1119.69,1254.61 "/>
<polyline clip-path="url(#clip800)" style="stroke:#000000; stroke-linecap:round; stroke-linejoin:round; stroke-width:4; stroke-opacity:1; fill:none" points="1224.88,1290.24 1229.44,1286.29 "/>
<polyline clip-path="url(#clip800)" style="stroke:#000000; stroke-linecap:round; stroke-linejoin:round; stroke-width:4; stroke-opacity:1; fill:none" points="1334.63,1321.92 1339.19,1317.97 "/>
<path clip-path="url(#clip800)" d="M789.042 1224.42 L818.717 1224.42 L818.717 1228.35 L789.042 1228.35 L789.042 1224.42 Z" fill="#000000" fill-rule="nonzero" fill-opacity="1" /><path clip-path="url(#clip800)" d="M838.81 1209.76 Q835.199 1209.76 833.37 1213.33 Q831.565 1216.87 831.565 1224 Q831.565 1231.11 833.37 1234.67 Q835.199 1238.21 838.81 1238.21 Q842.444 1238.21 844.25 1234.67 Q846.078 1231.11 846.078 1224 Q846.078 1216.87 844.25 1213.33 Q842.444 1209.76 838.81 1209.76 M838.81 1206.06 Q844.62 1206.06 847.676 1210.67 Q850.754 1215.25 850.754 1224 Q850.754 1232.73 847.676 1237.33 Q844.62 1241.92 838.81 1241.92 Q833 1241.92 829.921 1237.33 Q826.866 1232.73 826.866 1224 Q826.866 1215.25 829.921 1210.67 Q833 1206.06 838.81 1206.06 Z" fill="#000000" fill-rule="nonzero" fill-opacity="1" /><path clip-path="url(#clip800)" d="M858.972 1235.37 L863.856 1235.37 L863.856 1241.25 L858.972 1241.25 L858.972 1235.37 Z" fill="#000000" fill-rule="nonzero" fill-opacity="1" /><path clip-path="url(#clip800)" d="M878.069 1237.31 L894.388 1237.31 L894.388 1241.25 L872.444 1241.25 L872.444 1237.31 Q875.106 1234.56 879.689 1229.93 Q884.296 1225.27 885.476 1223.93 Q887.722 1221.41 888.601 1219.67 Q889.504 1217.91 889.504 1216.22 Q889.504 1213.47 887.56 1211.73 Q885.638 1210 882.537 1210 Q880.338 1210 877.884 1210.76 Q875.453 1211.52 872.676 1213.07 L872.676 1208.35 Q875.5 1207.22 877.953 1206.64 Q880.407 1206.06 882.444 1206.06 Q887.814 1206.06 891.009 1208.75 Q894.203 1211.43 894.203 1215.92 Q894.203 1218.05 893.393 1219.97 Q892.606 1221.87 890.499 1224.46 Q889.921 1225.13 886.819 1228.35 Q883.717 1231.55 878.069 1237.31 Z" fill="#000000" fill-rule="nonzero" fill-opacity="1" /><path clip-path="url(#clip800)" d="M898.42 1256.1 L928.096 1256.1 L928.096 1260.03 L898.42 1260.03 L898.42 1256.1 Z" fill="#000000" fill-rule="nonzero" fill-opacity="1" /><path clip-path="url(#clip800)" d="M948.189 1241.45 Q944.577 1241.45 942.749 1245.01 Q940.943 1248.55 940.943 1255.68 Q940.943 1262.79 942.749 1266.35 Q944.577 1269.9 948.189 1269.9 Q951.823 1269.9 953.628 1266.35 Q955.457 1262.79 955.457 1255.68 Q955.457 1248.55 953.628 1245.01 Q951.823 1241.45 948.189 1241.45 M948.189 1237.74 Q953.999 1237.74 957.054 1242.35 Q960.133 1246.93 960.133 1255.68 Q960.133 1264.41 957.054 1269.02 Q953.999 1273.6 948.189 1273.6 Q942.378 1273.6 939.3 1269.02 Q936.244 1264.41 936.244 1255.68 Q936.244 1246.93 939.3 1242.35 Q942.378 1237.74 948.189 1237.74 Z" fill="#000000" fill-rule="nonzero" fill-opacity="1" /><path clip-path="url(#clip800)" d="M968.35 1267.05 L973.235 1267.05 L973.235 1272.93 L968.35 1272.93 L968.35 1267.05 Z" fill="#000000" fill-rule="nonzero" fill-opacity="1" /><path clip-path="url(#clip800)" d="M984.23 1268.99 L991.869 1268.99 L991.869 1242.63 L983.559 1244.29 L983.559 1240.03 L991.823 1238.37 L996.498 1238.37 L996.498 1268.99 L1004.14 1268.99 L1004.14 1272.93 L984.23 1272.93 L984.23 1268.99 Z" fill="#000000" fill-rule="nonzero" fill-opacity="1" /><path clip-path="url(#clip800)" d="M1056.71 1273.13 Q1053.1 1273.13 1051.27 1276.69 Q1049.47 1280.23 1049.47 1287.36 Q1049.47 1294.47 1051.27 1298.04 Q1053.1 1301.58 1056.71 1301.58 Q1060.34 1301.58 1062.15 1298.04 Q1063.98 1294.47 1063.98 1287.36 Q1063.98 1280.23 1062.15 1276.69 Q1060.34 1273.13 1056.71 1273.13 M1056.71 1269.42 Q1062.52 1269.42 1065.58 1274.03 Q1068.66 1278.61 1068.66 1287.36 Q1068.66 1296.09 1065.58 1300.7 Q1062.52 1305.28 1056.71 1305.28 Q1050.9 1305.28 1047.82 1300.7 Q1044.77 1296.09 1044.77 1287.36 Q1044.77 1278.61 1047.82 1274.03 Q1050.9 1269.42 1056.71 1269.42 Z" fill="#000000" fill-rule="nonzero" fill-opacity="1" /><path clip-path="url(#clip800)" d="M1076.87 1298.73 L1081.76 1298.73 L1081.76 1304.61 L1076.87 1304.61 L1076.87 1298.73 Z" fill="#000000" fill-rule="nonzero" fill-opacity="1" /><path clip-path="url(#clip800)" d="M1101.94 1273.13 Q1098.33 1273.13 1096.5 1276.69 Q1094.7 1280.23 1094.7 1287.36 Q1094.7 1294.47 1096.5 1298.04 Q1098.33 1301.58 1101.94 1301.58 Q1105.58 1301.58 1107.38 1298.04 Q1109.21 1294.47 1109.21 1287.36 Q1109.21 1280.23 1107.38 1276.69 Q1105.58 1273.13 1101.94 1273.13 M1101.94 1269.42 Q1107.75 1269.42 1110.81 1274.03 Q1113.89 1278.61 1113.89 1287.36 Q1113.89 1296.09 1110.81 1300.7 Q1107.75 1305.28 1101.94 1305.28 Q1096.13 1305.28 1093.05 1300.7 Q1090 1296.09 1090 1287.36 Q1090 1278.61 1093.05 1274.03 Q1096.13 1269.42 1101.94 1269.42 Z" fill="#000000" fill-rule="nonzero" fill-opacity="1" /><path clip-path="url(#clip800)" d="M1167.69 1304.81 Q1164.08 1304.81 1162.25 1308.37 Q1160.44 1311.92 1160.44 1319.05 Q1160.44 1326.15 1162.25 1329.72 Q1164.08 1333.26 1167.69 1333.26 Q1171.32 1333.26 1173.13 1329.72 Q1174.95 1326.15 1174.95 1319.05 Q1174.95 1311.92 1173.13 1308.37 Q1171.32 1304.81 1167.69 1304.81 M1167.69 1301.11 Q1173.5 1301.11 1176.55 1305.71 Q1179.63 1310.3 1179.63 1319.05 Q1179.63 1327.77 1176.55 1332.38 Q1173.5 1336.96 1167.69 1336.96 Q1161.88 1336.96 1158.8 1332.38 Q1155.74 1327.77 1155.74 1319.05 Q1155.74 1310.3 1158.8 1305.71 Q1161.88 1301.11 1167.69 1301.11 Z" fill="#000000" fill-rule="nonzero" fill-opacity="1" /><path clip-path="url(#clip800)" d="M1187.85 1330.41 L1192.73 1330.41 L1192.73 1336.29 L1187.85 1336.29 L1187.85 1330.41 Z" fill="#000000" fill-rule="nonzero" fill-opacity="1" /><path clip-path="url(#clip800)" d="M1203.73 1332.36 L1211.37 1332.36 L1211.37 1305.99 L1203.06 1307.66 L1203.06 1303.4 L1211.32 1301.73 L1216 1301.73 L1216 1332.36 L1223.64 1332.36 L1223.64 1336.29 L1203.73 1336.29 L1203.73 1332.36 Z" fill="#000000" fill-rule="nonzero" fill-opacity="1" /><path clip-path="url(#clip800)" d="M1277.81 1336.49 Q1274.19 1336.49 1272.37 1340.06 Q1270.56 1343.6 1270.56 1350.73 Q1270.56 1357.83 1272.37 1361.4 Q1274.19 1364.94 1277.81 1364.94 Q1281.44 1364.94 1283.25 1361.4 Q1285.07 1357.83 1285.07 1350.73 Q1285.07 1343.6 1283.25 1340.06 Q1281.44 1336.49 1277.81 1336.49 M1277.81 1332.79 Q1283.62 1332.79 1286.67 1337.39 Q1289.75 1341.98 1289.75 1350.73 Q1289.75 1359.45 1286.67 1364.06 Q1283.62 1368.64 1277.81 1368.64 Q1272 1368.64 1268.92 1364.06 Q1265.86 1359.45 1265.86 1350.73 Q1265.86 1341.98 1268.92 1337.39 Q1272 1332.79 1277.81 1332.79 Z" fill="#000000" fill-rule="nonzero" fill-opacity="1" /><path clip-path="url(#clip800)" d="M1297.97 1362.09 L1302.85 1362.09 L1302.85 1367.97 L1297.97 1367.97 L1297.97 1362.09 Z" fill="#000000" fill-rule="nonzero" fill-opacity="1" /><path clip-path="url(#clip800)" d="M1317.06 1364.04 L1333.38 1364.04 L1333.38 1367.97 L1311.44 1367.97 L1311.44 1364.04 Q1314.1 1361.28 1318.69 1356.65 Q1323.29 1352 1324.47 1350.66 Q1326.72 1348.14 1327.6 1346.4 Q1328.5 1344.64 1328.5 1342.95 Q1328.5 1340.2 1326.56 1338.46 Q1324.63 1336.72 1321.53 1336.72 Q1319.33 1336.72 1316.88 1337.49 Q1314.45 1338.25 1311.67 1339.8 L1311.67 1335.08 Q1314.5 1333.95 1316.95 1333.37 Q1319.4 1332.79 1321.44 1332.79 Q1326.81 1332.79 1330 1335.47 Q1333.2 1338.16 1333.2 1342.65 Q1333.2 1344.78 1332.39 1346.7 Q1331.6 1348.6 1329.5 1351.19 Q1328.92 1351.86 1325.81 1355.08 Q1322.71 1358.27 1317.06 1364.04 Z" fill="#000000" fill-rule="nonzero" fill-opacity="1" /><path clip-path="url(#clip800)" d="M990.124 1404.58 Q990.124 1406.38 988.997 1407.41 Q987.87 1408.41 986.582 1408.41 Q985.358 1408.41 984.714 1407.7 Q984.069 1406.99 984.069 1406.09 Q984.069 1404.87 984.971 1403.8 Q985.873 1402.74 987.226 1402.52 Q985.905 1401.68 983.941 1401.68 Q982.652 1401.68 981.525 1402.36 Q980.43 1403.03 979.754 1403.9 Q979.11 1404.77 978.53 1406.03 Q977.983 1407.25 977.757 1407.99 Q977.564 1408.7 977.403 1409.47 L975.148 1418.49 Q974.053 1422.77 974.053 1424.29 Q974.053 1426.16 974.955 1427.41 Q975.857 1428.64 977.66 1428.64 Q978.369 1428.64 979.174 1428.44 Q979.979 1428.22 981.01 1427.64 Q982.073 1427.03 983.007 1426.12 Q983.973 1425.19 984.907 1423.61 Q985.841 1422.03 986.453 1420 Q986.646 1419.3 987.29 1419.3 Q988.095 1419.3 988.095 1419.94 Q988.095 1420.49 987.644 1421.65 Q987.226 1422.77 986.292 1424.26 Q985.39 1425.7 984.198 1427.03 Q983.007 1428.31 981.235 1429.22 Q979.464 1430.12 977.532 1430.12 Q974.762 1430.12 972.926 1428.64 Q971.09 1427.15 970.414 1425.09 Q970.253 1425.38 970.028 1425.77 Q969.802 1426.16 969.126 1427.03 Q968.482 1427.86 967.741 1428.51 Q967 1429.12 965.841 1429.6 Q964.714 1430.12 963.49 1430.12 Q961.944 1430.12 960.559 1429.67 Q959.207 1429.22 958.24 1428.18 Q957.274 1427.15 957.274 1425.74 Q957.274 1424.16 958.337 1423.06 Q959.432 1421.94 960.913 1421.94 Q961.847 1421.94 962.588 1422.48 Q963.361 1423.03 963.361 1424.22 Q963.361 1425.54 962.459 1426.54 Q961.558 1427.54 960.269 1427.8 Q961.59 1428.64 963.554 1428.64 Q965.68 1428.64 967.355 1426.77 Q969.029 1424.9 969.834 1421.78 Q971.831 1414.27 972.604 1410.92 Q973.377 1407.54 973.377 1406.09 Q973.377 1404.74 973.023 1403.8 Q972.669 1402.87 972.057 1402.45 Q971.477 1402 970.929 1401.84 Q970.414 1401.68 969.834 1401.68 Q968.868 1401.68 967.773 1402.07 Q966.71 1402.45 965.422 1403.35 Q964.166 1404.22 962.975 1406.03 Q961.783 1407.83 960.978 1410.31 Q960.817 1411.05 960.108 1411.05 Q959.335 1411.02 959.335 1410.37 Q959.335 1409.83 959.754 1408.7 Q960.205 1407.54 961.107 1406.09 Q962.041 1404.64 963.232 1403.35 Q964.456 1402.03 966.227 1401.13 Q968.031 1400.23 969.963 1400.23 Q970.833 1400.23 971.67 1400.42 Q972.54 1400.58 973.57 1401.07 Q974.633 1401.55 975.567 1402.61 Q976.501 1403.68 977.081 1405.22 Q977.467 1404.48 977.983 1403.77 Q978.53 1403.06 979.367 1402.19 Q980.237 1401.29 981.429 1400.78 Q982.652 1400.23 984.005 1400.23 Q985.325 1400.23 986.614 1400.58 Q987.902 1400.91 988.997 1401.97 Q990.124 1403 990.124 1404.58 Z" fill="#000000" fill-rule="nonzero" fill-opacity="1" /><path clip-path="url(#clip800)" d="M996.845 1422.03 L996.845 1420.59 Q1002.39 1420.59 1005.25 1417.64 Q1006.04 1417.64 1006.18 1417.82 Q1006.31 1418 1006.31 1418.83 L1006.31 1444.74 Q1006.31 1446.11 1006.99 1446.54 Q1007.67 1446.97 1010.62 1446.97 L1012.09 1446.97 L1012.09 1448.39 Q1010.46 1448.25 1004.6 1448.25 Q998.739 1448.25 997.138 1448.39 L997.138 1446.97 L998.604 1446.97 Q1001.51 1446.97 1002.21 1446.56 Q1002.91 1446.13 1002.91 1444.74 L1002.91 1420.82 Q1000.5 1422.03 996.845 1422.03 Z" fill="#000000" fill-rule="nonzero" fill-opacity="1" /><polyline clip-path="url(#clip800)" style="stroke:#000000; stroke-linecap:round; stroke-linejoin:round; stroke-width:4; stroke-opacity:1; fill:none" points="1444.38,1353.6 1824.56,1024.35 "/>
<polyline clip-path="url(#clip800)" style="stroke:#000000; stroke-linecap:round; stroke-linejoin:round; stroke-width:4; stroke-opacity:1; fill:none" points="1444.38,1353.6 1436.48,1351.32 "/>
<polyline clip-path="url(#clip800)" style="stroke:#000000; stroke-linecap:round; stroke-linejoin:round; stroke-width:4; stroke-opacity:1; fill:none" points="1539.42,1271.29 1531.52,1269.01 "/>
<polyline clip-path="url(#clip800)" style="stroke:#000000; stroke-linecap:round; stroke-linejoin:round; stroke-width:4; stroke-opacity:1; fill:none" points="1634.47,1188.98 1626.57,1186.7 "/>
<polyline clip-path="url(#clip800)" style="stroke:#000000; stroke-linecap:round; stroke-linejoin:round; stroke-width:4; stroke-opacity:1; fill:none" points="1729.52,1106.67 1721.61,1104.39 "/>
<polyline clip-path="url(#clip800)" style="stroke:#000000; stroke-linecap:round; stroke-linejoin:round; stroke-width:4; stroke-opacity:1; fill:none" points="1824.56,1024.35 1816.66,1022.07 "/>
<path clip-path="url(#clip800)" d="M1448.09 1382.61 L1477.76 1382.61 L1477.76 1386.55 L1448.09 1386.55 L1448.09 1382.61 Z" fill="#000000" fill-rule="nonzero" fill-opacity="1" /><path clip-path="url(#clip800)" d="M1491.89 1395.51 L1508.2 1395.51 L1508.2 1399.44 L1486.26 1399.44 L1486.26 1395.51 Q1488.92 1392.75 1493.51 1388.12 Q1498.11 1383.47 1499.29 1382.13 Q1501.54 1379.6 1502.42 1377.87 Q1503.32 1376.11 1503.32 1374.42 Q1503.32 1371.66 1501.38 1369.93 Q1499.45 1368.19 1496.35 1368.19 Q1494.15 1368.19 1491.7 1368.96 Q1489.27 1369.72 1486.49 1371.27 L1486.49 1366.55 Q1489.32 1365.41 1491.77 1364.84 Q1494.22 1364.26 1496.26 1364.26 Q1501.63 1364.26 1504.83 1366.94 Q1508.02 1369.63 1508.02 1374.12 Q1508.02 1376.25 1507.21 1378.17 Q1506.42 1380.07 1504.32 1382.66 Q1503.74 1383.33 1500.64 1386.55 Q1497.53 1389.74 1491.89 1395.51 Z" fill="#000000" fill-rule="nonzero" fill-opacity="1" /><path clip-path="url(#clip800)" d="M1543.13 1300.3 L1572.81 1300.3 L1572.81 1304.24 L1543.13 1304.24 L1543.13 1300.3 Z" fill="#000000" fill-rule="nonzero" fill-opacity="1" /><path clip-path="url(#clip800)" d="M1583.71 1313.19 L1591.35 1313.19 L1591.35 1286.83 L1583.04 1288.5 L1583.04 1284.24 L1591.31 1282.57 L1595.98 1282.57 L1595.98 1313.19 L1603.62 1313.19 L1603.62 1317.13 L1583.71 1317.13 L1583.71 1313.19 Z" fill="#000000" fill-rule="nonzero" fill-opacity="1" /><path clip-path="url(#clip800)" d="M1650.12 1203.34 Q1646.51 1203.34 1644.68 1206.9 Q1642.88 1210.44 1642.88 1217.57 Q1642.88 1224.68 1644.68 1228.24 Q1646.51 1231.79 1650.12 1231.79 Q1653.76 1231.79 1655.56 1228.24 Q1657.39 1224.68 1657.39 1217.57 Q1657.39 1210.44 1655.56 1206.9 Q1653.76 1203.34 1650.12 1203.34 M1650.12 1199.63 Q1655.93 1199.63 1658.99 1204.24 Q1662.07 1208.82 1662.07 1217.57 Q1662.07 1226.3 1658.99 1230.91 Q1655.93 1235.49 1650.12 1235.49 Q1644.31 1235.49 1641.24 1230.91 Q1638.18 1226.3 1638.18 1217.57 Q1638.18 1208.82 1641.24 1204.24 Q1644.31 1199.63 1650.12 1199.63 Z" fill="#000000" fill-rule="nonzero" fill-opacity="1" /><path clip-path="url(#clip800)" d="M1733.9 1148.57 L1741.54 1148.57 L1741.54 1122.21 L1733.23 1123.87 L1733.23 1119.61 L1741.49 1117.95 L1746.17 1117.95 L1746.17 1148.57 L1753.8 1148.57 L1753.8 1152.51 L1733.9 1152.51 L1733.9 1148.57 Z" fill="#000000" fill-rule="nonzero" fill-opacity="1" /><path clip-path="url(#clip800)" d="M1833.9 1066.26 L1850.22 1066.26 L1850.22 1070.19 L1828.27 1070.19 L1828.27 1066.26 Q1830.93 1063.51 1835.52 1058.88 Q1840.12 1054.22 1841.3 1052.88 Q1843.55 1050.36 1844.43 1048.62 Q1845.33 1046.86 1845.33 1045.17 Q1845.33 1042.42 1843.39 1040.68 Q1841.47 1038.95 1838.36 1038.95 Q1836.16 1038.95 1833.71 1039.71 Q1831.28 1040.47 1828.5 1042.02 L1828.5 1037.3 Q1831.33 1036.17 1833.78 1035.59 Q1836.23 1035.01 1838.27 1035.01 Q1843.64 1035.01 1846.84 1037.7 Q1850.03 1040.38 1850.03 1044.87 Q1850.03 1047 1849.22 1048.92 Q1848.43 1050.82 1846.33 1053.41 Q1845.75 1054.08 1842.65 1057.3 Q1839.54 1060.5 1833.9 1066.26 Z" fill="#000000" fill-rule="nonzero" fill-opacity="1" /><path clip-path="url(#clip800)" d="M1755.7 1335 Q1755.7 1336.8 1754.57 1337.83 Q1753.45 1338.83 1752.16 1338.83 Q1750.94 1338.83 1750.29 1338.12 Q1749.65 1337.42 1749.65 1336.51 Q1749.65 1335.29 1750.55 1334.23 Q1751.45 1333.16 1752.8 1332.94 Q1751.48 1332.1 1749.52 1332.1 Q1748.23 1332.1 1747.1 1332.78 Q1746.01 1333.45 1745.33 1334.32 Q1744.69 1335.19 1744.11 1336.45 Q1743.56 1337.67 1743.33 1338.41 Q1743.14 1339.12 1742.98 1339.9 L1740.73 1348.91 Q1739.63 1353.2 1739.63 1354.71 Q1739.63 1356.58 1740.53 1357.83 Q1741.43 1359.06 1743.24 1359.06 Q1743.95 1359.06 1744.75 1358.86 Q1745.56 1358.64 1746.59 1358.06 Q1747.65 1357.45 1748.58 1356.55 Q1749.55 1355.61 1750.48 1354.03 Q1751.42 1352.46 1752.03 1350.43 Q1752.22 1349.72 1752.87 1349.72 Q1753.67 1349.72 1753.67 1350.36 Q1753.67 1350.91 1753.22 1352.07 Q1752.8 1353.2 1751.87 1354.68 Q1750.97 1356.13 1749.78 1357.45 Q1748.58 1358.74 1746.81 1359.64 Q1745.04 1360.54 1743.11 1360.54 Q1740.34 1360.54 1738.5 1359.06 Q1736.67 1357.58 1735.99 1355.51 Q1735.83 1355.8 1735.61 1356.19 Q1735.38 1356.58 1734.7 1357.45 Q1734.06 1358.28 1733.32 1358.93 Q1732.58 1359.54 1731.42 1360.02 Q1730.29 1360.54 1729.07 1360.54 Q1727.52 1360.54 1726.14 1360.09 Q1724.78 1359.64 1723.82 1358.61 Q1722.85 1357.58 1722.85 1356.16 Q1722.85 1354.58 1723.91 1353.49 Q1725.01 1352.36 1726.49 1352.36 Q1727.43 1352.36 1728.17 1352.91 Q1728.94 1353.45 1728.94 1354.65 Q1728.94 1355.97 1728.04 1356.96 Q1727.14 1357.96 1725.85 1358.22 Q1727.17 1359.06 1729.13 1359.06 Q1731.26 1359.06 1732.93 1357.19 Q1734.61 1355.32 1735.41 1352.2 Q1737.41 1344.69 1738.18 1341.34 Q1738.95 1337.96 1738.95 1336.51 Q1738.95 1335.16 1738.6 1334.23 Q1738.25 1333.29 1737.63 1332.87 Q1737.05 1332.42 1736.51 1332.26 Q1735.99 1332.1 1735.41 1332.1 Q1734.45 1332.1 1733.35 1332.49 Q1732.29 1332.87 1731 1333.78 Q1729.74 1334.65 1728.55 1336.45 Q1727.36 1338.25 1726.56 1340.73 Q1726.39 1341.47 1725.69 1341.47 Q1724.91 1341.44 1724.91 1340.8 Q1724.91 1340.25 1725.33 1339.12 Q1725.78 1337.96 1726.68 1336.51 Q1727.62 1335.06 1728.81 1333.78 Q1730.03 1332.46 1731.81 1331.55 Q1733.61 1330.65 1735.54 1330.65 Q1736.41 1330.65 1737.25 1330.85 Q1738.12 1331.01 1739.15 1331.49 Q1740.21 1331.97 1741.14 1333.04 Q1742.08 1334.1 1742.66 1335.64 Q1743.04 1334.9 1743.56 1334.19 Q1744.11 1333.49 1744.95 1332.62 Q1745.81 1331.71 1747.01 1331.2 Q1748.23 1330.65 1749.58 1330.65 Q1750.9 1330.65 1752.19 1331.01 Q1753.48 1331.33 1754.57 1332.39 Q1755.7 1333.42 1755.7 1335 Z" fill="#000000" fill-rule="nonzero" fill-opacity="1" /><path clip-path="url(#clip800)" d="M1762.42 1378.81 Q1762.42 1377.98 1762.49 1377.73 Q1762.58 1377.48 1762.94 1377.1 L1771.8 1367.22 Q1776.65 1361.77 1776.65 1357.01 Q1776.65 1353.92 1775.03 1351.71 Q1773.42 1349.5 1770.47 1349.5 Q1768.44 1349.5 1766.73 1350.74 Q1765.02 1351.98 1764.23 1354.19 Q1764.36 1354.15 1764.84 1354.15 Q1765.99 1354.15 1766.62 1354.87 Q1767.27 1355.59 1767.27 1356.56 Q1767.27 1357.8 1766.46 1358.41 Q1765.67 1358.99 1764.88 1358.99 Q1764.56 1358.99 1764.14 1358.93 Q1763.73 1358.86 1763.08 1358.23 Q1762.42 1357.57 1762.42 1356.42 Q1762.42 1353.2 1764.86 1350.63 Q1767.32 1348.06 1771.06 1348.06 Q1775.3 1348.06 1778.07 1350.58 Q1780.86 1353.09 1780.86 1357.01 Q1780.86 1358.38 1780.44 1359.65 Q1780.03 1360.89 1779.47 1361.86 Q1778.93 1362.83 1777.44 1364.38 Q1775.95 1365.94 1774.75 1367.04 Q1773.56 1368.15 1770.88 1370.49 L1765.99 1375.25 L1774.3 1375.25 Q1778.36 1375.25 1778.68 1374.89 Q1779.13 1374.23 1779.69 1370.78 L1780.86 1370.78 L1779.56 1378.81 L1762.42 1378.81 Z" fill="#000000" fill-rule="nonzero" fill-opacity="1" /><polyline clip-path="url(#clip800)" style="stroke:#000000; stroke-linecap:round; stroke-linejoin:round; stroke-width:4; stroke-opacity:1; fill:none" points="785.885,1163.51 785.885,505.017 "/>
<polyline clip-path="url(#clip800)" style="stroke:#000000; stroke-linecap:round; stroke-linejoin:round; stroke-width:4; stroke-opacity:1; fill:none" points="785.885,1097.66 790.447,1093.71 "/>
<polyline clip-path="url(#clip800)" style="stroke:#000000; stroke-linecap:round; stroke-linejoin:round; stroke-width:4; stroke-opacity:1; fill:none" points="785.885,965.963 790.447,962.012 "/>
<polyline clip-path="url(#clip800)" style="stroke:#000000; stroke-linecap:round; stroke-linejoin:round; stroke-width:4; stroke-opacity:1; fill:none" points="785.885,834.264 790.447,830.313 "/>
<polyline clip-path="url(#clip800)" style="stroke:#000000; stroke-linecap:round; stroke-linejoin:round; stroke-width:4; stroke-opacity:1; fill:none" points="785.885,702.565 790.447,698.614 "/>
<polyline clip-path="url(#clip800)" style="stroke:#000000; stroke-linecap:round; stroke-linejoin:round; stroke-width:4; stroke-opacity:1; fill:none" points="785.885,570.867 790.447,566.916 "/>
<path clip-path="url(#clip800)" d="M649.655 1098.11 L679.331 1098.11 L679.331 1102.05 L649.655 1102.05 L649.655 1098.11 Z" fill="#000000" fill-rule="nonzero" fill-opacity="1" /><path clip-path="url(#clip800)" d="M699.424 1083.46 Q695.812 1083.46 693.984 1087.03 Q692.178 1090.57 692.178 1097.7 Q692.178 1104.8 693.984 1108.37 Q695.812 1111.91 699.424 1111.91 Q703.058 1111.91 704.863 1108.37 Q706.692 1104.8 706.692 1097.7 Q706.692 1090.57 704.863 1087.03 Q703.058 1083.46 699.424 1083.46 M699.424 1079.76 Q705.234 1079.76 708.289 1084.36 Q711.368 1088.95 711.368 1097.7 Q711.368 1106.42 708.289 1111.03 Q705.234 1115.61 699.424 1115.61 Q693.613 1115.61 690.535 1111.03 Q687.479 1106.42 687.479 1097.7 Q687.479 1088.95 690.535 1084.36 Q693.613 1079.76 699.424 1079.76 Z" fill="#000000" fill-rule="nonzero" fill-opacity="1" /><path clip-path="url(#clip800)" d="M719.585 1109.06 L724.47 1109.06 L724.47 1114.94 L719.585 1114.94 L719.585 1109.06 Z" fill="#000000" fill-rule="nonzero" fill-opacity="1" /><path clip-path="url(#clip800)" d="M747.502 1084.46 L735.697 1102.9 L747.502 1102.9 L747.502 1084.46 M746.275 1080.38 L752.155 1080.38 L752.155 1102.9 L757.085 1102.9 L757.085 1106.79 L752.155 1106.79 L752.155 1114.94 L747.502 1114.94 L747.502 1106.79 L731.9 1106.79 L731.9 1102.28 L746.275 1080.38 Z" fill="#000000" fill-rule="nonzero" fill-opacity="1" /><path clip-path="url(#clip800)" d="M651.739 966.414 L681.414 966.414 L681.414 970.349 L651.739 970.349 L651.739 966.414 Z" fill="#000000" fill-rule="nonzero" fill-opacity="1" /><path clip-path="url(#clip800)" d="M701.507 951.762 Q697.896 951.762 696.067 955.326 Q694.262 958.868 694.262 965.998 Q694.262 973.104 696.067 976.669 Q697.896 980.21 701.507 980.21 Q705.141 980.21 706.947 976.669 Q708.775 973.104 708.775 965.998 Q708.775 958.868 706.947 955.326 Q705.141 951.762 701.507 951.762 M701.507 948.058 Q707.317 948.058 710.373 952.664 Q713.451 957.248 713.451 965.998 Q713.451 974.724 710.373 979.331 Q707.317 983.914 701.507 983.914 Q695.697 983.914 692.618 979.331 Q689.563 974.724 689.563 965.998 Q689.563 957.248 692.618 952.664 Q695.697 948.058 701.507 948.058 Z" fill="#000000" fill-rule="nonzero" fill-opacity="1" /><path clip-path="url(#clip800)" d="M721.669 977.363 L726.553 977.363 L726.553 983.243 L721.669 983.243 L721.669 977.363 Z" fill="#000000" fill-rule="nonzero" fill-opacity="1" /><path clip-path="url(#clip800)" d="M740.766 979.308 L757.085 979.308 L757.085 983.243 L735.141 983.243 L735.141 979.308 Q737.803 976.553 742.386 971.923 Q746.993 967.271 748.173 965.928 Q750.419 963.405 751.298 961.669 Q752.201 959.91 752.201 958.22 Q752.201 955.465 750.257 953.729 Q748.335 951.993 745.234 951.993 Q743.034 951.993 740.581 952.757 Q738.15 953.521 735.372 955.072 L735.372 950.349 Q738.197 949.215 740.65 948.637 Q743.104 948.058 745.141 948.058 Q750.511 948.058 753.706 950.743 Q756.9 953.428 756.9 957.919 Q756.9 960.048 756.09 961.97 Q755.303 963.868 753.196 966.461 Q752.618 967.132 749.516 970.349 Q746.414 973.544 740.766 979.308 Z" fill="#000000" fill-rule="nonzero" fill-opacity="1" /><path clip-path="url(#clip800)" d="M699.91 820.063 Q696.299 820.063 694.47 823.628 Q692.664 827.169 692.664 834.299 Q692.664 841.405 694.47 844.97 Q696.299 848.512 699.91 848.512 Q703.544 848.512 705.349 844.97 Q707.178 841.405 707.178 834.299 Q707.178 827.169 705.349 823.628 Q703.544 820.063 699.91 820.063 M699.91 816.359 Q705.72 816.359 708.775 820.966 Q711.854 825.549 711.854 834.299 Q711.854 843.026 708.775 847.632 Q705.72 852.215 699.91 852.215 Q694.1 852.215 691.021 847.632 Q687.965 843.026 687.965 834.299 Q687.965 825.549 691.021 820.966 Q694.1 816.359 699.91 816.359 Z" fill="#000000" fill-rule="nonzero" fill-opacity="1" /><path clip-path="url(#clip800)" d="M720.072 845.664 L724.956 845.664 L724.956 851.544 L720.072 851.544 L720.072 845.664 Z" fill="#000000" fill-rule="nonzero" fill-opacity="1" /><path clip-path="url(#clip800)" d="M745.141 820.063 Q741.53 820.063 739.701 823.628 Q737.896 827.169 737.896 834.299 Q737.896 841.405 739.701 844.97 Q741.53 848.512 745.141 848.512 Q748.775 848.512 750.581 844.97 Q752.409 841.405 752.409 834.299 Q752.409 827.169 750.581 823.628 Q748.775 820.063 745.141 820.063 M745.141 816.359 Q750.951 816.359 754.007 820.966 Q757.085 825.549 757.085 834.299 Q757.085 843.026 754.007 847.632 Q750.951 852.215 745.141 852.215 Q739.331 852.215 736.252 847.632 Q733.197 843.026 733.197 834.299 Q733.197 825.549 736.252 820.966 Q739.331 816.359 745.141 816.359 Z" fill="#000000" fill-rule="nonzero" fill-opacity="1" /><path clip-path="url(#clip800)" d="M701.507 688.364 Q697.896 688.364 696.067 691.929 Q694.262 695.47 694.262 702.6 Q694.262 709.706 696.067 713.271 Q697.896 716.813 701.507 716.813 Q705.141 716.813 706.947 713.271 Q708.775 709.706 708.775 702.6 Q708.775 695.47 706.947 691.929 Q705.141 688.364 701.507 688.364 M701.507 684.66 Q707.317 684.66 710.373 689.267 Q713.451 693.85 713.451 702.6 Q713.451 711.327 710.373 715.933 Q707.317 720.517 701.507 720.517 Q695.697 720.517 692.618 715.933 Q689.563 711.327 689.563 702.6 Q689.563 693.85 692.618 689.267 Q695.697 684.66 701.507 684.66 Z" fill="#000000" fill-rule="nonzero" fill-opacity="1" /><path clip-path="url(#clip800)" d="M721.669 713.966 L726.553 713.966 L726.553 719.845 L721.669 719.845 L721.669 713.966 Z" fill="#000000" fill-rule="nonzero" fill-opacity="1" /><path clip-path="url(#clip800)" d="M740.766 715.91 L757.085 715.91 L757.085 719.845 L735.141 719.845 L735.141 715.91 Q737.803 713.155 742.386 708.526 Q746.993 703.873 748.173 702.531 Q750.419 700.007 751.298 698.271 Q752.201 696.512 752.201 694.822 Q752.201 692.068 750.257 690.332 Q748.335 688.595 745.234 688.595 Q743.034 688.595 740.581 689.359 Q738.15 690.123 735.372 691.674 L735.372 686.952 Q738.197 685.818 740.65 685.239 Q743.104 684.66 745.141 684.66 Q750.511 684.66 753.706 687.345 Q756.9 690.031 756.9 694.521 Q756.9 696.651 756.09 698.572 Q755.303 700.47 753.196 703.063 Q752.618 703.734 749.516 706.952 Q746.414 710.146 740.766 715.91 Z" fill="#000000" fill-rule="nonzero" fill-opacity="1" /><path clip-path="url(#clip800)" d="M699.424 556.665 Q695.812 556.665 693.984 560.23 Q692.178 563.772 692.178 570.901 Q692.178 578.008 693.984 581.572 Q695.812 585.114 699.424 585.114 Q703.058 585.114 704.863 581.572 Q706.692 578.008 706.692 570.901 Q706.692 563.772 704.863 560.23 Q703.058 556.665 699.424 556.665 M699.424 552.962 Q705.234 552.962 708.289 557.568 Q711.368 562.151 711.368 570.901 Q711.368 579.628 708.289 584.234 Q705.234 588.818 699.424 588.818 Q693.613 588.818 690.535 584.234 Q687.479 579.628 687.479 570.901 Q687.479 562.151 690.535 557.568 Q693.613 552.962 699.424 552.962 Z" fill="#000000" fill-rule="nonzero" fill-opacity="1" /><path clip-path="url(#clip800)" d="M719.585 582.267 L724.47 582.267 L724.47 588.147 L719.585 588.147 L719.585 582.267 Z" fill="#000000" fill-rule="nonzero" fill-opacity="1" /><path clip-path="url(#clip800)" d="M747.502 557.661 L735.697 576.11 L747.502 576.11 L747.502 557.661 M746.275 553.587 L752.155 553.587 L752.155 576.11 L757.085 576.11 L757.085 579.998 L752.155 579.998 L752.155 588.147 L747.502 588.147 L747.502 579.998 L731.9 579.998 L731.9 575.485 L746.275 553.587 Z" fill="#000000" fill-rule="nonzero" fill-opacity="1" /><path clip-path="url(#clip800)" d="M573.439 835.613 Q577.594 836.45 579.977 837.577 Q583.616 839.413 583.616 842.473 Q583.616 844.598 582.424 846.208 Q581.201 847.787 579.172 848.334 Q579.977 848.946 580.524 849.493 Q581.072 850.009 581.909 851.007 Q582.714 852.006 583.165 853.358 Q583.616 854.679 583.616 856.192 Q583.616 857.352 583.391 858.415 Q583.197 859.477 582.65 860.605 Q582.07 861.7 581.201 862.505 Q580.331 863.278 578.914 863.793 Q577.497 864.308 575.693 864.308 Q573.439 864.308 570.379 863.439 Q567.32 862.537 561.845 860.476 Q558.946 859.348 557.336 859.348 Q556.595 859.348 556.112 859.51 Q555.629 859.671 555.468 859.993 Q555.275 860.282 555.243 860.476 Q555.178 860.669 555.178 860.991 Q555.178 862.988 557.207 864.727 Q559.236 866.466 563.359 867.658 Q564.164 867.915 564.357 868.076 Q564.55 868.237 564.55 868.72 Q564.518 869.526 563.874 869.526 Q563.616 869.526 562.618 869.236 Q561.587 868.946 560.074 868.27 Q558.528 867.561 557.143 866.595 Q555.726 865.629 554.727 864.115 Q553.729 862.569 553.729 860.798 Q553.729 858.382 555.307 856.901 Q556.853 855.387 559.14 855.387 Q560.557 855.387 563.294 856.514 Q572.795 860.089 576.756 860.089 Q582.135 860.089 582.135 855.999 Q582.135 854.646 581.587 853.39 Q581.04 852.102 580.267 851.265 Q579.494 850.427 578.656 849.783 Q577.819 849.107 577.272 848.817 Q576.724 848.495 576.595 848.463 L556.756 843.535 Q555.983 843.342 555.468 842.988 Q554.921 842.601 554.727 842.151 Q554.534 841.7 554.502 841.442 Q554.438 841.184 554.438 840.959 Q554.438 840.154 554.921 839.606 Q555.404 839.027 556.241 839.027 Q556.402 839.027 557.175 839.22 Q557.916 839.381 559.011 839.638 Q560.074 839.896 560.653 840.025 Q564.711 841.056 565.13 841.152 L572.247 842.988 Q572.666 843.085 574.019 843.407 Q575.371 843.696 576.08 843.857 Q576.756 844.018 577.69 844.18 Q578.592 844.308 579.107 844.308 Q580.718 844.308 581.426 843.825 Q582.135 843.342 582.135 842.279 Q582.135 841.281 581.458 840.508 Q580.75 839.703 579.397 839.091 Q578.012 838.479 576.885 838.125 Q575.758 837.771 573.987 837.32 Q573.214 837.159 573.02 837.03 Q572.795 836.869 572.795 836.418 Q572.795 835.613 573.439 835.613 Z" fill="#000000" fill-rule="nonzero" fill-opacity="1" /><path clip-path="url(#clip800)" d="M575.532 828.907 L574.089 828.907 Q574.089 823.362 571.136 820.498 Q571.136 819.709 571.316 819.574 Q571.497 819.439 572.331 819.439 L598.234 819.439 Q599.609 819.439 600.038 818.763 Q600.466 818.086 600.466 815.133 L600.466 813.668 L601.886 813.668 Q601.751 815.291 601.751 821.152 Q601.751 827.014 601.886 828.614 L600.466 828.614 L600.466 827.149 Q600.466 824.241 600.06 823.542 Q599.632 822.843 598.234 822.843 L574.315 822.843 Q575.532 825.255 575.532 828.907 Z" fill="#000000" fill-rule="nonzero" fill-opacity="1" /><path clip-path="url(#clip800)" d="M1108.23 8.64 L1133.06 8.64 L1133.06 13.559 L1114.08 13.559 L1114.08 26.2904 L1131.21 26.2904 L1131.21 31.2093 L1114.08 31.2093 L1114.08 51.84 L1108.23 51.84 L1108.23 8.64 Z" fill="#000000" fill-rule="nonzero" fill-opacity="1" /><path clip-path="url(#clip800)" d="M1166.57 34.3054 L1166.57 36.9095 L1142.09 36.9095 Q1142.43 42.4072 1145.39 45.3007 Q1148.37 48.1653 1153.66 48.1653 Q1156.73 48.1653 1159.59 47.4129 Q1162.49 46.6606 1165.32 45.156 L1165.32 50.1907 Q1162.46 51.406 1159.45 52.0425 Q1156.44 52.6791 1153.34 52.6791 Q1145.59 52.6791 1141.05 48.1653 Q1136.53 43.6514 1136.53 35.9547 Q1136.53 27.9975 1140.81 23.339 Q1145.13 18.6515 1152.42 18.6515 Q1158.96 18.6515 1162.75 22.876 Q1166.57 27.0716 1166.57 34.3054 M1161.24 32.7429 Q1161.18 28.3737 1158.78 25.7695 Q1156.41 23.1654 1152.47 23.1654 Q1148.02 23.1654 1145.33 25.6827 Q1142.67 28.2001 1142.26 32.7718 L1161.24 32.7429 Z" fill="#000000" fill-rule="nonzero" fill-opacity="1" /><path clip-path="url(#clip800)" d="M1203.02 34.3054 L1203.02 36.9095 L1178.55 36.9095 Q1178.89 42.4072 1181.84 45.3007 Q1184.82 48.1653 1190.12 48.1653 Q1193.19 48.1653 1196.05 47.4129 Q1198.94 46.6606 1201.78 45.156 L1201.78 50.1907 Q1198.92 51.406 1195.91 52.0425 Q1192.9 52.6791 1189.8 52.6791 Q1182.05 52.6791 1177.5 48.1653 Q1172.99 43.6514 1172.99 35.9547 Q1172.99 27.9975 1177.27 23.339 Q1181.58 18.6515 1188.88 18.6515 Q1195.41 18.6515 1199.21 22.876 Q1203.02 27.0716 1203.02 34.3054 M1197.7 32.7429 Q1197.64 28.3737 1195.24 25.7695 Q1192.87 23.1654 1188.93 23.1654 Q1184.48 23.1654 1181.79 25.6827 Q1179.12 28.2001 1178.72 32.7718 L1197.7 32.7429 Z" fill="#000000" fill-rule="nonzero" fill-opacity="1" /><path clip-path="url(#clip800)" d="M1233.09 24.3517 L1233.09 6.81709 L1238.41 6.81709 L1238.41 51.84 L1233.09 51.84 L1233.09 46.9789 Q1231.41 49.8724 1228.83 51.2902 Q1226.29 52.6791 1222.7 52.6791 Q1216.83 52.6791 1213.12 47.9916 Q1209.45 43.3042 1209.45 35.6653 Q1209.45 28.0265 1213.12 23.339 Q1216.83 18.6515 1222.7 18.6515 Q1226.29 18.6515 1228.83 20.0693 Q1231.41 21.4582 1233.09 24.3517 M1214.95 35.6653 Q1214.95 41.5391 1217.35 44.8956 Q1219.78 48.2231 1224 48.2231 Q1228.23 48.2231 1230.66 44.8956 Q1233.09 41.5391 1233.09 35.6653 Q1233.09 29.7915 1230.66 26.464 Q1228.23 23.1075 1224 23.1075 Q1219.78 23.1075 1217.35 26.464 Q1214.95 29.7915 1214.95 35.6653 Z" fill="#000000" fill-rule="nonzero" fill-opacity="1" /><path clip-path="url(#clip800)" d="M1272.64 35.6653 Q1272.64 29.7915 1270.21 26.464 Q1267.81 23.1075 1263.59 23.1075 Q1259.36 23.1075 1256.93 26.464 Q1254.53 29.7915 1254.53 35.6653 Q1254.53 41.5391 1256.93 44.8956 Q1259.36 48.2231 1263.59 48.2231 Q1267.81 48.2231 1270.21 44.8956 Q1272.64 41.5391 1272.64 35.6653 M1254.53 24.3517 Q1256.21 21.4582 1258.75 20.0693 Q1261.33 18.6515 1264.89 18.6515 Q1270.79 18.6515 1274.47 23.339 Q1278.17 28.0265 1278.17 35.6653 Q1278.17 43.3042 1274.47 47.9916 Q1270.79 52.6791 1264.89 52.6791 Q1261.33 52.6791 1258.75 51.2902 Q1256.21 49.8724 1254.53 46.9789 L1254.53 51.84 L1249.18 51.84 L1249.18 6.81709 L1254.53 6.81709 L1254.53 24.3517 Z" fill="#000000" fill-rule="nonzero" fill-opacity="1" /><path clip-path="url(#clip800)" d="M1301.72 35.5496 Q1295.27 35.5496 1292.78 37.0253 Q1290.29 38.501 1290.29 42.06 Q1290.29 44.8956 1292.14 46.5738 Q1294.03 48.2231 1297.24 48.2231 Q1301.66 48.2231 1304.33 45.0981 Q1307.02 41.9442 1307.02 36.7359 L1307.02 35.5496 L1301.72 35.5496 M1312.34 33.3505 L1312.34 51.84 L1307.02 51.84 L1307.02 46.921 Q1305.19 49.8724 1302.47 51.2902 Q1299.75 52.6791 1295.82 52.6791 Q1290.84 52.6791 1287.89 49.9014 Q1284.97 47.0947 1284.97 42.4072 Q1284.97 36.9385 1288.61 34.1607 Q1292.29 31.3829 1299.55 31.3829 L1307.02 31.3829 L1307.02 30.8621 Q1307.02 27.1874 1304.59 25.1908 Q1302.18 23.1654 1297.82 23.1654 Q1295.04 23.1654 1292.4 23.8309 Q1289.77 24.4964 1287.34 25.8274 L1287.34 20.9085 Q1290.26 19.78 1293.01 19.2302 Q1295.76 18.6515 1298.37 18.6515 Q1305.4 18.6515 1308.87 22.2973 Q1312.34 25.9431 1312.34 33.3505 Z" fill="#000000" fill-rule="nonzero" fill-opacity="1" /><path clip-path="url(#clip800)" d="M1346.63 20.677 L1346.63 25.6538 Q1344.37 24.4096 1342.09 23.802 Q1339.83 23.1654 1337.51 23.1654 Q1332.34 23.1654 1329.47 26.464 Q1326.61 29.7336 1326.61 35.6653 Q1326.61 41.597 1329.47 44.8956 Q1332.34 48.1653 1337.51 48.1653 Q1339.83 48.1653 1342.09 47.5576 Q1344.37 46.921 1346.63 45.6768 L1346.63 50.5958 Q1344.4 51.6375 1342 52.1583 Q1339.63 52.6791 1336.94 52.6791 Q1329.62 52.6791 1325.3 48.0784 Q1320.99 43.4778 1320.99 35.6653 Q1320.99 27.7371 1325.33 23.1943 Q1329.7 18.6515 1337.28 18.6515 Q1339.74 18.6515 1342.09 19.1724 Q1344.43 19.6642 1346.63 20.677 Z" fill="#000000" fill-rule="nonzero" fill-opacity="1" /><path clip-path="url(#clip800)" d="M1355.69 6.81709 L1361.04 6.81709 L1361.04 33.4084 L1376.92 19.4328 L1383.72 19.4328 L1366.54 34.5947 L1384.45 51.84 L1377.5 51.84 L1361.04 36.0125 L1361.04 51.84 L1355.69 51.84 L1355.69 6.81709 Z" fill="#000000" fill-rule="nonzero" fill-opacity="1" /><path clip-path="url(#clip800)" d="M1409.04 6.81709 L1414.37 6.81709 L1414.37 51.84 L1409.04 51.84 L1409.04 6.81709 Z" fill="#000000" fill-rule="nonzero" fill-opacity="1" /><path clip-path="url(#clip800)" d="M1440.23 35.5496 Q1433.78 35.5496 1431.29 37.0253 Q1428.8 38.501 1428.8 42.06 Q1428.8 44.8956 1430.66 46.5738 Q1432.54 48.2231 1435.75 48.2231 Q1440.18 48.2231 1442.84 45.0981 Q1445.53 41.9442 1445.53 36.7359 L1445.53 35.5496 L1440.23 35.5496 M1450.85 33.3505 L1450.85 51.84 L1445.53 51.84 L1445.53 46.921 Q1443.71 49.8724 1440.99 51.2902 Q1438.27 52.6791 1434.33 52.6791 Q1429.35 52.6791 1426.4 49.9014 Q1423.48 47.0947 1423.48 42.4072 Q1423.48 36.9385 1427.13 34.1607 Q1430.8 31.3829 1438.06 31.3829 L1445.53 31.3829 L1445.53 30.8621 Q1445.53 27.1874 1443.1 25.1908 Q1440.7 23.1654 1436.33 23.1654 Q1433.55 23.1654 1430.92 23.8309 Q1428.28 24.4964 1425.85 25.8274 L1425.85 20.9085 Q1428.78 19.78 1431.52 19.2302 Q1434.27 18.6515 1436.88 18.6515 Q1443.91 18.6515 1447.38 22.2973 Q1450.85 25.9431 1450.85 33.3505 Z" fill="#000000" fill-rule="nonzero" fill-opacity="1" /><path clip-path="url(#clip800)" d="M1458.72 19.4328 L1464.05 19.4328 L1470.7 44.722 L1477.33 19.4328 L1483.61 19.4328 L1490.26 44.722 L1496.89 19.4328 L1502.21 19.4328 L1493.73 51.84 L1487.46 51.84 L1480.48 25.2776 L1473.48 51.84 L1467.2 51.84 L1458.72 19.4328 Z" fill="#000000" fill-rule="nonzero" fill-opacity="1" /><path clip-path="url(#clip801)" d="M1326.43 1103.4 L1397.48 1099.76 L1404.61 530.836 Z" fill="#009afa" fill-rule="evenodd" fill-opacity="1" stroke="#009af9" stroke-opacity="1" stroke-linejoin="round" stroke-width="3.2" /><path clip-path="url(#clip801)" d="M1326.43 1103.4 L1239.53 539.288 L1239.19 566.538 Z" fill="#009afa" fill-rule="evenodd" fill-opacity="1" stroke="#009af9" stroke-opacity="1" stroke-linejoin="round" stroke-width="3.2" /><path clip-path="url(#clip801)" d="M1326.43 1103.4 L1404.61 530.836 L1239.53 539.288 Z" fill="#009afa" fill-rule="evenodd" fill-opacity="1" stroke="#009af9" stroke-opacity="1" stroke-linejoin="round" stroke-width="3.2" /><path clip-path="url(#clip801)" d="M1198.58 1198.73 L1267.01 1227.86 L1228.6 690.081 Z" fill="#e36f47" fill-rule="evenodd" fill-opacity="1" stroke="#e26f46" stroke-opacity="1" stroke-linejoin="round" stroke-width="3.2" /><path clip-path="url(#clip801)" d="M1188.45 1162.08 L1190.6 1133.37 L1218.9 702.216 Z" fill="#3ea44e" fill-rule="evenodd" fill-opacity="1" stroke="#3da44d" stroke-opacity="1" stroke-linejoin="round" stroke-width="3.2" /><path clip-path="url(#clip801)" d="M1188.45 1162.08 L1218.9 702.216 L1190.79 604.68 Z" fill="#3ea44e" fill-rule="evenodd" fill-opacity="1" stroke="#3da44d" stroke-opacity="1" stroke-linejoin="round" stroke-width="3.2" /><path clip-path="url(#clip801)" d="M1188.45 1162.08 L1190.79 604.68 L1160.77 1061.9 Z" fill="#3ea44e" fill-rule="evenodd" fill-opacity="1" stroke="#3da44d" stroke-opacity="1" stroke-linejoin="round" stroke-width="3.2" /><path clip-path="url(#clip801)" d="M1242.37 516.883 L1407.4 508.791 L1393.33 457.91 Z" fill="#c371d2" fill-rule="evenodd" fill-opacity="1" stroke="#c271d2" stroke-opacity="1" stroke-linejoin="round" stroke-width="3.2" /><path clip-path="url(#clip801)" d="M1242.37 516.883 L1393.33 457.91 L1286.9 413.003 Z" fill="#c371d2" fill-rule="evenodd" fill-opacity="1" stroke="#c271d2" stroke-opacity="1" stroke-linejoin="round" stroke-width="3.2" /><path clip-path="url(#clip801)" d="M1242.37 516.883 L1286.9 413.003 L1214.62 416.547 Z" fill="#c371d2" fill-rule="evenodd" fill-opacity="1" stroke="#c271d2" stroke-opacity="1" stroke-linejoin="round" stroke-width="3.2" /><path clip-path="url(#clip801)" d="M1397.48 1099.76 L1468.8 536.708 L1424.28 375.565 Z" fill="#ac8e18" fill-rule="evenodd" fill-opacity="1" stroke="#ac8d18" stroke-opacity="1" stroke-linejoin="round" stroke-width="3.2" /><path clip-path="url(#clip801)" d="M1397.48 1099.76 L1424.28 375.565 L1404.61 530.836 Z" fill="#ac8e18" fill-rule="evenodd" fill-opacity="1" stroke="#ac8d18" stroke-opacity="1" stroke-linejoin="round" stroke-width="3.2" /><path clip-path="url(#clip801)" d="M1326.43 1103.4 L1378.91 1246.4 L1397.48 1099.76 Z" fill="#00aaae" fill-rule="evenodd" fill-opacity="1" stroke="#00a9ad" stroke-opacity="1" stroke-linejoin="round" stroke-width="3.2" /><path clip-path="url(#clip801)" d="M1326.43 1103.4 L1293.7 1250.44 L1378.91 1246.4 Z" fill="#00aaae" fill-rule="evenodd" fill-opacity="1" stroke="#00a9ad" stroke-opacity="1" stroke-linejoin="round" stroke-width="3.2" /><path clip-path="url(#clip801)" d="M1202.14 1211.63 L1293.7 1250.44 L1267.01 1227.86 Z" fill="#ed5e93" fill-rule="evenodd" fill-opacity="1" stroke="#ed5d92" stroke-opacity="1" stroke-linejoin="round" stroke-width="3.2" /><path clip-path="url(#clip801)" d="M1202.14 1211.63 L1267.01 1227.86 L1198.58 1198.73 Z" fill="#ed5e93" fill-rule="evenodd" fill-opacity="1" stroke="#ed5d92" stroke-opacity="1" stroke-linejoin="round" stroke-width="3.2" /><path clip-path="url(#clip801)" d="M1267.01 1227.86 L1293.7 1250.44 L1326.43 1103.4 Z" fill="#c68225" fill-rule="evenodd" fill-opacity="1" stroke="#c68125" stroke-opacity="1" stroke-linejoin="round" stroke-width="3.2" /><path clip-path="url(#clip801)" d="M1267.01 1227.86 L1326.43 1103.4 L1239.19 566.538 Z" fill="#c68225" fill-rule="evenodd" fill-opacity="1" stroke="#c68125" stroke-opacity="1" stroke-linejoin="round" stroke-width="3.2" /><path clip-path="url(#clip801)" d="M1267.01 1227.86 L1239.19 566.538 L1228.6 690.081 Z" fill="#c68225" fill-rule="evenodd" fill-opacity="1" stroke="#c68125" stroke-opacity="1" stroke-linejoin="round" stroke-width="3.2" /><path clip-path="url(#clip801)" d="M1160.77 1061.9 L1190.79 604.68 L1141.64 992.664 Z" fill="#00a98d" fill-rule="evenodd" fill-opacity="1" stroke="#00a98d" stroke-opacity="1" stroke-linejoin="round" stroke-width="3.2" /><path clip-path="url(#clip801)" d="M785.885 1163.51 L1154.07 1269.8 L1188.45 1162.08 Z" fill="#8e971e" fill-rule="evenodd" fill-opacity="1" stroke="#8e971d" stroke-opacity="1" stroke-linejoin="round" stroke-width="3.2" /><path clip-path="url(#clip801)" d="M785.885 1163.51 L1188.45 1162.08 L1160.77 1061.9 Z" fill="#8e971e" fill-rule="evenodd" fill-opacity="1" stroke="#8e971d" stroke-opacity="1" stroke-linejoin="round" stroke-width="3.2" /><path clip-path="url(#clip801)" d="M785.885 1163.51 L1160.77 1061.9 L1061.77 924.588 Z" fill="#8e971e" fill-rule="evenodd" fill-opacity="1" stroke="#8e971d" stroke-opacity="1" stroke-linejoin="round" stroke-width="3.2" /><path clip-path="url(#clip801)" d="M1190.6 1133.37 L1239.19 566.538 L1239.53 539.288 Z" fill="#00a9cc" fill-rule="evenodd" fill-opacity="1" stroke="#00a8cb" stroke-opacity="1" stroke-linejoin="round" stroke-width="3.2" /><path clip-path="url(#clip801)" d="M1190.6 1133.37 L1239.53 539.288 L1218.9 702.216 Z" fill="#00a9cc" fill-rule="evenodd" fill-opacity="1" stroke="#00a8cb" stroke-opacity="1" stroke-linejoin="round" stroke-width="3.2" /><path clip-path="url(#clip801)" d="M1190.6 1133.37 L1198.58 1198.73 L1228.6 690.081 Z" fill="#9b7fe9" fill-rule="evenodd" fill-opacity="1" stroke="#9b7fe8" stroke-opacity="1" stroke-linejoin="round" stroke-width="3.2" /><path clip-path="url(#clip801)" d="M1190.6 1133.37 L1188.45 1162.08 L1198.58 1198.73 Z" fill="#9b7fe9" fill-rule="evenodd" fill-opacity="1" stroke="#9b7fe8" stroke-opacity="1" stroke-linejoin="round" stroke-width="3.2" /><path clip-path="url(#clip801)" d="M1231.53 282.975 L1286.9 413.003 L1316.74 278.932 Z" fill="#618df6" fill-rule="evenodd" fill-opacity="1" stroke="#608cf6" stroke-opacity="1" stroke-linejoin="round" stroke-width="3.2" /><path clip-path="url(#clip801)" d="M1231.53 282.975 L1214.62 416.547 L1286.9 413.003 Z" fill="#618df6" fill-rule="evenodd" fill-opacity="1" stroke="#608cf6" stroke-opacity="1" stroke-linejoin="round" stroke-width="3.2" /><path clip-path="url(#clip801)" d="M1286.9 413.003 L1393.33 457.91 L1408.3 317.744 Z" fill="#f06073" fill-rule="evenodd" fill-opacity="1" stroke="#f05f73" stroke-opacity="1" stroke-linejoin="round" stroke-width="3.2" /><path clip-path="url(#clip801)" d="M1286.9 413.003 L1408.3 317.744 L1316.74 278.933 Z" fill="#f06073" fill-rule="evenodd" fill-opacity="1" stroke="#f05f73" stroke-opacity="1" stroke-linejoin="round" stroke-width="3.2" /><path clip-path="url(#clip801)" d="M1407.4 508.791 L1424.28 375.565 L1408.3 317.744 Z" fill="#dd65b6" fill-rule="evenodd" fill-opacity="1" stroke="#dd64b5" stroke-opacity="1" stroke-linejoin="round" stroke-width="3.2" /><path clip-path="url(#clip801)" d="M1407.4 508.791 L1408.3 317.744 L1393.33 457.91 Z" fill="#dd65b6" fill-rule="evenodd" fill-opacity="1" stroke="#dd64b5" stroke-opacity="1" stroke-linejoin="round" stroke-width="3.2" /><path clip-path="url(#clip801)" d="M1242.37 516.883 L1239.53 539.288 L1404.61 530.836 Z" fill="#6c9f33" fill-rule="evenodd" fill-opacity="1" stroke="#6b9e32" stroke-opacity="1" stroke-linejoin="round" stroke-width="3.2" /><path clip-path="url(#clip801)" d="M1242.37 516.883 L1404.61 530.836 L1407.4 508.791 Z" fill="#6c9f33" fill-rule="evenodd" fill-opacity="1" stroke="#6b9e32" stroke-opacity="1" stroke-linejoin="round" stroke-width="3.2" /><path clip-path="url(#clip801)" d="M1218.9 702.216 L1242.37 516.883 L1214.62 416.547 Z" fill="#009afa" fill-rule="evenodd" fill-opacity="1" stroke="#009af9" stroke-opacity="1" stroke-linejoin="round" stroke-width="3.2" /><path clip-path="url(#clip801)" d="M1218.9 702.216 L1214.62 416.547 L1190.79 604.68 Z" fill="#009afa" fill-rule="evenodd" fill-opacity="1" stroke="#009af9" stroke-opacity="1" stroke-linejoin="round" stroke-width="3.2" /><path clip-path="url(#clip801)" d="M1378.91 1246.4 L1529.88 621.064 L1468.8 536.708 Z" fill="#e36f47" fill-rule="evenodd" fill-opacity="1" stroke="#e26f46" stroke-opacity="1" stroke-linejoin="round" stroke-width="3.2" /><path clip-path="url(#clip801)" d="M1378.91 1246.4 L1451.85 1347.13 L1529.88 621.064 Z" fill="#e36f47" fill-rule="evenodd" fill-opacity="1" stroke="#e26f46" stroke-opacity="1" stroke-linejoin="round" stroke-width="3.2" /><path clip-path="url(#clip801)" d="M1319.15 1317.45 L1444.38 1353.6 L1451.85 1347.13 Z" fill="#3ea44e" fill-rule="evenodd" fill-opacity="1" stroke="#3da44d" stroke-opacity="1" stroke-linejoin="round" stroke-width="3.2" /><path clip-path="url(#clip801)" d="M1319.15 1317.45 L1451.85 1347.13 L1378.91 1246.4 Z" fill="#3ea44e" fill-rule="evenodd" fill-opacity="1" stroke="#3da44d" stroke-opacity="1" stroke-linejoin="round" stroke-width="3.2" /><path clip-path="url(#clip801)" d="M1319.15 1317.45 L1378.91 1246.4 L1293.7 1250.44 Z" fill="#3ea44e" fill-rule="evenodd" fill-opacity="1" stroke="#3da44d" stroke-opacity="1" stroke-linejoin="round" stroke-width="3.2" /><path clip-path="url(#clip801)" d="M1181.03 1277.58 L1319.15 1317.45 L1293.7 1250.44 Z" fill="#c371d2" fill-rule="evenodd" fill-opacity="1" stroke="#c271d2" stroke-opacity="1" stroke-linejoin="round" stroke-width="3.2" /><path clip-path="url(#clip801)" d="M1181.03 1277.58 L1293.7 1250.44 L1202.14 1211.63 Z" fill="#c371d2" fill-rule="evenodd" fill-opacity="1" stroke="#c271d2" stroke-opacity="1" stroke-linejoin="round" stroke-width="3.2" /><path clip-path="url(#clip801)" d="M1160.77 1061.9 L1141.64 992.664 L1080.57 908.308 Z" fill="#ac8e18" fill-rule="evenodd" fill-opacity="1" stroke="#ac8d18" stroke-opacity="1" stroke-linejoin="round" stroke-width="3.2" /><path clip-path="url(#clip801)" d="M1160.77 1061.9 L1080.57 908.308 L1061.77 924.588 Z" fill="#ac8e18" fill-rule="evenodd" fill-opacity="1" stroke="#ac8d18" stroke-opacity="1" stroke-linejoin="round" stroke-width="3.2" /><path clip-path="url(#clip801)" d="M1154.07 1269.8 L1181.03 1277.58 L1202.14 1211.63 Z" fill="#00aaae" fill-rule="evenodd" fill-opacity="1" stroke="#00a9ad" stroke-opacity="1" stroke-linejoin="round" stroke-width="3.2" /><path clip-path="url(#clip801)" d="M1154.07 1269.8 L1202.14 1211.63 L1198.58 1198.73 Z" fill="#00aaae" fill-rule="evenodd" fill-opacity="1" stroke="#00a9ad" stroke-opacity="1" stroke-linejoin="round" stroke-width="3.2" /><path clip-path="url(#clip801)" d="M1154.07 1269.8 L1198.58 1198.73 L1188.45 1162.08 Z" fill="#00aaae" fill-rule="evenodd" fill-opacity="1" stroke="#00a9ad" stroke-opacity="1" stroke-linejoin="round" stroke-width="3.2" /><path clip-path="url(#clip801)" d="M1080.57 908.308 L1190.79 604.68 L1231.54 282.975 Z" fill="#ed5e93" fill-rule="evenodd" fill-opacity="1" stroke="#ed5d92" stroke-opacity="1" stroke-linejoin="round" stroke-width="3.2" /><path clip-path="url(#clip801)" d="M1080.57 908.308 L1231.54 282.975 L1158.6 182.238 Z" fill="#ed5e93" fill-rule="evenodd" fill-opacity="1" stroke="#ed5d92" stroke-opacity="1" stroke-linejoin="round" stroke-width="3.2" /><path clip-path="url(#clip801)" d="M1080.57 908.308 L1141.64 992.664 L1190.79 604.68 Z" fill="#ed5e93" fill-rule="evenodd" fill-opacity="1" stroke="#ed5d92" stroke-opacity="1" stroke-linejoin="round" stroke-width="3.2" /><path clip-path="url(#clip801)" d="M1468.8 536.708 L1529.88 621.064 L1574.22 582.662 Z" fill="#c68225" fill-rule="evenodd" fill-opacity="1" stroke="#c68125" stroke-opacity="1" stroke-linejoin="round" stroke-width="3.2" /><path clip-path="url(#clip801)" d="M1468.8 536.708 L1574.22 582.662 L1424.28 375.565 Z" fill="#c68225" fill-rule="evenodd" fill-opacity="1" stroke="#c68125" stroke-opacity="1" stroke-linejoin="round" stroke-width="3.2" /><path clip-path="url(#clip801)" d="M1231.53 282.975 L1316.74 278.932 L1291.29 211.92 Z" fill="#00a98d" fill-rule="evenodd" fill-opacity="1" stroke="#00a98d" stroke-opacity="1" stroke-linejoin="round" stroke-width="3.2" /><path clip-path="url(#clip801)" d="M1231.53 282.975 L1291.29 211.92 L1166.07 175.77 Z" fill="#00a98d" fill-rule="evenodd" fill-opacity="1" stroke="#00a98d" stroke-opacity="1" stroke-linejoin="round" stroke-width="3.2" /><path clip-path="url(#clip801)" d="M1231.53 282.975 L1166.07 175.77 L1158.6 182.238 Z" fill="#00a98d" fill-rule="evenodd" fill-opacity="1" stroke="#00a98d" stroke-opacity="1" stroke-linejoin="round" stroke-width="3.2" /><path clip-path="url(#clip801)" d="M1316.74 278.933 L1408.3 317.744 L1429.42 251.793 Z" fill="#8e971e" fill-rule="evenodd" fill-opacity="1" stroke="#8e971d" stroke-opacity="1" stroke-linejoin="round" stroke-width="3.2" /><path clip-path="url(#clip801)" d="M1316.74 278.933 L1429.42 251.793 L1291.29 211.92 Z" fill="#8e971e" fill-rule="evenodd" fill-opacity="1" stroke="#8e971d" stroke-opacity="1" stroke-linejoin="round" stroke-width="3.2" /><path clip-path="url(#clip801)" d="M1424.28 375.565 L1574.22 582.662 L1824.56 365.861 Z" fill="#00a9cc" fill-rule="evenodd" fill-opacity="1" stroke="#00a8cb" stroke-opacity="1" stroke-linejoin="round" stroke-width="3.2" /><path clip-path="url(#clip801)" d="M1424.28 375.565 L1824.56 365.861 L1429.42 251.793 Z" fill="#00a9cc" fill-rule="evenodd" fill-opacity="1" stroke="#00a8cb" stroke-opacity="1" stroke-linejoin="round" stroke-width="3.2" /><path clip-path="url(#clip801)" d="M1424.28 375.565 L1429.42 251.793 L1408.3 317.744 Z" fill="#00a9cc" fill-rule="evenodd" fill-opacity="1" stroke="#00a8cb" stroke-opacity="1" stroke-linejoin="round" stroke-width="3.2" /></svg>
