<?xml version="1.0" encoding="utf-8"?>
<svg xmlns="http://www.w3.org/2000/svg" xmlns:xlink="http://www.w3.org/1999/xlink" width="600" height="400" viewBox="0 0 2400 1600">
<defs>
  <clipPath id="clip760">
    <rect x="0" y="0" width="2400" height="1600"/>
  </clipPath>
</defs>
<path clip-path="url(#clip760)" d="M0 1600 L2400 1600 L2400 0 L0 0  Z" fill="#ffffff" fill-rule="evenodd" fill-opacity="1"/>
<defs>
  <clipPath id="clip761">
    <rect x="480" y="0" width="1681" height="1600"/>
  </clipPath>
</defs>
<path clip-path="url(#clip760)" d="M186.274 654.814 L1171.86 654.814 L1171.86 47.2441 L186.274 47.2441  Z" fill="#ffffff" fill-rule="evenodd" fill-opacity="1"/>
<defs>
  <clipPath id="clip762">
    <rect x="186" y="47" width="987" height="609"/>
  </clipPath>
</defs>
<polyline clip-path="url(#clip762)" style="stroke:#000000; stroke-linecap:round; stroke-linejoin:round; stroke-width:2; stroke-opacity:0.1; fill:none" points="214.168,654.814 214.168,47.2441 "/>
<polyline clip-path="url(#clip762)" style="stroke:#000000; stroke-linecap:round; stroke-linejoin:round; stroke-width:2; stroke-opacity:0.1; fill:none" points="420.791,654.814 420.791,47.2441 "/>
<polyline clip-path="url(#clip762)" style="stroke:#000000; stroke-linecap:round; stroke-linejoin:round; stroke-width:2; stroke-opacity:0.1; fill:none" points="627.414,654.814 627.414,47.2441 "/>
<polyline clip-path="url(#clip762)" style="stroke:#000000; stroke-linecap:round; stroke-linejoin:round; stroke-width:2; stroke-opacity:0.1; fill:none" points="834.036,654.814 834.036,47.2441 "/>
<polyline clip-path="url(#clip762)" style="stroke:#000000; stroke-linecap:round; stroke-linejoin:round; stroke-width:2; stroke-opacity:0.1; fill:none" points="1040.66,654.814 1040.66,47.2441 "/>
<polyline clip-path="url(#clip762)" style="stroke:#000000; stroke-linecap:round; stroke-linejoin:round; stroke-width:2; stroke-opacity:0.1; fill:none" points="186.274,637.618 1171.86,637.618 "/>
<polyline clip-path="url(#clip762)" style="stroke:#000000; stroke-linecap:round; stroke-linejoin:round; stroke-width:2; stroke-opacity:0.1; fill:none" points="186.274,494.324 1171.86,494.324 "/>
<polyline clip-path="url(#clip762)" style="stroke:#000000; stroke-linecap:round; stroke-linejoin:round; stroke-width:2; stroke-opacity:0.1; fill:none" points="186.274,351.029 1171.86,351.029 "/>
<polyline clip-path="url(#clip762)" style="stroke:#000000; stroke-linecap:round; stroke-linejoin:round; stroke-width:2; stroke-opacity:0.1; fill:none" points="186.274,207.734 1171.86,207.734 "/>
<polyline clip-path="url(#clip762)" style="stroke:#000000; stroke-linecap:round; stroke-linejoin:round; stroke-width:2; stroke-opacity:0.1; fill:none" points="186.274,64.4395 1171.86,64.4395 "/>
<polyline clip-path="url(#clip760)" style="stroke:#000000; stroke-linecap:round; stroke-linejoin:round; stroke-width:4; stroke-opacity:1; fill:none" points="186.274,654.814 1171.86,654.814 "/>
<polyline clip-path="url(#clip760)" style="stroke:#000000; stroke-linecap:round; stroke-linejoin:round; stroke-width:4; stroke-opacity:1; fill:none" points="214.168,654.814 214.168,635.916 "/>
<polyline clip-path="url(#clip760)" style="stroke:#000000; stroke-linecap:round; stroke-linejoin:round; stroke-width:4; stroke-opacity:1; fill:none" points="420.791,654.814 420.791,635.916 "/>
<polyline clip-path="url(#clip760)" style="stroke:#000000; stroke-linecap:round; stroke-linejoin:round; stroke-width:4; stroke-opacity:1; fill:none" points="627.414,654.814 627.414,635.916 "/>
<polyline clip-path="url(#clip760)" style="stroke:#000000; stroke-linecap:round; stroke-linejoin:round; stroke-width:4; stroke-opacity:1; fill:none" points="834.036,654.814 834.036,635.916 "/>
<polyline clip-path="url(#clip760)" style="stroke:#000000; stroke-linecap:round; stroke-linejoin:round; stroke-width:4; stroke-opacity:1; fill:none" points="1040.66,654.814 1040.66,635.916 "/>
<path clip-path="url(#clip760)" d="M214.168 685.733 Q210.557 685.733 208.728 689.297 Q206.923 692.839 206.923 699.969 Q206.923 707.075 208.728 710.64 Q210.557 714.181 214.168 714.181 Q217.802 714.181 219.608 710.64 Q221.437 707.075 221.437 699.969 Q221.437 692.839 219.608 689.297 Q217.802 685.733 214.168 685.733 M214.168 682.029 Q219.978 682.029 223.034 686.635 Q226.112 691.219 226.112 699.969 Q226.112 708.695 223.034 713.302 Q219.978 717.885 214.168 717.885 Q208.358 717.885 205.279 713.302 Q202.224 708.695 202.224 699.969 Q202.224 691.219 205.279 686.635 Q208.358 682.029 214.168 682.029 Z" fill="#000000" fill-rule="nonzero" fill-opacity="1" /><path clip-path="url(#clip760)" d="M415.444 713.279 L431.763 713.279 L431.763 717.214 L409.819 717.214 L409.819 713.279 Q412.481 710.524 417.064 705.894 Q421.67 701.242 422.851 699.899 Q425.096 697.376 425.976 695.64 Q426.879 693.881 426.879 692.191 Q426.879 689.436 424.934 687.7 Q423.013 685.964 419.911 685.964 Q417.712 685.964 415.258 686.728 Q412.828 687.492 410.05 689.043 L410.05 684.321 Q412.874 683.186 415.328 682.608 Q417.782 682.029 419.819 682.029 Q425.189 682.029 428.383 684.714 Q431.578 687.399 431.578 691.89 Q431.578 694.02 430.768 695.941 Q429.981 697.839 427.874 700.432 Q427.295 701.103 424.194 704.32 Q421.092 707.515 415.444 713.279 Z" fill="#000000" fill-rule="nonzero" fill-opacity="1" /><path clip-path="url(#clip760)" d="M630.423 686.728 L618.617 705.177 L630.423 705.177 L630.423 686.728 M629.196 682.654 L635.076 682.654 L635.076 705.177 L640.006 705.177 L640.006 709.066 L635.076 709.066 L635.076 717.214 L630.423 717.214 L630.423 709.066 L614.821 709.066 L614.821 704.552 L629.196 682.654 Z" fill="#000000" fill-rule="nonzero" fill-opacity="1" /><path clip-path="url(#clip760)" d="M834.441 698.07 Q831.293 698.07 829.441 700.223 Q827.613 702.376 827.613 706.126 Q827.613 709.853 829.441 712.029 Q831.293 714.181 834.441 714.181 Q837.59 714.181 839.418 712.029 Q841.27 709.853 841.27 706.126 Q841.27 702.376 839.418 700.223 Q837.59 698.07 834.441 698.07 M843.724 683.418 L843.724 687.677 Q841.965 686.844 840.159 686.404 Q838.377 685.964 836.617 685.964 Q831.988 685.964 829.534 689.089 Q827.104 692.214 826.756 698.533 Q828.122 696.52 830.182 695.455 Q832.242 694.367 834.719 694.367 Q839.928 694.367 842.937 697.538 Q845.969 700.686 845.969 706.126 Q845.969 711.45 842.821 714.668 Q839.673 717.885 834.441 717.885 Q828.446 717.885 825.275 713.302 Q822.104 708.695 822.104 699.969 Q822.104 691.774 825.992 686.913 Q829.881 682.029 836.432 682.029 Q838.191 682.029 839.974 682.376 Q841.779 682.723 843.724 683.418 Z" fill="#000000" fill-rule="nonzero" fill-opacity="1" /><path clip-path="url(#clip760)" d="M1040.66 700.802 Q1037.33 700.802 1035.4 702.584 Q1033.51 704.367 1033.51 707.492 Q1033.51 710.617 1035.4 712.399 Q1037.33 714.181 1040.66 714.181 Q1043.99 714.181 1045.91 712.399 Q1047.84 710.594 1047.84 707.492 Q1047.84 704.367 1045.91 702.584 Q1044.02 700.802 1040.66 700.802 M1035.98 698.811 Q1032.97 698.07 1031.28 696.01 Q1029.62 693.95 1029.62 690.987 Q1029.62 686.844 1032.56 684.436 Q1035.52 682.029 1040.66 682.029 Q1045.82 682.029 1048.76 684.436 Q1051.7 686.844 1051.7 690.987 Q1051.7 693.95 1050.01 696.01 Q1048.34 698.07 1045.36 698.811 Q1048.74 699.598 1050.61 701.89 Q1052.51 704.182 1052.51 707.492 Q1052.51 712.515 1049.43 715.2 Q1046.38 717.885 1040.66 717.885 Q1034.94 717.885 1031.86 715.2 Q1028.81 712.515 1028.81 707.492 Q1028.81 704.182 1030.71 701.89 Q1032.6 699.598 1035.98 698.811 M1034.27 691.427 Q1034.27 694.112 1035.94 695.617 Q1037.63 697.121 1040.66 697.121 Q1043.67 697.121 1045.36 695.617 Q1047.07 694.112 1047.07 691.427 Q1047.07 688.742 1045.36 687.237 Q1043.67 685.733 1040.66 685.733 Q1037.63 685.733 1035.94 687.237 Q1034.27 688.742 1034.27 691.427 Z" fill="#000000" fill-rule="nonzero" fill-opacity="1" /><polyline clip-path="url(#clip760)" style="stroke:#000000; stroke-linecap:round; stroke-linejoin:round; stroke-width:4; stroke-opacity:1; fill:none" points="186.274,654.814 186.274,47.2441 "/>
<polyline clip-path="url(#clip760)" style="stroke:#000000; stroke-linecap:round; stroke-linejoin:round; stroke-width:4; stroke-opacity:1; fill:none" points="186.274,637.618 205.172,637.618 "/>
<polyline clip-path="url(#clip760)" style="stroke:#000000; stroke-linecap:round; stroke-linejoin:round; stroke-width:4; stroke-opacity:1; fill:none" points="186.274,494.324 205.172,494.324 "/>
<polyline clip-path="url(#clip760)" style="stroke:#000000; stroke-linecap:round; stroke-linejoin:round; stroke-width:4; stroke-opacity:1; fill:none" points="186.274,351.029 205.172,351.029 "/>
<polyline clip-path="url(#clip760)" style="stroke:#000000; stroke-linecap:round; stroke-linejoin:round; stroke-width:4; stroke-opacity:1; fill:none" points="186.274,207.734 205.172,207.734 "/>
<polyline clip-path="url(#clip760)" style="stroke:#000000; stroke-linecap:round; stroke-linejoin:round; stroke-width:4; stroke-opacity:1; fill:none" points="186.274,64.4395 205.172,64.4395 "/>
<path clip-path="url(#clip760)" d="M62.9365 623.417 Q59.3254 623.417 57.4967 626.982 Q55.6912 630.524 55.6912 637.653 Q55.6912 644.76 57.4967 648.324 Q59.3254 651.866 62.9365 651.866 Q66.5707 651.866 68.3763 648.324 Q70.205 644.76 70.205 637.653 Q70.205 630.524 68.3763 626.982 Q66.5707 623.417 62.9365 623.417 M62.9365 619.713 Q68.7467 619.713 71.8022 624.32 Q74.8809 628.903 74.8809 637.653 Q74.8809 646.38 71.8022 650.986 Q68.7467 655.57 62.9365 655.57 Q57.1264 655.57 54.0477 650.986 Q50.9921 646.38 50.9921 637.653 Q50.9921 628.903 54.0477 624.32 Q57.1264 619.713 62.9365 619.713 Z" fill="#000000" fill-rule="nonzero" fill-opacity="1" /><path clip-path="url(#clip760)" d="M83.0984 649.019 L87.9827 649.019 L87.9827 654.898 L83.0984 654.898 L83.0984 649.019 Z" fill="#000000" fill-rule="nonzero" fill-opacity="1" /><path clip-path="url(#clip760)" d="M108.168 623.417 Q104.557 623.417 102.728 626.982 Q100.922 630.524 100.922 637.653 Q100.922 644.76 102.728 648.324 Q104.557 651.866 108.168 651.866 Q111.802 651.866 113.608 648.324 Q115.436 644.76 115.436 637.653 Q115.436 630.524 113.608 626.982 Q111.802 623.417 108.168 623.417 M108.168 619.713 Q113.978 619.713 117.033 624.32 Q120.112 628.903 120.112 637.653 Q120.112 646.38 117.033 650.986 Q113.978 655.57 108.168 655.57 Q102.358 655.57 99.2789 650.986 Q96.2234 646.38 96.2234 637.653 Q96.2234 628.903 99.2789 624.32 Q102.358 619.713 108.168 619.713 Z" fill="#000000" fill-rule="nonzero" fill-opacity="1" /><path clip-path="url(#clip760)" d="M138.33 623.417 Q134.719 623.417 132.89 626.982 Q131.084 630.524 131.084 637.653 Q131.084 644.76 132.89 648.324 Q134.719 651.866 138.33 651.866 Q141.964 651.866 143.769 648.324 Q145.598 644.76 145.598 637.653 Q145.598 630.524 143.769 626.982 Q141.964 623.417 138.33 623.417 M138.33 619.713 Q144.14 619.713 147.195 624.32 Q150.274 628.903 150.274 637.653 Q150.274 646.38 147.195 650.986 Q144.14 655.57 138.33 655.57 Q132.519 655.57 129.441 650.986 Q126.385 646.38 126.385 637.653 Q126.385 628.903 129.441 624.32 Q132.519 619.713 138.33 619.713 Z" fill="#000000" fill-rule="nonzero" fill-opacity="1" /><path clip-path="url(#clip760)" d="M63.9319 480.122 Q60.3208 480.122 58.4921 483.687 Q56.6865 487.229 56.6865 494.358 Q56.6865 501.465 58.4921 505.03 Q60.3208 508.571 63.9319 508.571 Q67.5661 508.571 69.3717 505.03 Q71.2004 501.465 71.2004 494.358 Q71.2004 487.229 69.3717 483.687 Q67.5661 480.122 63.9319 480.122 M63.9319 476.419 Q69.742 476.419 72.7976 481.025 Q75.8763 485.609 75.8763 494.358 Q75.8763 503.085 72.7976 507.692 Q69.742 512.275 63.9319 512.275 Q58.1217 512.275 55.043 507.692 Q51.9875 503.085 51.9875 494.358 Q51.9875 485.609 55.043 481.025 Q58.1217 476.419 63.9319 476.419 Z" fill="#000000" fill-rule="nonzero" fill-opacity="1" /><path clip-path="url(#clip760)" d="M84.0938 505.724 L88.978 505.724 L88.978 511.604 L84.0938 511.604 L84.0938 505.724 Z" fill="#000000" fill-rule="nonzero" fill-opacity="1" /><path clip-path="url(#clip760)" d="M103.191 507.669 L119.51 507.669 L119.51 511.604 L97.566 511.604 L97.566 507.669 Q100.228 504.914 104.811 500.284 Q109.418 495.632 110.598 494.289 Q112.844 491.766 113.723 490.03 Q114.626 488.271 114.626 486.581 Q114.626 483.826 112.682 482.09 Q110.76 480.354 107.658 480.354 Q105.459 480.354 103.006 481.118 Q100.575 481.882 97.7974 483.433 L97.7974 478.71 Q100.621 477.576 103.075 476.997 Q105.529 476.419 107.566 476.419 Q112.936 476.419 116.131 479.104 Q119.325 481.789 119.325 486.28 Q119.325 488.409 118.515 490.331 Q117.728 492.229 115.621 494.821 Q115.043 495.493 111.941 498.71 Q108.839 501.905 103.191 507.669 Z" fill="#000000" fill-rule="nonzero" fill-opacity="1" /><path clip-path="url(#clip760)" d="M129.371 477.044 L147.728 477.044 L147.728 480.979 L133.654 480.979 L133.654 489.451 Q134.672 489.104 135.691 488.942 Q136.709 488.757 137.728 488.757 Q143.515 488.757 146.894 491.928 Q150.274 495.099 150.274 500.516 Q150.274 506.095 146.802 509.196 Q143.33 512.275 137.01 512.275 Q134.834 512.275 132.566 511.905 Q130.32 511.534 127.913 510.794 L127.913 506.095 Q129.996 507.229 132.219 507.784 Q134.441 508.34 136.918 508.34 Q140.922 508.34 143.26 506.233 Q145.598 504.127 145.598 500.516 Q145.598 496.905 143.26 494.798 Q140.922 492.692 136.918 492.692 Q135.043 492.692 133.168 493.108 Q131.316 493.525 129.371 494.405 L129.371 477.044 Z" fill="#000000" fill-rule="nonzero" fill-opacity="1" /><path clip-path="url(#clip760)" d="M62.9365 336.828 Q59.3254 336.828 57.4967 340.392 Q55.6912 343.934 55.6912 351.064 Q55.6912 358.17 57.4967 361.735 Q59.3254 365.277 62.9365 365.277 Q66.5707 365.277 68.3763 361.735 Q70.205 358.17 70.205 351.064 Q70.205 343.934 68.3763 340.392 Q66.5707 336.828 62.9365 336.828 M62.9365 333.124 Q68.7467 333.124 71.8022 337.73 Q74.8809 342.314 74.8809 351.064 Q74.8809 359.791 71.8022 364.397 Q68.7467 368.98 62.9365 368.98 Q57.1264 368.98 54.0477 364.397 Q50.9921 359.791 50.9921 351.064 Q50.9921 342.314 54.0477 337.73 Q57.1264 333.124 62.9365 333.124 Z" fill="#000000" fill-rule="nonzero" fill-opacity="1" /><path clip-path="url(#clip760)" d="M83.0984 362.429 L87.9827 362.429 L87.9827 368.309 L83.0984 368.309 L83.0984 362.429 Z" fill="#000000" fill-rule="nonzero" fill-opacity="1" /><path clip-path="url(#clip760)" d="M98.2141 333.749 L116.57 333.749 L116.57 337.684 L102.496 337.684 L102.496 346.156 Q103.515 345.809 104.534 345.647 Q105.552 345.462 106.571 345.462 Q112.358 345.462 115.737 348.633 Q119.117 351.804 119.117 357.221 Q119.117 362.8 115.645 365.902 Q112.172 368.98 105.853 368.98 Q103.677 368.98 101.409 368.61 Q99.1632 368.24 96.7558 367.499 L96.7558 362.8 Q98.8391 363.934 101.061 364.49 Q103.284 365.045 105.76 365.045 Q109.765 365.045 112.103 362.939 Q114.441 360.832 114.441 357.221 Q114.441 353.61 112.103 351.504 Q109.765 349.397 105.76 349.397 Q103.885 349.397 102.01 349.814 Q100.159 350.23 98.2141 351.11 L98.2141 333.749 Z" fill="#000000" fill-rule="nonzero" fill-opacity="1" /><path clip-path="url(#clip760)" d="M138.33 336.828 Q134.719 336.828 132.89 340.392 Q131.084 343.934 131.084 351.064 Q131.084 358.17 132.89 361.735 Q134.719 365.277 138.33 365.277 Q141.964 365.277 143.769 361.735 Q145.598 358.17 145.598 351.064 Q145.598 343.934 143.769 340.392 Q141.964 336.828 138.33 336.828 M138.33 333.124 Q144.14 333.124 147.195 337.73 Q150.274 342.314 150.274 351.064 Q150.274 359.791 147.195 364.397 Q144.14 368.98 138.33 368.98 Q132.519 368.98 129.441 364.397 Q126.385 359.791 126.385 351.064 Q126.385 342.314 129.441 337.73 Q132.519 333.124 138.33 333.124 Z" fill="#000000" fill-rule="nonzero" fill-opacity="1" /><path clip-path="url(#clip760)" d="M63.9319 193.533 Q60.3208 193.533 58.4921 197.098 Q56.6865 200.639 56.6865 207.769 Q56.6865 214.875 58.4921 218.44 Q60.3208 221.982 63.9319 221.982 Q67.5661 221.982 69.3717 218.44 Q71.2004 214.875 71.2004 207.769 Q71.2004 200.639 69.3717 197.098 Q67.5661 193.533 63.9319 193.533 M63.9319 189.829 Q69.742 189.829 72.7976 194.436 Q75.8763 199.019 75.8763 207.769 Q75.8763 216.496 72.7976 221.102 Q69.742 225.686 63.9319 225.686 Q58.1217 225.686 55.043 221.102 Q51.9875 216.496 51.9875 207.769 Q51.9875 199.019 55.043 194.436 Q58.1217 189.829 63.9319 189.829 Z" fill="#000000" fill-rule="nonzero" fill-opacity="1" /><path clip-path="url(#clip760)" d="M84.0938 219.135 L88.978 219.135 L88.978 225.014 L84.0938 225.014 L84.0938 219.135 Z" fill="#000000" fill-rule="nonzero" fill-opacity="1" /><path clip-path="url(#clip760)" d="M97.9826 190.454 L120.205 190.454 L120.205 192.445 L107.658 225.014 L102.774 225.014 L114.58 194.389 L97.9826 194.389 L97.9826 190.454 Z" fill="#000000" fill-rule="nonzero" fill-opacity="1" /><path clip-path="url(#clip760)" d="M129.371 190.454 L147.728 190.454 L147.728 194.389 L133.654 194.389 L133.654 202.862 Q134.672 202.514 135.691 202.352 Q136.709 202.167 137.728 202.167 Q143.515 202.167 146.894 205.338 Q150.274 208.51 150.274 213.926 Q150.274 219.505 146.802 222.607 Q143.33 225.686 137.01 225.686 Q134.834 225.686 132.566 225.315 Q130.32 224.945 127.913 224.204 L127.913 219.505 Q129.996 220.639 132.219 221.195 Q134.441 221.75 136.918 221.75 Q140.922 221.75 143.26 219.644 Q145.598 217.537 145.598 213.926 Q145.598 210.315 143.26 208.209 Q140.922 206.102 136.918 206.102 Q135.043 206.102 133.168 206.519 Q131.316 206.936 129.371 207.815 L129.371 190.454 Z" fill="#000000" fill-rule="nonzero" fill-opacity="1" /><path clip-path="url(#clip760)" d="M53.7467 77.7843 L61.3856 77.7843 L61.3856 51.4187 L53.0754 53.0854 L53.0754 48.8261 L61.3393 47.1595 L66.0152 47.1595 L66.0152 77.7843 L73.654 77.7843 L73.654 81.7195 L53.7467 81.7195 L53.7467 77.7843 Z" fill="#000000" fill-rule="nonzero" fill-opacity="1" /><path clip-path="url(#clip760)" d="M83.0984 75.8399 L87.9827 75.8399 L87.9827 81.7195 L83.0984 81.7195 L83.0984 75.8399 Z" fill="#000000" fill-rule="nonzero" fill-opacity="1" /><path clip-path="url(#clip760)" d="M108.168 50.2382 Q104.557 50.2382 102.728 53.8029 Q100.922 57.3446 100.922 64.4742 Q100.922 71.5806 102.728 75.1454 Q104.557 78.6871 108.168 78.6871 Q111.802 78.6871 113.608 75.1454 Q115.436 71.5806 115.436 64.4742 Q115.436 57.3446 113.608 53.8029 Q111.802 50.2382 108.168 50.2382 M108.168 46.5345 Q113.978 46.5345 117.033 51.1409 Q120.112 55.7242 120.112 64.4742 Q120.112 73.201 117.033 77.8074 Q113.978 82.3908 108.168 82.3908 Q102.358 82.3908 99.2789 77.8074 Q96.2234 73.201 96.2234 64.4742 Q96.2234 55.7242 99.2789 51.1409 Q102.358 46.5345 108.168 46.5345 Z" fill="#000000" fill-rule="nonzero" fill-opacity="1" /><path clip-path="url(#clip760)" d="M138.33 50.2382 Q134.719 50.2382 132.89 53.8029 Q131.084 57.3446 131.084 64.4742 Q131.084 71.5806 132.89 75.1454 Q134.719 78.6871 138.33 78.6871 Q141.964 78.6871 143.769 75.1454 Q145.598 71.5806 145.598 64.4742 Q145.598 57.3446 143.769 53.8029 Q141.964 50.2382 138.33 50.2382 M138.33 46.5345 Q144.14 46.5345 147.195 51.1409 Q150.274 55.7242 150.274 64.4742 Q150.274 73.201 147.195 77.8074 Q144.14 82.3908 138.33 82.3908 Q132.519 82.3908 129.441 77.8074 Q126.385 73.201 126.385 64.4742 Q126.385 55.7242 129.441 51.1409 Q132.519 46.5345 138.33 46.5345 Z" fill="#000000" fill-rule="nonzero" fill-opacity="1" /><polyline clip-path="url(#clip762)" style="stroke:#009af9; stroke-linecap:round; stroke-linejoin:round; stroke-width:4; stroke-opacity:1; fill:none" points="214.168,637.618 317.479,637.618 420.791,560.991 524.102,463.774 627.414,392.606 730.725,357.476 834.036,347.371 937.348,348.228 1040.66,351.139 1143.97,352.795 "/>
<polyline clip-path="url(#clip762)" style="stroke:#e26f46; stroke-linecap:round; stroke-linejoin:round; stroke-width:2; stroke-opacity:1; fill:none" stroke-dasharray="8, 5" points="214.168,64.4395 317.479,64.4395 420.791,64.4395 524.102,64.4395 627.414,64.4395 730.725,64.4395 834.036,64.4395 937.348,64.4395 1040.66,64.4395 1143.97,64.4395 "/>
<path clip-path="url(#clip760)" d="M991.681 634.562 L1139.01 634.562 L1139.01 530.882 L991.681 530.882  Z" fill="#ffffff" fill-rule="evenodd" fill-opacity="1"/>
<polyline clip-path="url(#clip760)" style="stroke:#000000; stroke-linecap:round; stroke-linejoin:round; stroke-width:4; stroke-opacity:1; fill:none" points="991.681,634.562 1139.01,634.562 1139.01,530.882 991.681,530.882 991.681,634.562 "/>
<polyline clip-path="url(#clip760)" style="stroke:#009af9; stroke-linecap:round; stroke-linejoin:round; stroke-width:4; stroke-opacity:1; fill:none" points="1002.63,582.722 1068.34,582.722 "/>
<path clip-path="url(#clip760)" d="M1101.42 562.332 Q1101.42 562.66 1101.21 563.432 L1096.62 581.749 Q1095.61 585.824 1092.34 588.682 Q1089.08 591.539 1085.38 591.539 Q1083.15 591.539 1081.73 590.345 Q1080.3 589.174 1080.3 587.37 Q1080.3 585.778 1081.14 585.005 Q1081.98 584.255 1082.99 584.255 Q1083.32 584.255 1083.67 584.349 Q1084.02 584.442 1084.4 584.841 Q1084.77 585.239 1084.77 585.918 Q1084.77 587.019 1083.81 587.886 Q1083.34 588.284 1082.9 588.377 Q1082.47 588.471 1081.75 588.471 Q1082.03 589.127 1082.55 589.572 Q1083.06 590.017 1083.65 590.181 Q1084.23 590.368 1084.61 590.415 Q1085 590.485 1085.38 590.485 Q1088.38 590.485 1090.67 587.464 Q1091.35 586.55 1091.84 585.637 Q1092.36 584.747 1092.73 583.646 Q1093.11 582.569 1093.27 581.983 Q1093.46 581.398 1093.79 580.062 Q1091.61 582.241 1088.94 582.241 Q1087.82 582.241 1086.81 581.936 Q1085.82 581.632 1084.96 580.999 Q1084.09 580.343 1083.58 579.196 Q1083.08 578.048 1083.08 576.526 Q1083.08 574.909 1083.72 572.708 Q1084.35 570.506 1085.87 566.454 Q1086.69 564.182 1086.69 563.081 Q1086.69 562.542 1086.57 562.215 Q1086.46 561.863 1086.22 561.746 Q1085.99 561.606 1085.85 561.582 Q1085.73 561.559 1085.5 561.559 Q1084.11 561.559 1082.83 562.964 Q1081.54 564.369 1080.65 567.508 Q1080.46 568.094 1080.34 568.234 Q1080.23 568.375 1079.87 568.375 Q1079.29 568.351 1079.29 567.883 Q1079.29 567.695 1079.5 566.969 Q1079.71 566.22 1080.2 565.119 Q1080.72 563.995 1081.42 562.987 Q1082.12 561.957 1083.22 561.231 Q1084.35 560.505 1085.64 560.505 Q1087.39 560.505 1088.47 561.652 Q1089.57 562.777 1089.57 564.44 Q1089.57 565.119 1089.38 565.728 Q1089.22 566.313 1088.61 567.883 Q1086.15 574.207 1086.15 577.299 Q1086.15 578.048 1086.27 578.681 Q1086.41 579.289 1086.71 579.898 Q1087.02 580.484 1087.63 580.835 Q1088.26 581.163 1089.13 581.163 Q1090.23 581.163 1091.26 580.648 Q1092.31 580.109 1092.97 579.383 Q1093.65 578.657 1094.05 578.048 Q1094.47 577.416 1094.56 577.088 L1096.72 568.468 L1097.68 564.627 Q1098.12 562.542 1098.33 562.027 Q1098.61 561.535 1099.1 561.278 Q1099.6 561.02 1100.02 561.02 Q1100.6 561.02 1101 561.371 Q1101.42 561.723 1101.42 562.332 Z" fill="#000000" fill-rule="nonzero" fill-opacity="1" /><path clip-path="url(#clip760)" d="M1106.32 585.559 L1106.32 584.51 Q1110.35 584.51 1112.43 582.362 Q1113.01 582.362 1113.1 582.493 Q1113.2 582.624 1113.2 583.231 L1113.2 602.069 Q1113.2 603.069 1113.69 603.381 Q1114.19 603.693 1116.33 603.693 L1117.4 603.693 L1117.4 604.725 Q1116.22 604.627 1111.96 604.627 Q1107.69 604.627 1106.53 604.725 L1106.53 603.693 L1107.59 603.693 Q1109.71 603.693 1110.22 603.397 Q1110.73 603.086 1110.73 602.069 L1110.73 584.673 Q1108.97 585.559 1106.32 585.559 Z" fill="#000000" fill-rule="nonzero" fill-opacity="1" /><path clip-path="url(#clip760)" d="M186.274 1423.18 L1171.86 1423.18 L1171.86 815.61 L186.274 815.61  Z" fill="#ffffff" fill-rule="evenodd" fill-opacity="1"/>
<defs>
  <clipPath id="clip763">
    <rect x="186" y="815" width="987" height="609"/>
  </clipPath>
</defs>
<polyline clip-path="url(#clip763)" style="stroke:#000000; stroke-linecap:round; stroke-linejoin:round; stroke-width:2; stroke-opacity:0.1; fill:none" points="214.168,1423.18 214.168,815.61 "/>
<polyline clip-path="url(#clip763)" style="stroke:#000000; stroke-linecap:round; stroke-linejoin:round; stroke-width:2; stroke-opacity:0.1; fill:none" points="420.791,1423.18 420.791,815.61 "/>
<polyline clip-path="url(#clip763)" style="stroke:#000000; stroke-linecap:round; stroke-linejoin:round; stroke-width:2; stroke-opacity:0.1; fill:none" points="627.414,1423.18 627.414,815.61 "/>
<polyline clip-path="url(#clip763)" style="stroke:#000000; stroke-linecap:round; stroke-linejoin:round; stroke-width:2; stroke-opacity:0.1; fill:none" points="834.036,1423.18 834.036,815.61 "/>
<polyline clip-path="url(#clip763)" style="stroke:#000000; stroke-linecap:round; stroke-linejoin:round; stroke-width:2; stroke-opacity:0.1; fill:none" points="1040.66,1423.18 1040.66,815.61 "/>
<polyline clip-path="url(#clip763)" style="stroke:#000000; stroke-linecap:round; stroke-linejoin:round; stroke-width:2; stroke-opacity:0.1; fill:none" points="186.274,1405.98 1171.86,1405.98 "/>
<polyline clip-path="url(#clip763)" style="stroke:#000000; stroke-linecap:round; stroke-linejoin:round; stroke-width:2; stroke-opacity:0.1; fill:none" points="186.274,1302.08 1171.86,1302.08 "/>
<polyline clip-path="url(#clip763)" style="stroke:#000000; stroke-linecap:round; stroke-linejoin:round; stroke-width:2; stroke-opacity:0.1; fill:none" points="186.274,1198.17 1171.86,1198.17 "/>
<polyline clip-path="url(#clip763)" style="stroke:#000000; stroke-linecap:round; stroke-linejoin:round; stroke-width:2; stroke-opacity:0.1; fill:none" points="186.274,1094.26 1171.86,1094.26 "/>
<polyline clip-path="url(#clip763)" style="stroke:#000000; stroke-linecap:round; stroke-linejoin:round; stroke-width:2; stroke-opacity:0.1; fill:none" points="186.274,990.357 1171.86,990.357 "/>
<polyline clip-path="url(#clip763)" style="stroke:#000000; stroke-linecap:round; stroke-linejoin:round; stroke-width:2; stroke-opacity:0.1; fill:none" points="186.274,886.451 1171.86,886.451 "/>
<polyline clip-path="url(#clip760)" style="stroke:#000000; stroke-linecap:round; stroke-linejoin:round; stroke-width:4; stroke-opacity:1; fill:none" points="186.274,1423.18 1171.86,1423.18 "/>
<polyline clip-path="url(#clip760)" style="stroke:#000000; stroke-linecap:round; stroke-linejoin:round; stroke-width:4; stroke-opacity:1; fill:none" points="214.168,1423.18 214.168,1404.28 "/>
<polyline clip-path="url(#clip760)" style="stroke:#000000; stroke-linecap:round; stroke-linejoin:round; stroke-width:4; stroke-opacity:1; fill:none" points="420.791,1423.18 420.791,1404.28 "/>
<polyline clip-path="url(#clip760)" style="stroke:#000000; stroke-linecap:round; stroke-linejoin:round; stroke-width:4; stroke-opacity:1; fill:none" points="627.414,1423.18 627.414,1404.28 "/>
<polyline clip-path="url(#clip760)" style="stroke:#000000; stroke-linecap:round; stroke-linejoin:round; stroke-width:4; stroke-opacity:1; fill:none" points="834.036,1423.18 834.036,1404.28 "/>
<polyline clip-path="url(#clip760)" style="stroke:#000000; stroke-linecap:round; stroke-linejoin:round; stroke-width:4; stroke-opacity:1; fill:none" points="1040.66,1423.18 1040.66,1404.28 "/>
<path clip-path="url(#clip760)" d="M214.168 1454.1 Q210.557 1454.1 208.728 1457.66 Q206.923 1461.2 206.923 1468.33 Q206.923 1475.44 208.728 1479.01 Q210.557 1482.55 214.168 1482.55 Q217.802 1482.55 219.608 1479.01 Q221.437 1475.44 221.437 1468.33 Q221.437 1461.2 219.608 1457.66 Q217.802 1454.1 214.168 1454.1 M214.168 1450.39 Q219.978 1450.39 223.034 1455 Q226.112 1459.58 226.112 1468.33 Q226.112 1477.06 223.034 1481.67 Q219.978 1486.25 214.168 1486.25 Q208.358 1486.25 205.279 1481.67 Q202.224 1477.06 202.224 1468.33 Q202.224 1459.58 205.279 1455 Q208.358 1450.39 214.168 1450.39 Z" fill="#000000" fill-rule="nonzero" fill-opacity="1" /><path clip-path="url(#clip760)" d="M415.444 1481.64 L431.763 1481.64 L431.763 1485.58 L409.819 1485.58 L409.819 1481.64 Q412.481 1478.89 417.064 1474.26 Q421.67 1469.61 422.851 1468.27 Q425.096 1465.74 425.976 1464.01 Q426.879 1462.25 426.879 1460.56 Q426.879 1457.8 424.934 1456.07 Q423.013 1454.33 419.911 1454.33 Q417.712 1454.33 415.258 1455.09 Q412.828 1455.86 410.05 1457.41 L410.05 1452.69 Q412.874 1451.55 415.328 1450.97 Q417.782 1450.39 419.819 1450.39 Q425.189 1450.39 428.383 1453.08 Q431.578 1455.77 431.578 1460.26 Q431.578 1462.39 430.768 1464.31 Q429.981 1466.2 427.874 1468.8 Q427.295 1469.47 424.194 1472.69 Q421.092 1475.88 415.444 1481.64 Z" fill="#000000" fill-rule="nonzero" fill-opacity="1" /><path clip-path="url(#clip760)" d="M630.423 1455.09 L618.617 1473.54 L630.423 1473.54 L630.423 1455.09 M629.196 1451.02 L635.076 1451.02 L635.076 1473.54 L640.006 1473.54 L640.006 1477.43 L635.076 1477.43 L635.076 1485.58 L630.423 1485.58 L630.423 1477.43 L614.821 1477.43 L614.821 1472.92 L629.196 1451.02 Z" fill="#000000" fill-rule="nonzero" fill-opacity="1" /><path clip-path="url(#clip760)" d="M834.441 1466.44 Q831.293 1466.44 829.441 1468.59 Q827.613 1470.74 827.613 1474.49 Q827.613 1478.22 829.441 1480.39 Q831.293 1482.55 834.441 1482.55 Q837.59 1482.55 839.418 1480.39 Q841.27 1478.22 841.27 1474.49 Q841.27 1470.74 839.418 1468.59 Q837.59 1466.44 834.441 1466.44 M843.724 1451.78 L843.724 1456.04 Q841.965 1455.21 840.159 1454.77 Q838.377 1454.33 836.617 1454.33 Q831.988 1454.33 829.534 1457.45 Q827.104 1460.58 826.756 1466.9 Q828.122 1464.89 830.182 1463.82 Q832.242 1462.73 834.719 1462.73 Q839.928 1462.73 842.937 1465.9 Q845.969 1469.05 845.969 1474.49 Q845.969 1479.82 842.821 1483.03 Q839.673 1486.25 834.441 1486.25 Q828.446 1486.25 825.275 1481.67 Q822.104 1477.06 822.104 1468.33 Q822.104 1460.14 825.992 1455.28 Q829.881 1450.39 836.432 1450.39 Q838.191 1450.39 839.974 1450.74 Q841.779 1451.09 843.724 1451.78 Z" fill="#000000" fill-rule="nonzero" fill-opacity="1" /><path clip-path="url(#clip760)" d="M1040.66 1469.17 Q1037.33 1469.17 1035.4 1470.95 Q1033.51 1472.73 1033.51 1475.86 Q1033.51 1478.98 1035.4 1480.77 Q1037.33 1482.55 1040.66 1482.55 Q1043.99 1482.55 1045.91 1480.77 Q1047.84 1478.96 1047.84 1475.86 Q1047.84 1472.73 1045.91 1470.95 Q1044.02 1469.17 1040.66 1469.17 M1035.98 1467.18 Q1032.97 1466.44 1031.28 1464.38 Q1029.62 1462.32 1029.62 1459.35 Q1029.62 1455.21 1032.56 1452.8 Q1035.52 1450.39 1040.66 1450.39 Q1045.82 1450.39 1048.76 1452.8 Q1051.7 1455.21 1051.7 1459.35 Q1051.7 1462.32 1050.01 1464.38 Q1048.34 1466.44 1045.36 1467.18 Q1048.74 1467.96 1050.61 1470.26 Q1052.51 1472.55 1052.51 1475.86 Q1052.51 1480.88 1049.43 1483.57 Q1046.38 1486.25 1040.66 1486.25 Q1034.94 1486.25 1031.86 1483.57 Q1028.81 1480.88 1028.81 1475.86 Q1028.81 1472.55 1030.71 1470.26 Q1032.6 1467.96 1035.98 1467.18 M1034.27 1459.79 Q1034.27 1462.48 1035.94 1463.98 Q1037.63 1465.49 1040.66 1465.49 Q1043.67 1465.49 1045.36 1463.98 Q1047.07 1462.48 1047.07 1459.79 Q1047.07 1457.11 1045.36 1455.6 Q1043.67 1454.1 1040.66 1454.1 Q1037.63 1454.1 1035.94 1455.6 Q1034.27 1457.11 1034.27 1459.79 Z" fill="#000000" fill-rule="nonzero" fill-opacity="1" /><path clip-path="url(#clip760)" d="M520.134 1520.52 L560.333 1520.52 L560.333 1525.93 L543.464 1525.93 L543.464 1568.04 L537.003 1568.04 L537.003 1525.93 L520.134 1525.93 L520.134 1520.52 Z" fill="#000000" fill-rule="nonzero" fill-opacity="1" /><path clip-path="url(#clip760)" d="M564.28 1532.4 L570.136 1532.4 L570.136 1568.04 L564.28 1568.04 L564.28 1532.4 M564.28 1518.52 L570.136 1518.52 L570.136 1525.93 L564.28 1525.93 L564.28 1518.52 Z" fill="#000000" fill-rule="nonzero" fill-opacity="1" /><path clip-path="url(#clip760)" d="M610.145 1539.24 Q612.341 1535.29 615.396 1533.41 Q618.452 1531.54 622.59 1531.54 Q628.16 1531.54 631.183 1535.45 Q634.207 1539.33 634.207 1546.53 L634.207 1568.04 L628.319 1568.04 L628.319 1546.72 Q628.319 1541.59 626.504 1539.11 Q624.69 1536.63 620.966 1536.63 Q616.415 1536.63 613.773 1539.65 Q611.131 1542.68 611.131 1547.9 L611.131 1568.04 L605.243 1568.04 L605.243 1546.72 Q605.243 1541.56 603.429 1539.11 Q601.615 1536.63 597.827 1536.63 Q593.339 1536.63 590.697 1539.68 Q588.056 1542.71 588.056 1547.9 L588.056 1568.04 L582.167 1568.04 L582.167 1532.4 L588.056 1532.4 L588.056 1537.93 Q590.061 1534.66 592.862 1533.1 Q595.663 1531.54 599.514 1531.54 Q603.397 1531.54 606.102 1533.51 Q608.84 1535.48 610.145 1539.24 Z" fill="#000000" fill-rule="nonzero" fill-opacity="1" /><path clip-path="url(#clip760)" d="M676.38 1548.76 L676.38 1551.62 L649.453 1551.62 Q649.835 1557.67 653.081 1560.85 Q656.36 1564 662.184 1564 Q665.558 1564 668.709 1563.17 Q671.892 1562.35 675.011 1560.69 L675.011 1566.23 Q671.86 1567.57 668.55 1568.27 Q665.24 1568.97 661.834 1568.97 Q653.304 1568.97 648.307 1564 Q643.342 1559.04 643.342 1550.57 Q643.342 1541.82 648.052 1536.69 Q652.795 1531.54 660.816 1531.54 Q668.009 1531.54 672.178 1536.18 Q676.38 1540.8 676.38 1548.76 M670.523 1547.04 Q670.46 1542.23 667.818 1539.37 Q665.208 1536.5 660.879 1536.5 Q655.978 1536.5 653.018 1539.27 Q650.089 1542.04 649.644 1547.07 L670.523 1547.04 Z" fill="#000000" fill-rule="nonzero" fill-opacity="1" /><path clip-path="url(#clip760)" d="M729.438 1533.45 L729.438 1538.98 Q726.955 1537.71 724.282 1537.07 Q721.608 1536.44 718.744 1536.44 Q714.383 1536.44 712.187 1537.77 Q710.023 1539.11 710.023 1541.79 Q710.023 1543.82 711.582 1545 Q713.142 1546.15 717.852 1547.2 L719.858 1547.64 Q726.096 1548.98 728.706 1551.43 Q731.348 1553.85 731.348 1558.21 Q731.348 1563.17 727.401 1566.07 Q723.486 1568.97 716.611 1568.97 Q713.746 1568.97 710.627 1568.39 Q707.54 1567.85 704.102 1566.74 L704.102 1560.69 Q707.349 1562.38 710.5 1563.24 Q713.651 1564.07 716.738 1564.07 Q720.876 1564.07 723.104 1562.66 Q725.332 1561.23 725.332 1558.65 Q725.332 1556.27 723.709 1554.99 Q722.117 1553.72 716.675 1552.54 L714.638 1552.07 Q709.195 1550.92 706.776 1548.56 Q704.357 1546.18 704.357 1542.04 Q704.357 1537.01 707.922 1534.27 Q711.487 1531.54 718.043 1531.54 Q721.29 1531.54 724.154 1532.01 Q727.019 1532.49 729.438 1533.45 Z" fill="#000000" fill-rule="nonzero" fill-opacity="1" /><path clip-path="url(#clip760)" d="M746.466 1522.27 L746.466 1532.4 L758.529 1532.4 L758.529 1536.95 L746.466 1536.95 L746.466 1556.3 Q746.466 1560.66 747.644 1561.9 Q748.853 1563.14 752.514 1563.14 L758.529 1563.14 L758.529 1568.04 L752.514 1568.04 Q745.734 1568.04 743.156 1565.53 Q740.578 1562.98 740.578 1556.3 L740.578 1536.95 L736.281 1536.95 L736.281 1532.4 L740.578 1532.4 L740.578 1522.27 L746.466 1522.27 Z" fill="#000000" fill-rule="nonzero" fill-opacity="1" /><path clip-path="url(#clip760)" d="M796.723 1548.76 L796.723 1551.62 L769.797 1551.62 Q770.178 1557.67 773.425 1560.85 Q776.703 1564 782.528 1564 Q785.902 1564 789.053 1563.17 Q792.236 1562.35 795.355 1560.69 L795.355 1566.23 Q792.204 1567.57 788.894 1568.27 Q785.583 1568.97 782.178 1568.97 Q773.648 1568.97 768.651 1564 Q763.685 1559.04 763.685 1550.57 Q763.685 1541.82 768.396 1536.69 Q773.139 1531.54 781.159 1531.54 Q788.353 1531.54 792.522 1536.18 Q796.723 1540.8 796.723 1548.76 M790.867 1547.04 Q790.803 1542.23 788.162 1539.37 Q785.552 1536.5 781.223 1536.5 Q776.321 1536.5 773.361 1539.27 Q770.433 1542.04 769.988 1547.07 L790.867 1547.04 Z" fill="#000000" fill-rule="nonzero" fill-opacity="1" /><path clip-path="url(#clip760)" d="M812.001 1562.7 L812.001 1581.6 L806.113 1581.6 L806.113 1532.4 L812.001 1532.4 L812.001 1537.81 Q813.847 1534.62 816.648 1533.1 Q819.481 1531.54 823.396 1531.54 Q829.889 1531.54 833.931 1536.69 Q838.005 1541.85 838.005 1550.25 Q838.005 1558.65 833.931 1563.81 Q829.889 1568.97 823.396 1568.97 Q819.481 1568.97 816.648 1567.44 Q813.847 1565.88 812.001 1562.7 M831.926 1550.25 Q831.926 1543.79 829.252 1540.13 Q826.61 1536.44 821.964 1536.44 Q817.317 1536.44 814.643 1540.13 Q812.001 1543.79 812.001 1550.25 Q812.001 1556.71 814.643 1560.4 Q817.317 1564.07 821.964 1564.07 Q826.61 1564.07 829.252 1560.4 Q831.926 1556.71 831.926 1550.25 Z" fill="#000000" fill-rule="nonzero" fill-opacity="1" /><polyline clip-path="url(#clip760)" style="stroke:#000000; stroke-linecap:round; stroke-linejoin:round; stroke-width:4; stroke-opacity:1; fill:none" points="186.274,1423.18 186.274,815.61 "/>
<polyline clip-path="url(#clip760)" style="stroke:#000000; stroke-linecap:round; stroke-linejoin:round; stroke-width:4; stroke-opacity:1; fill:none" points="186.274,1405.98 205.172,1405.98 "/>
<polyline clip-path="url(#clip760)" style="stroke:#000000; stroke-linecap:round; stroke-linejoin:round; stroke-width:4; stroke-opacity:1; fill:none" points="186.274,1302.08 205.172,1302.08 "/>
<polyline clip-path="url(#clip760)" style="stroke:#000000; stroke-linecap:round; stroke-linejoin:round; stroke-width:4; stroke-opacity:1; fill:none" points="186.274,1198.17 205.172,1198.17 "/>
<polyline clip-path="url(#clip760)" style="stroke:#000000; stroke-linecap:round; stroke-linejoin:round; stroke-width:4; stroke-opacity:1; fill:none" points="186.274,1094.26 205.172,1094.26 "/>
<polyline clip-path="url(#clip760)" style="stroke:#000000; stroke-linecap:round; stroke-linejoin:round; stroke-width:4; stroke-opacity:1; fill:none" points="186.274,990.357 205.172,990.357 "/>
<polyline clip-path="url(#clip760)" style="stroke:#000000; stroke-linecap:round; stroke-linejoin:round; stroke-width:4; stroke-opacity:1; fill:none" points="186.274,886.451 205.172,886.451 "/>
<path clip-path="url(#clip760)" d="M93.0984 1391.78 Q89.4873 1391.78 87.6586 1395.35 Q85.8531 1398.89 85.8531 1406.02 Q85.8531 1413.13 87.6586 1416.69 Q89.4873 1420.23 93.0984 1420.23 Q96.7326 1420.23 98.5382 1416.69 Q100.367 1413.13 100.367 1406.02 Q100.367 1398.89 98.5382 1395.35 Q96.7326 1391.78 93.0984 1391.78 M93.0984 1388.08 Q98.9085 1388.08 101.964 1392.69 Q105.043 1397.27 105.043 1406.02 Q105.043 1414.75 101.964 1419.35 Q98.9085 1423.94 93.0984 1423.94 Q87.2882 1423.94 84.2095 1419.35 Q81.154 1414.75 81.154 1406.02 Q81.154 1397.27 84.2095 1392.69 Q87.2882 1388.08 93.0984 1388.08 Z" fill="#000000" fill-rule="nonzero" fill-opacity="1" /><path clip-path="url(#clip760)" d="M113.26 1417.38 L118.145 1417.38 L118.145 1423.26 L113.26 1423.26 L113.26 1417.38 Z" fill="#000000" fill-rule="nonzero" fill-opacity="1" /><path clip-path="url(#clip760)" d="M138.33 1391.78 Q134.719 1391.78 132.89 1395.35 Q131.084 1398.89 131.084 1406.02 Q131.084 1413.13 132.89 1416.69 Q134.719 1420.23 138.33 1420.23 Q141.964 1420.23 143.769 1416.69 Q145.598 1413.13 145.598 1406.02 Q145.598 1398.89 143.769 1395.35 Q141.964 1391.78 138.33 1391.78 M138.33 1388.08 Q144.14 1388.08 147.195 1392.69 Q150.274 1397.27 150.274 1406.02 Q150.274 1414.75 147.195 1419.35 Q144.14 1423.94 138.33 1423.94 Q132.519 1423.94 129.441 1419.35 Q126.385 1414.75 126.385 1406.02 Q126.385 1397.27 129.441 1392.69 Q132.519 1388.08 138.33 1388.08 Z" fill="#000000" fill-rule="nonzero" fill-opacity="1" /><path clip-path="url(#clip760)" d="M94.3252 1287.88 Q90.7141 1287.88 88.8854 1291.44 Q87.0799 1294.98 87.0799 1302.11 Q87.0799 1309.22 88.8854 1312.78 Q90.7141 1316.33 94.3252 1316.33 Q97.9595 1316.33 99.765 1312.78 Q101.594 1309.22 101.594 1302.11 Q101.594 1294.98 99.765 1291.44 Q97.9595 1287.88 94.3252 1287.88 M94.3252 1284.17 Q100.135 1284.17 103.191 1288.78 Q106.27 1293.36 106.27 1302.11 Q106.27 1310.84 103.191 1315.45 Q100.135 1320.03 94.3252 1320.03 Q88.5151 1320.03 85.4364 1315.45 Q82.3808 1310.84 82.3808 1302.11 Q82.3808 1293.36 85.4364 1288.78 Q88.5151 1284.17 94.3252 1284.17 Z" fill="#000000" fill-rule="nonzero" fill-opacity="1" /><path clip-path="url(#clip760)" d="M114.487 1313.48 L119.371 1313.48 L119.371 1319.36 L114.487 1319.36 L114.487 1313.48 Z" fill="#000000" fill-rule="nonzero" fill-opacity="1" /><path clip-path="url(#clip760)" d="M130.367 1315.42 L138.006 1315.42 L138.006 1289.06 L129.695 1290.72 L129.695 1286.46 L137.959 1284.8 L142.635 1284.8 L142.635 1315.42 L150.274 1315.42 L150.274 1319.36 L130.367 1319.36 L130.367 1315.42 Z" fill="#000000" fill-rule="nonzero" fill-opacity="1" /><path clip-path="url(#clip760)" d="M94.6956 1183.97 Q91.0845 1183.97 89.2558 1187.53 Q87.4503 1191.08 87.4503 1198.21 Q87.4503 1205.31 89.2558 1208.88 Q91.0845 1212.42 94.6956 1212.42 Q98.3298 1212.42 100.135 1208.88 Q101.964 1205.31 101.964 1198.21 Q101.964 1191.08 100.135 1187.53 Q98.3298 1183.97 94.6956 1183.97 M94.6956 1180.27 Q100.506 1180.27 103.561 1184.87 Q106.64 1189.46 106.64 1198.21 Q106.64 1206.93 103.561 1211.54 Q100.506 1216.12 94.6956 1216.12 Q88.8854 1216.12 85.8068 1211.54 Q82.7512 1206.93 82.7512 1198.21 Q82.7512 1189.46 85.8068 1184.87 Q88.8854 1180.27 94.6956 1180.27 Z" fill="#000000" fill-rule="nonzero" fill-opacity="1" /><path clip-path="url(#clip760)" d="M114.858 1209.57 L119.742 1209.57 L119.742 1215.45 L114.858 1215.45 L114.858 1209.57 Z" fill="#000000" fill-rule="nonzero" fill-opacity="1" /><path clip-path="url(#clip760)" d="M133.955 1211.52 L150.274 1211.52 L150.274 1215.45 L128.33 1215.45 L128.33 1211.52 Q130.992 1208.76 135.575 1204.13 Q140.181 1199.48 141.362 1198.14 Q143.607 1195.61 144.487 1193.88 Q145.39 1192.12 145.39 1190.43 Q145.39 1187.67 143.445 1185.94 Q141.524 1184.2 138.422 1184.2 Q136.223 1184.2 133.769 1184.97 Q131.339 1185.73 128.561 1187.28 L128.561 1182.56 Q131.385 1181.42 133.839 1180.84 Q136.293 1180.27 138.33 1180.27 Q143.7 1180.27 146.894 1182.95 Q150.089 1185.64 150.089 1190.13 Q150.089 1192.26 149.279 1194.18 Q148.492 1196.08 146.385 1198.67 Q145.806 1199.34 142.705 1202.56 Q139.603 1205.75 133.955 1211.52 Z" fill="#000000" fill-rule="nonzero" fill-opacity="1" /><path clip-path="url(#clip760)" d="M93.7465 1080.06 Q90.1354 1080.06 88.3067 1083.63 Q86.5012 1087.17 86.5012 1094.3 Q86.5012 1101.41 88.3067 1104.97 Q90.1354 1108.51 93.7465 1108.51 Q97.3808 1108.51 99.1863 1104.97 Q101.015 1101.41 101.015 1094.3 Q101.015 1087.17 99.1863 1083.63 Q97.3808 1080.06 93.7465 1080.06 M93.7465 1076.36 Q99.5567 1076.36 102.612 1080.97 Q105.691 1085.55 105.691 1094.3 Q105.691 1103.03 102.612 1107.63 Q99.5567 1112.22 93.7465 1112.22 Q87.9364 1112.22 84.8577 1107.63 Q81.8021 1103.03 81.8021 1094.3 Q81.8021 1085.55 84.8577 1080.97 Q87.9364 1076.36 93.7465 1076.36 Z" fill="#000000" fill-rule="nonzero" fill-opacity="1" /><path clip-path="url(#clip760)" d="M113.908 1105.66 L118.793 1105.66 L118.793 1111.54 L113.908 1111.54 L113.908 1105.66 Z" fill="#000000" fill-rule="nonzero" fill-opacity="1" /><path clip-path="url(#clip760)" d="M143.144 1092.91 Q146.501 1093.63 148.376 1095.9 Q150.274 1098.16 150.274 1101.5 Q150.274 1106.61 146.756 1109.41 Q143.237 1112.22 136.756 1112.22 Q134.58 1112.22 132.265 1111.78 Q129.973 1111.36 127.519 1110.5 L127.519 1105.99 Q129.464 1107.12 131.779 1107.7 Q134.094 1108.28 136.617 1108.28 Q141.015 1108.28 143.306 1106.54 Q145.621 1104.81 145.621 1101.5 Q145.621 1098.44 143.468 1096.73 Q141.339 1094.99 137.519 1094.99 L133.492 1094.99 L133.492 1091.15 L137.705 1091.15 Q141.154 1091.15 142.982 1089.79 Q144.811 1088.4 144.811 1085.8 Q144.811 1083.14 142.913 1081.73 Q141.038 1080.29 137.519 1080.29 Q135.598 1080.29 133.399 1080.71 Q131.2 1081.13 128.561 1082.01 L128.561 1077.84 Q131.223 1077.1 133.538 1076.73 Q135.876 1076.36 137.936 1076.36 Q143.26 1076.36 146.362 1078.79 Q149.464 1081.2 149.464 1085.32 Q149.464 1088.19 147.82 1090.18 Q146.177 1092.15 143.144 1092.91 Z" fill="#000000" fill-rule="nonzero" fill-opacity="1" /><path clip-path="url(#clip760)" d="M92.6123 976.156 Q89.0012 976.156 87.1725 979.721 Q85.3669 983.263 85.3669 990.392 Q85.3669 997.499 87.1725 1001.06 Q89.0012 1004.61 92.6123 1004.61 Q96.2465 1004.61 98.0521 1001.06 Q99.8808 997.499 99.8808 990.392 Q99.8808 983.263 98.0521 979.721 Q96.2465 976.156 92.6123 976.156 M92.6123 972.452 Q98.4224 972.452 101.478 977.059 Q104.557 981.642 104.557 990.392 Q104.557 999.119 101.478 1003.73 Q98.4224 1008.31 92.6123 1008.31 Q86.8021 1008.31 83.7234 1003.73 Q80.6679 999.119 80.6679 990.392 Q80.6679 981.642 83.7234 977.059 Q86.8021 972.452 92.6123 972.452 Z" fill="#000000" fill-rule="nonzero" fill-opacity="1" /><path clip-path="url(#clip760)" d="M112.774 1001.76 L117.658 1001.76 L117.658 1007.64 L112.774 1007.64 L112.774 1001.76 Z" fill="#000000" fill-rule="nonzero" fill-opacity="1" /><path clip-path="url(#clip760)" d="M140.691 977.152 L128.885 995.6 L140.691 995.6 L140.691 977.152 M139.464 973.077 L145.343 973.077 L145.343 995.6 L150.274 995.6 L150.274 999.489 L145.343 999.489 L145.343 1007.64 L140.691 1007.64 L140.691 999.489 L125.089 999.489 L125.089 994.975 L139.464 973.077 Z" fill="#000000" fill-rule="nonzero" fill-opacity="1" /><path clip-path="url(#clip760)" d="M94.0937 872.249 Q90.4827 872.249 88.654 875.814 Q86.8484 879.356 86.8484 886.485 Q86.8484 893.592 88.654 897.157 Q90.4827 900.698 94.0937 900.698 Q97.728 900.698 99.5335 897.157 Q101.362 893.592 101.362 886.485 Q101.362 879.356 99.5335 875.814 Q97.728 872.249 94.0937 872.249 M94.0937 868.546 Q99.9039 868.546 102.959 873.152 Q106.038 877.735 106.038 886.485 Q106.038 895.212 102.959 899.819 Q99.9039 904.402 94.0937 904.402 Q88.2836 904.402 85.2049 899.819 Q82.1494 895.212 82.1494 886.485 Q82.1494 877.735 85.2049 873.152 Q88.2836 868.546 94.0937 868.546 Z" fill="#000000" fill-rule="nonzero" fill-opacity="1" /><path clip-path="url(#clip760)" d="M114.256 897.851 L119.14 897.851 L119.14 903.731 L114.256 903.731 L114.256 897.851 Z" fill="#000000" fill-rule="nonzero" fill-opacity="1" /><path clip-path="url(#clip760)" d="M129.371 869.171 L147.728 869.171 L147.728 873.106 L133.654 873.106 L133.654 881.578 Q134.672 881.231 135.691 881.069 Q136.709 880.884 137.728 880.884 Q143.515 880.884 146.894 884.055 Q150.274 887.226 150.274 892.643 Q150.274 898.221 146.802 901.323 Q143.33 904.402 137.01 904.402 Q134.834 904.402 132.566 904.032 Q130.32 903.661 127.913 902.921 L127.913 898.221 Q129.996 899.356 132.219 899.911 Q134.441 900.467 136.918 900.467 Q140.922 900.467 143.26 898.36 Q145.598 896.254 145.598 892.643 Q145.598 889.032 143.26 886.925 Q140.922 884.819 136.918 884.819 Q135.043 884.819 133.168 885.235 Q131.316 885.652 129.371 886.532 L129.371 869.171 Z" fill="#000000" fill-rule="nonzero" fill-opacity="1" /><polyline clip-path="url(#clip763)" style="stroke:#009af9; stroke-linecap:round; stroke-linejoin:round; stroke-width:4; stroke-opacity:1; fill:none" points="214.168,1405.98 317.479,1128.16 420.791,914.601 524.102,832.805 627.414,834.453 730.725,861.501 834.036,882.925 937.348,891.927 1040.66,892.654 1143.97,890.531 "/>
<polyline clip-path="url(#clip763)" style="stroke:#e26f46; stroke-linecap:round; stroke-linejoin:round; stroke-width:2; stroke-opacity:1; fill:none" stroke-dasharray="8, 5" points="214.168,1405.98 317.479,1405.98 420.791,1405.98 524.102,1405.98 627.414,1405.98 730.725,1405.98 834.036,1405.98 937.348,1405.98 1040.66,1405.98 1143.97,1405.98 "/>
<path clip-path="url(#clip760)" d="M219.127 939.542 L366.457 939.542 L366.457 835.862 L219.127 835.862  Z" fill="#ffffff" fill-rule="evenodd" fill-opacity="1"/>
<polyline clip-path="url(#clip760)" style="stroke:#000000; stroke-linecap:round; stroke-linejoin:round; stroke-width:4; stroke-opacity:1; fill:none" points="219.127,939.542 366.457,939.542 366.457,835.862 219.127,835.862 219.127,939.542 "/>
<polyline clip-path="url(#clip760)" style="stroke:#009af9; stroke-linecap:round; stroke-linejoin:round; stroke-width:4; stroke-opacity:1; fill:none" points="230.078,887.702 295.784,887.702 "/>
<path clip-path="url(#clip760)" d="M328.869 867.313 Q328.869 867.64 328.658 868.413 L324.068 886.73 Q323.061 890.805 319.781 893.663 Q316.526 896.52 312.825 896.52 Q310.6 896.52 309.171 895.326 Q307.742 894.155 307.742 892.351 Q307.742 890.758 308.585 889.985 Q309.429 889.236 310.436 889.236 Q310.764 889.236 311.115 889.33 Q311.466 889.423 311.841 889.821 Q312.216 890.22 312.216 890.899 Q312.216 892 311.256 892.866 Q310.787 893.265 310.342 893.358 Q309.921 893.452 309.194 893.452 Q309.476 894.108 309.991 894.553 Q310.506 894.998 311.092 895.162 Q311.677 895.349 312.052 895.396 Q312.45 895.466 312.825 895.466 Q315.823 895.466 318.118 892.445 Q318.798 891.531 319.29 890.618 Q319.805 889.728 320.18 888.627 Q320.554 887.55 320.718 886.964 Q320.906 886.378 321.234 885.043 Q319.055 887.222 316.385 887.222 Q315.261 887.222 314.254 886.917 Q313.27 886.613 312.403 885.98 Q311.537 885.324 311.021 884.177 Q310.53 883.029 310.53 881.507 Q310.53 879.89 311.162 877.689 Q311.794 875.487 313.317 871.435 Q314.137 869.163 314.137 868.062 Q314.137 867.523 314.019 867.195 Q313.902 866.844 313.668 866.727 Q313.434 866.586 313.293 866.563 Q313.176 866.54 312.942 866.54 Q311.56 866.54 310.272 867.945 Q308.984 869.35 308.094 872.489 Q307.906 873.074 307.789 873.215 Q307.672 873.356 307.321 873.356 Q306.735 873.332 306.735 872.864 Q306.735 872.676 306.946 871.95 Q307.157 871.201 307.649 870.1 Q308.164 868.976 308.867 867.968 Q309.569 866.938 310.67 866.212 Q311.794 865.486 313.083 865.486 Q314.839 865.486 315.917 866.633 Q317.018 867.758 317.018 869.421 Q317.018 870.1 316.83 870.709 Q316.666 871.294 316.057 872.864 Q313.598 879.188 313.598 882.279 Q313.598 883.029 313.715 883.661 Q313.855 884.27 314.16 884.879 Q314.464 885.465 315.073 885.816 Q315.706 886.144 316.573 886.144 Q317.673 886.144 318.704 885.629 Q319.758 885.09 320.414 884.364 Q321.093 883.638 321.491 883.029 Q321.913 882.397 322.007 882.069 L324.161 873.449 L325.122 869.608 Q325.567 867.523 325.778 867.008 Q326.059 866.516 326.55 866.259 Q327.042 866.001 327.464 866.001 Q328.049 866.001 328.448 866.352 Q328.869 866.704 328.869 867.313 Z" fill="#000000" fill-rule="nonzero" fill-opacity="1" /><path clip-path="url(#clip760)" d="M333.761 909.706 Q333.761 909.1 333.811 908.919 Q333.876 908.739 334.138 908.46 L340.582 901.279 Q344.107 897.311 344.107 893.852 Q344.107 891.605 342.927 889.999 Q341.762 888.392 339.615 888.392 Q338.139 888.392 336.893 889.294 Q335.647 890.195 335.073 891.802 Q335.171 891.769 335.516 891.769 Q336.352 891.769 336.811 892.294 Q337.286 892.819 337.286 893.524 Q337.286 894.426 336.696 894.868 Q336.122 895.294 335.548 895.294 Q335.319 895.294 335.007 895.245 Q334.712 895.196 334.237 894.737 Q333.761 894.262 333.761 893.425 Q333.761 891.081 335.532 889.212 Q337.319 887.343 340.041 887.343 Q343.123 887.343 345.14 889.179 Q347.173 890.999 347.173 893.852 Q347.173 894.852 346.861 895.77 Q346.566 896.672 346.156 897.377 Q345.763 898.082 344.681 899.213 Q343.599 900.344 342.73 901.148 Q341.861 901.951 339.91 903.656 L336.352 907.116 L342.402 907.116 Q345.353 907.116 345.583 906.853 Q345.911 906.378 346.32 903.869 L347.173 903.869 L346.222 909.706 L333.761 909.706 Z" fill="#000000" fill-rule="nonzero" fill-opacity="1" /><path clip-path="url(#clip760)" d="M1367.17 1423.18 L2352.76 1423.18 L2352.76 47.2441 L1367.17 47.2441  Z" fill="#ffffff" fill-rule="evenodd" fill-opacity="1"/>
<defs>
  <clipPath id="clip764">
    <rect x="1367" y="47" width="987" height="1377"/>
  </clipPath>
</defs>
<polyline clip-path="url(#clip764)" style="stroke:#000000; stroke-linecap:round; stroke-linejoin:round; stroke-width:2; stroke-opacity:0.1; fill:none" points="1395.06,1423.18 1395.06,47.2441 "/>
<polyline clip-path="url(#clip764)" style="stroke:#000000; stroke-linecap:round; stroke-linejoin:round; stroke-width:2; stroke-opacity:0.1; fill:none" points="1601.68,1423.18 1601.68,47.2441 "/>
<polyline clip-path="url(#clip764)" style="stroke:#000000; stroke-linecap:round; stroke-linejoin:round; stroke-width:2; stroke-opacity:0.1; fill:none" points="1808.3,1423.18 1808.3,47.2441 "/>
<polyline clip-path="url(#clip764)" style="stroke:#000000; stroke-linecap:round; stroke-linejoin:round; stroke-width:2; stroke-opacity:0.1; fill:none" points="2014.93,1423.18 2014.93,47.2441 "/>
<polyline clip-path="url(#clip764)" style="stroke:#000000; stroke-linecap:round; stroke-linejoin:round; stroke-width:2; stroke-opacity:0.1; fill:none" points="2221.55,1423.18 2221.55,47.2441 "/>
<polyline clip-path="url(#clip764)" style="stroke:#000000; stroke-linecap:round; stroke-linejoin:round; stroke-width:2; stroke-opacity:0.1; fill:none" points="1367.17,1384.24 2352.76,1384.24 "/>
<polyline clip-path="url(#clip764)" style="stroke:#000000; stroke-linecap:round; stroke-linejoin:round; stroke-width:2; stroke-opacity:0.1; fill:none" points="1367.17,1167.9 2352.76,1167.9 "/>
<polyline clip-path="url(#clip764)" style="stroke:#000000; stroke-linecap:round; stroke-linejoin:round; stroke-width:2; stroke-opacity:0.1; fill:none" points="1367.17,951.554 2352.76,951.554 "/>
<polyline clip-path="url(#clip764)" style="stroke:#000000; stroke-linecap:round; stroke-linejoin:round; stroke-width:2; stroke-opacity:0.1; fill:none" points="1367.17,735.212 2352.76,735.212 "/>
<polyline clip-path="url(#clip764)" style="stroke:#000000; stroke-linecap:round; stroke-linejoin:round; stroke-width:2; stroke-opacity:0.1; fill:none" points="1367.17,518.87 2352.76,518.87 "/>
<polyline clip-path="url(#clip764)" style="stroke:#000000; stroke-linecap:round; stroke-linejoin:round; stroke-width:2; stroke-opacity:0.1; fill:none" points="1367.17,302.528 2352.76,302.528 "/>
<polyline clip-path="url(#clip764)" style="stroke:#000000; stroke-linecap:round; stroke-linejoin:round; stroke-width:2; stroke-opacity:0.1; fill:none" points="1367.17,86.1857 2352.76,86.1857 "/>
<polyline clip-path="url(#clip760)" style="stroke:#000000; stroke-linecap:round; stroke-linejoin:round; stroke-width:4; stroke-opacity:1; fill:none" points="1367.17,1423.18 2352.76,1423.18 "/>
<polyline clip-path="url(#clip760)" style="stroke:#000000; stroke-linecap:round; stroke-linejoin:round; stroke-width:4; stroke-opacity:1; fill:none" points="1395.06,1423.18 1395.06,1404.28 "/>
<polyline clip-path="url(#clip760)" style="stroke:#000000; stroke-linecap:round; stroke-linejoin:round; stroke-width:4; stroke-opacity:1; fill:none" points="1601.68,1423.18 1601.68,1404.28 "/>
<polyline clip-path="url(#clip760)" style="stroke:#000000; stroke-linecap:round; stroke-linejoin:round; stroke-width:4; stroke-opacity:1; fill:none" points="1808.3,1423.18 1808.3,1404.28 "/>
<polyline clip-path="url(#clip760)" style="stroke:#000000; stroke-linecap:round; stroke-linejoin:round; stroke-width:4; stroke-opacity:1; fill:none" points="2014.93,1423.18 2014.93,1404.28 "/>
<polyline clip-path="url(#clip760)" style="stroke:#000000; stroke-linecap:round; stroke-linejoin:round; stroke-width:4; stroke-opacity:1; fill:none" points="2221.55,1423.18 2221.55,1404.28 "/>
<path clip-path="url(#clip760)" d="M1395.06 1454.1 Q1391.45 1454.1 1389.62 1457.66 Q1387.81 1461.2 1387.81 1468.33 Q1387.81 1475.44 1389.62 1479.01 Q1391.45 1482.55 1395.06 1482.55 Q1398.69 1482.55 1400.5 1479.01 Q1402.33 1475.44 1402.33 1468.33 Q1402.33 1461.2 1400.5 1457.66 Q1398.69 1454.1 1395.06 1454.1 M1395.06 1450.39 Q1400.87 1450.39 1403.93 1455 Q1407 1459.58 1407 1468.33 Q1407 1477.06 1403.93 1481.67 Q1400.87 1486.25 1395.06 1486.25 Q1389.25 1486.25 1386.17 1481.67 Q1383.12 1477.06 1383.12 1468.33 Q1383.12 1459.58 1386.17 1455 Q1389.25 1450.39 1395.06 1450.39 Z" fill="#000000" fill-rule="nonzero" fill-opacity="1" /><path clip-path="url(#clip760)" d="M1596.33 1481.64 L1612.65 1481.64 L1612.65 1485.58 L1590.71 1485.58 L1590.71 1481.64 Q1593.37 1478.89 1597.96 1474.26 Q1602.56 1469.61 1603.74 1468.27 Q1605.99 1465.74 1606.87 1464.01 Q1607.77 1462.25 1607.77 1460.56 Q1607.77 1457.8 1605.83 1456.07 Q1603.9 1454.33 1600.8 1454.33 Q1598.6 1454.33 1596.15 1455.09 Q1593.72 1455.86 1590.94 1457.41 L1590.94 1452.69 Q1593.77 1451.55 1596.22 1450.97 Q1598.67 1450.39 1600.71 1450.39 Q1606.08 1450.39 1609.27 1453.08 Q1612.47 1455.77 1612.47 1460.26 Q1612.47 1462.39 1611.66 1464.31 Q1610.87 1466.2 1608.77 1468.8 Q1608.19 1469.47 1605.08 1472.69 Q1601.98 1475.88 1596.33 1481.64 Z" fill="#000000" fill-rule="nonzero" fill-opacity="1" /><path clip-path="url(#clip760)" d="M1811.31 1455.09 L1799.51 1473.54 L1811.31 1473.54 L1811.31 1455.09 M1810.09 1451.02 L1815.97 1451.02 L1815.97 1473.54 L1820.9 1473.54 L1820.9 1477.43 L1815.97 1477.43 L1815.97 1485.58 L1811.31 1485.58 L1811.31 1477.43 L1795.71 1477.43 L1795.71 1472.92 L1810.09 1451.02 Z" fill="#000000" fill-rule="nonzero" fill-opacity="1" /><path clip-path="url(#clip760)" d="M2015.33 1466.44 Q2012.18 1466.44 2010.33 1468.59 Q2008.5 1470.74 2008.5 1474.49 Q2008.5 1478.22 2010.33 1480.39 Q2012.18 1482.55 2015.33 1482.55 Q2018.48 1482.55 2020.31 1480.39 Q2022.16 1478.22 2022.16 1474.49 Q2022.16 1470.74 2020.31 1468.59 Q2018.48 1466.44 2015.33 1466.44 M2024.62 1451.78 L2024.62 1456.04 Q2022.86 1455.21 2021.05 1454.77 Q2019.27 1454.33 2017.51 1454.33 Q2012.88 1454.33 2010.43 1457.45 Q2007.99 1460.58 2007.65 1466.9 Q2009.01 1464.89 2011.07 1463.82 Q2013.13 1462.73 2015.61 1462.73 Q2020.82 1462.73 2023.83 1465.9 Q2026.86 1469.05 2026.86 1474.49 Q2026.86 1479.82 2023.71 1483.03 Q2020.56 1486.25 2015.33 1486.25 Q2009.34 1486.25 2006.17 1481.67 Q2002.99 1477.06 2002.99 1468.33 Q2002.99 1460.14 2006.88 1455.28 Q2010.77 1450.39 2017.32 1450.39 Q2019.08 1450.39 2020.87 1450.74 Q2022.67 1451.09 2024.62 1451.78 Z" fill="#000000" fill-rule="nonzero" fill-opacity="1" /><path clip-path="url(#clip760)" d="M2221.55 1469.17 Q2218.22 1469.17 2216.3 1470.95 Q2214.4 1472.73 2214.4 1475.86 Q2214.4 1478.98 2216.3 1480.77 Q2218.22 1482.55 2221.55 1482.55 Q2224.88 1482.55 2226.81 1480.77 Q2228.73 1478.96 2228.73 1475.86 Q2228.73 1472.73 2226.81 1470.95 Q2224.91 1469.17 2221.55 1469.17 M2216.87 1467.18 Q2213.87 1466.44 2212.18 1464.38 Q2210.51 1462.32 2210.51 1459.35 Q2210.51 1455.21 2213.45 1452.8 Q2216.41 1450.39 2221.55 1450.39 Q2226.71 1450.39 2229.65 1452.8 Q2232.59 1455.21 2232.59 1459.35 Q2232.59 1462.32 2230.9 1464.38 Q2229.24 1466.44 2226.25 1467.18 Q2229.63 1467.96 2231.5 1470.26 Q2233.4 1472.55 2233.4 1475.86 Q2233.4 1480.88 2230.32 1483.57 Q2227.27 1486.25 2221.55 1486.25 Q2215.83 1486.25 2212.75 1483.57 Q2209.7 1480.88 2209.7 1475.86 Q2209.7 1472.55 2211.6 1470.26 Q2213.49 1467.96 2216.87 1467.18 M2215.16 1459.79 Q2215.16 1462.48 2216.83 1463.98 Q2218.52 1465.49 2221.55 1465.49 Q2224.56 1465.49 2226.25 1463.98 Q2227.96 1462.48 2227.96 1459.79 Q2227.96 1457.11 2226.25 1455.6 Q2224.56 1454.1 2221.55 1454.1 Q2218.52 1454.1 2216.83 1455.6 Q2215.16 1457.11 2215.16 1459.79 Z" fill="#000000" fill-rule="nonzero" fill-opacity="1" /><path clip-path="url(#clip760)" d="M1701.02 1520.52 L1741.22 1520.52 L1741.22 1525.93 L1724.36 1525.93 L1724.36 1568.04 L1717.89 1568.04 L1717.89 1525.93 L1701.02 1525.93 L1701.02 1520.52 Z" fill="#000000" fill-rule="nonzero" fill-opacity="1" /><path clip-path="url(#clip760)" d="M1745.17 1532.4 L1751.03 1532.4 L1751.03 1568.04 L1745.17 1568.04 L1745.17 1532.4 M1745.17 1518.52 L1751.03 1518.52 L1751.03 1525.93 L1745.17 1525.93 L1745.17 1518.52 Z" fill="#000000" fill-rule="nonzero" fill-opacity="1" /><path clip-path="url(#clip760)" d="M1791.04 1539.24 Q1793.23 1535.29 1796.29 1533.41 Q1799.34 1531.54 1803.48 1531.54 Q1809.05 1531.54 1812.07 1535.45 Q1815.1 1539.33 1815.1 1546.53 L1815.1 1568.04 L1809.21 1568.04 L1809.21 1546.72 Q1809.21 1541.59 1807.4 1539.11 Q1805.58 1536.63 1801.86 1536.63 Q1797.31 1536.63 1794.66 1539.65 Q1792.02 1542.68 1792.02 1547.9 L1792.02 1568.04 L1786.13 1568.04 L1786.13 1546.72 Q1786.13 1541.56 1784.32 1539.11 Q1782.51 1536.63 1778.72 1536.63 Q1774.23 1536.63 1771.59 1539.68 Q1768.95 1542.71 1768.95 1547.9 L1768.95 1568.04 L1763.06 1568.04 L1763.06 1532.4 L1768.95 1532.4 L1768.95 1537.93 Q1770.95 1534.66 1773.75 1533.1 Q1776.55 1531.54 1780.41 1531.54 Q1784.29 1531.54 1786.99 1533.51 Q1789.73 1535.48 1791.04 1539.24 Z" fill="#000000" fill-rule="nonzero" fill-opacity="1" /><path clip-path="url(#clip760)" d="M1857.27 1548.76 L1857.27 1551.62 L1830.34 1551.62 Q1830.73 1557.67 1833.97 1560.85 Q1837.25 1564 1843.08 1564 Q1846.45 1564 1849.6 1563.17 Q1852.78 1562.35 1855.9 1560.69 L1855.9 1566.23 Q1852.75 1567.57 1849.44 1568.27 Q1846.13 1568.97 1842.73 1568.97 Q1834.2 1568.97 1829.2 1564 Q1824.23 1559.04 1824.23 1550.57 Q1824.23 1541.82 1828.94 1536.69 Q1833.69 1531.54 1841.71 1531.54 Q1848.9 1531.54 1853.07 1536.18 Q1857.27 1540.8 1857.27 1548.76 M1851.41 1547.04 Q1851.35 1542.23 1848.71 1539.37 Q1846.1 1536.5 1841.77 1536.5 Q1836.87 1536.5 1833.91 1539.27 Q1830.98 1542.04 1830.54 1547.07 L1851.41 1547.04 Z" fill="#000000" fill-rule="nonzero" fill-opacity="1" /><path clip-path="url(#clip760)" d="M1910.33 1533.45 L1910.33 1538.98 Q1907.85 1537.71 1905.17 1537.07 Q1902.5 1536.44 1899.63 1536.44 Q1895.27 1536.44 1893.08 1537.77 Q1890.91 1539.11 1890.91 1541.79 Q1890.91 1543.82 1892.47 1545 Q1894.03 1546.15 1898.74 1547.2 L1900.75 1547.64 Q1906.99 1548.98 1909.6 1551.43 Q1912.24 1553.85 1912.24 1558.21 Q1912.24 1563.17 1908.29 1566.07 Q1904.38 1568.97 1897.5 1568.97 Q1894.64 1568.97 1891.52 1568.39 Q1888.43 1567.85 1884.99 1566.74 L1884.99 1560.69 Q1888.24 1562.38 1891.39 1563.24 Q1894.54 1564.07 1897.63 1564.07 Q1901.77 1564.07 1904 1562.66 Q1906.22 1561.23 1906.22 1558.65 Q1906.22 1556.27 1904.6 1554.99 Q1903.01 1553.72 1897.57 1552.54 L1895.53 1552.07 Q1890.09 1550.92 1887.67 1548.56 Q1885.25 1546.18 1885.25 1542.04 Q1885.25 1537.01 1888.81 1534.27 Q1892.38 1531.54 1898.93 1531.54 Q1902.18 1531.54 1905.05 1532.01 Q1907.91 1532.49 1910.33 1533.45 Z" fill="#000000" fill-rule="nonzero" fill-opacity="1" /><path clip-path="url(#clip760)" d="M1927.36 1522.27 L1927.36 1532.4 L1939.42 1532.4 L1939.42 1536.95 L1927.36 1536.95 L1927.36 1556.3 Q1927.36 1560.66 1928.54 1561.9 Q1929.74 1563.14 1933.4 1563.14 L1939.42 1563.14 L1939.42 1568.04 L1933.4 1568.04 Q1926.63 1568.04 1924.05 1565.53 Q1921.47 1562.98 1921.47 1556.3 L1921.47 1536.95 L1917.17 1536.95 L1917.17 1532.4 L1921.47 1532.4 L1921.47 1522.27 L1927.36 1522.27 Z" fill="#000000" fill-rule="nonzero" fill-opacity="1" /><path clip-path="url(#clip760)" d="M1977.61 1548.76 L1977.61 1551.62 L1950.69 1551.62 Q1951.07 1557.67 1954.32 1560.85 Q1957.59 1564 1963.42 1564 Q1966.79 1564 1969.94 1563.17 Q1973.13 1562.35 1976.25 1560.69 L1976.25 1566.23 Q1973.1 1567.57 1969.78 1568.27 Q1966.47 1568.97 1963.07 1568.97 Q1954.54 1568.97 1949.54 1564 Q1944.58 1559.04 1944.58 1550.57 Q1944.58 1541.82 1949.29 1536.69 Q1954.03 1531.54 1962.05 1531.54 Q1969.24 1531.54 1973.41 1536.18 Q1977.61 1540.8 1977.61 1548.76 M1971.76 1547.04 Q1971.69 1542.23 1969.05 1539.37 Q1966.44 1536.5 1962.11 1536.5 Q1957.21 1536.5 1954.25 1539.27 Q1951.32 1542.04 1950.88 1547.07 L1971.76 1547.04 Z" fill="#000000" fill-rule="nonzero" fill-opacity="1" /><path clip-path="url(#clip760)" d="M1992.89 1562.7 L1992.89 1581.6 L1987 1581.6 L1987 1532.4 L1992.89 1532.4 L1992.89 1537.81 Q1994.74 1534.62 1997.54 1533.1 Q2000.37 1531.54 2004.29 1531.54 Q2010.78 1531.54 2014.82 1536.69 Q2018.9 1541.85 2018.9 1550.25 Q2018.9 1558.65 2014.82 1563.81 Q2010.78 1568.97 2004.29 1568.97 Q2000.37 1568.97 1997.54 1567.44 Q1994.74 1565.88 1992.89 1562.7 M2012.82 1550.25 Q2012.82 1543.79 2010.14 1540.13 Q2007.5 1536.44 2002.85 1536.44 Q1998.21 1536.44 1995.53 1540.13 Q1992.89 1543.79 1992.89 1550.25 Q1992.89 1556.71 1995.53 1560.4 Q1998.21 1564.07 2002.85 1564.07 Q2007.5 1564.07 2010.14 1560.4 Q2012.82 1556.71 2012.82 1550.25 Z" fill="#000000" fill-rule="nonzero" fill-opacity="1" /><polyline clip-path="url(#clip760)" style="stroke:#000000; stroke-linecap:round; stroke-linejoin:round; stroke-width:4; stroke-opacity:1; fill:none" points="1367.17,1423.18 1367.17,47.2441 "/>
<polyline clip-path="url(#clip760)" style="stroke:#000000; stroke-linecap:round; stroke-linejoin:round; stroke-width:4; stroke-opacity:1; fill:none" points="1367.17,1384.24 1386.06,1384.24 "/>
<polyline clip-path="url(#clip760)" style="stroke:#000000; stroke-linecap:round; stroke-linejoin:round; stroke-width:4; stroke-opacity:1; fill:none" points="1367.17,1167.9 1386.06,1167.9 "/>
<polyline clip-path="url(#clip760)" style="stroke:#000000; stroke-linecap:round; stroke-linejoin:round; stroke-width:4; stroke-opacity:1; fill:none" points="1367.17,951.554 1386.06,951.554 "/>
<polyline clip-path="url(#clip760)" style="stroke:#000000; stroke-linecap:round; stroke-linejoin:round; stroke-width:4; stroke-opacity:1; fill:none" points="1367.17,735.212 1386.06,735.212 "/>
<polyline clip-path="url(#clip760)" style="stroke:#000000; stroke-linecap:round; stroke-linejoin:round; stroke-width:4; stroke-opacity:1; fill:none" points="1367.17,518.87 1386.06,518.87 "/>
<polyline clip-path="url(#clip760)" style="stroke:#000000; stroke-linecap:round; stroke-linejoin:round; stroke-width:4; stroke-opacity:1; fill:none" points="1367.17,302.528 1386.06,302.528 "/>
<polyline clip-path="url(#clip760)" style="stroke:#000000; stroke-linecap:round; stroke-linejoin:round; stroke-width:4; stroke-opacity:1; fill:none" points="1367.17,86.1857 1386.06,86.1857 "/>
<path clip-path="url(#clip760)" d="M1270.1 1384.69 L1299.78 1384.69 L1299.78 1388.62 L1270.1 1388.62 L1270.1 1384.69 Z" fill="#000000" fill-rule="nonzero" fill-opacity="1" /><path clip-path="url(#clip760)" d="M1324.04 1382.88 Q1327.39 1383.6 1329.27 1385.87 Q1331.17 1388.14 1331.17 1391.47 Q1331.17 1396.59 1327.65 1399.39 Q1324.13 1402.19 1317.65 1402.19 Q1315.47 1402.19 1313.16 1401.75 Q1310.86 1401.33 1308.41 1400.48 L1308.41 1395.96 Q1310.36 1397.1 1312.67 1397.68 Q1314.98 1398.25 1317.51 1398.25 Q1321.91 1398.25 1324.2 1396.52 Q1326.51 1394.78 1326.51 1391.47 Q1326.51 1388.42 1324.36 1386.7 Q1322.23 1384.97 1318.41 1384.97 L1314.38 1384.97 L1314.38 1381.12 L1318.6 1381.12 Q1322.04 1381.12 1323.87 1379.76 Q1325.7 1378.37 1325.7 1375.78 Q1325.7 1373.12 1323.8 1371.7 Q1321.93 1370.27 1318.41 1370.27 Q1316.49 1370.27 1314.29 1370.69 Q1312.09 1371.1 1309.45 1371.98 L1309.45 1367.81 Q1312.11 1367.07 1314.43 1366.7 Q1316.77 1366.33 1318.83 1366.33 Q1324.15 1366.33 1327.25 1368.76 Q1330.36 1371.17 1330.36 1375.29 Q1330.36 1378.16 1328.71 1380.15 Q1327.07 1382.12 1324.04 1382.88 Z" fill="#000000" fill-rule="nonzero" fill-opacity="1" /><path clip-path="url(#clip760)" d="M1271.05 1168.35 L1300.73 1168.35 L1300.73 1172.28 L1271.05 1172.28 L1271.05 1168.35 Z" fill="#000000" fill-rule="nonzero" fill-opacity="1" /><path clip-path="url(#clip760)" d="M1314.85 1181.24 L1331.17 1181.24 L1331.17 1185.18 L1309.22 1185.18 L1309.22 1181.24 Q1311.88 1178.49 1316.47 1173.86 Q1321.07 1169.2 1322.25 1167.86 Q1324.5 1165.34 1325.38 1163.6 Q1326.28 1161.84 1326.28 1160.15 Q1326.28 1157.4 1324.34 1155.66 Q1322.42 1153.93 1319.31 1153.93 Q1317.11 1153.93 1314.66 1154.69 Q1312.23 1155.45 1309.45 1157.01 L1309.45 1152.28 Q1312.28 1151.15 1314.73 1150.57 Q1317.18 1149.99 1319.22 1149.99 Q1324.59 1149.99 1327.79 1152.68 Q1330.98 1155.36 1330.98 1159.85 Q1330.98 1161.98 1330.17 1163.9 Q1329.38 1165.8 1327.28 1168.39 Q1326.7 1169.07 1323.6 1172.28 Q1320.49 1175.48 1314.85 1181.24 Z" fill="#000000" fill-rule="nonzero" fill-opacity="1" /><path clip-path="url(#clip760)" d="M1270.68 952.005 L1300.36 952.005 L1300.36 955.941 L1270.68 955.941 L1270.68 952.005 Z" fill="#000000" fill-rule="nonzero" fill-opacity="1" /><path clip-path="url(#clip760)" d="M1311.26 964.899 L1318.9 964.899 L1318.9 938.533 L1310.59 940.2 L1310.59 935.941 L1318.85 934.274 L1323.53 934.274 L1323.53 964.899 L1331.17 964.899 L1331.17 968.834 L1311.26 968.834 L1311.26 964.899 Z" fill="#000000" fill-rule="nonzero" fill-opacity="1" /><path clip-path="url(#clip760)" d="M1319.22 721.011 Q1315.61 721.011 1313.78 724.575 Q1311.98 728.117 1311.98 735.247 Q1311.98 742.353 1313.78 745.918 Q1315.61 749.46 1319.22 749.46 Q1322.86 749.46 1324.66 745.918 Q1326.49 742.353 1326.49 735.247 Q1326.49 728.117 1324.66 724.575 Q1322.86 721.011 1319.22 721.011 M1319.22 717.307 Q1325.03 717.307 1328.09 721.913 Q1331.17 726.497 1331.17 735.247 Q1331.17 743.973 1328.09 748.58 Q1325.03 753.163 1319.22 753.163 Q1313.41 753.163 1310.33 748.58 Q1307.28 743.973 1307.28 735.247 Q1307.28 726.497 1310.33 721.913 Q1313.41 717.307 1319.22 717.307 Z" fill="#000000" fill-rule="nonzero" fill-opacity="1" /><path clip-path="url(#clip760)" d="M1311.26 532.215 L1318.9 532.215 L1318.9 505.849 L1310.59 507.516 L1310.59 503.257 L1318.85 501.59 L1323.53 501.59 L1323.53 532.215 L1331.17 532.215 L1331.17 536.15 L1311.26 536.15 L1311.26 532.215 Z" fill="#000000" fill-rule="nonzero" fill-opacity="1" /><path clip-path="url(#clip760)" d="M1314.85 315.873 L1331.17 315.873 L1331.17 319.808 L1309.22 319.808 L1309.22 315.873 Q1311.88 313.118 1316.47 308.488 Q1321.07 303.836 1322.25 302.493 Q1324.5 299.97 1325.38 298.234 Q1326.28 296.475 1326.28 294.785 Q1326.28 292.03 1324.34 290.294 Q1322.42 288.558 1319.31 288.558 Q1317.11 288.558 1314.66 289.322 Q1312.23 290.086 1309.45 291.637 L1309.45 286.914 Q1312.28 285.78 1314.73 285.201 Q1317.18 284.623 1319.22 284.623 Q1324.59 284.623 1327.79 287.308 Q1330.98 289.993 1330.98 294.484 Q1330.98 296.613 1330.17 298.535 Q1329.38 300.433 1327.28 303.025 Q1326.7 303.697 1323.6 306.914 Q1320.49 310.109 1314.85 315.873 Z" fill="#000000" fill-rule="nonzero" fill-opacity="1" /><path clip-path="url(#clip760)" d="M1324.04 84.8315 Q1327.39 85.5491 1329.27 87.8176 Q1331.17 90.0861 1331.17 93.4194 Q1331.17 98.5351 1327.65 101.336 Q1324.13 104.137 1317.65 104.137 Q1315.47 104.137 1313.16 103.697 Q1310.86 103.28 1308.41 102.424 L1308.41 97.9101 Q1310.36 99.0444 1312.67 99.6231 Q1314.98 100.202 1317.51 100.202 Q1321.91 100.202 1324.2 98.4657 Q1326.51 96.7296 1326.51 93.4194 Q1326.51 90.3639 1324.36 88.6509 Q1322.23 86.9148 1318.41 86.9148 L1314.38 86.9148 L1314.38 83.0723 L1318.6 83.0723 Q1322.04 83.0723 1323.87 81.7065 Q1325.7 80.3176 1325.7 77.7251 Q1325.7 75.063 1323.8 73.651 Q1321.93 72.2158 1318.41 72.2158 Q1316.49 72.2158 1314.29 72.6325 Q1312.09 73.0492 1309.45 73.9288 L1309.45 69.7621 Q1312.11 69.0214 1314.43 68.651 Q1316.77 68.2807 1318.83 68.2807 Q1324.15 68.2807 1327.25 70.7112 Q1330.36 73.1186 1330.36 77.239 Q1330.36 80.1093 1328.71 82.1 Q1327.07 84.0676 1324.04 84.8315 Z" fill="#000000" fill-rule="nonzero" fill-opacity="1" /><polyline clip-path="url(#clip764)" style="stroke:#009af9; stroke-linecap:round; stroke-linejoin:round; stroke-width:4; stroke-opacity:1; fill:none" points="1395.06,677.367 1498.37,677.367 1498.37,719.669 1601.68,719.669 1601.68,754.875 1704.99,754.875 1704.99,762.417 1808.3,762.417 1808.3,754.103 1911.62,754.103 1911.62,743.486 2014.93,743.486 2014.93,736.763 2118.24,736.763 2118.24,734.265 2221.55,734.265 2221.55,734.145 2324.86,734.145 2324.86,734.726 "/>
<polyline clip-path="url(#clip764)" style="stroke:#3da44d; stroke-linecap:round; stroke-linejoin:round; stroke-width:4; stroke-opacity:1; fill:none" stroke-dasharray="16, 10" points="1395.06,1384.24 1498.37,1384.24 1601.68,1384.24 1704.99,1384.24 1808.3,1384.24 1911.62,1384.24 2014.93,1384.24 2118.24,1384.24 2221.55,1384.24 2324.86,1384.24 "/>
<polyline clip-path="url(#clip764)" style="stroke:#3da44d; stroke-linecap:round; stroke-linejoin:round; stroke-width:4; stroke-opacity:1; fill:none" stroke-dasharray="16, 10" points="1395.06,86.1857 1498.37,86.1857 1601.68,86.1857 1704.99,86.1857 1808.3,86.1857 1911.62,86.1857 2014.93,86.1857 2118.24,86.1857 2221.55,86.1857 2324.86,86.1857 "/>
<path clip-path="url(#clip760)" d="M2170.06 196.789 L2319.9 196.789 L2319.9 93.1086 L2170.06 93.1086  Z" fill="#ffffff" fill-rule="evenodd" fill-opacity="1"/>
<polyline clip-path="url(#clip760)" style="stroke:#000000; stroke-linecap:round; stroke-linejoin:round; stroke-width:4; stroke-opacity:1; fill:none" points="2170.06,196.789 2319.9,196.789 2319.9,93.1086 2170.06,93.1086 2170.06,196.789 "/>
<polyline clip-path="url(#clip760)" style="stroke:#009af9; stroke-linecap:round; stroke-linejoin:round; stroke-width:4; stroke-opacity:1; fill:none" points="2181.01,144.949 2246.71,144.949 "/>
<path clip-path="url(#clip760)" d="M2282.33 141.668 Q2281.72 144.689 2280.9 146.423 Q2279.56 149.069 2277.34 149.069 Q2275.79 149.069 2274.62 148.203 Q2273.48 147.313 2273.08 145.837 Q2272.63 146.423 2272.23 146.821 Q2271.86 147.219 2271.13 147.828 Q2270.41 148.414 2269.42 148.741 Q2268.46 149.069 2267.36 149.069 Q2266.52 149.069 2265.75 148.905 Q2264.97 148.765 2264.15 148.367 Q2263.36 147.945 2262.77 147.313 Q2262.21 146.68 2261.83 145.65 Q2261.46 144.619 2261.46 143.307 Q2261.46 141.668 2262.09 139.443 Q2262.75 137.218 2264.25 133.236 Q2265.07 131.128 2265.07 129.957 Q2265.07 129.418 2264.95 129.067 Q2264.83 128.715 2264.6 128.598 Q2264.39 128.458 2264.25 128.434 Q2264.11 128.387 2263.87 128.387 Q2262.42 128.387 2261.15 129.863 Q2259.89 131.339 2259.02 134.337 Q2258.84 134.922 2258.72 135.063 Q2258.6 135.203 2258.25 135.203 Q2257.67 135.18 2257.67 134.711 Q2257.67 134.524 2257.88 133.798 Q2258.09 133.048 2258.58 131.948 Q2259.09 130.823 2259.8 129.816 Q2260.5 128.786 2261.6 128.059 Q2262.72 127.333 2264.01 127.333 Q2265.77 127.333 2266.85 128.481 Q2267.95 129.605 2267.95 131.268 Q2267.95 132.299 2267.13 134.29 Q2264.53 141.199 2264.53 144.08 Q2264.53 147.992 2267.5 147.992 Q2268.49 147.992 2269.4 147.594 Q2270.34 147.196 2270.95 146.633 Q2271.55 146.071 2272.02 145.462 Q2272.51 144.853 2272.73 144.455 Q2272.96 144.057 2272.98 143.963 L2276.57 129.535 Q2276.71 128.973 2276.97 128.598 Q2277.25 128.2 2277.57 128.059 Q2277.9 127.919 2278.09 127.895 Q2278.28 127.849 2278.44 127.849 Q2279.03 127.849 2279.42 128.2 Q2279.85 128.551 2279.85 129.16 Q2279.85 129.277 2279.71 129.84 Q2279.59 130.378 2279.4 131.175 Q2279.21 131.948 2279.12 132.369 Q2278.37 135.32 2278.3 135.625 L2276.97 140.801 Q2276.89 141.106 2276.66 142.089 Q2276.45 143.073 2276.33 143.589 Q2276.22 144.08 2276.1 144.76 Q2276 145.415 2276 145.79 Q2276 146.961 2276.36 147.477 Q2276.71 147.992 2277.48 147.992 Q2278.21 147.992 2278.77 147.5 Q2279.35 146.985 2279.8 146.001 Q2280.24 144.994 2280.5 144.174 Q2280.76 143.354 2281.09 142.066 Q2281.2 141.504 2281.3 141.363 Q2281.42 141.199 2281.74 141.199 Q2282.33 141.199 2282.33 141.668 Z" fill="#000000" fill-rule="nonzero" fill-opacity="1" /><path clip-path="url(#clip760)" d="M2287.21 143.184 L2287.21 142.135 Q2291.24 142.135 2293.32 139.987 Q2293.9 139.987 2293.99 140.118 Q2294.09 140.25 2294.09 140.856 L2294.09 159.695 Q2294.09 160.695 2294.58 161.007 Q2295.08 161.318 2297.22 161.318 L2298.29 161.318 L2298.29 162.351 Q2297.11 162.253 2292.85 162.253 Q2288.58 162.253 2287.42 162.351 L2287.42 161.318 L2288.49 161.318 Q2290.6 161.318 2291.11 161.023 Q2291.62 160.711 2291.62 159.695 L2291.62 142.299 Q2289.86 143.184 2287.21 143.184 Z" fill="#000000" fill-rule="nonzero" fill-opacity="1" /></svg>
