<?xml version="1.0" encoding="utf-8"?>
<svg xmlns="http://www.w3.org/2000/svg" xmlns:xlink="http://www.w3.org/1999/xlink" width="600" height="400" viewBox="0 0 2400 1600">
<defs>
  <clipPath id="clip290">
    <rect x="0" y="0" width="2400" height="1600"/>
  </clipPath>
</defs>
<path clip-path="url(#clip290)" d="M0 1600 L2400 1600 L2400 0 L0 0  Z" fill="#ffffff" fill-rule="evenodd" fill-opacity="1"/>
<defs>
  <clipPath id="clip291">
    <rect x="480" y="0" width="1681" height="1600"/>
  </clipPath>
</defs>
<path clip-path="url(#clip290)" d="M249.542 1423.18 L2352.76 1423.18 L2352.76 47.2441 L249.542 47.2441  Z" fill="#ffffff" fill-rule="evenodd" fill-opacity="1"/>
<defs>
  <clipPath id="clip292">
    <rect x="249" y="47" width="2104" height="1377"/>
  </clipPath>
</defs>
<polyline clip-path="url(#clip292)" style="stroke:#000000; stroke-linecap:round; stroke-linejoin:round; stroke-width:2; stroke-opacity:0.1; fill:none" points="307.081,1423.18 307.081,47.2441 "/>
<polyline clip-path="url(#clip292)" style="stroke:#000000; stroke-linecap:round; stroke-linejoin:round; stroke-width:2; stroke-opacity:0.1; fill:none" points="803.618,1423.18 803.618,47.2441 "/>
<polyline clip-path="url(#clip292)" style="stroke:#000000; stroke-linecap:round; stroke-linejoin:round; stroke-width:2; stroke-opacity:0.1; fill:none" points="1300.16,1423.18 1300.16,47.2441 "/>
<polyline clip-path="url(#clip292)" style="stroke:#000000; stroke-linecap:round; stroke-linejoin:round; stroke-width:2; stroke-opacity:0.1; fill:none" points="1796.69,1423.18 1796.69,47.2441 "/>
<polyline clip-path="url(#clip292)" style="stroke:#000000; stroke-linecap:round; stroke-linejoin:round; stroke-width:2; stroke-opacity:0.1; fill:none" points="2293.23,1423.18 2293.23,47.2441 "/>
<polyline clip-path="url(#clip292)" style="stroke:#000000; stroke-linecap:round; stroke-linejoin:round; stroke-width:2; stroke-opacity:0.1; fill:none" points="249.542,1423.18 2352.76,1423.18 "/>
<polyline clip-path="url(#clip292)" style="stroke:#000000; stroke-linecap:round; stroke-linejoin:round; stroke-width:2; stroke-opacity:0.1; fill:none" points="249.542,1079.2 2352.76,1079.2 "/>
<polyline clip-path="url(#clip292)" style="stroke:#000000; stroke-linecap:round; stroke-linejoin:round; stroke-width:2; stroke-opacity:0.1; fill:none" points="249.542,735.212 2352.76,735.212 "/>
<polyline clip-path="url(#clip292)" style="stroke:#000000; stroke-linecap:round; stroke-linejoin:round; stroke-width:2; stroke-opacity:0.1; fill:none" points="249.542,391.228 2352.76,391.228 "/>
<polyline clip-path="url(#clip290)" style="stroke:#000000; stroke-linecap:round; stroke-linejoin:round; stroke-width:4; stroke-opacity:1; fill:none" points="249.542,1423.18 2352.76,1423.18 "/>
<polyline clip-path="url(#clip290)" style="stroke:#000000; stroke-linecap:round; stroke-linejoin:round; stroke-width:4; stroke-opacity:1; fill:none" points="307.081,1423.18 307.081,1404.28 "/>
<polyline clip-path="url(#clip290)" style="stroke:#000000; stroke-linecap:round; stroke-linejoin:round; stroke-width:4; stroke-opacity:1; fill:none" points="803.618,1423.18 803.618,1404.28 "/>
<polyline clip-path="url(#clip290)" style="stroke:#000000; stroke-linecap:round; stroke-linejoin:round; stroke-width:4; stroke-opacity:1; fill:none" points="1300.16,1423.18 1300.16,1404.28 "/>
<polyline clip-path="url(#clip290)" style="stroke:#000000; stroke-linecap:round; stroke-linejoin:round; stroke-width:4; stroke-opacity:1; fill:none" points="1796.69,1423.18 1796.69,1404.28 "/>
<polyline clip-path="url(#clip290)" style="stroke:#000000; stroke-linecap:round; stroke-linejoin:round; stroke-width:4; stroke-opacity:1; fill:none" points="2293.23,1423.18 2293.23,1404.28 "/>
<path clip-path="url(#clip290)" d="M307.081 1454.1 Q303.47 1454.1 301.641 1457.66 Q299.835 1461.2 299.835 1468.33 Q299.835 1475.44 301.641 1479.01 Q303.47 1482.55 307.081 1482.55 Q310.715 1482.55 312.521 1479.01 Q314.349 1475.44 314.349 1468.33 Q314.349 1461.2 312.521 1457.66 Q310.715 1454.1 307.081 1454.1 M307.081 1450.39 Q312.891 1450.39 315.946 1455 Q319.025 1459.58 319.025 1468.33 Q319.025 1477.06 315.946 1481.67 Q312.891 1486.25 307.081 1486.25 Q301.271 1486.25 298.192 1481.67 Q295.136 1477.06 295.136 1468.33 Q295.136 1459.58 298.192 1455 Q301.271 1450.39 307.081 1450.39 Z" fill="#000000" fill-rule="nonzero" fill-opacity="1" /><path clip-path="url(#clip290)" d="M767.311 1481.64 L783.63 1481.64 L783.63 1485.58 L761.686 1485.58 L761.686 1481.64 Q764.348 1478.89 768.931 1474.26 Q773.537 1469.61 774.718 1468.27 Q776.963 1465.74 777.843 1464.01 Q778.746 1462.25 778.746 1460.56 Q778.746 1457.8 776.801 1456.07 Q774.88 1454.33 771.778 1454.33 Q769.579 1454.33 767.125 1455.09 Q764.695 1455.86 761.917 1457.41 L761.917 1452.69 Q764.741 1451.55 767.195 1450.97 Q769.649 1450.39 771.686 1450.39 Q777.056 1450.39 780.25 1453.08 Q783.445 1455.77 783.445 1460.26 Q783.445 1462.39 782.635 1464.31 Q781.848 1466.2 779.741 1468.8 Q779.162 1469.47 776.061 1472.69 Q772.959 1475.88 767.311 1481.64 Z" fill="#000000" fill-rule="nonzero" fill-opacity="1" /><path clip-path="url(#clip290)" d="M793.491 1451.02 L811.847 1451.02 L811.847 1454.96 L797.773 1454.96 L797.773 1463.43 Q798.792 1463.08 799.81 1462.92 Q800.829 1462.73 801.848 1462.73 Q807.635 1462.73 811.014 1465.9 Q814.394 1469.08 814.394 1474.49 Q814.394 1480.07 810.922 1483.17 Q807.449 1486.25 801.13 1486.25 Q798.954 1486.25 796.686 1485.88 Q794.44 1485.51 792.033 1484.77 L792.033 1480.07 Q794.116 1481.2 796.338 1481.76 Q798.561 1482.32 801.037 1482.32 Q805.042 1482.32 807.38 1480.21 Q809.718 1478.1 809.718 1474.49 Q809.718 1470.88 807.38 1468.77 Q805.042 1466.67 801.037 1466.67 Q799.162 1466.67 797.287 1467.08 Q795.436 1467.5 793.491 1468.38 L793.491 1451.02 Z" fill="#000000" fill-rule="nonzero" fill-opacity="1" /><path clip-path="url(#clip290)" d="M833.607 1454.1 Q829.996 1454.1 828.167 1457.66 Q826.361 1461.2 826.361 1468.33 Q826.361 1475.44 828.167 1479.01 Q829.996 1482.55 833.607 1482.55 Q837.241 1482.55 839.046 1479.01 Q840.875 1475.44 840.875 1468.33 Q840.875 1461.2 839.046 1457.66 Q837.241 1454.1 833.607 1454.1 M833.607 1450.39 Q839.417 1450.39 842.472 1455 Q845.551 1459.58 845.551 1468.33 Q845.551 1477.06 842.472 1481.67 Q839.417 1486.25 833.607 1486.25 Q827.796 1486.25 824.718 1481.67 Q821.662 1477.06 821.662 1468.33 Q821.662 1459.58 824.718 1455 Q827.796 1450.39 833.607 1450.39 Z" fill="#000000" fill-rule="nonzero" fill-opacity="1" /><path clip-path="url(#clip290)" d="M1259.77 1451.02 L1278.13 1451.02 L1278.13 1454.96 L1264.06 1454.96 L1264.06 1463.43 Q1265.08 1463.08 1266.09 1462.92 Q1267.11 1462.73 1268.13 1462.73 Q1273.92 1462.73 1277.3 1465.9 Q1280.68 1469.08 1280.68 1474.49 Q1280.68 1480.07 1277.2 1483.17 Q1273.73 1486.25 1267.41 1486.25 Q1265.24 1486.25 1262.97 1485.88 Q1260.72 1485.51 1258.32 1484.77 L1258.32 1480.07 Q1260.4 1481.2 1262.62 1481.76 Q1264.84 1482.32 1267.32 1482.32 Q1271.33 1482.32 1273.66 1480.21 Q1276 1478.1 1276 1474.49 Q1276 1470.88 1273.66 1468.77 Q1271.33 1466.67 1267.32 1466.67 Q1265.45 1466.67 1263.57 1467.08 Q1261.72 1467.5 1259.77 1468.38 L1259.77 1451.02 Z" fill="#000000" fill-rule="nonzero" fill-opacity="1" /><path clip-path="url(#clip290)" d="M1299.89 1454.1 Q1296.28 1454.1 1294.45 1457.66 Q1292.64 1461.2 1292.64 1468.33 Q1292.64 1475.44 1294.45 1479.01 Q1296.28 1482.55 1299.89 1482.55 Q1303.52 1482.55 1305.33 1479.01 Q1307.16 1475.44 1307.16 1468.33 Q1307.16 1461.2 1305.33 1457.66 Q1303.52 1454.1 1299.89 1454.1 M1299.89 1450.39 Q1305.7 1450.39 1308.76 1455 Q1311.83 1459.58 1311.83 1468.33 Q1311.83 1477.06 1308.76 1481.67 Q1305.7 1486.25 1299.89 1486.25 Q1294.08 1486.25 1291 1481.67 Q1287.95 1477.06 1287.95 1468.33 Q1287.95 1459.58 1291 1455 Q1294.08 1450.39 1299.89 1450.39 Z" fill="#000000" fill-rule="nonzero" fill-opacity="1" /><path clip-path="url(#clip290)" d="M1330.05 1454.1 Q1326.44 1454.1 1324.61 1457.66 Q1322.81 1461.2 1322.81 1468.33 Q1322.81 1475.44 1324.61 1479.01 Q1326.44 1482.55 1330.05 1482.55 Q1333.69 1482.55 1335.49 1479.01 Q1337.32 1475.44 1337.32 1468.33 Q1337.32 1461.2 1335.49 1457.66 Q1333.69 1454.1 1330.05 1454.1 M1330.05 1450.39 Q1335.86 1450.39 1338.92 1455 Q1342 1459.58 1342 1468.33 Q1342 1477.06 1338.92 1481.67 Q1335.86 1486.25 1330.05 1486.25 Q1324.24 1486.25 1321.16 1481.67 Q1318.11 1477.06 1318.11 1468.33 Q1318.11 1459.58 1321.16 1455 Q1324.24 1450.39 1330.05 1450.39 Z" fill="#000000" fill-rule="nonzero" fill-opacity="1" /><path clip-path="url(#clip290)" d="M1754.97 1451.02 L1777.19 1451.02 L1777.19 1453.01 L1764.64 1485.58 L1759.76 1485.58 L1771.57 1454.96 L1754.97 1454.96 L1754.97 1451.02 Z" fill="#000000" fill-rule="nonzero" fill-opacity="1" /><path clip-path="url(#clip290)" d="M1786.36 1451.02 L1804.71 1451.02 L1804.71 1454.96 L1790.64 1454.96 L1790.64 1463.43 Q1791.66 1463.08 1792.68 1462.92 Q1793.7 1462.73 1794.71 1462.73 Q1800.5 1462.73 1803.88 1465.9 Q1807.26 1469.08 1807.26 1474.49 Q1807.26 1480.07 1803.79 1483.17 Q1800.32 1486.25 1794 1486.25 Q1791.82 1486.25 1789.55 1485.88 Q1787.31 1485.51 1784.9 1484.77 L1784.9 1480.07 Q1786.98 1481.2 1789.21 1481.76 Q1791.43 1482.32 1793.9 1482.32 Q1797.91 1482.32 1800.25 1480.21 Q1802.58 1478.1 1802.58 1474.49 Q1802.58 1470.88 1800.25 1468.77 Q1797.91 1466.67 1793.9 1466.67 Q1792.03 1466.67 1790.15 1467.08 Q1788.3 1467.5 1786.36 1468.38 L1786.36 1451.02 Z" fill="#000000" fill-rule="nonzero" fill-opacity="1" /><path clip-path="url(#clip290)" d="M1826.47 1454.1 Q1822.86 1454.1 1821.03 1457.66 Q1819.23 1461.2 1819.23 1468.33 Q1819.23 1475.44 1821.03 1479.01 Q1822.86 1482.55 1826.47 1482.55 Q1830.11 1482.55 1831.91 1479.01 Q1833.74 1475.44 1833.74 1468.33 Q1833.74 1461.2 1831.91 1457.66 Q1830.11 1454.1 1826.47 1454.1 M1826.47 1450.39 Q1832.28 1450.39 1835.34 1455 Q1838.42 1459.58 1838.42 1468.33 Q1838.42 1477.06 1835.34 1481.67 Q1832.28 1486.25 1826.47 1486.25 Q1820.66 1486.25 1817.58 1481.67 Q1814.53 1477.06 1814.53 1468.33 Q1814.53 1459.58 1817.58 1455 Q1820.66 1450.39 1826.47 1450.39 Z" fill="#000000" fill-rule="nonzero" fill-opacity="1" /><path clip-path="url(#clip290)" d="M2237.76 1481.64 L2245.4 1481.64 L2245.4 1455.28 L2237.09 1456.95 L2237.09 1452.69 L2245.35 1451.02 L2250.03 1451.02 L2250.03 1481.64 L2257.66 1481.64 L2257.66 1485.58 L2237.76 1485.58 L2237.76 1481.64 Z" fill="#000000" fill-rule="nonzero" fill-opacity="1" /><path clip-path="url(#clip290)" d="M2277.11 1454.1 Q2273.5 1454.1 2271.67 1457.66 Q2269.86 1461.2 2269.86 1468.33 Q2269.86 1475.44 2271.67 1479.01 Q2273.5 1482.55 2277.11 1482.55 Q2280.74 1482.55 2282.55 1479.01 Q2284.38 1475.44 2284.38 1468.33 Q2284.38 1461.2 2282.55 1457.66 Q2280.74 1454.1 2277.11 1454.1 M2277.11 1450.39 Q2282.92 1450.39 2285.97 1455 Q2289.05 1459.58 2289.05 1468.33 Q2289.05 1477.06 2285.97 1481.67 Q2282.92 1486.25 2277.11 1486.25 Q2271.3 1486.25 2268.22 1481.67 Q2265.16 1477.06 2265.16 1468.33 Q2265.16 1459.58 2268.22 1455 Q2271.3 1450.39 2277.11 1450.39 Z" fill="#000000" fill-rule="nonzero" fill-opacity="1" /><path clip-path="url(#clip290)" d="M2307.27 1454.1 Q2303.66 1454.1 2301.83 1457.66 Q2300.02 1461.2 2300.02 1468.33 Q2300.02 1475.44 2301.83 1479.01 Q2303.66 1482.55 2307.27 1482.55 Q2310.9 1482.55 2312.71 1479.01 Q2314.54 1475.44 2314.54 1468.33 Q2314.54 1461.2 2312.71 1457.66 Q2310.9 1454.1 2307.27 1454.1 M2307.27 1450.39 Q2313.08 1450.39 2316.14 1455 Q2319.21 1459.58 2319.21 1468.33 Q2319.21 1477.06 2316.14 1481.67 Q2313.08 1486.25 2307.27 1486.25 Q2301.46 1486.25 2298.38 1481.67 Q2295.33 1477.06 2295.33 1468.33 Q2295.33 1459.58 2298.38 1455 Q2301.46 1450.39 2307.27 1450.39 Z" fill="#000000" fill-rule="nonzero" fill-opacity="1" /><path clip-path="url(#clip290)" d="M2337.43 1454.1 Q2333.82 1454.1 2331.99 1457.66 Q2330.19 1461.2 2330.19 1468.33 Q2330.19 1475.44 2331.99 1479.01 Q2333.82 1482.55 2337.43 1482.55 Q2341.07 1482.55 2342.87 1479.01 Q2344.7 1475.44 2344.7 1468.33 Q2344.7 1461.2 2342.87 1457.66 Q2341.07 1454.1 2337.43 1454.1 M2337.43 1450.39 Q2343.24 1450.39 2346.3 1455 Q2349.38 1459.58 2349.38 1468.33 Q2349.38 1477.06 2346.3 1481.67 Q2343.24 1486.25 2337.43 1486.25 Q2331.62 1486.25 2328.54 1481.67 Q2325.49 1477.06 2325.49 1468.33 Q2325.49 1459.58 2328.54 1455 Q2331.62 1450.39 2337.43 1450.39 Z" fill="#000000" fill-rule="nonzero" fill-opacity="1" /><path clip-path="url(#clip290)" d="M1142.21 1520.52 L1182.41 1520.52 L1182.41 1525.93 L1165.54 1525.93 L1165.54 1568.04 L1159.08 1568.04 L1159.08 1525.93 L1142.21 1525.93 L1142.21 1520.52 Z" fill="#000000" fill-rule="nonzero" fill-opacity="1" /><path clip-path="url(#clip290)" d="M1186.36 1532.4 L1192.22 1532.4 L1192.22 1568.04 L1186.36 1568.04 L1186.36 1532.4 M1186.36 1518.52 L1192.22 1518.52 L1192.22 1525.93 L1186.36 1525.93 L1186.36 1518.52 Z" fill="#000000" fill-rule="nonzero" fill-opacity="1" /><path clip-path="url(#clip290)" d="M1232.22 1539.24 Q1234.42 1535.29 1237.48 1533.41 Q1240.53 1531.54 1244.67 1531.54 Q1250.24 1531.54 1253.26 1535.45 Q1256.29 1539.33 1256.29 1546.53 L1256.29 1568.04 L1250.4 1568.04 L1250.4 1546.72 Q1250.4 1541.59 1248.58 1539.11 Q1246.77 1536.63 1243.05 1536.63 Q1238.49 1536.63 1235.85 1539.65 Q1233.21 1542.68 1233.21 1547.9 L1233.21 1568.04 L1227.32 1568.04 L1227.32 1546.72 Q1227.32 1541.56 1225.51 1539.11 Q1223.69 1536.63 1219.91 1536.63 Q1215.42 1536.63 1212.78 1539.68 Q1210.14 1542.71 1210.14 1547.9 L1210.14 1568.04 L1204.25 1568.04 L1204.25 1532.4 L1210.14 1532.4 L1210.14 1537.93 Q1212.14 1534.66 1214.94 1533.1 Q1217.74 1531.54 1221.59 1531.54 Q1225.48 1531.54 1228.18 1533.51 Q1230.92 1535.48 1232.22 1539.24 Z" fill="#000000" fill-rule="nonzero" fill-opacity="1" /><path clip-path="url(#clip290)" d="M1298.46 1548.76 L1298.46 1551.62 L1271.53 1551.62 Q1271.91 1557.67 1275.16 1560.85 Q1278.44 1564 1284.26 1564 Q1287.64 1564 1290.79 1563.17 Q1293.97 1562.35 1297.09 1560.69 L1297.09 1566.23 Q1293.94 1567.57 1290.63 1568.27 Q1287.32 1568.97 1283.91 1568.97 Q1275.38 1568.97 1270.39 1564 Q1265.42 1559.04 1265.42 1550.57 Q1265.42 1541.82 1270.13 1536.69 Q1274.87 1531.54 1282.9 1531.54 Q1290.09 1531.54 1294.26 1536.18 Q1298.46 1540.8 1298.46 1548.76 M1292.6 1547.04 Q1292.54 1542.23 1289.9 1539.37 Q1287.29 1536.5 1282.96 1536.5 Q1278.06 1536.5 1275.1 1539.27 Q1272.17 1542.04 1271.72 1547.07 L1292.6 1547.04 Z" fill="#000000" fill-rule="nonzero" fill-opacity="1" /><path clip-path="url(#clip290)" d="M1351.52 1533.45 L1351.52 1538.98 Q1349.03 1537.71 1346.36 1537.07 Q1343.69 1536.44 1340.82 1536.44 Q1336.46 1536.44 1334.27 1537.77 Q1332.1 1539.11 1332.1 1541.79 Q1332.1 1543.82 1333.66 1545 Q1335.22 1546.15 1339.93 1547.2 L1341.94 1547.64 Q1348.18 1548.98 1350.79 1551.43 Q1353.43 1553.85 1353.43 1558.21 Q1353.43 1563.17 1349.48 1566.07 Q1345.57 1568.97 1338.69 1568.97 Q1335.83 1568.97 1332.71 1568.39 Q1329.62 1567.85 1326.18 1566.74 L1326.18 1560.69 Q1329.43 1562.38 1332.58 1563.24 Q1335.73 1564.07 1338.82 1564.07 Q1342.96 1564.07 1345.18 1562.66 Q1347.41 1561.23 1347.41 1558.65 Q1347.41 1556.27 1345.79 1554.99 Q1344.2 1553.72 1338.75 1552.54 L1336.72 1552.07 Q1331.27 1550.92 1328.86 1548.56 Q1326.44 1546.18 1326.44 1542.04 Q1326.44 1537.01 1330 1534.27 Q1333.57 1531.54 1340.12 1531.54 Q1343.37 1531.54 1346.23 1532.01 Q1349.1 1532.49 1351.52 1533.45 Z" fill="#000000" fill-rule="nonzero" fill-opacity="1" /><path clip-path="url(#clip290)" d="M1368.55 1522.27 L1368.55 1532.4 L1380.61 1532.4 L1380.61 1536.95 L1368.55 1536.95 L1368.55 1556.3 Q1368.55 1560.66 1369.72 1561.9 Q1370.93 1563.14 1374.59 1563.14 L1380.61 1563.14 L1380.61 1568.04 L1374.59 1568.04 Q1367.81 1568.04 1365.24 1565.53 Q1362.66 1562.98 1362.66 1556.3 L1362.66 1536.95 L1358.36 1536.95 L1358.36 1532.4 L1362.66 1532.4 L1362.66 1522.27 L1368.55 1522.27 Z" fill="#000000" fill-rule="nonzero" fill-opacity="1" /><path clip-path="url(#clip290)" d="M1418.8 1548.76 L1418.8 1551.62 L1391.88 1551.62 Q1392.26 1557.67 1395.5 1560.85 Q1398.78 1564 1404.61 1564 Q1407.98 1564 1411.13 1563.17 Q1414.32 1562.35 1417.43 1560.69 L1417.43 1566.23 Q1414.28 1567.57 1410.97 1568.27 Q1407.66 1568.97 1404.26 1568.97 Q1395.73 1568.97 1390.73 1564 Q1385.77 1559.04 1385.77 1550.57 Q1385.77 1541.82 1390.48 1536.69 Q1395.22 1531.54 1403.24 1531.54 Q1410.43 1531.54 1414.6 1536.18 Q1418.8 1540.8 1418.8 1548.76 M1412.95 1547.04 Q1412.88 1542.23 1410.24 1539.37 Q1407.63 1536.5 1403.3 1536.5 Q1398.4 1536.5 1395.44 1539.27 Q1392.51 1542.04 1392.07 1547.07 L1412.95 1547.04 Z" fill="#000000" fill-rule="nonzero" fill-opacity="1" /><path clip-path="url(#clip290)" d="M1434.08 1562.7 L1434.08 1581.6 L1428.19 1581.6 L1428.19 1532.4 L1434.08 1532.4 L1434.08 1537.81 Q1435.93 1534.62 1438.73 1533.1 Q1441.56 1531.54 1445.48 1531.54 Q1451.97 1531.54 1456.01 1536.69 Q1460.08 1541.85 1460.08 1550.25 Q1460.08 1558.65 1456.01 1563.81 Q1451.97 1568.97 1445.48 1568.97 Q1441.56 1568.97 1438.73 1567.44 Q1435.93 1565.88 1434.08 1562.7 M1454.01 1550.25 Q1454.01 1543.79 1451.33 1540.13 Q1448.69 1536.44 1444.04 1536.44 Q1439.4 1536.44 1436.72 1540.13 Q1434.08 1543.79 1434.08 1550.25 Q1434.08 1556.71 1436.72 1560.4 Q1439.4 1564.07 1444.04 1564.07 Q1448.69 1564.07 1451.33 1560.4 Q1454.01 1556.71 1454.01 1550.25 Z" fill="#000000" fill-rule="nonzero" fill-opacity="1" /><polyline clip-path="url(#clip290)" style="stroke:#000000; stroke-linecap:round; stroke-linejoin:round; stroke-width:4; stroke-opacity:1; fill:none" points="249.542,1423.18 249.542,47.2441 "/>
<polyline clip-path="url(#clip290)" style="stroke:#000000; stroke-linecap:round; stroke-linejoin:round; stroke-width:4; stroke-opacity:1; fill:none" points="249.542,1423.18 268.44,1423.18 "/>
<polyline clip-path="url(#clip290)" style="stroke:#000000; stroke-linecap:round; stroke-linejoin:round; stroke-width:4; stroke-opacity:1; fill:none" points="249.542,1079.2 268.44,1079.2 "/>
<polyline clip-path="url(#clip290)" style="stroke:#000000; stroke-linecap:round; stroke-linejoin:round; stroke-width:4; stroke-opacity:1; fill:none" points="249.542,735.212 268.44,735.212 "/>
<polyline clip-path="url(#clip290)" style="stroke:#000000; stroke-linecap:round; stroke-linejoin:round; stroke-width:4; stroke-opacity:1; fill:none" points="249.542,391.228 268.44,391.228 "/>
<path clip-path="url(#clip290)" d="M126.205 1408.98 Q122.593 1408.98 120.765 1412.54 Q118.959 1416.08 118.959 1423.21 Q118.959 1430.32 120.765 1433.89 Q122.593 1437.43 126.205 1437.43 Q129.839 1437.43 131.644 1433.89 Q133.473 1430.32 133.473 1423.21 Q133.473 1416.08 131.644 1412.54 Q129.839 1408.98 126.205 1408.98 M126.205 1405.27 Q132.015 1405.27 135.07 1409.88 Q138.149 1414.46 138.149 1423.21 Q138.149 1431.94 135.07 1436.55 Q132.015 1441.13 126.205 1441.13 Q120.394 1441.13 117.316 1436.55 Q114.26 1431.94 114.26 1423.21 Q114.26 1414.46 117.316 1409.88 Q120.394 1405.27 126.205 1405.27 Z" fill="#000000" fill-rule="nonzero" fill-opacity="1" /><path clip-path="url(#clip290)" d="M146.366 1434.58 L151.251 1434.58 L151.251 1440.46 L146.366 1440.46 L146.366 1434.58 Z" fill="#000000" fill-rule="nonzero" fill-opacity="1" /><path clip-path="url(#clip290)" d="M174.283 1409.97 L162.477 1428.42 L174.283 1428.42 L174.283 1409.97 M173.056 1405.9 L178.936 1405.9 L178.936 1428.42 L183.866 1428.42 L183.866 1432.31 L178.936 1432.31 L178.936 1440.46 L174.283 1440.46 L174.283 1432.31 L158.681 1432.31 L158.681 1427.8 L173.056 1405.9 Z" fill="#000000" fill-rule="nonzero" fill-opacity="1" /><path clip-path="url(#clip290)" d="M201.598 1408.98 Q197.987 1408.98 196.158 1412.54 Q194.352 1416.08 194.352 1423.21 Q194.352 1430.32 196.158 1433.89 Q197.987 1437.43 201.598 1437.43 Q205.232 1437.43 207.037 1433.89 Q208.866 1430.32 208.866 1423.21 Q208.866 1416.08 207.037 1412.54 Q205.232 1408.98 201.598 1408.98 M201.598 1405.27 Q207.408 1405.27 210.463 1409.88 Q213.542 1414.46 213.542 1423.21 Q213.542 1431.94 210.463 1436.55 Q207.408 1441.13 201.598 1441.13 Q195.787 1441.13 192.709 1436.55 Q189.653 1431.94 189.653 1423.21 Q189.653 1414.46 192.709 1409.88 Q195.787 1405.27 201.598 1405.27 Z" fill="#000000" fill-rule="nonzero" fill-opacity="1" /><path clip-path="url(#clip290)" d="M127.2 1064.99 Q123.589 1064.99 121.76 1068.56 Q119.955 1072.1 119.955 1079.23 Q119.955 1086.34 121.76 1089.9 Q123.589 1093.44 127.2 1093.44 Q130.834 1093.44 132.64 1089.9 Q134.468 1086.34 134.468 1079.23 Q134.468 1072.1 132.64 1068.56 Q130.834 1064.99 127.2 1064.99 M127.2 1061.29 Q133.01 1061.29 136.066 1065.9 Q139.144 1070.48 139.144 1079.23 Q139.144 1087.96 136.066 1092.56 Q133.01 1097.15 127.2 1097.15 Q121.39 1097.15 118.311 1092.56 Q115.256 1087.96 115.256 1079.23 Q115.256 1070.48 118.311 1065.9 Q121.39 1061.29 127.2 1061.29 Z" fill="#000000" fill-rule="nonzero" fill-opacity="1" /><path clip-path="url(#clip290)" d="M147.362 1090.6 L152.246 1090.6 L152.246 1096.48 L147.362 1096.48 L147.362 1090.6 Z" fill="#000000" fill-rule="nonzero" fill-opacity="1" /><path clip-path="url(#clip290)" d="M175.278 1065.99 L163.473 1084.44 L175.278 1084.44 L175.278 1065.99 M174.052 1061.92 L179.931 1061.92 L179.931 1084.44 L184.862 1084.44 L184.862 1088.33 L179.931 1088.33 L179.931 1096.48 L175.278 1096.48 L175.278 1088.33 L159.677 1088.33 L159.677 1083.81 L174.052 1061.92 Z" fill="#000000" fill-rule="nonzero" fill-opacity="1" /><path clip-path="url(#clip290)" d="M192.639 1061.92 L210.996 1061.92 L210.996 1065.85 L196.922 1065.85 L196.922 1074.32 Q197.94 1073.98 198.959 1073.81 Q199.977 1073.63 200.996 1073.63 Q206.783 1073.63 210.162 1076.8 Q213.542 1079.97 213.542 1085.39 Q213.542 1090.97 210.07 1094.07 Q206.598 1097.15 200.278 1097.15 Q198.102 1097.15 195.834 1096.78 Q193.588 1096.41 191.181 1095.67 L191.181 1090.97 Q193.264 1092.1 195.487 1092.66 Q197.709 1093.21 200.186 1093.21 Q204.19 1093.21 206.528 1091.11 Q208.866 1089 208.866 1085.39 Q208.866 1081.78 206.528 1079.67 Q204.19 1077.56 200.186 1077.56 Q198.311 1077.56 196.436 1077.98 Q194.584 1078.4 192.639 1079.28 L192.639 1061.92 Z" fill="#000000" fill-rule="nonzero" fill-opacity="1" /><path clip-path="url(#clip290)" d="M126.205 721.011 Q122.593 721.011 120.765 724.575 Q118.959 728.117 118.959 735.247 Q118.959 742.353 120.765 745.918 Q122.593 749.46 126.205 749.46 Q129.839 749.46 131.644 745.918 Q133.473 742.353 133.473 735.247 Q133.473 728.117 131.644 724.575 Q129.839 721.011 126.205 721.011 M126.205 717.307 Q132.015 717.307 135.07 721.913 Q138.149 726.497 138.149 735.247 Q138.149 743.973 135.07 748.58 Q132.015 753.163 126.205 753.163 Q120.394 753.163 117.316 748.58 Q114.26 743.973 114.26 735.247 Q114.26 726.497 117.316 721.913 Q120.394 717.307 126.205 717.307 Z" fill="#000000" fill-rule="nonzero" fill-opacity="1" /><path clip-path="url(#clip290)" d="M146.366 746.612 L151.251 746.612 L151.251 752.492 L146.366 752.492 L146.366 746.612 Z" fill="#000000" fill-rule="nonzero" fill-opacity="1" /><path clip-path="url(#clip290)" d="M161.482 717.932 L179.839 717.932 L179.839 721.867 L165.765 721.867 L165.765 730.339 Q166.783 729.992 167.802 729.83 Q168.82 729.645 169.839 729.645 Q175.626 729.645 179.005 732.816 Q182.385 735.987 182.385 741.404 Q182.385 746.983 178.913 750.085 Q175.44 753.163 169.121 753.163 Q166.945 753.163 164.677 752.793 Q162.431 752.423 160.024 751.682 L160.024 746.983 Q162.107 748.117 164.329 748.673 Q166.552 749.228 169.028 749.228 Q173.033 749.228 175.371 747.122 Q177.709 745.015 177.709 741.404 Q177.709 737.793 175.371 735.687 Q173.033 733.58 169.028 733.58 Q167.153 733.58 165.278 733.997 Q163.427 734.413 161.482 735.293 L161.482 717.932 Z" fill="#000000" fill-rule="nonzero" fill-opacity="1" /><path clip-path="url(#clip290)" d="M201.598 721.011 Q197.987 721.011 196.158 724.575 Q194.352 728.117 194.352 735.247 Q194.352 742.353 196.158 745.918 Q197.987 749.46 201.598 749.46 Q205.232 749.46 207.037 745.918 Q208.866 742.353 208.866 735.247 Q208.866 728.117 207.037 724.575 Q205.232 721.011 201.598 721.011 M201.598 717.307 Q207.408 717.307 210.463 721.913 Q213.542 726.497 213.542 735.247 Q213.542 743.973 210.463 748.58 Q207.408 753.163 201.598 753.163 Q195.787 753.163 192.709 748.58 Q189.653 743.973 189.653 735.247 Q189.653 726.497 192.709 721.913 Q195.787 717.307 201.598 717.307 Z" fill="#000000" fill-rule="nonzero" fill-opacity="1" /><path clip-path="url(#clip290)" d="M127.2 377.027 Q123.589 377.027 121.76 380.592 Q119.955 384.133 119.955 391.263 Q119.955 398.369 121.76 401.934 Q123.589 405.476 127.2 405.476 Q130.834 405.476 132.64 401.934 Q134.468 398.369 134.468 391.263 Q134.468 384.133 132.64 380.592 Q130.834 377.027 127.2 377.027 M127.2 373.323 Q133.01 373.323 136.066 377.929 Q139.144 382.513 139.144 391.263 Q139.144 399.99 136.066 404.596 Q133.01 409.179 127.2 409.179 Q121.39 409.179 118.311 404.596 Q115.256 399.99 115.256 391.263 Q115.256 382.513 118.311 377.929 Q121.39 373.323 127.2 373.323 Z" fill="#000000" fill-rule="nonzero" fill-opacity="1" /><path clip-path="url(#clip290)" d="M147.362 402.628 L152.246 402.628 L152.246 408.508 L147.362 408.508 L147.362 402.628 Z" fill="#000000" fill-rule="nonzero" fill-opacity="1" /><path clip-path="url(#clip290)" d="M162.477 373.948 L180.834 373.948 L180.834 377.883 L166.76 377.883 L166.76 386.355 Q167.778 386.008 168.797 385.846 Q169.815 385.661 170.834 385.661 Q176.621 385.661 180.001 388.832 Q183.38 392.003 183.38 397.42 Q183.38 402.999 179.908 406.101 Q176.436 409.179 170.116 409.179 Q167.94 409.179 165.672 408.809 Q163.427 408.439 161.019 407.698 L161.019 402.999 Q163.102 404.133 165.325 404.689 Q167.547 405.244 170.024 405.244 Q174.028 405.244 176.366 403.138 Q178.704 401.031 178.704 397.42 Q178.704 393.809 176.366 391.703 Q174.028 389.596 170.024 389.596 Q168.149 389.596 166.274 390.013 Q164.422 390.429 162.477 391.309 L162.477 373.948 Z" fill="#000000" fill-rule="nonzero" fill-opacity="1" /><path clip-path="url(#clip290)" d="M192.639 373.948 L210.996 373.948 L210.996 377.883 L196.922 377.883 L196.922 386.355 Q197.94 386.008 198.959 385.846 Q199.977 385.661 200.996 385.661 Q206.783 385.661 210.162 388.832 Q213.542 392.003 213.542 397.42 Q213.542 402.999 210.07 406.101 Q206.598 409.179 200.278 409.179 Q198.102 409.179 195.834 408.809 Q193.588 408.439 191.181 407.698 L191.181 402.999 Q193.264 404.133 195.487 404.689 Q197.709 405.244 200.186 405.244 Q204.19 405.244 206.528 403.138 Q208.866 401.031 208.866 397.42 Q208.866 393.809 206.528 391.703 Q204.19 389.596 200.186 389.596 Q198.311 389.596 196.436 390.013 Q194.584 390.429 192.639 391.309 L192.639 373.948 Z" fill="#000000" fill-rule="nonzero" fill-opacity="1" /><path clip-path="url(#clip290)" d="M21.7677 917.223 L39.6235 917.223 L39.6235 909.139 Q39.6235 904.651 37.3 902.2 Q34.9765 899.75 30.6797 899.75 Q26.4147 899.75 24.0912 902.2 Q21.7677 904.651 21.7677 909.139 L21.7677 917.223 M16.4842 923.653 L16.4842 909.139 Q16.4842 901.15 20.1126 897.076 Q23.7092 892.97 30.6797 892.97 Q37.7138 892.97 41.3104 897.076 Q44.907 901.15 44.907 909.139 L44.907 917.223 L64.0042 917.223 L64.0042 923.653 L16.4842 923.653 Z" fill="#000000" fill-rule="nonzero" fill-opacity="1" /><path clip-path="url(#clip290)" d="M32.4621 873.109 Q32.4621 877.82 36.1542 880.557 Q39.8145 883.294 46.212 883.294 Q52.6095 883.294 56.3017 880.589 Q59.9619 877.852 59.9619 873.109 Q59.9619 868.43 56.2698 865.693 Q52.5777 862.956 46.212 862.956 Q39.8781 862.956 36.186 865.693 Q32.4621 868.43 32.4621 873.109 M27.4968 873.109 Q27.4968 865.47 32.4621 861.11 Q37.4273 856.749 46.212 856.749 Q54.9649 856.749 59.9619 861.11 Q64.9272 865.47 64.9272 873.109 Q64.9272 880.78 59.9619 885.14 Q54.9649 889.469 46.212 889.469 Q37.4273 889.469 32.4621 885.14 Q27.4968 880.78 27.4968 873.109 Z" fill="#000000" fill-rule="nonzero" fill-opacity="1" /><path clip-path="url(#clip290)" d="M29.4065 824.316 L34.9447 824.316 Q33.6716 826.799 33.035 829.472 Q32.3984 832.146 32.3984 835.01 Q32.3984 839.371 33.7352 841.567 Q35.072 843.731 37.7456 843.731 Q39.7826 843.731 40.9603 842.172 Q42.1061 840.612 43.1565 835.902 L43.6021 833.896 Q44.9389 827.658 47.3897 825.048 Q49.8086 822.406 54.1691 822.406 Q59.1344 822.406 62.0308 826.353 Q64.9272 830.268 64.9272 837.143 Q64.9272 840.007 64.3543 843.127 Q63.8132 846.214 62.6992 849.651 L56.6518 849.651 Q58.3387 846.405 59.198 843.254 Q60.0256 840.103 60.0256 837.016 Q60.0256 832.878 58.6251 830.65 Q57.1929 828.422 54.6147 828.422 Q52.2276 828.422 50.9545 830.045 Q49.6813 831.637 48.5037 837.079 L48.0262 839.116 Q46.8804 844.559 44.5251 846.978 Q42.138 849.397 38.0002 849.397 Q32.9713 849.397 30.2341 845.832 Q27.4968 842.267 27.4968 835.711 Q27.4968 832.464 27.9743 829.599 Q28.4517 826.735 29.4065 824.316 Z" fill="#000000" fill-rule="nonzero" fill-opacity="1" /><path clip-path="url(#clip290)" d="M28.3562 813.08 L28.3562 807.224 L64.0042 807.224 L64.0042 813.08 L28.3562 813.08 M14.479 813.08 L14.479 807.224 L21.895 807.224 L21.895 813.08 L14.479 813.08 Z" fill="#000000" fill-rule="nonzero" fill-opacity="1" /><path clip-path="url(#clip290)" d="M18.2347 789.177 L28.3562 789.177 L28.3562 777.114 L32.9077 777.114 L32.9077 789.177 L52.2594 789.177 Q56.6199 789.177 57.8613 788 Q59.1026 786.79 59.1026 783.13 L59.1026 777.114 L64.0042 777.114 L64.0042 783.13 Q64.0042 789.909 61.4897 792.487 Q58.9434 795.066 52.2594 795.066 L32.9077 795.066 L32.9077 799.362 L28.3562 799.362 L28.3562 795.066 L18.2347 795.066 L18.2347 789.177 Z" fill="#000000" fill-rule="nonzero" fill-opacity="1" /><path clip-path="url(#clip290)" d="M28.3562 769.412 L28.3562 763.555 L64.0042 763.555 L64.0042 769.412 L28.3562 769.412 M14.479 769.412 L14.479 763.555 L21.895 763.555 L21.895 769.412 L14.479 769.412 Z" fill="#000000" fill-rule="nonzero" fill-opacity="1" /><path clip-path="url(#clip290)" d="M32.4621 737.488 Q32.4621 742.198 36.1542 744.936 Q39.8145 747.673 46.212 747.673 Q52.6095 747.673 56.3017 744.967 Q59.9619 742.23 59.9619 737.488 Q59.9619 732.809 56.2698 730.072 Q52.5777 727.334 46.212 727.334 Q39.8781 727.334 36.186 730.072 Q32.4621 732.809 32.4621 737.488 M27.4968 737.488 Q27.4968 729.849 32.4621 725.488 Q37.4273 721.128 46.212 721.128 Q54.9649 721.128 59.9619 725.488 Q64.9272 729.849 64.9272 737.488 Q64.9272 745.158 59.9619 749.519 Q54.9649 753.848 46.212 753.848 Q37.4273 753.848 32.4621 749.519 Q27.4968 745.158 27.4968 737.488 Z" fill="#000000" fill-rule="nonzero" fill-opacity="1" /><path clip-path="url(#clip290)" d="M42.4881 681.788 L64.0042 681.788 L64.0042 687.644 L42.679 687.644 Q37.6183 687.644 35.1038 689.618 Q32.5894 691.591 32.5894 695.538 Q32.5894 700.28 35.6131 703.017 Q38.6368 705.755 43.8567 705.755 L64.0042 705.755 L64.0042 711.643 L28.3562 711.643 L28.3562 705.755 L33.8944 705.755 Q30.6797 703.654 29.0883 700.821 Q27.4968 697.957 27.4968 694.233 Q27.4968 688.09 31.3163 684.939 Q35.1038 681.788 42.4881 681.788 Z" fill="#000000" fill-rule="nonzero" fill-opacity="1" /><path clip-path="url(#clip290)" d="M14.479 649.927 L14.479 636.432 L19.0304 636.432 L19.0304 644.071 L68.0464 644.071 L68.0464 636.432 L72.5979 636.432 L72.5979 649.927 L14.479 649.927 Z" fill="#000000" fill-rule="nonzero" fill-opacity="1" /><path clip-path="url(#clip290)" d="M35.1993 596.201 Q31.2526 594.005 29.3747 590.949 Q27.4968 587.894 27.4968 583.756 Q27.4968 578.186 31.4117 575.162 Q35.2948 572.138 42.4881 572.138 L64.0042 572.138 L64.0042 578.027 L42.679 578.027 Q37.5546 578.027 35.072 579.841 Q32.5894 581.655 32.5894 585.379 Q32.5894 589.931 35.6131 592.572 Q38.6368 595.214 43.8567 595.214 L64.0042 595.214 L64.0042 601.102 L42.679 601.102 Q37.5228 601.102 35.072 602.917 Q32.5894 604.731 32.5894 608.518 Q32.5894 613.006 35.6449 615.648 Q38.6686 618.29 43.8567 618.29 L64.0042 618.29 L64.0042 624.178 L28.3562 624.178 L28.3562 618.29 L33.8944 618.29 Q30.616 616.285 29.0564 613.484 Q27.4968 610.683 27.4968 606.832 Q27.4968 602.948 29.4702 600.243 Q31.4436 597.506 35.1993 596.201 Z" fill="#000000" fill-rule="nonzero" fill-opacity="1" /><path clip-path="url(#clip290)" d="M14.479 546.771 L72.5979 546.771 L72.5979 560.266 L68.0464 560.266 L68.0464 552.659 L19.0304 552.659 L19.0304 560.266 L14.479 560.266 L14.479 546.771 Z" fill="#000000" fill-rule="nonzero" fill-opacity="1" /><polyline clip-path="url(#clip292)" style="stroke:#009af9; stroke-linecap:round; stroke-linejoin:round; stroke-width:4; stroke-opacity:1; fill:none" stroke-dasharray="16, 10" points="-1853.67,735.212 4455.97,735.212 "/>
<polyline clip-path="url(#clip292)" style="stroke:#e26f46; stroke-linecap:round; stroke-linejoin:round; stroke-width:4; stroke-opacity:1; fill:none" points="309.067,4175.05 311.053,4190.84 313.039,4156.42 315.025,4088.46 317.012,4066.97 318.998,4011.6 320.984,3958.56 322.97,3881.36 324.956,3784.23 326.942,3643.79 328.928,3496.66 330.915,3334.25 332.901,3166.86 334.887,3003.92 336.873,2843.92 338.859,2711.54 340.845,2540.23 342.832,2418.95 344.818,2287.98 346.804,2193.9 348.79,2088.19 350.776,1984.15 352.762,1873.34 354.748,1752.15 356.735,1667.8 358.721,1593.72 360.707,1512.84 362.693,1403.77 364.679,1355.2 366.665,1264.87 368.651,1184.57 370.638,1110.85 372.624,1061 374.61,1021.89 376.596,946.843 378.582,888.637 380.568,863.963 382.555,824.732 384.541,838.044 386.527,805.812 388.513,807.06 390.499,829.459 392.485,819.085 394.471,844.31 396.458,867.903 398.444,888.923 400.43,892.455 402.416,912.178 404.402,939.743 406.388,953.849 408.374,945.928 410.361,964.302 412.347,977.347 414.333,978.614 416.319,982.656 418.305,947.483 420.291,967.022 422.278,962.736 424.264,938.267 426.25,901.686 428.236,882.327 430.222,903.512 432.208,887.086 434.194,863.244 436.181,862.796 438.167,873.341 440.153,866.073 442.139,844.054 444.125,812.673 446.111,823.864 448.097,815.138 450.084,772.074 452.07,755.998 454.056,754.858 456.042,776.384 458.028,785.104 460.014,785.465 462.001,795.403 463.987,817.665 465.973,800.911 467.959,775.205 469.945,743.672 471.931,749.413 473.917,719.274 475.904,704.46 477.89,721.49 479.876,752.269 481.862,782.135 483.848,822.535 485.834,823.147 487.82,853.084 489.807,876.44 491.793,856.124 493.779,840.371 495.765,840.642 497.751,873.065 499.737,850.673 501.724,844.905 503.71,858.492 505.696,846.8 507.682,872.914 509.668,852.056 511.654,856.51 513.64,838.523 515.627,829.026 517.613,830.638 519.599,860.082 521.585,871.813 523.571,856.183 525.557,858.827 527.543,828.166 529.53,811.187 531.516,832.968 533.502,861.135 535.488,826.583 537.474,815.689 539.46,828.439 541.447,795.952 543.433,794.841 545.419,796.424 547.405,814.25 549.391,784.438 551.377,785.546 553.363,784.959 555.35,783.729 557.336,765.626 559.322,791.2 561.308,796.186 563.294,765.37 565.28,794.392 567.266,784.765 569.253,754.568 571.239,780.284 573.225,813.61 575.211,782.189 577.197,787.141 579.183,749.177 581.17,724.656 583.156,741.968 585.142,752.787 587.128,768.791 589.114,771.989 591.1,759.403 593.086,764.319 595.073,796.328 597.059,827.73 599.045,839.072 601.031,844.863 603.017,867.041 605.003,883.214 606.989,878.076 608.976,886.792 610.962,913.462 612.948,882.369 614.934,875.227 616.92,860.772 618.906,858.014 620.893,834.22 622.879,808.806 624.865,791.09 626.851,798.642 628.837,771.489 630.823,750.128 632.809,716.953 634.796,735.584 636.782,733.837 638.768,730.995 640.754,760.536 642.74,796.676 644.726,780.926 646.712,763.102 648.699,797.022 650.685,790.548 652.671,773.563 654.657,805.613 656.643,806.036 658.629,822.4 660.616,799.485 662.602,792.12 664.588,802.242 666.574,784.358 668.56,755.924 670.546,746.387 672.532,763.417 674.519,802.408 676.505,840.028 678.491,867.316 680.477,850.158 682.463,838.671 684.449,827.344 686.435,814.91 688.422,787.978 690.408,756.224 692.394,754.165 694.38,782.957 696.366,765.118 698.352,744.942 700.339,739.566 702.325,711.447 704.311,743.53 706.297,771.704 708.283,806.559 710.269,822.566 712.255,839.132 714.242,809.006 716.228,809.543 718.214,793.722 720.2,816.586 722.186,814.013 724.172,831.278 726.158,854.132 728.145,823.296 730.131,816.25 732.117,790.059 734.103,805.448 736.089,794.921 738.075,771.832 740.062,780.218 742.048,807.372 744.034,815.085 746.02,805.514 748.006,798.81 749.992,764.13 751.978,739.222 753.965,768.742 755.951,783.657 757.937,764.927 759.923,766.16 761.909,773.478 763.895,785.367 765.881,768.007 767.868,787.298 769.854,788.815 771.84,779.647 773.826,749.097 775.812,715.643 777.798,751.908 779.785,774.088 781.771,769.541 783.757,767.064 785.743,781.093 787.729,756.745 789.715,743.169 791.701,720.609 793.688,751.176 795.674,796.444 797.66,773.564 799.646,776.681 801.632,774.976 803.618,780.424 805.604,792.06 807.591,799.124 809.577,774.597 811.563,793.885 813.549,821.728 815.535,811.945 817.521,801.203 819.508,781.625 821.494,799.658 823.48,790.339 825.466,809.368 827.452,803.587 829.438,776.128 831.424,781.72 833.411,804.473 835.397,816.338 837.383,846.008 839.369,867.384 841.355,836.165 843.341,824.117 845.328,821.249 847.314,805.119 849.3,779.367 851.286,766.425 853.272,757.576 855.258,720.505 857.244,750.969 859.231,750.256 861.217,747.012 863.203,774.732 865.189,794.998 867.175,794.461 869.161,794.801 871.147,802.455 873.134,790.596 875.12,772.124 877.106,805.261 879.092,801.126 881.078,800.845 883.064,778.769 885.051,806.38 887.037,835.765 889.023,840.068 891.009,807.539 892.995,826.951 894.981,839.351 896.967,828.647 898.954,823.301 900.94,805.324 902.926,777.963 904.912,764.3 906.898,782.649 908.884,766.452 910.87,775.6 912.857,795.903 914.843,818.064 916.829,793.503 918.815,788.221 920.801,791.188 922.787,803.227 924.774,826.389 926.76,810.205 928.746,789.895 930.732,766.126 932.718,751.78 934.704,729.583 936.69,758.345 938.677,795.322 940.663,823.552 942.649,799.855 944.635,795.654 946.621,779.426 948.607,777.6 950.593,774.213 952.58,745.021 954.566,750.9 956.552,729.838 958.538,736.312 960.524,754.563 962.51,748.35 964.497,737.909 966.483,761.15 968.469,792.929 970.455,774.736 972.441,803.267 974.427,802.9 976.413,796.625 978.4,820.776 980.386,817.737 982.372,839.844 984.358,849.51 986.344,849.966 988.33,871.473 990.316,879.232 992.303,895.357 994.289,869.596 996.275,830.899 998.261,795.886 1000.25,782.743 1002.23,782.248 1004.22,795.41 1006.21,791.505 1008.19,790.517 1010.18,806.555 1012.16,821.071 1014.15,824.973 1016.14,822.909 1018.12,806.151 1020.11,807.075 1022.09,810.436 1024.08,829.663 1026.07,849.876 1028.05,831.664 1030.04,858.06 1032.03,846.826 1034.01,838.525 1036,828.504 1037.98,831.328 1039.97,802.71 1041.96,834.424 1043.94,811.737 1045.93,784.023 1047.91,797.147 1049.9,831.719 1051.89,833.283 1053.87,806.379 1055.86,812.964 1057.85,800.318 1059.83,816.395 1061.82,816.067 1063.8,810.037 1065.79,786.019 1067.78,792.193 1069.76,778.535 1071.75,806.961 1073.73,814.289 1075.72,801.025 1077.71,783.292 1079.69,767.265 1081.68,755.339 1083.67,720.615 1085.65,739.31 1087.64,753.289 1089.62,745.775 1091.61,727.127 1093.6,730.087 1095.58,752.037 1097.57,776.935 1099.55,804.975 1101.54,794.2 1103.53,794.269 1105.51,801.459 1107.5,788.429 1109.49,766.784 1111.47,788.42 1113.46,771.494 1115.44,759.678 1117.43,722.359 1119.42,696.191 1121.4,719.308 1123.39,754.652 1125.37,773.253 1127.36,775.567 1129.35,789.272 1131.33,819.904 1133.32,822.811 1135.31,806.135 1137.29,808.18 1139.28,782.842 1141.26,815.022 1143.25,830.843 1145.24,819.778 1147.22,820.838 1149.21,787.815 1151.19,772.296 1153.18,738.202 1155.17,738.71 1157.15,772.412 1159.14,773.774 1161.13,775.466 1163.11,742.101 1165.1,714.047 1167.08,696.097 1169.07,706.908 1171.06,723.009 1173.04,737.982 1175.03,767.526 1177.01,773.079 1179,758.993 1180.99,743.226 1182.97,718.055 1184.96,707.966 1186.95,755.512 1188.93,763.512 1190.92,767.599 1192.9,767.057 1194.89,806.406 1196.88,818.61 1198.86,801.658 1200.85,807.602 1202.83,842.198 1204.82,870.659 1206.81,857.195 1208.79,867.652 1210.78,849.395 1212.77,858.622 1214.75,844.853 1216.74,857.358 1218.72,840.968 1220.71,841.017 1222.7,812.385 1224.68,825.61 1226.67,814.809 1228.65,790.203 1230.64,764.568 1232.63,775.881 1234.61,777.396 1236.6,772.027 1238.59,777.78 1240.57,770.55 1242.56,773.188 1244.54,744.668 1246.53,743.524 1248.52,721.476 1250.5,751.063 1252.49,776.291 1254.47,769.51 1256.46,764.031 1258.45,744.289 1260.43,742.828 1262.42,768.868 1264.41,755.418 1266.39,758.917 1268.38,763.136 1270.36,798.542 1272.35,808.101 1274.34,805.83 1276.32,781.268 1278.31,756.28 1280.29,736.216 1282.28,768.373 1284.27,749.149 1286.25,755.51 1288.24,737.868 1290.23,703.854 1292.21,698.838 1294.2,743.971 1296.18,797.491 1298.17,795.782 1300.16,797.3 1302.14,809.571 1304.13,849.9 1306.11,841.304 1308.1,832.897 1310.09,842.266 1312.07,852.429 1314.06,822.597 1316.05,792.347 1318.03,798.228 1320.02,820.44 1322,797.924 1323.99,803.067 1325.98,794.525 1327.96,819.784 1329.95,846.908 1331.93,810.385 1333.92,825.573 1335.91,808.933 1337.89,793.314 1339.88,781.574 1341.87,808.472 1343.85,805.985 1345.84,825.621 1347.82,849.37 1349.81,810.469 1351.8,784.071 1353.78,803.348 1355.77,821.805 1357.75,791.069 1359.74,776.407 1361.73,739.905 1363.71,732.468 1365.7,766.46 1367.69,780.399 1369.67,791.803 1371.66,778.596 1373.64,785.41 1375.63,766.209 1377.62,735.809 1379.6,702.982 1381.59,706.163 1383.57,695.878 1385.56,728.983 1387.55,788.113 1389.53,796.197 1391.52,853.024 1393.5,880.647 1395.49,869.09 1397.48,866.047 1399.46,899.618 1401.45,918.656 1403.44,956.813 1405.42,980.441 1407.41,1011.42 1409.39,1014.74 1411.38,1000.94 1413.37,964.807 1415.35,964.09 1417.34,927.308 1419.32,918.955 1421.31,926.92 1423.3,889.478 1425.28,897.206 1427.27,876.863 1429.26,881.14 1431.24,838.72 1433.23,799.226 1435.21,819.84 1437.2,801.51 1439.19,821.993 1441.17,800.269 1443.16,791.46 1445.14,768.019 1447.13,785.029 1449.12,767.726 1451.1,786.432 1453.09,756.571 1455.08,772.879 1457.06,740.396 1459.05,723.615 1461.03,756.077 1463.02,761.686 1465.01,794.727 1466.99,838.555 1468.98,862.931 1470.96,879.996 1472.95,859.157 1474.94,862.888 1476.92,842.621 1478.91,878.283 1480.9,868.941 1482.88,851.017 1484.87,884.156 1486.85,896.546 1488.84,893.255 1490.83,884.457 1492.81,860.448 1494.8,844.037 1496.78,844.039 1498.77,803.532 1500.76,832.251 1502.74,821.99 1504.73,829.562 1506.72,799.808 1508.7,790.155 1510.69,784.158 1512.67,787.356 1514.66,796.188 1516.65,814.246 1518.63,782.379 1520.62,790.442 1522.6,748.435 1524.59,772.987 1526.58,753.525 1528.56,719.297 1530.55,696.713 1532.54,733.058 1534.52,775.163 1536.51,790.614 1538.49,834.437 1540.48,845.54 1542.47,840.838 1544.45,853.036 1546.44,830.023 1548.42,833.526 1550.41,864.026 1552.4,831.01 1554.38,860.445 1556.37,829.617 1558.36,797.958 1560.34,777.32 1562.33,753.113 1564.31,767.082 1566.3,759.297 1568.29,757.207 1570.27,788.849 1572.26,765.834 1574.24,736.785 1576.23,711.466 1578.22,711.355 1580.2,729.88 1582.19,727.258 1584.18,754.864 1586.16,798.142 1588.15,817.646 1590.13,806.973 1592.12,844.895 1594.11,839.319 1596.09,829.98 1598.08,849.282 1600.06,858.54 1602.05,830.426 1604.04,850.903 1606.02,863.23 1608.01,831.867 1610,834.876 1611.98,814.571 1613.97,829.561 1615.95,851.76 1617.94,821.17 1619.93,805.611 1621.91,783.581 1623.9,780.669 1625.88,767.116 1627.87,756.801 1629.86,777.25 1631.84,780.383 1633.83,804.113 1635.82,818.269 1637.8,840.099 1639.79,858.831 1641.77,894.059 1643.76,868.821 1645.75,878.208 1647.73,869.536 1649.72,836.052 1651.7,864.823 1653.69,845.04 1655.68,870.772 1657.66,896.085 1659.65,908.103 1661.64,927.802 1663.62,939.731 1665.61,903.763 1667.59,885.209 1669.58,913.492 1671.57,932.421 1673.55,904.805 1675.54,922.023 1677.52,940.736 1679.51,956.635 1681.5,923.811 1683.48,928.077 1685.47,927.455 1687.46,895.579 1689.44,912.38 1691.43,912.038 1693.41,921.603 1695.4,919.808 1697.39,891.215 1699.37,886.496 1701.36,839.848 1703.34,795.206 1705.33,751.35 1707.32,727.925 1709.3,709.408 1711.29,705.985 1713.28,735.828 1715.26,754.522 1717.25,810.363 1719.23,841.84 1721.22,866.118 1723.21,845.688 1725.19,824.507 1727.18,805.679 1729.16,832.811 1731.15,831.676 1733.14,850.979 1735.12,835.028 1737.11,855.432 1739.1,868.333 1741.08,861.275 1743.07,889.306 1745.05,894.568 1747.04,906.548 1749.03,893.792 1751.01,917.209 1753,929.374 1754.98,928.446 1756.97,907.462 1758.96,871.242 1760.94,860.588 1762.93,850.338 1764.92,822.895 1766.9,823.752 1768.89,811.18 1770.87,789.106 1772.86,774.226 1774.85,756.562 1776.83,769.227 1778.82,780.683 1780.8,769.486 1782.79,787.14 1784.78,796.661 1786.76,787.239 1788.75,762.25 1790.73,746.903 1792.72,777.282 1794.71,798.849 1796.69,831.368 1798.68,844.998 1800.67,833.504 1802.65,863.053 1804.64,883.195 1806.62,895.291 1808.61,881.231 1810.6,889.514 1812.58,909.836 1814.57,921.358 1816.55,907.96 1818.54,922.633 1820.53,909.641 1822.51,926.378 1824.5,920.399 1826.49,943.659 1828.47,930.778 1830.46,927.913 1832.44,906.588 1834.43,893.833 1836.42,848.027 1838.4,865.563 1840.39,831.061 1842.37,804.428 1844.36,825.713 1846.35,834.224 1848.33,824.917 1850.32,817.295 1852.31,787.687 1854.29,751.587 1856.28,715.083 1858.26,737.055 1860.25,750.386 1862.24,742.513 1864.22,768.847 1866.21,793.064 1868.19,813.173 1870.18,785.37 1872.17,822.557 1874.15,804.423 1876.14,820.959 1878.13,819.144 1880.11,838.805 1882.1,859.239 1884.08,882.666 1886.07,886.047 1888.06,911.223 1890.04,882.874 1892.03,875.377 1894.01,899.197 1896,915.523 1897.99,888.666 1899.97,902.394 1901.96,895.881 1903.95,889.248 1905.93,891.711 1907.92,872.311 1909.9,887.277 1911.89,905.409 1913.88,909.18 1915.86,932.014 1917.85,900.546 1919.83,885.215 1921.82,902.213 1923.81,903.943 1925.79,914.582 1927.78,906.298 1929.77,925.021 1931.75,900.241 1933.74,896.933 1935.72,906.486 1937.71,913.763 1939.7,926.097 1941.68,934.928 1943.67,930.281 1945.65,911.05 1947.64,914.825 1949.63,882.922 1951.61,886.313 1953.6,907.91 1955.59,889.304 1957.57,869.506 1959.56,821.949 1961.54,805.384 1963.53,816.954 1965.52,799.363 1967.5,791.575 1969.49,778.165 1971.47,750.348 1973.46,729.342 1975.45,730.599 1977.43,737.01 1979.42,717.547 1981.41,755.225 1983.39,801.8 1985.38,828.41 1987.36,833.581 1989.35,850.366 1991.34,860.643 1993.32,853.464 1995.31,848.659 1997.29,875.663 1999.28,890.681 2001.27,862.09 2003.25,869.905 2005.24,863.366 2007.23,885.559 2009.21,885.225 2011.2,911.723 2013.18,878.388 2015.17,870.147 2017.16,884.593 2019.14,872.566 2021.13,882.882 2023.11,860.638 2025.1,837.012 2027.09,809.619 2029.07,772.41 2031.06,754.584 2033.05,777.726 2035.03,795.48 2037.02,805.58 2039,819.887 2040.99,813.513 2042.98,817.918 2044.96,842.084 2046.95,847.902 2048.93,860.849 2050.92,850.913 2052.91,876.774 2054.89,871.619 2056.88,892.03 2058.87,899.055 2060.85,910.111 2062.84,886.393 2064.82,853.686 2066.81,841.789 2068.8,870.958 2070.78,837.392 2072.77,864.337 2074.75,841.115 2076.74,850.759 2078.73,836.092 2080.71,810.813 2082.7,836.829 2084.69,807.732 2086.67,816.459 2088.66,838.805 2090.64,808.665 2092.63,834.673 2094.62,803.334 2096.6,810.25 2098.59,824.19 2100.57,856.133 2102.56,855.52 2104.55,879.907 2106.53,892.273 2108.52,859.614 2110.51,839.743 2112.49,819.194 2114.48,845.669 2116.46,844.313 2118.45,853.657 2120.44,868.426 2122.42,869.86 2124.41,886.461 2126.39,864.65 2128.38,885.684 2130.37,867.193 2132.35,856.089 2134.34,808.971 2136.33,806.868 2138.31,803.791 2140.3,780.655 2142.28,740.946 2144.27,721.705 2146.26,713.69 2148.24,765.007 2150.23,794.068 2152.21,798.974 2154.2,825.337 2156.19,837.816 2158.17,845.73 2160.16,842.317 2162.15,877.158 2164.13,846.454 2166.12,858.016 2168.1,853.816 2170.09,862.453 2172.08,868.981 2174.06,863.41 2176.05,881.928 2178.03,850.126 2180.02,841.608 2182.01,837.598 2183.99,837.011 2185.98,817.167 2187.97,789.887 2189.95,762.666 2191.94,781.13 2193.92,807.424 2195.91,794.287 2197.9,802.435 2199.88,770.526 2201.87,791.422 2203.85,777.65 2205.84,753.938 2207.83,765.399 2209.81,746.762 2211.8,759.657 2213.78,756.938 2215.77,785.392 2217.76,809.91 2219.74,785.019 2221.73,753.038 2223.72,749.215 2225.7,719.65 2227.69,709.348 2229.67,759.171 2231.66,777.313 2233.65,822.292 2235.63,841.18 2237.62,876.486 2239.6,906.665 2241.59,947.828 2243.58,946.295 2245.56,978.416 2247.55,982.844 2249.54,968.386 2251.52,1006.07 2253.51,1030.39 2255.49,1052.16 2257.48,1082.1 2259.47,1090.26 2261.45,1098.19 2263.44,1117.87 2265.42,1096.5 2267.41,1093.86 2269.4,1047.47 2271.38,1019.52 2273.37,978.377 2275.36,967.614 2277.34,957.512 2279.33,974.056 2281.31,937.794 2283.3,918.438 2285.29,935.188 2287.27,929.774 2289.26,934.467 2291.24,953.218 2293.23,967.896 "/>
<path clip-path="url(#clip290)" d="M1669.16 248.629 L2282.65 248.629 L2282.65 93.1086 L1669.16 93.1086  Z" fill="#ffffff" fill-rule="evenodd" fill-opacity="1"/>
<polyline clip-path="url(#clip290)" style="stroke:#000000; stroke-linecap:round; stroke-linejoin:round; stroke-width:4; stroke-opacity:1; fill:none" points="1669.16,248.629 2282.65,248.629 2282.65,93.1086 1669.16,93.1086 1669.16,248.629 "/>
<polyline clip-path="url(#clip290)" style="stroke:#009af9; stroke-linecap:round; stroke-linejoin:round; stroke-width:4; stroke-opacity:1; fill:none" stroke-dasharray="16, 10" points="1692.53,144.949 1832.74,144.949 "/>
<path clip-path="url(#clip290)" d="M1883.98 130.331 L1883.98 135.261 Q1881.62 133.062 1878.93 131.974 Q1876.27 130.886 1873.26 130.886 Q1867.34 130.886 1864.19 134.52 Q1861.04 138.132 1861.04 144.983 Q1861.04 151.812 1864.19 155.446 Q1867.34 159.057 1873.26 159.057 Q1876.27 159.057 1878.93 157.969 Q1881.62 156.881 1883.98 154.682 L1883.98 159.567 Q1881.53 161.233 1878.77 162.067 Q1876.04 162.9 1872.99 162.9 Q1865.14 162.9 1860.62 158.108 Q1856.11 153.293 1856.11 144.983 Q1856.11 136.65 1860.62 131.858 Q1865.14 127.044 1872.99 127.044 Q1876.09 127.044 1878.82 127.877 Q1881.57 128.687 1883.98 130.331 Z" fill="#000000" fill-rule="nonzero" fill-opacity="1" /><path clip-path="url(#clip290)" d="M1901.06 139.289 Q1897.64 139.289 1895.65 141.974 Q1893.66 144.636 1893.66 149.289 Q1893.66 153.942 1895.62 156.627 Q1897.62 159.289 1901.06 159.289 Q1904.47 159.289 1906.46 156.604 Q1908.45 153.918 1908.45 149.289 Q1908.45 144.682 1906.46 141.997 Q1904.47 139.289 1901.06 139.289 M1901.06 135.678 Q1906.62 135.678 1909.79 139.289 Q1912.96 142.9 1912.96 149.289 Q1912.96 155.655 1909.79 159.289 Q1906.62 162.9 1901.06 162.9 Q1895.49 162.9 1892.31 159.289 Q1889.17 155.655 1889.17 149.289 Q1889.17 142.9 1892.31 139.289 Q1895.49 135.678 1901.06 135.678 Z" fill="#000000" fill-rule="nonzero" fill-opacity="1" /><path clip-path="url(#clip290)" d="M1941.57 146.581 L1941.57 162.229 L1937.31 162.229 L1937.31 146.719 Q1937.31 143.039 1935.88 141.21 Q1934.44 139.382 1931.57 139.382 Q1928.12 139.382 1926.13 141.581 Q1924.14 143.78 1924.14 147.576 L1924.14 162.229 L1919.86 162.229 L1919.86 136.303 L1924.14 136.303 L1924.14 140.331 Q1925.67 137.993 1927.73 136.835 Q1929.81 135.678 1932.52 135.678 Q1936.99 135.678 1939.28 138.456 Q1941.57 141.21 1941.57 146.581 Z" fill="#000000" fill-rule="nonzero" fill-opacity="1" /><path clip-path="url(#clip290)" d="M1966.6 137.067 L1966.6 141.094 Q1964.79 140.169 1962.85 139.706 Q1960.9 139.243 1958.82 139.243 Q1955.65 139.243 1954.05 140.215 Q1952.48 141.187 1952.48 143.131 Q1952.48 144.613 1953.61 145.469 Q1954.74 146.303 1958.17 147.067 L1959.63 147.391 Q1964.17 148.363 1966.06 150.145 Q1967.98 151.905 1967.98 155.076 Q1967.98 158.687 1965.11 160.793 Q1962.27 162.9 1957.27 162.9 Q1955.18 162.9 1952.92 162.483 Q1950.67 162.09 1948.17 161.28 L1948.17 156.881 Q1950.53 158.108 1952.82 158.733 Q1955.11 159.335 1957.36 159.335 Q1960.37 159.335 1961.99 158.317 Q1963.61 157.275 1963.61 155.4 Q1963.61 153.664 1962.43 152.738 Q1961.27 151.812 1957.31 150.956 L1955.83 150.608 Q1951.87 149.775 1950.11 148.062 Q1948.36 146.326 1948.36 143.317 Q1948.36 139.659 1950.95 137.669 Q1953.54 135.678 1958.31 135.678 Q1960.67 135.678 1962.75 136.025 Q1964.84 136.372 1966.6 137.067 Z" fill="#000000" fill-rule="nonzero" fill-opacity="1" /><path clip-path="url(#clip290)" d="M1978.98 128.942 L1978.98 136.303 L1987.75 136.303 L1987.75 139.613 L1978.98 139.613 L1978.98 153.687 Q1978.98 156.858 1979.84 157.761 Q1980.72 158.664 1983.38 158.664 L1987.75 158.664 L1987.75 162.229 L1983.38 162.229 Q1978.45 162.229 1976.57 160.4 Q1974.7 158.548 1974.7 153.687 L1974.7 139.613 L1971.57 139.613 L1971.57 136.303 L1974.7 136.303 L1974.7 128.942 L1978.98 128.942 Z" fill="#000000" fill-rule="nonzero" fill-opacity="1" /><path clip-path="url(#clip290)" d="M2008.38 140.284 Q2007.66 139.868 2006.8 139.682 Q2005.97 139.474 2004.95 139.474 Q2001.34 139.474 1999.4 141.835 Q1997.48 144.173 1997.48 148.571 L1997.48 162.229 L1993.19 162.229 L1993.19 136.303 L1997.48 136.303 L1997.48 140.331 Q1998.82 137.969 2000.97 136.835 Q2003.12 135.678 2006.2 135.678 Q2006.64 135.678 2007.17 135.747 Q2007.71 135.794 2008.36 135.909 L2008.38 140.284 Z" fill="#000000" fill-rule="nonzero" fill-opacity="1" /><path clip-path="url(#clip290)" d="M2024.63 149.196 Q2019.47 149.196 2017.48 150.377 Q2015.48 151.557 2015.48 154.405 Q2015.48 156.673 2016.97 158.016 Q2018.47 159.335 2021.04 159.335 Q2024.58 159.335 2026.71 156.835 Q2028.86 154.312 2028.86 150.145 L2028.86 149.196 L2024.63 149.196 M2033.12 147.437 L2033.12 162.229 L2028.86 162.229 L2028.86 158.293 Q2027.41 160.655 2025.23 161.789 Q2023.05 162.9 2019.91 162.9 Q2015.92 162.9 2013.56 160.678 Q2011.23 158.432 2011.23 154.682 Q2011.23 150.307 2014.14 148.085 Q2017.08 145.863 2022.89 145.863 L2028.86 145.863 L2028.86 145.446 Q2028.86 142.507 2026.92 140.909 Q2025 139.289 2021.5 139.289 Q2019.28 139.289 2017.17 139.821 Q2015.07 140.354 2013.12 141.419 L2013.12 137.483 Q2015.46 136.581 2017.66 136.141 Q2019.86 135.678 2021.94 135.678 Q2027.57 135.678 2030.35 138.594 Q2033.12 141.511 2033.12 147.437 Z" fill="#000000" fill-rule="nonzero" fill-opacity="1" /><path clip-path="url(#clip290)" d="M2041.9 136.303 L2046.16 136.303 L2046.16 162.229 L2041.9 162.229 L2041.9 136.303 M2041.9 126.21 L2046.16 126.21 L2046.16 131.604 L2041.9 131.604 L2041.9 126.21 Z" fill="#000000" fill-rule="nonzero" fill-opacity="1" /><path clip-path="url(#clip290)" d="M2076.62 146.581 L2076.62 162.229 L2072.36 162.229 L2072.36 146.719 Q2072.36 143.039 2070.92 141.21 Q2069.49 139.382 2066.62 139.382 Q2063.17 139.382 2061.18 141.581 Q2059.19 143.78 2059.19 147.576 L2059.19 162.229 L2054.91 162.229 L2054.91 136.303 L2059.19 136.303 L2059.19 140.331 Q2060.72 137.993 2062.78 136.835 Q2064.86 135.678 2067.57 135.678 Q2072.04 135.678 2074.33 138.456 Q2076.62 141.21 2076.62 146.581 Z" fill="#000000" fill-rule="nonzero" fill-opacity="1" /><path clip-path="url(#clip290)" d="M2089.33 128.942 L2089.33 136.303 L2098.1 136.303 L2098.1 139.613 L2089.33 139.613 L2089.33 153.687 Q2089.33 156.858 2090.18 157.761 Q2091.06 158.664 2093.73 158.664 L2098.1 158.664 L2098.1 162.229 L2093.73 162.229 Q2088.79 162.229 2086.92 160.4 Q2085.04 158.548 2085.04 153.687 L2085.04 139.613 L2081.92 139.613 L2081.92 136.303 L2085.04 136.303 L2085.04 128.942 L2089.33 128.942 Z" fill="#000000" fill-rule="nonzero" fill-opacity="1" /><path clip-path="url(#clip290)" d="M2137.38 149.289 Q2137.38 144.59 2135.44 141.928 Q2133.52 139.243 2130.14 139.243 Q2126.76 139.243 2124.81 141.928 Q2122.89 144.59 2122.89 149.289 Q2122.89 153.988 2124.81 156.673 Q2126.76 159.335 2130.14 159.335 Q2133.52 159.335 2135.44 156.673 Q2137.38 153.988 2137.38 149.289 M2122.89 140.238 Q2124.23 137.923 2126.27 136.812 Q2128.33 135.678 2131.18 135.678 Q2135.9 135.678 2138.84 139.428 Q2141.8 143.178 2141.8 149.289 Q2141.8 155.4 2138.84 159.15 Q2135.9 162.9 2131.18 162.9 Q2128.33 162.9 2126.27 161.789 Q2124.23 160.655 2122.89 158.34 L2122.89 162.229 L2118.61 162.229 L2118.61 126.21 L2122.89 126.21 L2122.89 140.238 Z" fill="#000000" fill-rule="nonzero" fill-opacity="1" /><path clip-path="url(#clip290)" d="M2158.91 139.289 Q2155.48 139.289 2153.49 141.974 Q2151.5 144.636 2151.5 149.289 Q2151.5 153.942 2153.47 156.627 Q2155.46 159.289 2158.91 159.289 Q2162.31 159.289 2164.3 156.604 Q2166.29 153.918 2166.29 149.289 Q2166.29 144.682 2164.3 141.997 Q2162.31 139.289 2158.91 139.289 M2158.91 135.678 Q2164.47 135.678 2167.64 139.289 Q2170.81 142.9 2170.81 149.289 Q2170.81 155.655 2167.64 159.289 Q2164.47 162.9 2158.91 162.9 Q2153.33 162.9 2150.16 159.289 Q2147.01 155.655 2147.01 149.289 Q2147.01 142.9 2150.16 139.289 Q2153.33 135.678 2158.91 135.678 Z" fill="#000000" fill-rule="nonzero" fill-opacity="1" /><path clip-path="url(#clip290)" d="M2177.43 151.997 L2177.43 136.303 L2181.69 136.303 L2181.69 151.835 Q2181.69 155.516 2183.12 157.368 Q2184.56 159.196 2187.43 159.196 Q2190.88 159.196 2192.87 156.997 Q2194.88 154.798 2194.88 151.002 L2194.88 136.303 L2199.14 136.303 L2199.14 162.229 L2194.88 162.229 L2194.88 158.247 Q2193.33 160.608 2191.27 161.766 Q2189.23 162.9 2186.53 162.9 Q2182.06 162.9 2179.74 160.122 Q2177.43 157.344 2177.43 151.997 M2188.15 135.678 L2188.15 135.678 Z" fill="#000000" fill-rule="nonzero" fill-opacity="1" /><path clip-path="url(#clip290)" d="M2229.47 146.581 L2229.47 162.229 L2225.21 162.229 L2225.21 146.719 Q2225.21 143.039 2223.77 141.21 Q2222.34 139.382 2219.47 139.382 Q2216.02 139.382 2214.03 141.581 Q2212.03 143.78 2212.03 147.576 L2212.03 162.229 L2207.75 162.229 L2207.75 136.303 L2212.03 136.303 L2212.03 140.331 Q2213.56 137.993 2215.62 136.835 Q2217.71 135.678 2220.41 135.678 Q2224.88 135.678 2227.17 138.456 Q2229.47 141.21 2229.47 146.581 Z" fill="#000000" fill-rule="nonzero" fill-opacity="1" /><path clip-path="url(#clip290)" d="M2255.02 140.238 L2255.02 126.21 L2259.28 126.21 L2259.28 162.229 L2255.02 162.229 L2255.02 158.34 Q2253.68 160.655 2251.62 161.789 Q2249.58 162.9 2246.71 162.9 Q2242.01 162.9 2239.05 159.15 Q2236.11 155.4 2236.11 149.289 Q2236.11 143.178 2239.05 139.428 Q2242.01 135.678 2246.71 135.678 Q2249.58 135.678 2251.62 136.812 Q2253.68 137.923 2255.02 140.238 M2240.51 149.289 Q2240.51 153.988 2242.43 156.673 Q2244.37 159.335 2247.75 159.335 Q2251.13 159.335 2253.08 156.673 Q2255.02 153.988 2255.02 149.289 Q2255.02 144.59 2253.08 141.928 Q2251.13 139.243 2247.75 139.243 Q2244.37 139.243 2242.43 141.928 Q2240.51 144.59 2240.51 149.289 Z" fill="#000000" fill-rule="nonzero" fill-opacity="1" /><polyline clip-path="url(#clip290)" style="stroke:#e26f46; stroke-linecap:round; stroke-linejoin:round; stroke-width:4; stroke-opacity:1; fill:none" points="1692.53,196.789 1832.74,196.789 "/>
<path clip-path="url(#clip290)" d="M1856.11 179.509 L1862.41 179.509 L1877.73 208.421 L1877.73 179.509 L1882.27 179.509 L1882.27 214.069 L1875.97 214.069 L1860.65 185.157 L1860.65 214.069 L1856.11 214.069 L1856.11 179.509 Z" fill="#000000" fill-rule="nonzero" fill-opacity="1" /><path clip-path="url(#clip290)" d="M1901.43 191.129 Q1898.01 191.129 1896.02 193.814 Q1894.03 196.476 1894.03 201.129 Q1894.03 205.782 1895.99 208.467 Q1897.99 211.129 1901.43 211.129 Q1904.84 211.129 1906.83 208.444 Q1908.82 205.758 1908.82 201.129 Q1908.82 196.522 1906.83 193.837 Q1904.84 191.129 1901.43 191.129 M1901.43 187.518 Q1906.99 187.518 1910.16 191.129 Q1913.33 194.74 1913.33 201.129 Q1913.33 207.495 1910.16 211.129 Q1906.99 214.74 1901.43 214.74 Q1895.86 214.74 1892.68 211.129 Q1889.54 207.495 1889.54 201.129 Q1889.54 194.74 1892.68 191.129 Q1895.86 187.518 1901.43 187.518 Z" fill="#000000" fill-rule="nonzero" fill-opacity="1" /><path clip-path="url(#clip290)" d="M1940.58 193.12 Q1942.17 190.249 1944.4 188.884 Q1946.62 187.518 1949.63 187.518 Q1953.68 187.518 1955.88 190.365 Q1958.08 193.189 1958.08 198.421 L1958.08 214.069 L1953.8 214.069 L1953.8 198.559 Q1953.8 194.833 1952.48 193.027 Q1951.16 191.222 1948.45 191.222 Q1945.14 191.222 1943.22 193.421 Q1941.3 195.62 1941.3 199.416 L1941.3 214.069 L1937.01 214.069 L1937.01 198.559 Q1937.01 194.809 1935.69 193.027 Q1934.37 191.222 1931.62 191.222 Q1928.36 191.222 1926.43 193.444 Q1924.51 195.643 1924.51 199.416 L1924.51 214.069 L1920.23 214.069 L1920.23 188.143 L1924.51 188.143 L1924.51 192.171 Q1925.97 189.786 1928.01 188.652 Q1930.05 187.518 1932.85 187.518 Q1935.67 187.518 1937.64 188.953 Q1939.63 190.388 1940.58 193.12 Z" fill="#000000" fill-rule="nonzero" fill-opacity="1" /><path clip-path="url(#clip290)" d="M1966.57 188.143 L1970.83 188.143 L1970.83 214.069 L1966.57 214.069 L1966.57 188.143 M1966.57 178.05 L1970.83 178.05 L1970.83 183.444 L1966.57 183.444 L1966.57 178.05 Z" fill="#000000" fill-rule="nonzero" fill-opacity="1" /><path clip-path="url(#clip290)" d="M2001.3 198.421 L2001.3 214.069 L1997.04 214.069 L1997.04 198.559 Q1997.04 194.879 1995.6 193.05 Q1994.17 191.222 1991.3 191.222 Q1987.85 191.222 1985.86 193.421 Q1983.86 195.62 1983.86 199.416 L1983.86 214.069 L1979.58 214.069 L1979.58 188.143 L1983.86 188.143 L1983.86 192.171 Q1985.39 189.833 1987.45 188.675 Q1989.54 187.518 1992.24 187.518 Q1996.71 187.518 1999 190.296 Q2001.3 193.05 2001.3 198.421 Z" fill="#000000" fill-rule="nonzero" fill-opacity="1" /><path clip-path="url(#clip290)" d="M2021.57 201.036 Q2016.41 201.036 2014.42 202.217 Q2012.43 203.397 2012.43 206.245 Q2012.43 208.513 2013.91 209.856 Q2015.42 211.175 2017.98 211.175 Q2021.53 211.175 2023.66 208.675 Q2025.81 206.152 2025.81 201.985 L2025.81 201.036 L2021.57 201.036 M2030.07 199.277 L2030.07 214.069 L2025.81 214.069 L2025.81 210.133 Q2024.35 212.495 2022.17 213.629 Q2020 214.74 2016.85 214.74 Q2012.87 214.74 2010.51 212.518 Q2008.17 210.272 2008.17 206.522 Q2008.17 202.147 2011.09 199.925 Q2014.03 197.703 2019.84 197.703 L2025.81 197.703 L2025.81 197.286 Q2025.81 194.347 2023.86 192.749 Q2021.94 191.129 2018.45 191.129 Q2016.23 191.129 2014.12 191.661 Q2012.01 192.194 2010.07 193.259 L2010.07 189.323 Q2012.41 188.421 2014.61 187.981 Q2016.8 187.518 2018.89 187.518 Q2024.51 187.518 2027.29 190.434 Q2030.07 193.351 2030.07 199.277 Z" fill="#000000" fill-rule="nonzero" fill-opacity="1" /><path clip-path="url(#clip290)" d="M2038.84 178.05 L2043.1 178.05 L2043.1 214.069 L2038.84 214.069 L2038.84 178.05 Z" fill="#000000" fill-rule="nonzero" fill-opacity="1" /><path clip-path="url(#clip290)" d="M2067.27 179.509 L2074.23 179.509 L2083.05 203.027 L2091.92 179.509 L2098.89 179.509 L2098.89 214.069 L2094.33 214.069 L2094.33 183.722 L2085.41 207.425 L2080.72 207.425 L2071.8 183.722 L2071.8 214.069 L2067.27 214.069 L2067.27 179.509 Z" fill="#000000" fill-rule="nonzero" fill-opacity="1" /><path clip-path="url(#clip290)" d="M2112.85 183.351 L2112.85 196.337 L2118.72 196.337 Q2121.99 196.337 2123.77 194.647 Q2125.55 192.958 2125.55 189.833 Q2125.55 186.731 2123.77 185.041 Q2121.99 183.351 2118.72 183.351 L2112.85 183.351 M2108.17 179.509 L2118.72 179.509 Q2124.54 179.509 2127.5 182.147 Q2130.48 184.763 2130.48 189.833 Q2130.48 194.948 2127.5 197.564 Q2124.54 200.18 2118.72 200.18 L2112.85 200.18 L2112.85 214.069 L2108.17 214.069 L2108.17 179.509 Z" fill="#000000" fill-rule="nonzero" fill-opacity="1" /><path clip-path="url(#clip290)" d="M2162.64 182.171 L2162.64 187.101 Q2160.28 184.902 2157.59 183.814 Q2154.93 182.726 2151.92 182.726 Q2145.99 182.726 2142.85 186.36 Q2139.7 189.972 2139.7 196.823 Q2139.7 203.652 2142.85 207.286 Q2145.99 210.897 2151.92 210.897 Q2154.93 210.897 2157.59 209.809 Q2160.28 208.721 2162.64 206.522 L2162.64 211.407 Q2160.18 213.073 2157.43 213.907 Q2154.7 214.74 2151.64 214.74 Q2143.79 214.74 2139.28 209.948 Q2134.77 205.133 2134.77 196.823 Q2134.77 188.49 2139.28 183.698 Q2143.79 178.884 2151.64 178.884 Q2154.74 178.884 2157.47 179.717 Q2160.23 180.527 2162.64 182.171 Z" fill="#000000" fill-rule="nonzero" fill-opacity="1" /></svg>
