<?xml version="1.0" encoding="utf-8"?>
<svg xmlns="http://www.w3.org/2000/svg" xmlns:xlink="http://www.w3.org/1999/xlink" width="600" height="400" viewBox="0 0 2400 1600">
<defs>
  <clipPath id="clip920">
    <rect x="0" y="0" width="2400" height="1600"/>
  </clipPath>
</defs>
<path clip-path="url(#clip920)" d="M0 1600 L2400 1600 L2400 0 L0 0  Z" fill="#ffffff" fill-rule="evenodd" fill-opacity="1"/>
<defs>
  <clipPath id="clip921">
    <rect x="1426" y="47" width="927" height="1377"/>
  </clipPath>
</defs>
<path clip-path="url(#clip920)" d="M203.964 1423.18 L1129.97 1423.18 L1129.97 47.2441 L203.964 47.2441  Z" fill="#ffffff" fill-rule="evenodd" fill-opacity="1"/>
<defs>
  <clipPath id="clip922">
    <rect x="203" y="47" width="927" height="1377"/>
  </clipPath>
</defs>
<polyline clip-path="url(#clip922)" style="stroke:#000000; stroke-linecap:round; stroke-linejoin:round; stroke-width:2; stroke-opacity:0.1; fill:none" points="230.171,1423.18 230.171,47.2441 "/>
<polyline clip-path="url(#clip922)" style="stroke:#000000; stroke-linecap:round; stroke-linejoin:round; stroke-width:2; stroke-opacity:0.1; fill:none" points="476.252,1423.18 476.252,47.2441 "/>
<polyline clip-path="url(#clip922)" style="stroke:#000000; stroke-linecap:round; stroke-linejoin:round; stroke-width:2; stroke-opacity:0.1; fill:none" points="722.333,1423.18 722.333,47.2441 "/>
<polyline clip-path="url(#clip922)" style="stroke:#000000; stroke-linecap:round; stroke-linejoin:round; stroke-width:2; stroke-opacity:0.1; fill:none" points="968.414,1423.18 968.414,47.2441 "/>
<polyline clip-path="url(#clip922)" style="stroke:#000000; stroke-linecap:round; stroke-linejoin:round; stroke-width:2; stroke-opacity:0.1; fill:none" points="203.964,1384.24 1129.97,1384.24 "/>
<polyline clip-path="url(#clip922)" style="stroke:#000000; stroke-linecap:round; stroke-linejoin:round; stroke-width:2; stroke-opacity:0.1; fill:none" points="203.964,1057.89 1129.97,1057.89 "/>
<polyline clip-path="url(#clip922)" style="stroke:#000000; stroke-linecap:round; stroke-linejoin:round; stroke-width:2; stroke-opacity:0.1; fill:none" points="203.964,731.549 1129.97,731.549 "/>
<polyline clip-path="url(#clip922)" style="stroke:#000000; stroke-linecap:round; stroke-linejoin:round; stroke-width:2; stroke-opacity:0.1; fill:none" points="203.964,405.205 1129.97,405.205 "/>
<polyline clip-path="url(#clip922)" style="stroke:#000000; stroke-linecap:round; stroke-linejoin:round; stroke-width:2; stroke-opacity:0.1; fill:none" points="203.964,78.8607 1129.97,78.8607 "/>
<polyline clip-path="url(#clip920)" style="stroke:#000000; stroke-linecap:round; stroke-linejoin:round; stroke-width:4; stroke-opacity:1; fill:none" points="203.964,1423.18 1129.97,1423.18 "/>
<polyline clip-path="url(#clip920)" style="stroke:#000000; stroke-linecap:round; stroke-linejoin:round; stroke-width:4; stroke-opacity:1; fill:none" points="230.171,1423.18 230.171,1404.28 "/>
<polyline clip-path="url(#clip920)" style="stroke:#000000; stroke-linecap:round; stroke-linejoin:round; stroke-width:4; stroke-opacity:1; fill:none" points="476.252,1423.18 476.252,1404.28 "/>
<polyline clip-path="url(#clip920)" style="stroke:#000000; stroke-linecap:round; stroke-linejoin:round; stroke-width:4; stroke-opacity:1; fill:none" points="722.333,1423.18 722.333,1404.28 "/>
<polyline clip-path="url(#clip920)" style="stroke:#000000; stroke-linecap:round; stroke-linejoin:round; stroke-width:4; stroke-opacity:1; fill:none" points="968.414,1423.18 968.414,1404.28 "/>
<path clip-path="url(#clip920)" d="M230.171 1454.1 Q226.56 1454.1 224.731 1457.66 Q222.926 1461.2 222.926 1468.33 Q222.926 1475.44 224.731 1479.01 Q226.56 1482.55 230.171 1482.55 Q233.805 1482.55 235.611 1479.01 Q237.44 1475.44 237.44 1468.33 Q237.44 1461.2 235.611 1457.66 Q233.805 1454.1 230.171 1454.1 M230.171 1450.39 Q235.981 1450.39 239.037 1455 Q242.116 1459.58 242.116 1468.33 Q242.116 1477.06 239.037 1481.67 Q235.981 1486.25 230.171 1486.25 Q224.361 1486.25 221.282 1481.67 Q218.227 1477.06 218.227 1468.33 Q218.227 1459.58 221.282 1455 Q224.361 1450.39 230.171 1450.39 Z" fill="#000000" fill-rule="nonzero" fill-opacity="1" /><path clip-path="url(#clip920)" d="M455.026 1481.64 L471.345 1481.64 L471.345 1485.58 L449.401 1485.58 L449.401 1481.64 Q452.063 1478.89 456.646 1474.26 Q461.252 1469.61 462.433 1468.27 Q464.678 1465.74 465.558 1464.01 Q466.461 1462.25 466.461 1460.56 Q466.461 1457.8 464.516 1456.07 Q462.595 1454.33 459.493 1454.33 Q457.294 1454.33 454.84 1455.09 Q452.41 1455.86 449.632 1457.41 L449.632 1452.69 Q452.456 1451.55 454.91 1450.97 Q457.364 1450.39 459.401 1450.39 Q464.771 1450.39 467.965 1453.08 Q471.16 1455.77 471.16 1460.26 Q471.16 1462.39 470.35 1464.31 Q469.563 1466.2 467.456 1468.8 Q466.877 1469.47 463.776 1472.69 Q460.674 1475.88 455.026 1481.64 Z" fill="#000000" fill-rule="nonzero" fill-opacity="1" /><path clip-path="url(#clip920)" d="M491.16 1454.1 Q487.549 1454.1 485.72 1457.66 Q483.914 1461.2 483.914 1468.33 Q483.914 1475.44 485.72 1479.01 Q487.549 1482.55 491.16 1482.55 Q494.794 1482.55 496.599 1479.01 Q498.428 1475.44 498.428 1468.33 Q498.428 1461.2 496.599 1457.66 Q494.794 1454.1 491.16 1454.1 M491.16 1450.39 Q496.97 1450.39 500.025 1455 Q503.104 1459.58 503.104 1468.33 Q503.104 1477.06 500.025 1481.67 Q496.97 1486.25 491.16 1486.25 Q485.349 1486.25 482.271 1481.67 Q479.215 1477.06 479.215 1468.33 Q479.215 1459.58 482.271 1455 Q485.349 1450.39 491.16 1450.39 Z" fill="#000000" fill-rule="nonzero" fill-opacity="1" /><path clip-path="url(#clip920)" d="M710.505 1455.09 L698.699 1473.54 L710.505 1473.54 L710.505 1455.09 M709.278 1451.02 L715.157 1451.02 L715.157 1473.54 L720.088 1473.54 L720.088 1477.43 L715.157 1477.43 L715.157 1485.58 L710.505 1485.58 L710.505 1477.43 L694.903 1477.43 L694.903 1472.92 L709.278 1451.02 Z" fill="#000000" fill-rule="nonzero" fill-opacity="1" /><path clip-path="url(#clip920)" d="M737.819 1454.1 Q734.208 1454.1 732.38 1457.66 Q730.574 1461.2 730.574 1468.33 Q730.574 1475.44 732.38 1479.01 Q734.208 1482.55 737.819 1482.55 Q741.454 1482.55 743.259 1479.01 Q745.088 1475.44 745.088 1468.33 Q745.088 1461.2 743.259 1457.66 Q741.454 1454.1 737.819 1454.1 M737.819 1450.39 Q743.63 1450.39 746.685 1455 Q749.764 1459.58 749.764 1468.33 Q749.764 1477.06 746.685 1481.67 Q743.63 1486.25 737.819 1486.25 Q732.009 1486.25 728.931 1481.67 Q725.875 1477.06 725.875 1468.33 Q725.875 1459.58 728.931 1455 Q732.009 1450.39 737.819 1450.39 Z" fill="#000000" fill-rule="nonzero" fill-opacity="1" /><path clip-path="url(#clip920)" d="M953.82 1466.44 Q950.671 1466.44 948.82 1468.59 Q946.991 1470.74 946.991 1474.49 Q946.991 1478.22 948.82 1480.39 Q950.671 1482.55 953.82 1482.55 Q956.968 1482.55 958.796 1480.39 Q960.648 1478.22 960.648 1474.49 Q960.648 1470.74 958.796 1468.59 Q956.968 1466.44 953.82 1466.44 M963.102 1451.78 L963.102 1456.04 Q961.343 1455.21 959.537 1454.77 Q957.755 1454.33 955.996 1454.33 Q951.366 1454.33 948.912 1457.45 Q946.482 1460.58 946.134 1466.9 Q947.5 1464.89 949.56 1463.82 Q951.621 1462.73 954.097 1462.73 Q959.306 1462.73 962.315 1465.9 Q965.347 1469.05 965.347 1474.49 Q965.347 1479.82 962.199 1483.03 Q959.051 1486.25 953.82 1486.25 Q947.824 1486.25 944.653 1481.67 Q941.482 1477.06 941.482 1468.33 Q941.482 1460.14 945.371 1455.28 Q949.259 1450.39 955.81 1450.39 Q957.57 1450.39 959.352 1450.74 Q961.158 1451.09 963.102 1451.78 Z" fill="#000000" fill-rule="nonzero" fill-opacity="1" /><path clip-path="url(#clip920)" d="M983.403 1454.1 Q979.792 1454.1 977.963 1457.66 Q976.157 1461.2 976.157 1468.33 Q976.157 1475.44 977.963 1479.01 Q979.792 1482.55 983.403 1482.55 Q987.037 1482.55 988.843 1479.01 Q990.671 1475.44 990.671 1468.33 Q990.671 1461.2 988.843 1457.66 Q987.037 1454.1 983.403 1454.1 M983.403 1450.39 Q989.213 1450.39 992.268 1455 Q995.347 1459.58 995.347 1468.33 Q995.347 1477.06 992.268 1481.67 Q989.213 1486.25 983.403 1486.25 Q977.593 1486.25 974.514 1481.67 Q971.458 1477.06 971.458 1468.33 Q971.458 1459.58 974.514 1455 Q977.593 1450.39 983.403 1450.39 Z" fill="#000000" fill-rule="nonzero" fill-opacity="1" /><path clip-path="url(#clip920)" d="M508.029 1520.52 L548.229 1520.52 L548.229 1525.93 L531.36 1525.93 L531.36 1568.04 L524.898 1568.04 L524.898 1525.93 L508.029 1525.93 L508.029 1520.52 Z" fill="#000000" fill-rule="nonzero" fill-opacity="1" /><path clip-path="url(#clip920)" d="M552.176 1532.4 L558.032 1532.4 L558.032 1568.04 L552.176 1568.04 L552.176 1532.4 M552.176 1518.52 L558.032 1518.52 L558.032 1525.93 L552.176 1525.93 L552.176 1518.52 Z" fill="#000000" fill-rule="nonzero" fill-opacity="1" /><path clip-path="url(#clip920)" d="M598.04 1539.24 Q600.237 1535.29 603.292 1533.41 Q606.348 1531.54 610.485 1531.54 Q616.055 1531.54 619.079 1535.45 Q622.103 1539.33 622.103 1546.53 L622.103 1568.04 L616.215 1568.04 L616.215 1546.72 Q616.215 1541.59 614.4 1539.11 Q612.586 1536.63 608.862 1536.63 Q604.311 1536.63 601.669 1539.65 Q599.027 1542.68 599.027 1547.9 L599.027 1568.04 L593.139 1568.04 L593.139 1546.72 Q593.139 1541.56 591.325 1539.11 Q589.51 1536.63 585.723 1536.63 Q581.235 1536.63 578.593 1539.68 Q575.951 1542.71 575.951 1547.9 L575.951 1568.04 L570.063 1568.04 L570.063 1532.4 L575.951 1532.4 L575.951 1537.93 Q577.957 1534.66 580.758 1533.1 Q583.558 1531.54 587.41 1531.54 Q591.293 1531.54 593.998 1533.51 Q596.735 1535.48 598.04 1539.24 Z" fill="#000000" fill-rule="nonzero" fill-opacity="1" /><path clip-path="url(#clip920)" d="M664.276 1548.76 L664.276 1551.62 L637.349 1551.62 Q637.731 1557.67 640.977 1560.85 Q644.255 1564 650.08 1564 Q653.454 1564 656.605 1563.17 Q659.788 1562.35 662.907 1560.69 L662.907 1566.23 Q659.756 1567.57 656.446 1568.27 Q653.136 1568.97 649.73 1568.97 Q641.2 1568.97 636.203 1564 Q631.238 1559.04 631.238 1550.57 Q631.238 1541.82 635.948 1536.69 Q640.691 1531.54 648.711 1531.54 Q655.905 1531.54 660.074 1536.18 Q664.276 1540.8 664.276 1548.76 M658.419 1547.04 Q658.356 1542.23 655.714 1539.37 Q653.104 1536.5 648.775 1536.5 Q643.874 1536.5 640.913 1539.27 Q637.985 1542.04 637.54 1547.07 L658.419 1547.04 Z" fill="#000000" fill-rule="nonzero" fill-opacity="1" /><path clip-path="url(#clip920)" d="M717.334 1533.45 L717.334 1538.98 Q714.851 1537.71 712.178 1537.07 Q709.504 1536.44 706.639 1536.44 Q702.279 1536.44 700.083 1537.77 Q697.918 1539.11 697.918 1541.79 Q697.918 1543.82 699.478 1545 Q701.038 1546.15 705.748 1547.2 L707.753 1547.64 Q713.992 1548.98 716.602 1551.43 Q719.243 1553.85 719.243 1558.21 Q719.243 1563.17 715.297 1566.07 Q711.382 1568.97 704.507 1568.97 Q701.642 1568.97 698.523 1568.39 Q695.436 1567.85 691.998 1566.74 L691.998 1560.69 Q695.245 1562.38 698.396 1563.24 Q701.547 1564.07 704.634 1564.07 Q708.772 1564.07 711 1562.66 Q713.228 1561.23 713.228 1558.65 Q713.228 1556.27 711.605 1554.99 Q710.013 1553.72 704.571 1552.54 L702.534 1552.07 Q697.091 1550.92 694.672 1548.56 Q692.253 1546.18 692.253 1542.04 Q692.253 1537.01 695.818 1534.27 Q699.382 1531.54 705.939 1531.54 Q709.186 1531.54 712.05 1532.01 Q714.915 1532.49 717.334 1533.45 Z" fill="#000000" fill-rule="nonzero" fill-opacity="1" /><path clip-path="url(#clip920)" d="M734.362 1522.27 L734.362 1532.4 L746.425 1532.4 L746.425 1536.95 L734.362 1536.95 L734.362 1556.3 Q734.362 1560.66 735.54 1561.9 Q736.749 1563.14 740.409 1563.14 L746.425 1563.14 L746.425 1568.04 L740.409 1568.04 Q733.63 1568.04 731.052 1565.53 Q728.474 1562.98 728.474 1556.3 L728.474 1536.95 L724.177 1536.95 L724.177 1532.4 L728.474 1532.4 L728.474 1522.27 L734.362 1522.27 Z" fill="#000000" fill-rule="nonzero" fill-opacity="1" /><path clip-path="url(#clip920)" d="M784.619 1548.76 L784.619 1551.62 L757.692 1551.62 Q758.074 1557.67 761.321 1560.85 Q764.599 1564 770.424 1564 Q773.798 1564 776.949 1563.17 Q780.131 1562.35 783.251 1560.69 L783.251 1566.23 Q780.1 1567.57 776.789 1568.27 Q773.479 1568.97 770.074 1568.97 Q761.544 1568.97 756.547 1564 Q751.581 1559.04 751.581 1550.57 Q751.581 1541.82 756.292 1536.69 Q761.034 1531.54 769.055 1531.54 Q776.248 1531.54 780.418 1536.18 Q784.619 1540.8 784.619 1548.76 M778.763 1547.04 Q778.699 1542.23 776.057 1539.37 Q773.447 1536.5 769.119 1536.5 Q764.217 1536.5 761.257 1539.27 Q758.329 1542.04 757.883 1547.07 L778.763 1547.04 Z" fill="#000000" fill-rule="nonzero" fill-opacity="1" /><path clip-path="url(#clip920)" d="M799.897 1562.7 L799.897 1581.6 L794.009 1581.6 L794.009 1532.4 L799.897 1532.4 L799.897 1537.81 Q801.743 1534.62 804.544 1533.1 Q807.377 1531.54 811.292 1531.54 Q817.785 1531.54 821.827 1536.69 Q825.901 1541.85 825.901 1550.25 Q825.901 1558.65 821.827 1563.81 Q817.785 1568.97 811.292 1568.97 Q807.377 1568.97 804.544 1567.44 Q801.743 1565.88 799.897 1562.7 M819.822 1550.25 Q819.822 1543.79 817.148 1540.13 Q814.506 1536.44 809.859 1536.44 Q805.212 1536.44 802.539 1540.13 Q799.897 1543.79 799.897 1550.25 Q799.897 1556.71 802.539 1560.4 Q805.212 1564.07 809.859 1564.07 Q814.506 1564.07 817.148 1560.4 Q819.822 1556.71 819.822 1550.25 Z" fill="#000000" fill-rule="nonzero" fill-opacity="1" /><polyline clip-path="url(#clip920)" style="stroke:#000000; stroke-linecap:round; stroke-linejoin:round; stroke-width:4; stroke-opacity:1; fill:none" points="203.964,1423.18 203.964,47.2441 "/>
<polyline clip-path="url(#clip920)" style="stroke:#000000; stroke-linecap:round; stroke-linejoin:round; stroke-width:4; stroke-opacity:1; fill:none" points="203.964,1384.24 222.861,1384.24 "/>
<polyline clip-path="url(#clip920)" style="stroke:#000000; stroke-linecap:round; stroke-linejoin:round; stroke-width:4; stroke-opacity:1; fill:none" points="203.964,1057.89 222.861,1057.89 "/>
<polyline clip-path="url(#clip920)" style="stroke:#000000; stroke-linecap:round; stroke-linejoin:round; stroke-width:4; stroke-opacity:1; fill:none" points="203.964,731.549 222.861,731.549 "/>
<polyline clip-path="url(#clip920)" style="stroke:#000000; stroke-linecap:round; stroke-linejoin:round; stroke-width:4; stroke-opacity:1; fill:none" points="203.964,405.205 222.861,405.205 "/>
<polyline clip-path="url(#clip920)" style="stroke:#000000; stroke-linecap:round; stroke-linejoin:round; stroke-width:4; stroke-opacity:1; fill:none" points="203.964,78.8607 222.861,78.8607 "/>
<path clip-path="url(#clip920)" d="M116.76 1397.58 L124.399 1397.58 L124.399 1371.22 L116.089 1372.88 L116.089 1368.62 L124.353 1366.96 L129.029 1366.96 L129.029 1397.58 L136.667 1397.58 L136.667 1401.52 L116.76 1401.52 L116.76 1397.58 Z" fill="#000000" fill-rule="nonzero" fill-opacity="1" /><path clip-path="url(#clip920)" d="M156.112 1385.11 Q152.778 1385.11 150.857 1386.89 Q148.959 1388.67 148.959 1391.8 Q148.959 1394.92 150.857 1396.7 Q152.778 1398.49 156.112 1398.49 Q159.445 1398.49 161.366 1396.7 Q163.288 1394.9 163.288 1391.8 Q163.288 1388.67 161.366 1386.89 Q159.468 1385.11 156.112 1385.11 M151.436 1383.12 Q148.427 1382.37 146.737 1380.31 Q145.07 1378.25 145.07 1375.29 Q145.07 1371.15 148.01 1368.74 Q150.973 1366.33 156.112 1366.33 Q161.274 1366.33 164.214 1368.74 Q167.153 1371.15 167.153 1375.29 Q167.153 1378.25 165.464 1380.31 Q163.797 1382.37 160.811 1383.12 Q164.19 1383.9 166.065 1386.19 Q167.964 1388.49 167.964 1391.8 Q167.964 1396.82 164.885 1399.5 Q161.829 1402.19 156.112 1402.19 Q150.394 1402.19 147.316 1399.5 Q144.26 1396.82 144.26 1391.8 Q144.26 1388.49 146.158 1386.19 Q148.056 1383.9 151.436 1383.12 M149.723 1375.73 Q149.723 1378.42 151.39 1379.92 Q153.079 1381.43 156.112 1381.43 Q159.121 1381.43 160.811 1379.92 Q162.524 1378.42 162.524 1375.73 Q162.524 1373.05 160.811 1371.54 Q159.121 1370.04 156.112 1370.04 Q153.079 1370.04 151.39 1371.54 Q149.723 1373.05 149.723 1375.73 Z" fill="#000000" fill-rule="nonzero" fill-opacity="1" /><path clip-path="url(#clip920)" d="M116.853 1071.24 L124.492 1071.24 L124.492 1044.87 L116.181 1046.54 L116.181 1042.28 L124.445 1040.61 L129.121 1040.61 L129.121 1071.24 L136.76 1071.24 L136.76 1075.17 L116.853 1075.17 L116.853 1071.24 Z" fill="#000000" fill-rule="nonzero" fill-opacity="1" /><path clip-path="url(#clip920)" d="M146.343 1074.46 L146.343 1070.2 Q148.103 1071.03 149.908 1071.47 Q151.714 1071.91 153.45 1071.91 Q158.079 1071.91 160.51 1068.81 Q162.964 1065.68 163.311 1059.34 Q161.968 1061.33 159.908 1062.4 Q157.848 1063.46 155.348 1063.46 Q150.163 1063.46 147.13 1060.34 Q144.121 1057.19 144.121 1051.75 Q144.121 1046.42 147.269 1043.21 Q150.417 1039.99 155.649 1039.99 Q161.644 1039.99 164.792 1044.6 Q167.964 1049.18 167.964 1057.93 Q167.964 1066.1 164.075 1070.98 Q160.209 1075.85 153.658 1075.85 Q151.899 1075.85 150.093 1075.5 Q148.288 1075.15 146.343 1074.46 M155.649 1059.8 Q158.797 1059.8 160.626 1057.65 Q162.477 1055.5 162.477 1051.75 Q162.477 1048.02 160.626 1045.87 Q158.797 1043.69 155.649 1043.69 Q152.501 1043.69 150.649 1045.87 Q148.82 1048.02 148.82 1051.75 Q148.82 1055.5 150.649 1057.65 Q152.501 1059.8 155.649 1059.8 Z" fill="#000000" fill-rule="nonzero" fill-opacity="1" /><path clip-path="url(#clip920)" d="M119.885 744.894 L136.204 744.894 L136.204 748.829 L114.26 748.829 L114.26 744.894 Q116.922 742.14 121.505 737.51 Q126.112 732.857 127.292 731.515 Q129.538 728.992 130.417 727.256 Q131.32 725.496 131.32 723.806 Q131.32 721.052 129.376 719.316 Q127.455 717.58 124.353 717.58 Q122.154 717.58 119.7 718.344 Q117.269 719.107 114.492 720.658 L114.492 715.936 Q117.316 714.802 119.769 714.223 Q122.223 713.644 124.26 713.644 Q129.63 713.644 132.825 716.33 Q136.019 719.015 136.019 723.506 Q136.019 725.635 135.209 727.556 Q134.422 729.455 132.316 732.047 Q131.737 732.718 128.635 735.936 Q125.533 739.13 119.885 744.894 Z" fill="#000000" fill-rule="nonzero" fill-opacity="1" /><path clip-path="url(#clip920)" d="M156.019 717.348 Q152.408 717.348 150.579 720.913 Q148.774 724.455 148.774 731.584 Q148.774 738.691 150.579 742.255 Q152.408 745.797 156.019 745.797 Q159.653 745.797 161.459 742.255 Q163.288 738.691 163.288 731.584 Q163.288 724.455 161.459 720.913 Q159.653 717.348 156.019 717.348 M156.019 713.644 Q161.829 713.644 164.885 718.251 Q167.964 722.834 167.964 731.584 Q167.964 740.311 164.885 744.917 Q161.829 749.501 156.019 749.501 Q150.209 749.501 147.13 744.917 Q144.075 740.311 144.075 731.584 Q144.075 722.834 147.13 718.251 Q150.209 713.644 156.019 713.644 Z" fill="#000000" fill-rule="nonzero" fill-opacity="1" /><path clip-path="url(#clip920)" d="M121.112 418.55 L137.431 418.55 L137.431 422.485 L115.487 422.485 L115.487 418.55 Q118.149 415.795 122.732 411.166 Q127.339 406.513 128.519 405.17 Q130.765 402.647 131.644 400.911 Q132.547 399.152 132.547 397.462 Q132.547 394.707 130.603 392.971 Q128.681 391.235 125.58 391.235 Q123.38 391.235 120.927 391.999 Q118.496 392.763 115.718 394.314 L115.718 389.592 Q118.543 388.458 120.996 387.879 Q123.45 387.3 125.487 387.3 Q130.857 387.3 134.052 389.985 Q137.246 392.67 137.246 397.161 Q137.246 399.291 136.436 401.212 Q135.649 403.11 133.542 405.703 Q132.964 406.374 129.862 409.592 Q126.76 412.786 121.112 418.55 Z" fill="#000000" fill-rule="nonzero" fill-opacity="1" /><path clip-path="url(#clip920)" d="M148.056 418.55 L155.695 418.55 L155.695 392.184 L147.385 393.851 L147.385 389.592 L155.649 387.925 L160.325 387.925 L160.325 418.55 L167.964 418.55 L167.964 422.485 L148.056 422.485 L148.056 418.55 Z" fill="#000000" fill-rule="nonzero" fill-opacity="1" /><path clip-path="url(#clip920)" d="M121.482 92.2056 L137.802 92.2056 L137.802 96.1407 L115.857 96.1407 L115.857 92.2056 Q118.519 89.4509 123.103 84.8213 Q127.709 80.1686 128.89 78.826 Q131.135 76.3029 132.015 74.5668 Q132.917 72.8075 132.917 71.1177 Q132.917 68.3631 130.973 66.627 Q129.052 64.8909 125.95 64.8909 Q123.751 64.8909 121.297 65.6548 Q118.867 66.4187 116.089 67.9696 L116.089 63.2474 Q118.913 62.1131 121.367 61.5344 Q123.82 60.9557 125.857 60.9557 Q131.228 60.9557 134.422 63.6409 Q137.617 66.3261 137.617 70.8168 Q137.617 72.9464 136.806 74.8677 Q136.019 76.7658 133.913 79.3584 Q133.334 80.0297 130.232 83.2473 Q127.13 86.4417 121.482 92.2056 Z" fill="#000000" fill-rule="nonzero" fill-opacity="1" /><path clip-path="url(#clip920)" d="M151.644 92.2056 L167.964 92.2056 L167.964 96.1407 L146.019 96.1407 L146.019 92.2056 Q148.681 89.4509 153.265 84.8213 Q157.871 80.1686 159.052 78.826 Q161.297 76.3029 162.177 74.5668 Q163.079 72.8075 163.079 71.1177 Q163.079 68.3631 161.135 66.627 Q159.214 64.8909 156.112 64.8909 Q153.913 64.8909 151.459 65.6548 Q149.028 66.4187 146.251 67.9696 L146.251 63.2474 Q149.075 62.1131 151.528 61.5344 Q153.982 60.9557 156.019 60.9557 Q161.39 60.9557 164.584 63.6409 Q167.778 66.3261 167.778 70.8168 Q167.778 72.9464 166.968 74.8677 Q166.181 76.7658 164.075 79.3584 Q163.496 80.0297 160.394 83.2473 Q157.292 86.4417 151.644 92.2056 Z" fill="#000000" fill-rule="nonzero" fill-opacity="1" /><path clip-path="url(#clip920)" d="M21.7178 738.32 Q22.1687 738.32 23.2315 738.61 L48.4165 744.922 Q54.0203 746.307 57.9494 750.816 Q61.8785 755.293 61.8785 760.381 Q61.8785 763.441 60.236 765.405 Q58.6257 767.37 56.1459 767.37 Q53.9559 767.37 52.8931 766.21 Q51.8625 765.051 51.8625 763.666 Q51.8625 763.215 51.9913 762.732 Q52.1201 762.249 52.6676 761.734 Q53.2151 761.219 54.1491 761.219 Q55.6628 761.219 56.8544 762.539 Q57.4019 763.183 57.5307 763.795 Q57.6596 764.375 57.6596 765.373 Q58.5613 764.987 59.1732 764.278 Q59.7851 763.57 60.0106 762.764 Q60.2682 761.959 60.3326 761.444 Q60.4293 760.896 60.4293 760.381 Q60.4293 756.259 56.2747 753.103 Q55.0187 752.169 53.7626 751.492 Q52.5388 750.784 51.0252 750.269 Q49.5437 749.753 48.7385 749.528 Q47.9334 749.27 46.0977 748.819 Q49.0928 751.814 49.0928 755.486 Q49.0928 757.032 48.6741 758.417 Q48.2554 759.769 47.3859 760.961 Q46.4841 762.153 44.906 762.861 Q43.3279 763.537 41.2346 763.537 Q39.0124 763.537 35.985 762.668 Q32.9577 761.798 27.386 759.705 Q24.2621 758.578 22.7484 758.578 Q22.0077 758.578 21.5568 758.739 Q21.0737 758.9 20.9127 759.222 Q20.7194 759.544 20.6872 759.737 Q20.655 759.898 20.655 760.22 Q20.655 762.12 22.5874 763.892 Q24.5197 765.663 28.8353 766.887 Q29.6405 767.144 29.8337 767.305 Q30.0269 767.466 30.0269 767.95 Q29.9947 768.755 29.3506 768.755 Q29.093 768.755 28.0946 768.465 Q27.064 768.175 25.5503 767.499 Q24.0044 766.79 22.6196 765.824 Q21.2025 764.858 20.2041 763.344 Q19.2058 761.798 19.2058 760.027 Q19.2058 757.611 20.7838 756.13 Q22.3297 754.616 24.6163 754.616 Q25.5503 754.616 26.3877 754.874 Q27.1928 755.099 29.3506 755.937 Q38.0462 759.318 42.2974 759.318 Q43.3279 759.318 44.1975 759.157 Q45.0349 758.964 45.8722 758.545 Q46.6774 758.127 47.1604 757.289 Q47.6113 756.42 47.6113 755.228 Q47.6113 753.715 46.9028 752.298 Q46.1621 750.848 45.1637 749.946 Q44.1653 749.013 43.3279 748.465 Q42.4584 747.885 42.0075 747.756 L30.1558 744.794 L24.874 743.473 Q22.0077 742.861 21.2991 742.571 Q20.6228 742.185 20.2686 741.509 Q19.9143 740.832 19.9143 740.253 Q19.9143 739.447 20.3974 738.9 Q20.8805 738.32 21.7178 738.32 Z" fill="#000000" fill-rule="nonzero" fill-opacity="1" /><path clip-path="url(#clip920)" d="M53.6652 731.574 L52.2224 731.574 Q52.2224 726.028 49.2691 723.165 Q49.2691 722.376 49.4494 722.241 Q49.6298 722.106 50.4639 722.106 L76.3671 722.106 Q77.7423 722.106 78.1706 721.429 Q78.599 720.753 78.599 717.8 L78.599 716.334 L80.0193 716.334 Q79.884 717.957 79.884 723.819 Q79.884 729.68 80.0193 731.281 L78.599 731.281 L78.599 729.816 Q78.599 726.907 78.1932 726.209 Q77.7648 725.51 76.3671 725.51 L52.4478 725.51 Q53.6652 727.922 53.6652 731.574 Z" fill="#000000" fill-rule="nonzero" fill-opacity="1" /><polyline clip-path="url(#clip922)" style="stroke:#000000; stroke-linecap:round; stroke-linejoin:round; stroke-width:1.6; stroke-opacity:1; fill:none" stroke-dasharray="8, 5" points="230.171,405.205 242.475,405.205 254.779,405.205 267.083,405.205 279.387,405.205 291.691,405.205 303.996,405.205 316.3,405.205 328.604,405.205 340.908,405.205 353.212,405.205 365.516,405.205 377.82,405.205 390.124,405.205 402.428,405.205 414.732,405.205 427.036,405.205 439.34,405.205 451.644,405.205 463.948,405.205 476.252,405.205 488.556,405.205 500.86,405.205 513.164,405.205 525.469,405.205 537.773,405.205 550.077,405.205 562.381,405.205 574.685,405.205 586.989,405.205 599.293,405.205 611.597,405.205 623.901,405.205 636.205,405.205 648.509,405.205 660.813,405.205 673.117,405.205 685.421,405.205 697.725,405.205 710.029,405.205 722.333,405.205 734.637,405.205 746.941,405.205 759.246,405.205 771.55,405.205 783.854,405.205 796.158,405.205 808.462,405.205 820.766,405.205 833.07,405.205 845.374,405.205 857.678,405.205 869.982,405.205 882.286,405.205 894.59,405.205 906.894,405.205 919.198,405.205 931.502,405.205 943.806,405.205 956.11,405.205 968.414,405.205 980.719,405.205 993.023,405.205 1005.33,405.205 1017.63,405.205 1029.93,405.205 1042.24,405.205 1054.54,405.205 1066.85,405.205 1079.15,405.205 1091.45,405.205 1103.76,405.205 "/>
<polyline clip-path="url(#clip922)" style="stroke:#009af9; stroke-linecap:round; stroke-linejoin:round; stroke-width:4; stroke-opacity:1; fill:none" points="230.171,1384.24 242.475,802.42 254.779,445.669 267.083,336.642 279.387,276.283 291.691,246.54 303.996,158.725 316.3,334.283 328.604,640.089 340.908,637.308 353.212,580.447 365.516,560.387 377.82,520.649 390.124,493.842 402.428,458.532 414.732,515.297 427.036,351.669 439.34,537.436 451.644,750.694 463.948,809.866 476.252,680.673 488.556,576.75 500.86,546.244 513.164,454.921 525.469,529.666 537.773,422.128 550.077,380.625 562.381,313.581 574.685,276.777 586.989,119.401 599.293,187.878 611.597,262.174 623.901,611.987 636.205,673.386 648.509,588.378 660.813,659.611 673.117,549.469 685.421,538.385 697.725,402.87 710.029,352.759 722.333,428.98 734.637,745.031 746.941,785.952 759.246,768.938 771.55,600.887 783.854,574.529 796.158,575.767 808.462,389.089 820.766,494.883 833.07,502.782 845.374,440.54 857.678,323.854 869.982,197 882.286,86.1857 894.59,231.244 906.894,456.275 919.198,645.87 931.502,516.885 943.806,494.65 956.11,535.075 968.414,580.045 980.719,557.772 993.023,493.779 1005.33,492.48 1017.63,410.165 1029.93,536.818 1042.24,703.89 1054.54,871.197 1066.85,663.441 1079.15,658.245 1091.45,491.048 1103.76,476.683 "/>
<path clip-path="url(#clip920)" d="M1426.75 1423.18 L2352.76 1423.18 L2352.76 47.2441 L1426.75 47.2441  Z" fill="#ffffff" fill-rule="evenodd" fill-opacity="1"/>
<polyline clip-path="url(#clip921)" style="stroke:#000000; stroke-linecap:round; stroke-linejoin:round; stroke-width:2; stroke-opacity:0.1; fill:none" points="1452.96,1423.18 1452.96,47.2441 "/>
<polyline clip-path="url(#clip921)" style="stroke:#000000; stroke-linecap:round; stroke-linejoin:round; stroke-width:2; stroke-opacity:0.1; fill:none" points="1699.04,1423.18 1699.04,47.2441 "/>
<polyline clip-path="url(#clip921)" style="stroke:#000000; stroke-linecap:round; stroke-linejoin:round; stroke-width:2; stroke-opacity:0.1; fill:none" points="1945.12,1423.18 1945.12,47.2441 "/>
<polyline clip-path="url(#clip921)" style="stroke:#000000; stroke-linecap:round; stroke-linejoin:round; stroke-width:2; stroke-opacity:0.1; fill:none" points="2191.2,1423.18 2191.2,47.2441 "/>
<polyline clip-path="url(#clip921)" style="stroke:#000000; stroke-linecap:round; stroke-linejoin:round; stroke-width:2; stroke-opacity:0.1; fill:none" points="1426.75,1384.24 2352.76,1384.24 "/>
<polyline clip-path="url(#clip921)" style="stroke:#000000; stroke-linecap:round; stroke-linejoin:round; stroke-width:2; stroke-opacity:0.1; fill:none" points="1426.75,1059.73 2352.76,1059.73 "/>
<polyline clip-path="url(#clip921)" style="stroke:#000000; stroke-linecap:round; stroke-linejoin:round; stroke-width:2; stroke-opacity:0.1; fill:none" points="1426.75,735.212 2352.76,735.212 "/>
<polyline clip-path="url(#clip921)" style="stroke:#000000; stroke-linecap:round; stroke-linejoin:round; stroke-width:2; stroke-opacity:0.1; fill:none" points="1426.75,410.699 2352.76,410.699 "/>
<polyline clip-path="url(#clip921)" style="stroke:#000000; stroke-linecap:round; stroke-linejoin:round; stroke-width:2; stroke-opacity:0.1; fill:none" points="1426.75,86.1857 2352.76,86.1857 "/>
<polyline clip-path="url(#clip920)" style="stroke:#000000; stroke-linecap:round; stroke-linejoin:round; stroke-width:4; stroke-opacity:1; fill:none" points="1426.75,1423.18 2352.76,1423.18 "/>
<polyline clip-path="url(#clip920)" style="stroke:#000000; stroke-linecap:round; stroke-linejoin:round; stroke-width:4; stroke-opacity:1; fill:none" points="1452.96,1423.18 1452.96,1404.28 "/>
<polyline clip-path="url(#clip920)" style="stroke:#000000; stroke-linecap:round; stroke-linejoin:round; stroke-width:4; stroke-opacity:1; fill:none" points="1699.04,1423.18 1699.04,1404.28 "/>
<polyline clip-path="url(#clip920)" style="stroke:#000000; stroke-linecap:round; stroke-linejoin:round; stroke-width:4; stroke-opacity:1; fill:none" points="1945.12,1423.18 1945.12,1404.28 "/>
<polyline clip-path="url(#clip920)" style="stroke:#000000; stroke-linecap:round; stroke-linejoin:round; stroke-width:4; stroke-opacity:1; fill:none" points="2191.2,1423.18 2191.2,1404.28 "/>
<path clip-path="url(#clip920)" d="M1452.96 1454.1 Q1449.35 1454.1 1447.52 1457.66 Q1445.72 1461.2 1445.72 1468.33 Q1445.72 1475.44 1447.52 1479.01 Q1449.35 1482.55 1452.96 1482.55 Q1456.59 1482.55 1458.4 1479.01 Q1460.23 1475.44 1460.23 1468.33 Q1460.23 1461.2 1458.4 1457.66 Q1456.59 1454.1 1452.96 1454.1 M1452.96 1450.39 Q1458.77 1450.39 1461.83 1455 Q1464.9 1459.58 1464.9 1468.33 Q1464.9 1477.06 1461.83 1481.67 Q1458.77 1486.25 1452.96 1486.25 Q1447.15 1486.25 1444.07 1481.67 Q1441.02 1477.06 1441.02 1468.33 Q1441.02 1459.58 1444.07 1455 Q1447.15 1450.39 1452.96 1450.39 Z" fill="#000000" fill-rule="nonzero" fill-opacity="1" /><path clip-path="url(#clip920)" d="M1677.81 1481.64 L1694.13 1481.64 L1694.13 1485.58 L1672.19 1485.58 L1672.19 1481.64 Q1674.85 1478.89 1679.44 1474.26 Q1684.04 1469.61 1685.22 1468.27 Q1687.47 1465.74 1688.35 1464.01 Q1689.25 1462.25 1689.25 1460.56 Q1689.25 1457.8 1687.31 1456.07 Q1685.38 1454.33 1682.28 1454.33 Q1680.08 1454.33 1677.63 1455.09 Q1675.2 1455.86 1672.42 1457.41 L1672.42 1452.69 Q1675.25 1451.55 1677.7 1450.97 Q1680.15 1450.39 1682.19 1450.39 Q1687.56 1450.39 1690.75 1453.08 Q1693.95 1455.77 1693.95 1460.26 Q1693.95 1462.39 1693.14 1464.31 Q1692.35 1466.2 1690.25 1468.8 Q1689.67 1469.47 1686.56 1472.69 Q1683.46 1475.88 1677.81 1481.64 Z" fill="#000000" fill-rule="nonzero" fill-opacity="1" /><path clip-path="url(#clip920)" d="M1713.95 1454.1 Q1710.34 1454.1 1708.51 1457.66 Q1706.7 1461.2 1706.7 1468.33 Q1706.7 1475.44 1708.51 1479.01 Q1710.34 1482.55 1713.95 1482.55 Q1717.58 1482.55 1719.39 1479.01 Q1721.22 1475.44 1721.22 1468.33 Q1721.22 1461.2 1719.39 1457.66 Q1717.58 1454.1 1713.95 1454.1 M1713.95 1450.39 Q1719.76 1450.39 1722.81 1455 Q1725.89 1459.58 1725.89 1468.33 Q1725.89 1477.06 1722.81 1481.67 Q1719.76 1486.25 1713.95 1486.25 Q1708.14 1486.25 1705.06 1481.67 Q1702 1477.06 1702 1468.33 Q1702 1459.58 1705.06 1455 Q1708.14 1450.39 1713.95 1450.39 Z" fill="#000000" fill-rule="nonzero" fill-opacity="1" /><path clip-path="url(#clip920)" d="M1933.29 1455.09 L1921.49 1473.54 L1933.29 1473.54 L1933.29 1455.09 M1932.07 1451.02 L1937.95 1451.02 L1937.95 1473.54 L1942.88 1473.54 L1942.88 1477.43 L1937.95 1477.43 L1937.95 1485.58 L1933.29 1485.58 L1933.29 1477.43 L1917.69 1477.43 L1917.69 1472.92 L1932.07 1451.02 Z" fill="#000000" fill-rule="nonzero" fill-opacity="1" /><path clip-path="url(#clip920)" d="M1960.61 1454.1 Q1957 1454.1 1955.17 1457.66 Q1953.36 1461.2 1953.36 1468.33 Q1953.36 1475.44 1955.17 1479.01 Q1957 1482.55 1960.61 1482.55 Q1964.24 1482.55 1966.05 1479.01 Q1967.88 1475.44 1967.88 1468.33 Q1967.88 1461.2 1966.05 1457.66 Q1964.24 1454.1 1960.61 1454.1 M1960.61 1450.39 Q1966.42 1450.39 1969.47 1455 Q1972.55 1459.58 1972.55 1468.33 Q1972.55 1477.06 1969.47 1481.67 Q1966.42 1486.25 1960.61 1486.25 Q1954.8 1486.25 1951.72 1481.67 Q1948.66 1477.06 1948.66 1468.33 Q1948.66 1459.58 1951.72 1455 Q1954.8 1450.39 1960.61 1450.39 Z" fill="#000000" fill-rule="nonzero" fill-opacity="1" /><path clip-path="url(#clip920)" d="M2176.61 1466.44 Q2173.46 1466.44 2171.61 1468.59 Q2169.78 1470.74 2169.78 1474.49 Q2169.78 1478.22 2171.61 1480.39 Q2173.46 1482.55 2176.61 1482.55 Q2179.76 1482.55 2181.59 1480.39 Q2183.44 1478.22 2183.44 1474.49 Q2183.44 1470.74 2181.59 1468.59 Q2179.76 1466.44 2176.61 1466.44 M2185.89 1451.78 L2185.89 1456.04 Q2184.13 1455.21 2182.33 1454.77 Q2180.54 1454.33 2178.78 1454.33 Q2174.16 1454.33 2171.7 1457.45 Q2169.27 1460.58 2168.92 1466.9 Q2170.29 1464.89 2172.35 1463.82 Q2174.41 1462.73 2176.89 1462.73 Q2182.09 1462.73 2185.1 1465.9 Q2188.14 1469.05 2188.14 1474.49 Q2188.14 1479.82 2184.99 1483.03 Q2181.84 1486.25 2176.61 1486.25 Q2170.61 1486.25 2167.44 1481.67 Q2164.27 1477.06 2164.27 1468.33 Q2164.27 1460.14 2168.16 1455.28 Q2172.05 1450.39 2178.6 1450.39 Q2180.36 1450.39 2182.14 1450.74 Q2183.95 1451.09 2185.89 1451.78 Z" fill="#000000" fill-rule="nonzero" fill-opacity="1" /><path clip-path="url(#clip920)" d="M2206.19 1454.1 Q2202.58 1454.1 2200.75 1457.66 Q2198.95 1461.2 2198.95 1468.33 Q2198.95 1475.44 2200.75 1479.01 Q2202.58 1482.55 2206.19 1482.55 Q2209.83 1482.55 2211.63 1479.01 Q2213.46 1475.44 2213.46 1468.33 Q2213.46 1461.2 2211.63 1457.66 Q2209.83 1454.1 2206.19 1454.1 M2206.19 1450.39 Q2212 1450.39 2215.06 1455 Q2218.14 1459.58 2218.14 1468.33 Q2218.14 1477.06 2215.06 1481.67 Q2212 1486.25 2206.19 1486.25 Q2200.38 1486.25 2197.3 1481.67 Q2194.25 1477.06 2194.25 1468.33 Q2194.25 1459.58 2197.3 1455 Q2200.38 1450.39 2206.19 1450.39 Z" fill="#000000" fill-rule="nonzero" fill-opacity="1" /><path clip-path="url(#clip920)" d="M1730.82 1520.52 L1771.02 1520.52 L1771.02 1525.93 L1754.15 1525.93 L1754.15 1568.04 L1747.69 1568.04 L1747.69 1525.93 L1730.82 1525.93 L1730.82 1520.52 Z" fill="#000000" fill-rule="nonzero" fill-opacity="1" /><path clip-path="url(#clip920)" d="M1774.96 1532.4 L1780.82 1532.4 L1780.82 1568.04 L1774.96 1568.04 L1774.96 1532.4 M1774.96 1518.52 L1780.82 1518.52 L1780.82 1525.93 L1774.96 1525.93 L1774.96 1518.52 Z" fill="#000000" fill-rule="nonzero" fill-opacity="1" /><path clip-path="url(#clip920)" d="M1820.83 1539.24 Q1823.03 1535.29 1826.08 1533.41 Q1829.14 1531.54 1833.27 1531.54 Q1838.84 1531.54 1841.87 1535.45 Q1844.89 1539.33 1844.89 1546.53 L1844.89 1568.04 L1839 1568.04 L1839 1546.72 Q1839 1541.59 1837.19 1539.11 Q1835.38 1536.63 1831.65 1536.63 Q1827.1 1536.63 1824.46 1539.65 Q1821.82 1542.68 1821.82 1547.9 L1821.82 1568.04 L1815.93 1568.04 L1815.93 1546.72 Q1815.93 1541.56 1814.11 1539.11 Q1812.3 1536.63 1808.51 1536.63 Q1804.02 1536.63 1801.38 1539.68 Q1798.74 1542.71 1798.74 1547.9 L1798.74 1568.04 L1792.85 1568.04 L1792.85 1532.4 L1798.74 1532.4 L1798.74 1537.93 Q1800.75 1534.66 1803.55 1533.1 Q1806.35 1531.54 1810.2 1531.54 Q1814.08 1531.54 1816.79 1533.51 Q1819.52 1535.48 1820.83 1539.24 Z" fill="#000000" fill-rule="nonzero" fill-opacity="1" /><path clip-path="url(#clip920)" d="M1887.06 1548.76 L1887.06 1551.62 L1860.14 1551.62 Q1860.52 1557.67 1863.77 1560.85 Q1867.04 1564 1872.87 1564 Q1876.24 1564 1879.39 1563.17 Q1882.58 1562.35 1885.7 1560.69 L1885.7 1566.23 Q1882.55 1567.57 1879.24 1568.27 Q1875.92 1568.97 1872.52 1568.97 Q1863.99 1568.97 1858.99 1564 Q1854.03 1559.04 1854.03 1550.57 Q1854.03 1541.82 1858.74 1536.69 Q1863.48 1531.54 1871.5 1531.54 Q1878.69 1531.54 1882.86 1536.18 Q1887.06 1540.8 1887.06 1548.76 M1881.21 1547.04 Q1881.14 1542.23 1878.5 1539.37 Q1875.89 1536.5 1871.56 1536.5 Q1866.66 1536.5 1863.7 1539.27 Q1860.77 1542.04 1860.33 1547.07 L1881.21 1547.04 Z" fill="#000000" fill-rule="nonzero" fill-opacity="1" /><path clip-path="url(#clip920)" d="M1940.12 1533.45 L1940.12 1538.98 Q1937.64 1537.71 1934.97 1537.07 Q1932.29 1536.44 1929.43 1536.44 Q1925.07 1536.44 1922.87 1537.77 Q1920.71 1539.11 1920.71 1541.79 Q1920.71 1543.82 1922.27 1545 Q1923.83 1546.15 1928.54 1547.2 L1930.54 1547.64 Q1936.78 1548.98 1939.39 1551.43 Q1942.03 1553.85 1942.03 1558.21 Q1942.03 1563.17 1938.09 1566.07 Q1934.17 1568.97 1927.3 1568.97 Q1924.43 1568.97 1921.31 1568.39 Q1918.22 1567.85 1914.79 1566.74 L1914.79 1560.69 Q1918.03 1562.38 1921.19 1563.24 Q1924.34 1564.07 1927.42 1564.07 Q1931.56 1564.07 1933.79 1562.66 Q1936.02 1561.23 1936.02 1558.65 Q1936.02 1556.27 1934.39 1554.99 Q1932.8 1553.72 1927.36 1552.54 L1925.32 1552.07 Q1919.88 1550.92 1917.46 1548.56 Q1915.04 1546.18 1915.04 1542.04 Q1915.04 1537.01 1918.61 1534.27 Q1922.17 1531.54 1928.73 1531.54 Q1931.97 1531.54 1934.84 1532.01 Q1937.7 1532.49 1940.12 1533.45 Z" fill="#000000" fill-rule="nonzero" fill-opacity="1" /><path clip-path="url(#clip920)" d="M1957.15 1522.27 L1957.15 1532.4 L1969.21 1532.4 L1969.21 1536.95 L1957.15 1536.95 L1957.15 1556.3 Q1957.15 1560.66 1958.33 1561.9 Q1959.54 1563.14 1963.2 1563.14 L1969.21 1563.14 L1969.21 1568.04 L1963.2 1568.04 Q1956.42 1568.04 1953.84 1565.53 Q1951.26 1562.98 1951.26 1556.3 L1951.26 1536.95 L1946.97 1536.95 L1946.97 1532.4 L1951.26 1532.4 L1951.26 1522.27 L1957.15 1522.27 Z" fill="#000000" fill-rule="nonzero" fill-opacity="1" /><path clip-path="url(#clip920)" d="M2007.41 1548.76 L2007.41 1551.62 L1980.48 1551.62 Q1980.86 1557.67 1984.11 1560.85 Q1987.39 1564 1993.21 1564 Q1996.59 1564 1999.74 1563.17 Q2002.92 1562.35 2006.04 1560.69 L2006.04 1566.23 Q2002.89 1567.57 1999.58 1568.27 Q1996.27 1568.97 1992.86 1568.97 Q1984.33 1568.97 1979.34 1564 Q1974.37 1559.04 1974.37 1550.57 Q1974.37 1541.82 1979.08 1536.69 Q1983.82 1531.54 1991.84 1531.54 Q1999.04 1531.54 2003.21 1536.18 Q2007.41 1540.8 2007.41 1548.76 M2001.55 1547.04 Q2001.49 1542.23 1998.85 1539.37 Q1996.24 1536.5 1991.91 1536.5 Q1987.01 1536.5 1984.05 1539.27 Q1981.12 1542.04 1980.67 1547.07 L2001.55 1547.04 Z" fill="#000000" fill-rule="nonzero" fill-opacity="1" /><path clip-path="url(#clip920)" d="M2022.69 1562.7 L2022.69 1581.6 L2016.8 1581.6 L2016.8 1532.4 L2022.69 1532.4 L2022.69 1537.81 Q2024.53 1534.62 2027.33 1533.1 Q2030.17 1531.54 2034.08 1531.54 Q2040.57 1531.54 2044.62 1536.69 Q2048.69 1541.85 2048.69 1550.25 Q2048.69 1558.65 2044.62 1563.81 Q2040.57 1568.97 2034.08 1568.97 Q2030.17 1568.97 2027.33 1567.44 Q2024.53 1565.88 2022.69 1562.7 M2042.61 1550.25 Q2042.61 1543.79 2039.94 1540.13 Q2037.3 1536.44 2032.65 1536.44 Q2028 1536.44 2025.33 1540.13 Q2022.69 1543.79 2022.69 1550.25 Q2022.69 1556.71 2025.33 1560.4 Q2028 1564.07 2032.65 1564.07 Q2037.3 1564.07 2039.94 1560.4 Q2042.61 1556.71 2042.61 1550.25 Z" fill="#000000" fill-rule="nonzero" fill-opacity="1" /><polyline clip-path="url(#clip920)" style="stroke:#000000; stroke-linecap:round; stroke-linejoin:round; stroke-width:4; stroke-opacity:1; fill:none" points="1426.75,1423.18 1426.75,47.2441 "/>
<polyline clip-path="url(#clip920)" style="stroke:#000000; stroke-linecap:round; stroke-linejoin:round; stroke-width:4; stroke-opacity:1; fill:none" points="1426.75,1384.24 1445.65,1384.24 "/>
<polyline clip-path="url(#clip920)" style="stroke:#000000; stroke-linecap:round; stroke-linejoin:round; stroke-width:4; stroke-opacity:1; fill:none" points="1426.75,1059.73 1445.65,1059.73 "/>
<polyline clip-path="url(#clip920)" style="stroke:#000000; stroke-linecap:round; stroke-linejoin:round; stroke-width:4; stroke-opacity:1; fill:none" points="1426.75,735.212 1445.65,735.212 "/>
<polyline clip-path="url(#clip920)" style="stroke:#000000; stroke-linecap:round; stroke-linejoin:round; stroke-width:4; stroke-opacity:1; fill:none" points="1426.75,410.699 1445.65,410.699 "/>
<polyline clip-path="url(#clip920)" style="stroke:#000000; stroke-linecap:round; stroke-linejoin:round; stroke-width:4; stroke-opacity:1; fill:none" points="1426.75,86.1857 1445.65,86.1857 "/>
<path clip-path="url(#clip920)" d="M1303.42 1370.04 Q1299.8 1370.04 1297.98 1373.6 Q1296.17 1377.14 1296.17 1384.27 Q1296.17 1391.38 1297.98 1394.94 Q1299.8 1398.49 1303.42 1398.49 Q1307.05 1398.49 1308.86 1394.94 Q1310.68 1391.38 1310.68 1384.27 Q1310.68 1377.14 1308.86 1373.6 Q1307.05 1370.04 1303.42 1370.04 M1303.42 1366.33 Q1309.23 1366.33 1312.28 1370.94 Q1315.36 1375.52 1315.36 1384.27 Q1315.36 1393 1312.28 1397.61 Q1309.23 1402.19 1303.42 1402.19 Q1297.61 1402.19 1294.53 1397.61 Q1291.47 1393 1291.47 1384.27 Q1291.47 1375.52 1294.53 1370.94 Q1297.61 1366.33 1303.42 1366.33 Z" fill="#000000" fill-rule="nonzero" fill-opacity="1" /><path clip-path="url(#clip920)" d="M1323.58 1395.64 L1328.46 1395.64 L1328.46 1401.52 L1323.58 1401.52 L1323.58 1395.64 Z" fill="#000000" fill-rule="nonzero" fill-opacity="1" /><path clip-path="url(#clip920)" d="M1348.65 1370.04 Q1345.04 1370.04 1343.21 1373.6 Q1341.4 1377.14 1341.4 1384.27 Q1341.4 1391.38 1343.21 1394.94 Q1345.04 1398.49 1348.65 1398.49 Q1352.28 1398.49 1354.09 1394.94 Q1355.92 1391.38 1355.92 1384.27 Q1355.92 1377.14 1354.09 1373.6 Q1352.28 1370.04 1348.65 1370.04 M1348.65 1366.33 Q1354.46 1366.33 1357.51 1370.94 Q1360.59 1375.52 1360.59 1384.27 Q1360.59 1393 1357.51 1397.61 Q1354.46 1402.19 1348.65 1402.19 Q1342.84 1402.19 1339.76 1397.61 Q1336.7 1393 1336.7 1384.27 Q1336.7 1375.52 1339.76 1370.94 Q1342.84 1366.33 1348.65 1366.33 Z" fill="#000000" fill-rule="nonzero" fill-opacity="1" /><path clip-path="url(#clip920)" d="M1378.81 1370.04 Q1375.2 1370.04 1373.37 1373.6 Q1371.56 1377.14 1371.56 1384.27 Q1371.56 1391.38 1373.37 1394.94 Q1375.2 1398.49 1378.81 1398.49 Q1382.44 1398.49 1384.25 1394.94 Q1386.08 1391.38 1386.08 1384.27 Q1386.08 1377.14 1384.25 1373.6 Q1382.44 1370.04 1378.81 1370.04 M1378.81 1366.33 Q1384.62 1366.33 1387.67 1370.94 Q1390.75 1375.52 1390.75 1384.27 Q1390.75 1393 1387.67 1397.61 Q1384.62 1402.19 1378.81 1402.19 Q1373 1402.19 1369.92 1397.61 Q1366.86 1393 1366.86 1384.27 Q1366.86 1375.52 1369.92 1370.94 Q1373 1366.33 1378.81 1366.33 Z" fill="#000000" fill-rule="nonzero" fill-opacity="1" /><path clip-path="url(#clip920)" d="M1304.41 1045.52 Q1300.8 1045.52 1298.97 1049.09 Q1297.17 1052.63 1297.17 1059.76 Q1297.17 1066.87 1298.97 1070.43 Q1300.8 1073.97 1304.41 1073.97 Q1308.04 1073.97 1309.85 1070.43 Q1311.68 1066.87 1311.68 1059.76 Q1311.68 1052.63 1309.85 1049.09 Q1308.04 1045.52 1304.41 1045.52 M1304.41 1041.82 Q1310.22 1041.82 1313.28 1046.43 Q1316.36 1051.01 1316.36 1059.76 Q1316.36 1068.49 1313.28 1073.09 Q1310.22 1077.68 1304.41 1077.68 Q1298.6 1077.68 1295.52 1073.09 Q1292.47 1068.49 1292.47 1059.76 Q1292.47 1051.01 1295.52 1046.43 Q1298.6 1041.82 1304.41 1041.82 Z" fill="#000000" fill-rule="nonzero" fill-opacity="1" /><path clip-path="url(#clip920)" d="M1324.57 1071.13 L1329.46 1071.13 L1329.46 1077.01 L1324.57 1077.01 L1324.57 1071.13 Z" fill="#000000" fill-rule="nonzero" fill-opacity="1" /><path clip-path="url(#clip920)" d="M1343.67 1073.07 L1359.99 1073.07 L1359.99 1077.01 L1338.04 1077.01 L1338.04 1073.07 Q1340.71 1070.32 1345.29 1065.69 Q1349.9 1061.03 1351.08 1059.69 Q1353.32 1057.17 1354.2 1055.43 Q1355.1 1053.67 1355.1 1051.98 Q1355.1 1049.23 1353.16 1047.49 Q1351.24 1045.76 1348.14 1045.76 Q1345.94 1045.76 1343.48 1046.52 Q1341.05 1047.28 1338.28 1048.83 L1338.28 1044.11 Q1341.1 1042.98 1343.55 1042.4 Q1346.01 1041.82 1348.04 1041.82 Q1353.42 1041.82 1356.61 1044.51 Q1359.8 1047.19 1359.8 1051.68 Q1359.8 1053.81 1358.99 1055.73 Q1358.21 1057.63 1356.1 1060.22 Q1355.52 1060.89 1352.42 1064.11 Q1349.32 1067.31 1343.67 1073.07 Z" fill="#000000" fill-rule="nonzero" fill-opacity="1" /><path clip-path="url(#clip920)" d="M1369.85 1042.45 L1388.21 1042.45 L1388.21 1046.38 L1374.13 1046.38 L1374.13 1054.85 Q1375.15 1054.51 1376.17 1054.34 Q1377.19 1054.16 1378.21 1054.16 Q1383.99 1054.16 1387.37 1057.33 Q1390.75 1060.5 1390.75 1065.92 Q1390.75 1071.5 1387.28 1074.6 Q1383.81 1077.68 1377.49 1077.68 Q1375.31 1077.68 1373.04 1077.31 Q1370.8 1076.94 1368.39 1076.19 L1368.39 1071.5 Q1370.48 1072.63 1372.7 1073.19 Q1374.92 1073.74 1377.4 1073.74 Q1381.4 1073.74 1383.74 1071.63 Q1386.08 1069.53 1386.08 1065.92 Q1386.08 1062.31 1383.74 1060.2 Q1381.4 1058.09 1377.4 1058.09 Q1375.52 1058.09 1373.65 1058.51 Q1371.79 1058.93 1369.85 1059.81 L1369.85 1042.45 Z" fill="#000000" fill-rule="nonzero" fill-opacity="1" /><path clip-path="url(#clip920)" d="M1303.42 721.011 Q1299.8 721.011 1297.98 724.575 Q1296.17 728.117 1296.17 735.247 Q1296.17 742.353 1297.98 745.918 Q1299.8 749.46 1303.42 749.46 Q1307.05 749.46 1308.86 745.918 Q1310.68 742.353 1310.68 735.247 Q1310.68 728.117 1308.86 724.575 Q1307.05 721.011 1303.42 721.011 M1303.42 717.307 Q1309.23 717.307 1312.28 721.913 Q1315.36 726.497 1315.36 735.247 Q1315.36 743.973 1312.28 748.58 Q1309.23 753.163 1303.42 753.163 Q1297.61 753.163 1294.53 748.58 Q1291.47 743.973 1291.47 735.247 Q1291.47 726.497 1294.53 721.913 Q1297.61 717.307 1303.42 717.307 Z" fill="#000000" fill-rule="nonzero" fill-opacity="1" /><path clip-path="url(#clip920)" d="M1323.58 746.612 L1328.46 746.612 L1328.46 752.492 L1323.58 752.492 L1323.58 746.612 Z" fill="#000000" fill-rule="nonzero" fill-opacity="1" /><path clip-path="url(#clip920)" d="M1338.69 717.932 L1357.05 717.932 L1357.05 721.867 L1342.98 721.867 L1342.98 730.339 Q1343.99 729.992 1345.01 729.83 Q1346.03 729.645 1347.05 729.645 Q1352.84 729.645 1356.22 732.816 Q1359.6 735.987 1359.6 741.404 Q1359.6 746.983 1356.12 750.085 Q1352.65 753.163 1346.33 753.163 Q1344.16 753.163 1341.89 752.793 Q1339.64 752.423 1337.23 751.682 L1337.23 746.983 Q1339.32 748.117 1341.54 748.673 Q1343.76 749.228 1346.24 749.228 Q1350.24 749.228 1352.58 747.122 Q1354.92 745.015 1354.92 741.404 Q1354.92 737.793 1352.58 735.687 Q1350.24 733.58 1346.24 733.58 Q1344.36 733.58 1342.49 733.997 Q1340.64 734.413 1338.69 735.293 L1338.69 717.932 Z" fill="#000000" fill-rule="nonzero" fill-opacity="1" /><path clip-path="url(#clip920)" d="M1378.81 721.011 Q1375.2 721.011 1373.37 724.575 Q1371.56 728.117 1371.56 735.247 Q1371.56 742.353 1373.37 745.918 Q1375.2 749.46 1378.81 749.46 Q1382.44 749.46 1384.25 745.918 Q1386.08 742.353 1386.08 735.247 Q1386.08 728.117 1384.25 724.575 Q1382.44 721.011 1378.81 721.011 M1378.81 717.307 Q1384.62 717.307 1387.67 721.913 Q1390.75 726.497 1390.75 735.247 Q1390.75 743.973 1387.67 748.58 Q1384.62 753.163 1378.81 753.163 Q1373 753.163 1369.92 748.58 Q1366.86 743.973 1366.86 735.247 Q1366.86 726.497 1369.92 721.913 Q1373 717.307 1378.81 717.307 Z" fill="#000000" fill-rule="nonzero" fill-opacity="1" /><path clip-path="url(#clip920)" d="M1304.41 396.498 Q1300.8 396.498 1298.97 400.062 Q1297.17 403.604 1297.17 410.734 Q1297.17 417.84 1298.97 421.405 Q1300.8 424.946 1304.41 424.946 Q1308.04 424.946 1309.85 421.405 Q1311.68 417.84 1311.68 410.734 Q1311.68 403.604 1309.85 400.062 Q1308.04 396.498 1304.41 396.498 M1304.41 392.794 Q1310.22 392.794 1313.28 397.4 Q1316.36 401.984 1316.36 410.734 Q1316.36 419.46 1313.28 424.067 Q1310.22 428.65 1304.41 428.65 Q1298.6 428.65 1295.52 424.067 Q1292.47 419.46 1292.47 410.734 Q1292.47 401.984 1295.52 397.4 Q1298.6 392.794 1304.41 392.794 Z" fill="#000000" fill-rule="nonzero" fill-opacity="1" /><path clip-path="url(#clip920)" d="M1324.57 422.099 L1329.46 422.099 L1329.46 427.979 L1324.57 427.979 L1324.57 422.099 Z" fill="#000000" fill-rule="nonzero" fill-opacity="1" /><path clip-path="url(#clip920)" d="M1338.46 393.419 L1360.68 393.419 L1360.68 395.41 L1348.14 427.979 L1343.25 427.979 L1355.06 397.354 L1338.46 397.354 L1338.46 393.419 Z" fill="#000000" fill-rule="nonzero" fill-opacity="1" /><path clip-path="url(#clip920)" d="M1369.85 393.419 L1388.21 393.419 L1388.21 397.354 L1374.13 397.354 L1374.13 405.826 Q1375.15 405.479 1376.17 405.317 Q1377.19 405.132 1378.21 405.132 Q1383.99 405.132 1387.37 408.303 Q1390.75 411.474 1390.75 416.891 Q1390.75 422.47 1387.28 425.571 Q1383.81 428.65 1377.49 428.65 Q1375.31 428.65 1373.04 428.28 Q1370.8 427.909 1368.39 427.169 L1368.39 422.47 Q1370.48 423.604 1372.7 424.159 Q1374.92 424.715 1377.4 424.715 Q1381.4 424.715 1383.74 422.608 Q1386.08 420.502 1386.08 416.891 Q1386.08 413.28 1383.74 411.173 Q1381.4 409.067 1377.4 409.067 Q1375.52 409.067 1373.65 409.484 Q1371.79 409.9 1369.85 410.78 L1369.85 393.419 Z" fill="#000000" fill-rule="nonzero" fill-opacity="1" /><path clip-path="url(#clip920)" d="M1294.23 99.5305 L1301.86 99.5305 L1301.86 73.1649 L1293.55 74.8316 L1293.55 70.5723 L1301.82 68.9057 L1306.49 68.9057 L1306.49 99.5305 L1314.13 99.5305 L1314.13 103.466 L1294.23 103.466 L1294.23 99.5305 Z" fill="#000000" fill-rule="nonzero" fill-opacity="1" /><path clip-path="url(#clip920)" d="M1323.58 97.5861 L1328.46 97.5861 L1328.46 103.466 L1323.58 103.466 L1323.58 97.5861 Z" fill="#000000" fill-rule="nonzero" fill-opacity="1" /><path clip-path="url(#clip920)" d="M1348.65 71.9844 Q1345.04 71.9844 1343.21 75.5492 Q1341.4 79.0908 1341.4 86.2204 Q1341.4 93.3268 1343.21 96.8916 Q1345.04 100.433 1348.65 100.433 Q1352.28 100.433 1354.09 96.8916 Q1355.92 93.3268 1355.92 86.2204 Q1355.92 79.0908 1354.09 75.5492 Q1352.28 71.9844 1348.65 71.9844 M1348.65 68.2807 Q1354.46 68.2807 1357.51 72.8871 Q1360.59 77.4704 1360.59 86.2204 Q1360.59 94.9472 1357.51 99.5537 Q1354.46 104.137 1348.65 104.137 Q1342.84 104.137 1339.76 99.5537 Q1336.7 94.9472 1336.7 86.2204 Q1336.7 77.4704 1339.76 72.8871 Q1342.84 68.2807 1348.65 68.2807 Z" fill="#000000" fill-rule="nonzero" fill-opacity="1" /><path clip-path="url(#clip920)" d="M1378.81 71.9844 Q1375.2 71.9844 1373.37 75.5492 Q1371.56 79.0908 1371.56 86.2204 Q1371.56 93.3268 1373.37 96.8916 Q1375.2 100.433 1378.81 100.433 Q1382.44 100.433 1384.25 96.8916 Q1386.08 93.3268 1386.08 86.2204 Q1386.08 79.0908 1384.25 75.5492 Q1382.44 71.9844 1378.81 71.9844 M1378.81 68.2807 Q1384.62 68.2807 1387.67 72.8871 Q1390.75 77.4704 1390.75 86.2204 Q1390.75 94.9472 1387.67 99.5537 Q1384.62 104.137 1378.81 104.137 Q1373 104.137 1369.92 99.5537 Q1366.86 94.9472 1366.86 86.2204 Q1366.86 77.4704 1369.92 72.8871 Q1373 68.2807 1378.81 68.2807 Z" fill="#000000" fill-rule="nonzero" fill-opacity="1" /><path clip-path="url(#clip920)" d="M1222.45 736.561 Q1226.61 737.398 1228.99 738.525 Q1232.63 740.361 1232.63 743.421 Q1232.63 745.546 1231.44 747.156 Q1230.22 748.734 1228.19 749.282 Q1228.99 749.894 1229.54 750.441 Q1230.09 750.957 1230.92 751.955 Q1231.73 752.953 1232.18 754.306 Q1232.63 755.627 1232.63 757.14 Q1232.63 758.3 1232.41 759.362 Q1232.21 760.425 1231.67 761.552 Q1231.09 762.647 1230.22 763.453 Q1229.35 764.226 1227.93 764.741 Q1226.51 765.256 1224.71 765.256 Q1222.45 765.256 1219.4 764.387 Q1216.34 763.485 1210.86 761.424 Q1207.96 760.296 1206.35 760.296 Q1205.61 760.296 1205.13 760.457 Q1204.64 760.618 1204.48 760.941 Q1204.29 761.23 1204.26 761.424 Q1204.19 761.617 1204.19 761.939 Q1204.19 763.936 1206.22 765.675 Q1208.25 767.414 1212.37 768.606 Q1213.18 768.863 1213.37 769.024 Q1213.57 769.185 1213.57 769.668 Q1213.53 770.473 1212.89 770.473 Q1212.63 770.473 1211.63 770.184 Q1210.6 769.894 1209.09 769.217 Q1207.54 768.509 1206.16 767.543 Q1204.74 766.577 1203.74 765.063 Q1202.74 763.517 1202.74 761.746 Q1202.74 759.33 1204.32 757.849 Q1205.87 756.335 1208.16 756.335 Q1209.57 756.335 1212.31 757.462 Q1221.81 761.037 1225.77 761.037 Q1231.15 761.037 1231.15 756.947 Q1231.15 755.594 1230.6 754.338 Q1230.06 753.05 1229.28 752.213 Q1228.51 751.375 1227.67 750.731 Q1226.83 750.055 1226.29 749.765 Q1225.74 749.443 1225.61 749.411 L1205.77 744.483 Q1205 744.29 1204.48 743.936 Q1203.94 743.549 1203.74 743.098 Q1203.55 742.648 1203.52 742.39 Q1203.45 742.132 1203.45 741.907 Q1203.45 741.102 1203.94 740.554 Q1204.42 739.975 1205.26 739.975 Q1205.42 739.975 1206.19 740.168 Q1206.93 740.329 1208.03 740.586 Q1209.09 740.844 1209.67 740.973 Q1213.73 742.003 1214.15 742.1 L1221.26 743.936 Q1221.68 744.032 1223.03 744.354 Q1224.39 744.644 1225.1 744.805 Q1225.77 744.966 1226.71 745.127 Q1227.61 745.256 1228.12 745.256 Q1229.73 745.256 1230.44 744.773 Q1231.15 744.29 1231.15 743.227 Q1231.15 742.229 1230.47 741.456 Q1229.77 740.651 1228.41 740.039 Q1227.03 739.427 1225.9 739.073 Q1224.77 738.718 1223 738.268 Q1222.23 738.107 1222.04 737.978 Q1221.81 737.817 1221.81 737.366 Q1221.81 736.561 1222.45 736.561 Z" fill="#000000" fill-rule="nonzero" fill-opacity="1" /><path clip-path="url(#clip920)" d="M1224.55 729.855 L1223.11 729.855 Q1223.11 724.309 1220.15 721.446 Q1220.15 720.657 1220.33 720.522 Q1220.51 720.387 1221.35 720.387 L1247.25 720.387 Q1248.62 720.387 1249.05 719.71 Q1249.48 719.034 1249.48 716.081 L1249.48 714.616 L1250.9 714.616 Q1250.77 716.239 1250.77 722.1 Q1250.77 727.962 1250.9 729.562 L1249.48 729.562 L1249.48 728.097 Q1249.48 725.189 1249.08 724.49 Q1248.65 723.791 1247.25 723.791 L1223.33 723.791 Q1224.55 726.203 1224.55 729.855 Z" fill="#000000" fill-rule="nonzero" fill-opacity="1" /><polyline clip-path="url(#clip921)" style="stroke:#000000; stroke-linecap:round; stroke-linejoin:round; stroke-width:3.2; stroke-opacity:1; fill:none" stroke-dasharray="13, 8" points="1452.96,1384.24 2326.55,1384.24 "/>
<polyline clip-path="url(#clip921)" style="stroke:#000000; stroke-linecap:round; stroke-linejoin:round; stroke-width:3.2; stroke-opacity:1; fill:none" stroke-dasharray="13, 8" points="1452.96,86.1857 2326.55,86.1857 "/>
<polyline clip-path="url(#clip921)" style="stroke:#009af9; stroke-linecap:round; stroke-linejoin:round; stroke-width:4; stroke-opacity:1; fill:none" points="1452.96,513.623 1465.26,513.623 1465.26,708.499 1477.57,708.499 1477.57,937.096 1489.87,937.096 1489.87,980.07 1502.18,980.07 1502.18,1007.51 1514.48,1007.51 1514.48,948.289 1526.78,948.289 1526.78,1205.82 1539.09,1205.82 1539.09,1344.06 1551.39,1344.06 1551.39,1052.41 1563.7,1052.41 1563.7,998.498 1576,998.498 1576,1032.26 1588.31,1032.26 1588.31,1011.7 1600.61,1011.7 1600.61,1022.58 1612.91,1022.58 1612.91,1012.79 1625.22,1012.79 1625.22,1102.6 1637.52,1102.6 1637.52,886.264 1649.83,886.264 1649.83,1225.56 1662.13,1225.56 1662.13,1262.14 1674.43,1262.14 1674.43,1119.52 1686.74,1119.52 1686.74,935.151 1699.04,935.151 1699.04,953.855 1711.35,953.855 1711.35,1021.69 1723.65,1021.69 1723.65,959.701 1735.95,959.701 1735.95,1120.3 1748.26,1120.3 1748.26,942.752 1760.56,942.752 1760.56,1003.07 1772.87,1003.07 1772.87,975.609 1785.17,975.609 1785.17,1002.35 1797.47,1002.35 1797.47,880.621 1809.78,880.621 1809.78,1097.38 1822.08,1097.38 1822.08,1106.57 1834.39,1106.57 1834.39,1384.24 1846.69,1384.24 1846.69,1114.83 1858.99,1114.83 1858.99,972.302 1871.3,972.302 1871.3,1123.44 1883.6,1123.44 1883.6,946.625 1895.91,946.625 1895.91,1039.65 1908.21,1039.65 1908.21,915.366 1920.51,915.366 1920.51,993.554 1932.82,993.554 1932.82,1116.69 1945.12,1116.69 1945.12,1358.96 1957.43,1358.96 1957.43,1101.09 1969.73,1101.09 1969.73,1045.51 1982.03,1045.51 1982.03,894.476 1994.34,894.476 1994.34,1027.02 2006.64,1027.02 2006.64,1053.15 2018.95,1053.15 2018.95,866.349 2031.25,866.349 2031.25,1147.9 2043.56,1147.9 2043.56,1055.81 2055.86,1055.81 2055.86,986.459 2068.16,986.459 2068.16,929.224 2080.47,929.224 2080.47,913.313 2092.77,913.313 2092.77,922.955 2105.08,922.955 2105.08,1171.88 2117.38,1171.88 2117.38,1258.62 2129.68,1258.62 2129.68,1234.57 2141.99,1234.57 2141.99,927.205 2154.29,927.205 2154.29,1026.94 2166.6,1026.94 2166.6,1088.14 2178.9,1088.14 2178.9,1094.67 2191.2,1094.67 2191.2,1030.04 2203.51,1030.04 2203.51,987.452 2215.81,987.452 2215.81,1046.61 2228.12,1046.61 2228.12,965.986 2240.42,965.986 2240.42,1169.69 2252.72,1169.69 2252.72,1216.18 2265.03,1216.18 2265.03,1224.72 2277.33,1224.72 2277.33,860.078 2289.64,860.078 2289.64,1051.17 2301.94,1051.17 2301.94,889.821 2314.24,889.821 2314.24,1033.48 2326.55,1033.48 2326.55,1041.18 "/>
</svg>
